<svg xmlns="http://www.w3.org/2000/svg" viewBox="0 0 19.34 19.36"><defs><style>.cls-1{fill:#4e4e56;fill-rule:evenodd;}</style></defs><title>insta</title><g id="Layer_2" data-name="Layer 2"><g id="Layer_1-2" data-name="Layer 1"><path class="cls-1" d="M4.15.27s0-.15.15-.16C7-.08,10.64,0,13.57.11c.52,0,1.12-.07,1.57,0,0,0,0,.15.16.16a2.2,2.2,0,0,1,.63.16,3,3,0,0,1,.63.16c.11.05.23.26.31.31s.27,0,.31,0c.23.28.77.81,1.1,1.26.07.09.27.23.32.31s0,.28,0,.32a1.12,1.12,0,0,1,.31.47c0,.06,0,.28,0,.31.2.16.08.32.15.63,0,.13.14.16.16.31a53.62,53.62,0,0,1,0,6.6,22.53,22.53,0,0,1-.16,4.24,2.87,2.87,0,0,1-.31,1.09,3.92,3.92,0,0,1-.15.48c-.16.13-.18.32-.32.47s-.26.09-.31.16.05.27,0,.31a5.44,5.44,0,0,1-.78.47c-.08,0,0,.15-.16.16,0,0-.13,0-.16,0-.22.14-.35.42-.47.47s-.54.1-.79.16a35.19,35.19,0,0,1-6,.16c-1.84,0-4.46.27-6.12-.16a5,5,0,0,1-1.1-.47c-.11-.07-.22-.24-.32-.31a8.5,8.5,0,0,1-.78-.47c-.11-.11-.06-.37-.16-.47s-.28-.1-.32-.16-.21-.54-.32-.79c0,0-.13-.6-.15-.63a4,4,0,0,1-.31-1.73c-.14-2.18,0-5.25,0-7.54A12.75,12.75,0,0,1,.23,3.89c.08-.38.3-.67.31-.94A2.36,2.36,0,0,1,1,2.16a4.59,4.59,0,0,1,.78-.78C1.91,1.26,2,1,2.11.9s.42,0,.63-.16,0-.15.16-.16.53-.22.95-.31C3.93.25,4.05.29,4.15.27ZM17,3.57s0-.26,0-.31-.24-.22-.31-.31-.6-.61-.63-.63-.42,0-.78-.16c0,0,0-.14,0-.16s-.41,0-.47,0-.14-.16-.15-.16c-1-.15-2.91,0-4.87,0A33.15,33.15,0,0,0,4.3,2a2.78,2.78,0,0,0-2,1.57,1.59,1.59,0,0,0-.16.32C2.1,4,2,4,2,4c-.18.75.13,1.67,0,2.52,1.93-.3,4.48.48,5.49-.16.1-.06.21-.26.32-.32a5.89,5.89,0,0,1,3-.31c.57.09,1,.63,1.88.79,1.36.23,2.87-.17,4.71,0C17.33,5.72,17.46,3.93,17,3.57ZM2,8.28c.25,2.71-.59,6.8.63,8.16a2.85,2.85,0,0,0,1.1.79c.16,0,.1.13.16.16a12.27,12.27,0,0,0,2.82.16h3c1.48,0,5.3.31,5.81-.32,0,0,.26,0,.31,0s0-.14,0-.16.26,0,.31,0a16.51,16.51,0,0,0,1.1-1.26,5.29,5.29,0,0,0,.16-1.73c.07-2.07-.05-3.67,0-5.81H13.88a5.78,5.78,0,0,1,.15,3.3,1.26,1.26,0,0,1-.15.47,9.83,9.83,0,0,1-.78,1.25,4.64,4.64,0,0,1-4.55,1.26c-.2-.05-.33-.12-.47-.15s-.21,0-.31-.16-.26,0-.32,0-.19-.22-.31-.31a4.75,4.75,0,0,1-1.57-1.88,5.42,5.42,0,0,1,0-3.77Zm6.43.63a2,2,0,0,0-.47.94,1.85,1.85,0,1,0,3.61,0,2.92,2.92,0,0,0-.47-.94c-.22-.21-.54-.37-.62-.47s-.92-.16-.79-.16v.16A1.78,1.78,0,0,0,8.39,8.91Z"/><path class="cls-1" d="M15.53,3.22a3.59,3.59,0,0,1,0,2h-2v-2A3.46,3.46,0,0,1,15.53,3.22Z"/></g></g></svg>