<svg xmlns="http://www.w3.org/2000/svg" viewBox="0 0 243.8 88.36"><defs><style>.cls-1{fill:#4e4e56;}.cls-2{fill:#fff;}</style></defs><title>logo-footer</title><g id="Layer_2" data-name="Layer 2"><g id="Layer_1-2" data-name="Layer 1"><polygon class="cls-1" points="122.33 6.19 52.18 38.6 192.49 38.6 122.33 6.19"/><path class="cls-2" d="M136.77,35.8c-.33-16.25-14-26-14.15-26.08l-.29-.21-.29.21c-.14.1-13.68,9.87-14,26.08v.07h0v1h28.77C136.78,36.66,136.77,36,136.77,35.8Zm-5.21-14.4,0,.08a33.14,33.14,0,0,1,1.64,3.24l0,.05,0,0a28.27,28.27,0,0,0-2.68,2.79l-.08.1,0-.12a28.78,28.78,0,0,0-1.61-3.49l0,0,0,0a30.86,30.86,0,0,1,2.66-2.55ZM129,17.52l0,.06c.74,1,1.4,1.91,2,2.88l0,.06-.05,0a31.43,31.43,0,0,0-2.65,2.49l-.07.07-.05-.09a33.93,33.93,0,0,0-2-3l0-.05,0,0a31.06,31.06,0,0,1,2.67-2.38ZM120,19.94l0,0,0-.05c.73-.92,1.52-1.81,2.33-2.64l.05-.06.05.06c.79.81,1.57,1.7,2.33,2.65l0,.05,0,0a32.39,32.39,0,0,0-2.32,2.72l-.06.08-.06-.08A32.46,32.46,0,0,0,120,19.94Zm1.73,3.68,0,0a27.25,27.25,0,0,0-2,3.3l-.06.12-.07-.11a26.88,26.88,0,0,0-2.34-3l0,0,0,0a32.5,32.5,0,0,1,2-3l.05-.07.06.07a32.12,32.12,0,0,1,2.33,2.78Zm1.34,0a32.31,32.31,0,0,1,2.33-2.78l.06-.07.05.07a32.29,32.29,0,0,1,2,3l0,0,0,0A27.64,27.64,0,0,0,125.19,27l-.07.11-.06-.12a26.93,26.93,0,0,0-2-3.32l0,0ZM125.91,14l0,0c.8.82,1.58,1.7,2.32,2.61l0,.06-.06,0a30.3,30.3,0,0,0-2.67,2.34l-.06.06-.05-.06c-.74-.92-1.52-1.8-2.32-2.62l-.05-.05.05-.05A30.29,30.29,0,0,1,125.85,14Zm-6.3-.84a33,33,0,0,1,2.67-2.35l0,0,0,0a33.15,33.15,0,0,1,2.75,2.4l.06.06-.07.05a32.32,32.32,0,0,0-2.66,2.33l-.05.05-.05-.05a31.51,31.51,0,0,0-2.73-2.38l-.07-.05Zm-3.14,3.46c.74-.91,1.52-1.79,2.31-2.62l0,0,.05,0a30.29,30.29,0,0,1,2.75,2.38l.05.05-.05.05c-.81.84-1.59,1.72-2.32,2.62l-.05.06-.06-.06a30.2,30.2,0,0,0-2.72-2.38l-.06,0Zm-2.71,3.82c.61-1,1.28-2,2-2.89l0-.06.06,0a30.28,30.28,0,0,1,2.71,2.42l0,0,0,.05a33.65,33.65,0,0,0-2,3l-.05.09-.07-.07a31.62,31.62,0,0,0-2.68-2.49l-.05,0Zm-2.24,4.27a33.36,33.36,0,0,1,1.63-3.25l0-.08.07.06A30.78,30.78,0,0,1,116,24l0,0,0,0a28.71,28.71,0,0,0-1.61,3.49l0,.12-.08-.1a28.31,28.31,0,0,0-2.69-2.81l0,0Zm1.19,11.17H109V35.8a29,29,0,0,1,2-9.95l0-.1.08.08a26.26,26.26,0,0,1,2.73,3l0,0v0a24.51,24.51,0,0,0-1.19,6.94Zm1,0V35.8a23.39,23.39,0,0,1,.89-5.8l0-.16.09.14A12.08,12.08,0,0,1,117,35.8v.08Zm3.87-2.38-.1-.29a16.19,16.19,0,0,0-2.43-4.53l0,0v0a27.25,27.25,0,0,1,1.59-3.66l.05-.1.07.08a25.45,25.45,0,0,1,2.36,3.23l0,0,0,0a21.37,21.37,0,0,0-1.5,5Zm.83,2.38V35.8a19.08,19.08,0,0,1,1.33-6.3l.06-.16.08.15a15.3,15.3,0,0,1,1.77,6.3v.08Zm4-2.52-.07-.31a18.25,18.25,0,0,0-2-4.87l0,0,0,0a25.71,25.71,0,0,1,2-3.47l.06-.09.06.09a25.61,25.61,0,0,1,2,3.49l0,0,0,0a18.38,18.38,0,0,0-2,4.85Zm.72,2.52V35.8a15.31,15.31,0,0,1,1.77-6.31l.08-.15.06.16a19.12,19.12,0,0,1,1.33,6.3v.08Zm4.07-2.38-.05-.3a21.35,21.35,0,0,0-1.5-5l0,0,0,0A25.46,25.46,0,0,1,128,24.94l.07-.08.05.1a27.06,27.06,0,0,1,1.59,3.67v0l0,0a16.15,16.15,0,0,0-2.42,4.51Zm.61,2.38V35.8A12.07,12.07,0,0,1,130,30l.09-.14,0,.16A23.41,23.41,0,0,1,131,35.8v.08Zm4.29,0V35.8a24.5,24.5,0,0,0-1.21-6.94v0l0,0a26.44,26.44,0,0,1,2.72-3l.08-.08,0,.1a28.7,28.7,0,0,1,2,9.93v.08Z"/><path class="cls-2" d="M156.76,36.22h0c-.19-9.42-8.16-15.12-8.24-15.18l-.2-.14-.19.14c-.08.06-8,5.76-8.15,15.18h0v.34h0v.34h16.8S156.76,36.33,156.76,36.22Zm-8.39-10.77c.43.44.89,1,1.35,1.53a19,19,0,0,0-1.35,1.58A19,19,0,0,0,147,27C147.48,26.39,147.94,25.88,148.37,25.44Zm2.95,3.86A16.05,16.05,0,0,0,150,31.08a15.76,15.76,0,0,0-1.15-1.93,18.59,18.59,0,0,1,1.35-1.61A18.55,18.55,0,0,1,151.32,29.3ZM150.62,27a17.94,17.94,0,0,1,1.54-1.38c.39.51.78,1.07,1.16,1.67a18.33,18.33,0,0,0-1.54,1.45A19.59,19.59,0,0,0,150.62,27Zm-1.1,4.74a10.72,10.72,0,0,0-1.15,2.83,10.63,10.63,0,0,0-1.15-2.84,14.84,14.84,0,0,1,1.15-2A14.81,14.81,0,0,1,149.52,31.78Zm-1.59-2.64a15.78,15.78,0,0,0-1.14,1.92,15.72,15.72,0,0,0-1.36-1.78,18.7,18.7,0,0,1,1.16-1.76A18.53,18.53,0,0,1,147.93,29.14Zm-3-.37a18.32,18.32,0,0,0-1.56-1.45c.37-.6.76-1.16,1.15-1.68a17.71,17.71,0,0,1,1.57,1.4A19.57,19.57,0,0,0,145,28.77Zm-.36.63a16.71,16.71,0,0,0-.94,2,16.56,16.56,0,0,0-1.57-1.63,19.32,19.32,0,0,1,.94-1.88A17.82,17.82,0,0,1,144.59,29.4Zm.48.54a14.77,14.77,0,0,1,1.37,1.87,12.38,12.38,0,0,0-.87,2.89,9.45,9.45,0,0,0-1.42-2.64A15.73,15.73,0,0,1,145.07,29.93Zm.11,6.28h-1.8a13.5,13.5,0,0,1,.52-3.36A7,7,0,0,1,145.18,36.22Zm1.7-3.64a8.87,8.87,0,0,1,1,3.64h-1.79A11,11,0,0,1,146.88,32.57Zm3,0a11,11,0,0,1,.77,3.65h-1.79A8.87,8.87,0,0,1,149.86,32.57Zm1.31,2.13a12.38,12.38,0,0,0-.87-2.9,14.72,14.72,0,0,1,1.36-1.86,15.7,15.7,0,0,1,.92,2.13A9.44,9.44,0,0,0,151.17,34.7Zm1.67-1.83a13.52,13.52,0,0,1,.51,3.35h-1.79A7,7,0,0,1,152.84,32.86Zm-.7-3.46a17.83,17.83,0,0,1,1.54-1.47,19.14,19.14,0,0,1,1,1.88,16.56,16.56,0,0,0-1.56,1.63A16.68,16.68,0,0,0,152.14,29.4Zm-.39-4.27a17.8,17.8,0,0,0-1.55,1.36c-.46-.58-.92-1.09-1.35-1.53a17.54,17.54,0,0,1,1.56-1.35C150.83,24.05,151.28,24.56,151.75,25.13Zm-3.42-3.39a19.36,19.36,0,0,1,1.59,1.39,18.68,18.68,0,0,0-1.55,1.35,18.57,18.57,0,0,0-1.59-1.38A18.92,18.92,0,0,1,148.33,21.74Zm-2,1.85A17.68,17.68,0,0,1,147.89,25c-.43.44-.89,1-1.35,1.53A17.64,17.64,0,0,0,145,25.11C145.42,24.53,145.88,24,146.3,23.59Zm-4.49,6.87a15.35,15.35,0,0,1,1.58,1.72,14.25,14.25,0,0,0-.69,4h-2A16.76,16.76,0,0,1,141.81,30.46ZM154,36.22a14.21,14.21,0,0,0-.7-4,15.33,15.33,0,0,1,1.58-1.71,16.58,16.58,0,0,1,1.17,5.75Z"/><path class="cls-2" d="M104.82,36.22h0C104.63,26.8,96.66,21.1,96.58,21l-.2-.14-.19.14c-.08.06-8,5.76-8.15,15.18h0v.34h0v.34h16.8S104.82,36.33,104.82,36.22ZM96.43,25.44c.43.44.89,1,1.35,1.53a19,19,0,0,0-1.35,1.58A19,19,0,0,0,95.08,27C95.54,26.39,96,25.88,96.43,25.44Zm2.95,3.86A16.05,16.05,0,0,0,98,31.08a15.76,15.76,0,0,0-1.15-1.93,18.59,18.59,0,0,1,1.35-1.61A18.55,18.55,0,0,1,99.38,29.3ZM98.68,27a17.94,17.94,0,0,1,1.54-1.38c.39.51.78,1.07,1.16,1.67a18.33,18.33,0,0,0-1.54,1.45A19.59,19.59,0,0,0,98.68,27Zm-1.1,4.74a10.72,10.72,0,0,0-1.15,2.83,10.63,10.63,0,0,0-1.15-2.84,14.84,14.84,0,0,1,1.15-2A14.81,14.81,0,0,1,97.58,31.78ZM96,29.14a15.78,15.78,0,0,0-1.14,1.92,15.72,15.72,0,0,0-1.36-1.78,18.7,18.7,0,0,1,1.16-1.76A18.53,18.53,0,0,1,96,29.14Zm-3-.37a18.32,18.32,0,0,0-1.56-1.45c.37-.6.76-1.16,1.15-1.68A17.71,17.71,0,0,1,94.17,27,19.57,19.57,0,0,0,93,28.77Zm-.36.63a16.71,16.71,0,0,0-.94,2,16.56,16.56,0,0,0-1.57-1.63,19.32,19.32,0,0,1,.94-1.88A17.82,17.82,0,0,1,92.65,29.4Zm.48.54A14.77,14.77,0,0,1,94.5,31.8a12.38,12.38,0,0,0-.87,2.89,9.45,9.45,0,0,0-1.42-2.64A15.73,15.73,0,0,1,93.13,29.93Zm.11,6.28h-1.8A13.5,13.5,0,0,1,92,32.86,7,7,0,0,1,93.24,36.22Zm1.7-3.64a8.87,8.87,0,0,1,1,3.64H94.17A11,11,0,0,1,94.94,32.57Zm3,0a11,11,0,0,1,.77,3.65H96.89A8.87,8.87,0,0,1,97.92,32.57Zm1.31,2.13a12.38,12.38,0,0,0-.87-2.9,14.72,14.72,0,0,1,1.36-1.86,15.7,15.7,0,0,1,.92,2.13A9.44,9.44,0,0,0,99.23,34.7Zm1.67-1.83a13.52,13.52,0,0,1,.51,3.35H99.61A7,7,0,0,1,100.89,32.86Zm-.7-3.46a17.83,17.83,0,0,1,1.54-1.47,19.14,19.14,0,0,1,1,1.88,16.56,16.56,0,0,0-1.56,1.63A16.68,16.68,0,0,0,100.19,29.4Zm-.39-4.27a17.8,17.8,0,0,0-1.55,1.36c-.46-.58-.92-1.09-1.35-1.53a17.54,17.54,0,0,1,1.56-1.35C98.89,24.05,99.34,24.56,99.81,25.13Zm-3.42-3.39A19.36,19.36,0,0,1,98,23.13a18.68,18.68,0,0,0-1.55,1.35,18.57,18.57,0,0,0-1.59-1.38A18.92,18.92,0,0,1,96.38,21.74Zm-2,1.85A17.68,17.68,0,0,1,95.95,25c-.43.44-.89,1-1.35,1.53A17.64,17.64,0,0,0,93,25.11C93.48,24.53,93.93,24,94.36,23.59Zm-4.49,6.87a15.35,15.35,0,0,1,1.58,1.72,14.25,14.25,0,0,0-.69,4h-2A16.76,16.76,0,0,1,89.87,30.46Zm12.23,5.76a14.21,14.21,0,0,0-.7-4A15.33,15.33,0,0,1,103,30.47a16.58,16.58,0,0,1,1.17,5.75Z"/><path class="cls-1" d="M8.52,65.43H4l-.66,1.68c-.87,2.28-.54,2.94,1.22,3.23v.25H0v-.25c1.28-.35,2-1.1,2.78-3.19L6.9,56.74h.81L12,68.49c.48,1.31.77,1.64,2.26,1.86v.25H8v-.25c1.84-.1,2.11-.5,1.72-1.59ZM8.39,65l-2-5.7H6.3L4.1,65Z"/><path class="cls-1" d="M25.87,66.11h.27c1.16,2.57,2.53,4.37,4.6,4.37A2.58,2.58,0,0,0,33.58,68c0-1.7-1.16-2.38-3.56-3.21-1.93-.68-3.94-1.29-3.94-3.79s2-4.14,4.56-4.14a7.06,7.06,0,0,1,2.9.66l.7-.77h.23V61H34.2c-1.06-2.55-2.3-3.83-3.87-3.83a2.36,2.36,0,0,0-2.51,2.38c0,1.66,1.26,2.28,3.48,3,1.84.62,3.81,1.29,3.81,3.81a4.24,4.24,0,0,1-4.6,4.45A7.17,7.17,0,0,1,27.26,70l-1.16.95h-.23Z"/><path class="cls-1" d="M46.8,70.34c1.68-.06,2.11-.46,2.11-1.26V58.63c0-.79-.42-1.22-2.11-1.28v-.23h6.34v.23c-1.66.06-2,.44-2,1.28V63.4h6V58.63c0-.83-.31-1.22-1.93-1.28v-.23h6.3v.23c-1.68.06-2.11.48-2.11,1.28V69.09c0,.79.43,1.2,2.11,1.26v.25h-6.3v-.25c1.62-.06,1.93-.42,1.93-1.26V63.81h-6v5.28c0,.83.31,1.2,2,1.26v.25H46.8Z"/><path class="cls-1" d="M73.44,70.34c1.68-.06,2.11-.48,2.11-1.28V58.63c0-.77-.42-1.22-2.11-1.28v-.23h6.36v.23c-1.76.06-2,.46-2,1.28v11.6h1.51c2.67,0,3.79-.91,5.1-4.18l.27,0-.19,4.52H73.44Z"/><path class="cls-1" d="M96.37,70.34c1.68-.06,2.11-.48,2.11-1.28V58.63c0-.77-.43-1.22-2.11-1.28v-.23h11.21l.06,4.35-.27,0c-1.12-2.75-2-4-4.31-4h-2.32v5.93h1c1.6,0,2.45-.6,3-2.65H105v5.66h-.25c-.52-2-1.37-2.65-3-2.65h-1v6.44H103c2.71,0,3.73-1.29,4.91-4.25l.27,0-.1,4.6H96.37Z"/><path class="cls-1" d="M129.69,59.75c.91-1.55.81-2.07-1-2.4v-.23h4.47v.23c-1.29.23-2,.72-3.11,2.69l-2.65,4.54v4.48c0,.79.41,1.22,2.16,1.28v.25H123v-.25c1.78-.06,2.17-.48,2.17-1.28V65l-3.4-6a2.78,2.78,0,0,0-2.2-1.6v-.23h6.22v.23c-1.91.12-2,.66-1.45,1.68l2.82,5.12Z"/><path class="cls-1" d="M157.94,70.34c1.68-.06,2.11-.46,2.11-1.26V58.63c0-.79-.42-1.22-2.11-1.28v-.23h6.34v.23c-1.66.06-2,.44-2,1.28V63.4h6V58.63c0-.83-.31-1.22-1.93-1.28v-.23h6.3v.23c-1.68.06-2.11.48-2.11,1.28V69.09c0,.79.42,1.2,2.11,1.26v.25h-6.3v-.25c1.62-.06,1.93-.42,1.93-1.26V63.81h-6v5.28c0,.83.31,1.2,2,1.26v.25h-6.34Z"/><path class="cls-1" d="M192.53,65.43H188l-.66,1.68c-.87,2.28-.54,2.94,1.22,3.23v.25H184v-.25c1.28-.35,2-1.1,2.78-3.19l4.12-10.42h.81l4.33,11.75c.48,1.31.77,1.64,2.26,1.86v.25H192v-.25c1.84-.1,2.11-.5,1.72-1.59ZM192.4,65l-2-5.7h-.08l-2.2,5.7Z"/><path class="cls-1" d="M209.64,70.34c1.68-.06,2.11-.48,2.11-1.28V58.63c0-.77-.42-1.22-2.11-1.28v-.23H216v.23c-1.76.06-2,.46-2,1.28v11.6h1.51c2.67,0,3.79-.91,5.1-4.18l.27,0-.19,4.52H209.64Z"/><path class="cls-1" d="M232.55,70.34c1.68-.06,2.11-.48,2.11-1.28V58.63c0-.77-.42-1.22-2.11-1.28v-.23h6.36v.23c-1.76.06-2,.46-2,1.28v11.6h1.51c2.67,0,3.79-.91,5.1-4.18l.27,0-.19,4.52H232.55Z"/><path class="cls-1" d="M65,88.11c.69,0,.87-.2.87-.53v-4.3c0-.32-.18-.49-.87-.52v-.1h4.6l.06,1.83h-.1c-.49-1.19-.89-1.69-1.88-1.69h-.88v2.52h.43c.66,0,1-.23,1.21-1.08h.1v2.32h-.1c-.21-.84-.55-1.08-1.21-1.08h-.43v2.09c0,.34.17.5.88.53v.1H65Z"/><path class="cls-1" d="M75.18,85.45a2.77,2.77,0,0,1,2.7-2.92,2.71,2.71,0,0,1,2.69,2.9,2.77,2.77,0,0,1-2.69,2.92A2.72,2.72,0,0,1,75.18,85.45Zm4.34,0c0-2.09-.69-2.76-1.68-2.76s-1.6.69-1.6,2.76.68,2.76,1.67,2.76S79.52,87.52,79.52,85.44Z"/><path class="cls-1" d="M86.67,86.6V83.29c0-.32-.18-.5-.87-.53v-.1h2.6v.1c-.68,0-.8.19-.8.53V86.5a1.42,1.42,0,0,0,1.62,1.58,1.43,1.43,0,0,0,1-.37,1.73,1.73,0,0,0,.45-1.29V84c0-.78-.26-1.12-1.07-1.23v-.1h2.2v.1c-.75.13-.93.45-.93,1.23v2.5c0,1.12-.63,1.86-2,1.86S86.67,87.75,86.67,86.6Z"/><path class="cls-1" d="M98.42,83.56h0v3.32c0,.78.21,1.11,1,1.23v.1H97.25v-.1c.75-.12,1-.45,1-1.23v-3.2a.89.89,0,0,0-1-.92v-.1h1.7l3.16,4.21h0V84c0-.78-.27-1.12-1.07-1.23v-.1h2.19v.1c-.75.13-.93.45-.93,1.23v4.35H102Z"/><path class="cls-1" d="M108.67,88.11c.69,0,.87-.2.87-.53v-4.3c0-.32-.18-.5-.87-.53v-.1h2.49c2,0,3,1.15,3,2.68a2.71,2.71,0,0,1-2.91,2.88h-2.59Zm2.33,0c1.59,0,2.11-.61,2.11-2.66s-.69-2.59-2.09-2.59h-.56v5.25Z"/><path class="cls-1" d="M119.47,88.11c.69,0,.87-.2.87-.53v-4.3c0-.32-.18-.5-.87-.53v-.1h4.62l0,1.79-.11,0c-.46-1.13-.83-1.66-1.78-1.66h-1v2.45h.43c.66,0,1-.25,1.23-1.09h.1V86.5h-.1c-.21-.84-.57-1.09-1.23-1.09h-.43v2.65h.94c1.12,0,1.54-.53,2-1.75h.11l0,1.9h-4.83Z"/><path class="cls-1" d="M129.93,88.11c.69,0,.87-.2.87-.53v-4.3c0-.32-.18-.5-.87-.53v-.1h2.49c2,0,3,1.15,3,2.68a2.71,2.71,0,0,1-2.91,2.88h-2.59Zm2.33,0c1.59,0,2.11-.61,2.11-2.66s-.69-2.59-2.09-2.59h-.56v5.25Z"/><path class="cls-1" d="M147.1,88.11c.75,0,1-.14,1-.5V83.78c0-.48-.14-.62-1-.65V83l1.91-.16v4.73c0,.37.24.49,1,.5v.1h-2.9Z"/><path class="cls-1" d="M155.66,88.26a3,3,0,0,0,2.6-2.68h0a1.35,1.35,0,0,1-1.27.83,1.6,1.6,0,0,1-1.68-1.66,1.91,1.91,0,0,1,2-1.91,2,2,0,0,1,2,2.22,2.9,2.9,0,0,1-.84,2.15,4.07,4.07,0,0,1-2.71,1.16Zm2.6-3.7c0-1-.42-1.6-1-1.6s-1,.62-1,1.69.33,1.55,1,1.55S158.27,85.65,158.27,84.57Z"/><path class="cls-1" d="M164.8,85.6c0-1.54.92-2.76,2.13-2.76s2.13,1.19,2.13,2.73-.92,2.76-2.13,2.76S164.8,87.14,164.8,85.6Zm3.23,0c0-1.85-.34-2.6-1.14-2.6s-1.08.75-1.08,2.6.35,2.6,1.15,2.6S168,87.44,168,85.58Z"/><path class="cls-1" d="M175,88.26a3,3,0,0,0,2.6-2.68h0a1.35,1.35,0,0,1-1.27.83,1.6,1.6,0,0,1-1.68-1.66,1.91,1.91,0,0,1,2-1.91,2,2,0,0,1,2,2.22,2.9,2.9,0,0,1-.84,2.15A4.07,4.07,0,0,1,175,88.36Zm2.6-3.7c0-1-.42-1.6-1-1.6s-1,.62-1,1.69.33,1.55,1,1.55S177.59,85.65,177.59,84.57Z"/><rect class="cls-1" x="48.19" y="36.89" width="1.81" height="1.81" transform="translate(-11.32 24.05) rotate(-24.78)"/><rect class="cls-1" x="51.66" y="35.27" width="1.81" height="1.81" transform="translate(-10.32 25.36) rotate(-24.78)"/><rect class="cls-1" x="55.13" y="33.66" width="1.81" height="1.81" transform="translate(-9.33 26.66) rotate(-24.78)"/><rect class="cls-1" x="58.59" y="32.04" width="1.81" height="1.81" transform="translate(-8.33 27.97) rotate(-24.78)"/><rect class="cls-1" x="62.06" y="30.43" width="1.81" height="1.81" transform="translate(-7.33 29.27) rotate(-24.78)"/><rect class="cls-1" x="65.52" y="28.81" width="1.81" height="1.81" transform="translate(-6.34 30.57) rotate(-24.78)"/><rect class="cls-1" x="68.99" y="27.2" width="1.81" height="1.81" transform="translate(-5.34 31.88) rotate(-24.78)"/><rect class="cls-1" x="72.46" y="25.58" width="1.81" height="1.81" transform="translate(-4.35 33.18) rotate(-24.78)"/><rect class="cls-1" x="75.92" y="23.97" width="1.81" height="1.81" transform="translate(-3.35 34.49) rotate(-24.78)"/><rect class="cls-1" x="79.39" y="22.35" width="1.81" height="1.81" transform="translate(-2.35 35.79) rotate(-24.78)"/><rect class="cls-1" x="82.86" y="20.74" width="1.81" height="1.81" transform="translate(-1.36 37.09) rotate(-24.78)"/><rect class="cls-1" x="86.32" y="19.12" width="1.81" height="1.81" transform="translate(-0.36 38.4) rotate(-24.78)"/><rect class="cls-1" x="89.79" y="17.5" width="1.81" height="1.81" transform="translate(0.63 39.7) rotate(-24.78)"/><rect class="cls-1" x="93.26" y="15.89" width="1.81" height="1.81" transform="translate(1.63 41.01) rotate(-24.78)"/><rect class="cls-1" x="96.72" y="14.27" width="1.81" height="1.81" transform="translate(2.63 42.31) rotate(-24.78)"/><rect class="cls-1" x="100.19" y="12.66" width="1.81" height="1.81" transform="translate(3.62 43.61) rotate(-24.78)"/><rect class="cls-1" x="103.66" y="11.04" width="1.81" height="1.81" transform="translate(4.62 44.92) rotate(-24.78)"/><rect class="cls-1" x="107.12" y="9.43" width="1.81" height="1.81" transform="translate(5.61 46.22) rotate(-24.78)"/><rect class="cls-1" x="110.59" y="7.81" width="1.81" height="1.81" transform="translate(6.61 47.53) rotate(-24.78)"/><rect class="cls-1" x="114.05" y="6.2" width="1.81" height="1.81" transform="translate(7.61 48.83) rotate(-24.78)"/><rect class="cls-1" x="117.52" y="4.58" width="1.81" height="1.81" transform="translate(8.6 50.13) rotate(-24.78)"/><rect class="cls-1" x="120.99" y="2.97" width="1.81" height="1.81" transform="translate(9.6 51.44) rotate(-24.78)"/><rect class="cls-1" x="121.88" y="2.97" width="1.81" height="1.81" transform="translate(67.81 113.73) rotate(-65.22)"/><rect class="cls-1" x="125.37" y="4.58" width="1.81" height="1.81" transform="translate(68.38 117.84) rotate(-65.22)"/><rect class="cls-1" x="128.87" y="6.2" width="1.81" height="1.81" transform="translate(68.94 121.95) rotate(-65.22)"/><rect class="cls-1" x="132.37" y="7.81" width="1.81" height="1.81" transform="translate(69.51 126.07) rotate(-65.22)"/><rect class="cls-1" x="135.86" y="9.43" width="1.81" height="1.81" transform="translate(70.07 130.18) rotate(-65.22)"/><rect class="cls-1" x="139.36" y="11.04" width="1.81" height="1.81" transform="translate(70.63 134.29) rotate(-65.22)"/><rect class="cls-1" x="142.85" y="12.66" width="1.81" height="1.81" transform="translate(71.2 138.4) rotate(-65.22)"/><rect class="cls-1" x="146.35" y="14.27" width="1.81" height="1.81" transform="translate(71.76 142.52) rotate(-65.22)"/><rect class="cls-1" x="149.85" y="15.89" width="1.81" height="1.81" transform="matrix(0.42, -0.91, 0.91, 0.42, 72.33, 146.63)"/><rect class="cls-1" x="153.34" y="17.5" width="1.81" height="1.81" transform="translate(72.89 150.74) rotate(-65.22)"/><rect class="cls-1" x="156.84" y="19.12" width="1.81" height="1.81" transform="matrix(0.42, -0.91, 0.91, 0.42, 73.46, 154.85)"/><rect class="cls-1" x="160.33" y="20.74" width="1.81" height="1.81" transform="translate(74.02 158.97) rotate(-65.22)"/><rect class="cls-1" x="163.83" y="22.35" width="1.81" height="1.81" transform="translate(74.58 163.08) rotate(-65.22)"/><rect class="cls-1" x="167.33" y="23.97" width="1.81" height="1.81" transform="translate(75.15 167.19) rotate(-65.22)"/><rect class="cls-1" x="170.82" y="25.58" width="1.81" height="1.81" transform="translate(75.71 171.3) rotate(-65.22)"/><rect class="cls-1" x="174.32" y="27.2" width="1.81" height="1.81" transform="translate(76.28 175.42) rotate(-65.22)"/><rect class="cls-1" x="177.81" y="28.81" width="1.81" height="1.81" transform="translate(76.84 179.53) rotate(-65.22)"/><rect class="cls-1" x="181.31" y="30.43" width="1.81" height="1.81" transform="translate(77.41 183.64) rotate(-65.22)"/><rect class="cls-1" x="184.81" y="32.04" width="1.81" height="1.81" transform="translate(77.97 187.75) rotate(-65.22)"/><rect class="cls-1" x="188.3" y="33.66" width="1.81" height="1.81" transform="translate(78.54 191.87) rotate(-65.22)"/><rect class="cls-1" x="191.8" y="35.27" width="1.81" height="1.81" transform="translate(79.1 195.98) rotate(-65.22)"/><rect class="cls-1" x="195.29" y="36.89" width="1.81" height="1.81" transform="translate(79.66 200.09) rotate(-65.22)"/><rect class="cls-2" x="120.43" y="1.42" width="3.8" height="3.92"/><polygon class="cls-1" points="200.38 39.02 122.33 2.96 44.29 39.02 44.07 38.55 122.33 2.39 122.44 2.44 200.6 38.55 200.38 39.02"/><rect class="cls-1" x="121.43" y="2.89" width="1.81" height="2.18"/><path class="cls-1" d="M203,39.2H41.64l80.7-37.29.2.09Zm-157-1H198.6L122.33,3Z"/><path class="cls-1" d="M206,39.37H38.79a.39.39,0,0,1-.16-.74L122.17,0a.39.39,0,0,1,.32,0l83.67,38.6a.39.39,0,0,1-.16.74ZM40.55,38.6h163.7L122.33.81Z"/></g></g></svg>