<svg xmlns="http://www.w3.org/2000/svg" viewBox="0 0 382.83 49.65"><defs><style>.cls-1{fill:#4e4e56;}</style></defs><title>logo-main</title><g id="Layer_2" data-name="Layer 2"><g id="Layer_1-2" data-name="Layer 1"><path class="cls-1" d="M13.39,13.66H6.22l-1,2.64c-1.36,3.58-.85,4.61,1.91,5.07v.39H0v-.39c2-.55,3.1-1.73,4.37-5L10.84,0h1.27l6.8,18.46c.76,2.06,1.22,2.58,3.55,2.91v.39h-10v-.39c2.88-.15,3.31-.79,2.7-2.49Zm-.21-.61L10,4.1H9.9l-3.46,9Z"/><path class="cls-1" d="M40.63,14.72h.42c1.82,4,4,6.86,7.23,6.86,3,0,4.46-2,4.46-3.92,0-2.67-1.82-3.73-5.59-5-3-1.06-6.19-2-6.19-6S44,.18,48.12.18a11.1,11.1,0,0,1,4.55,1L53.77,0h.36V6.77h-.42c-1.67-4-3.61-6-6.07-6a3.71,3.71,0,0,0-3.95,3.73c0,2.61,2,3.58,5.46,4.74,2.88,1,6,2,6,6,0,3.34-2,7-7.23,7a11.27,11.27,0,0,1-5.1-1.36L41,22.31h-.37Z"/><path class="cls-1" d="M73.5,21.37c2.64-.09,3.31-.73,3.31-2V3c0-1.24-.67-1.91-3.31-2V.61h10V1c-2.61.09-3.1.7-3.1,2v7.5H89.8V3c0-1.3-.49-1.91-3-2V.61h9.9V1c-2.64.09-3.31.76-3.31,2V19.4c0,1.24.67,1.88,3.31,2v.39h-9.9v-.39c2.55-.09,3-.67,3-2V11.11H80.36V19.4c0,1.31.49,1.88,3.1,2v.39h-10Z"/><path class="cls-1" d="M115.32,21.37c2.64-.09,3.31-.76,3.31-2V3c0-1.21-.67-1.91-3.31-2V.61h10V1c-2.76.09-3.13.73-3.13,2V21.19h2.37c4.19,0,6-1.43,8-6.56l.42,0-.3,7.1H115.32Z"/><path class="cls-1" d="M151.34,21.37c2.64-.09,3.31-.76,3.31-2V3c0-1.21-.67-1.91-3.31-2V.61h17.61L169,7.44l-.42.06c-1.76-4.31-3.16-6.31-6.77-6.31H158.2V10.5h1.64c2.52,0,3.86-.94,4.68-4.16h.39v8.89h-.39c-.82-3.22-2.16-4.16-4.68-4.16H158.2V21.19h3.58c4.25,0,5.86-2,7.71-6.68l.42,0-.15,7.23H151.34Z"/><path class="cls-1" d="M203.67,4.74c1.43-2.43,1.27-3.25-1.52-3.76V.61h7V1c-2,.36-3.1,1.12-4.89,4.22l-4.16,7.13v7c0,1.24.64,1.91,3.4,2v.39H193.19v-.39c2.79-.09,3.4-.76,3.4-2V12.93l-5.34-9.44A4.37,4.37,0,0,0,187.79,1V.61h9.78V1c-3,.18-3.19,1-2.28,2.64l4.43,8Z"/><path class="cls-1" d="M248,21.37c2.64-.09,3.31-.73,3.31-2V3c0-1.24-.67-1.91-3.31-2V.61h10V1c-2.61.09-3.1.7-3.1,2v7.5h9.44V3c0-1.3-.49-1.91-3-2V.61h9.9V1c-2.64.09-3.31.76-3.31,2V19.4c0,1.24.67,1.88,3.31,2v.39h-9.9v-.39c2.55-.09,3-.67,3-2V11.11h-9.44V19.4c0,1.31.49,1.88,3.1,2v.39H248Z"/><path class="cls-1" d="M302.32,13.66h-7.17l-1,2.64c-1.36,3.58-.85,4.61,1.91,5.07v.39h-7.1v-.39c2-.55,3.1-1.73,4.37-5L299.77,0H301l6.8,18.46c.76,2.06,1.22,2.58,3.55,2.91v.39h-10v-.39c2.88-.15,3.31-.79,2.7-2.49Zm-.21-.61L299,4.1h-.12l-3.46,9Z"/><path class="cls-1" d="M329.19,21.37c2.64-.09,3.31-.76,3.31-2V3c0-1.21-.67-1.91-3.31-2V.61h10V1c-2.76.09-3.13.73-3.13,2V21.19h2.37c4.19,0,6-1.43,8-6.56l.42,0-.3,7.1H329.19Z"/><path class="cls-1" d="M365.16,21.37c2.64-.09,3.31-.76,3.31-2V3c0-1.21-.67-1.91-3.31-2V.61h10V1c-2.76.09-3.13.73-3.13,2V21.19h2.37c4.19,0,6-1.43,8-6.56l.42,0-.3,7.1H365.16Z"/><path class="cls-1" d="M101.84,49.27c1.09,0,1.36-.31,1.36-.82V41.7c0-.5-.28-.77-1.36-.81v-.16H109l.1,2.87H109c-.76-1.86-1.4-2.65-2.95-2.65h-1.37v3.95h.68c1,0,1.56-.36,1.9-1.69h.16v3.63h-.16c-.34-1.32-.86-1.7-1.9-1.7h-.68v3.29c0,.52.26.79,1.39.82v.16h-4.21Z"/><path class="cls-1" d="M117.91,45.1a4.34,4.34,0,0,1,4.23-4.58,4.25,4.25,0,0,1,4.22,4.54,4.34,4.34,0,0,1-4.22,4.58A4.26,4.26,0,0,1,117.91,45.1Zm6.81,0c0-3.27-1.07-4.33-2.63-4.33s-2.51,1.07-2.51,4.32,1.06,4.33,2.62,4.33S124.72,48.33,124.72,45.08Z"/><path class="cls-1" d="M136,46.89V41.7c0-.5-.29-.79-1.36-.82v-.15h4.08v.15c-1.06,0-1.26.3-1.26.82v5a2.53,2.53,0,0,0,4.13,1.9,2.7,2.7,0,0,0,.7-2V42.8c0-1.22-.41-1.75-1.67-1.92v-.15h3.45v.15c-1.17.2-1.46.7-1.46,1.92v3.92c0,1.75-1,2.92-3.21,2.92S136,48.7,136,46.89Z"/><path class="cls-1" d="M154.49,42.14h0v5.21c0,1.22.32,1.75,1.6,1.92v.16h-3.42v-.16c1.18-.19,1.52-.7,1.52-1.92v-5a1.39,1.39,0,0,0-1.52-1.45v-.15h2.66l5,6.59h0V42.8c0-1.22-.42-1.75-1.67-1.92v-.15H162v.15c-1.17.2-1.46.7-1.46,1.92v6.82h-.41Z"/><path class="cls-1" d="M170.62,49.27c1.09,0,1.36-.31,1.36-.82V41.7c0-.5-.28-.79-1.36-.82v-.15h3.91c3.1,0,4.71,1.8,4.71,4.2a4.24,4.24,0,0,1-4.56,4.51h-4.06Zm3.66-.07c2.5,0,3.31-1,3.31-4.17S176.5,41,174.31,41h-.87v8.23Z"/><path class="cls-1" d="M187.61,49.27c1.09,0,1.36-.31,1.36-.82V41.7c0-.5-.28-.79-1.36-.82v-.15h7.24l0,2.81-.18,0c-.72-1.77-1.3-2.6-2.78-2.6h-1.5V44.8h.68c1,0,1.58-.39,1.92-1.71h.16v3.66H193c-.34-1.32-.89-1.71-1.92-1.71h-.68v4.16h1.47c1.75,0,2.41-.84,3.17-2.75h.18l-.06,3h-7.58Z"/><path class="cls-1" d="M204.08,49.27c1.09,0,1.36-.31,1.36-.82V41.7c0-.5-.28-.79-1.36-.82v-.15H208c3.1,0,4.71,1.8,4.71,4.2a4.24,4.24,0,0,1-4.56,4.51h-4.06Zm3.66-.07c2.5,0,3.31-1,3.31-4.17S210,41,207.77,41h-.87v8.23Z"/><path class="cls-1" d="M231,49.27c1.17,0,1.57-.21,1.57-.79v-6c0-.75-.22-1-1.6-1v-.15l3-.25v7.42c0,.57.37.77,1.57.79v.16H231Z"/><path class="cls-1" d="M244.51,49.5c2.28-.54,3.77-1.77,4.08-4.21h-.05a2.12,2.12,0,0,1-2,1.3,2.51,2.51,0,0,1-2.64-2.6A3,3,0,0,1,247,41c1.9,0,3.06,1.41,3.06,3.48a4.54,4.54,0,0,1-1.32,3.37,6.37,6.37,0,0,1-4.24,1.81Zm4.08-5.79c0-1.64-.65-2.51-1.61-2.51s-1.57,1-1.57,2.65.52,2.42,1.5,2.42C247.7,46.27,248.6,45.41,248.6,43.71Z"/><path class="cls-1" d="M258.91,45.32c0-2.41,1.45-4.33,3.35-4.33s3.33,1.87,3.33,4.28-1.45,4.33-3.35,4.33S258.91,47.74,258.91,45.32Zm5.07,0c0-2.9-.54-4.08-1.78-4.08s-1.69,1.17-1.69,4.08.55,4.08,1.8,4.08S264,48.2,264,45.29Z"/><path class="cls-1" d="M274.94,49.5c2.28-.54,3.77-1.77,4.08-4.21h0a2.12,2.12,0,0,1-2,1.3,2.51,2.51,0,0,1-2.63-2.6,3,3,0,0,1,3.11-3c1.9,0,3.06,1.41,3.06,3.48a4.54,4.54,0,0,1-1.32,3.37,6.37,6.37,0,0,1-4.24,1.81ZM279,43.71c0-1.64-.65-2.51-1.61-2.51s-1.57,1-1.57,2.65.53,2.42,1.5,2.42C278.12,46.27,279,45.41,279,43.71Z"/></g></g></svg>