<svg xmlns="http://www.w3.org/2000/svg" viewBox="0 0 98.64 118.36"><defs><style>.cls-1{fill:#4e4e56;}</style></defs><title>logo-seal</title><g id="Layer_2" data-name="Layer 2"><g id="Layer_1-2" data-name="Layer 1"><path class="cls-1" d="M44.21,37.76H46v.45H44.72v.47h1.09v.45H44.72v.49H46v.45H44.21Z"/><path class="cls-1" d="M46.93,39.74l.3-.36a1.06,1.06,0,0,0,.69.28c.21,0,.33-.08.33-.22h0c0-.13-.08-.19-.47-.29s-.77-.25-.77-.71h0a.72.72,0,0,1,.81-.7,1.34,1.34,0,0,1,.86.29l-.26.38a1.09,1.09,0,0,0-.6-.23c-.19,0-.3.09-.3.2h0c0,.15.1.2.5.3s.73.29.73.69h0c0,.46-.35.72-.85.72A1.47,1.47,0,0,1,46.93,39.74Z"/><path class="cls-1" d="M50.35,38.23h-.7v-.47h1.92v.47h-.7v1.84h-.51Z"/><path class="cls-1" d="M52.61,37.76h.9a1.15,1.15,0,0,1,1.23,1.15h0a1.16,1.16,0,0,1-1.23,1.16h-.9Zm.51.46v1.39h.39a.66.66,0,0,0,.7-.69h0a.66.66,0,0,0-.7-.7Z"/><path class="cls-1" d="M20.44,47.09l-.65,2.25.8.59c.94.71,1.35.66,1.75-.21l.14,0-.67,2.3-.14,0c0-.68-.29-1.18-1.18-1.87l-4.65-3.54.19-.66,6.64-.46c.63-.05.83-.15,1.15-.85l.14,0-1,3.5-.14,0c.23-.95.08-1.18-.49-1.15Zm-.22,0-3.11.17v0l2.51,1.88Z"/><path class="cls-1" d="M22.48,42.25l.08-.14c1.56.06,2.77-.25,3.24-1.14a1.27,1.27,0,0,0-.46-1.82c-.73-.38-1.36,0-2.29.87s-1.66,1.55-2.82.94a2.21,2.21,0,0,1-.84-3.18,3.31,3.31,0,0,1,1.06-1.2l-.19-.6.06-.11,2,1.07-.08.14c-1.55-.05-2.42.22-2.79.93A1.18,1.18,0,0,0,20,39.65c.7.37,1.33,0,2.21-.9.72-.72,1.59-1.46,2.76-.85a2.27,2.27,0,0,1,1,3.28,4.07,4.07,0,0,1-1.25,1.38l.17.77-.06.11Z"/><path class="cls-1" d="M27.49,37.53c.52-.66.55-.92.25-1.18l-4.3-3.67c-.29-.25-.56-.19-1.13.43l-.1-.09,2.29-2.68.1.09c-.45.58-.5.85-.19,1.12l2,1.68,1.86-2.18-2-1.68c-.31-.26-.58-.16-1.08.37l-.1-.09L27.37,27l.1.09c-.53.67-.54.93-.25,1.18l4.3,3.67c.3.26.55.2,1.13-.43l.11.09-2.29,2.68-.11-.09c.45-.58.52-.86.2-1.13l-2.17-1.86-1.86,2.18,2.17,1.86c.32.27.58.17,1.08-.37l.11.09L27.6,37.62Z"/><path class="cls-1" d="M33.82,30.57c.69-.49.78-.74.57-1.06l-3.09-4.72c-.21-.32-.49-.35-1.21.09L30,24.76l3-2,.07.11c-.72.51-.75.72-.54,1.06l3.38,5.17.5-.33c1.23-.8,1.38-1.53,1-3.57l.13-.08,1.34,2.22-5,3.3Z"/><path class="cls-1" d="M40.22,26.56c.81-.25,1-.47.87-.84L39.6,20.27c-.1-.37-.35-.48-1.18-.29l0-.13,5.86-1.6.67,2.33-.15.05c-1.1-1.33-1.65-1.88-2.86-1.55l-1,.28.82,3,.41-.11c.79-.21,1.15-.67,1.14-1.75l.13,0,.78,2.87-.13,0c-.54-.94-1.09-1.16-1.87-.94l-.41.11.9,3.28,1-.27c1.42-.39,1.71-1.12,2-3l.15,0L46.37,25l-6.11,1.67Z"/><path class="cls-1" d="M53.58,19.62c.51-.76.45-1.05-.39-1.32v-.13l2.34.2v.13c-.69.06-1.12.32-1.85,1.4L52.2,22.05l-.2,2.4c0,.39.16.56,1,.67v.14L49.39,25v-.14c.87,0,1.1-.1,1.13-.49l.19-2.19L49.2,18.8a1.43,1.43,0,0,0-1.09-.93v-.13l3.58.3v.13c-1,0-1.11.24-.85.81l1.24,2.86Z"/><path class="cls-1" d="M58.52,26.52c.73.43,1,.41,1.2.08l3-4.78c.21-.33.11-.58-.58-1.06l.07-.11,3,1.88-.07.11c-.64-.37-.92-.38-1.14,0l-1.39,2.19L65,26.34l1.39-2.19c.22-.34.08-.6-.52-1L66,23l3,1.89-.07.11c-.74-.43-1-.4-1.2-.08l-3,4.78c-.21.34-.12.57.58,1.06l-.08.12-3-1.89.08-.12c.64.37.92.39,1.14,0l1.53-2.42L62.5,25,61,27.39c-.22.35-.09.59.52,1l-.08.12-3-1.88Z"/><path class="cls-1" d="M70.89,33.3l-1.51-1.78-.94.34c-1.11.39-1.3.77-.79,1.57l-.11.09L66,31.7l.11-.09c.56.39,1.14.4,2.21,0l5.52-1.92.45.53L71,36c-.31.55-.33.77.08,1.43l-.11.09-2.36-2.78.11-.09c.66.72.94.72,1.23.22Zm.11-.19,1.57-2.69,0,0-3,1.06Z"/><path class="cls-1" d="M71.73,38.61c.41.74.66.85,1,.68l5-2.58c.34-.18.4-.45,0-1.21l.12-.06,1.63,3.18-.12.06c-.43-.77-.64-.83-1-.64l-5.49,2.82.27.53c.67,1.3,1.38,1.53,3.44,1.41l.06.14L74.36,44,71.6,38.68Z"/><path class="cls-1" d="M75.1,45.51c.26.8.48,1,.85.86l5.43-1.54c.37-.11.48-.36.28-1.18l.13,0,1,3.43-.13,0c-.27-.84-.47-.94-.85-.83l-5.94,1.69.16.58c.4,1.41,1.05,1.77,3.09,2.06l0,.15-2.52.62L75,45.55Z"/><path class="cls-1" d="M33.28,71.38h0a1.27,1.27,0,0,1,1.75.56A1.29,1.29,0,0,1,35.16,73l-.52-.12a.92.92,0,0,0,0-.7.74.74,0,0,0-1-.28h0a.74.74,0,0,0-.36,1,.91.91,0,0,0,.57.45l-.15.48a1.28,1.28,0,0,1-.87-.7A1.27,1.27,0,0,1,33.28,71.38Z"/><path class="cls-1" d="M36,73.69l.34.43-.78.61.63.8.78-.61.34.43-2,1.55L35,76.47l.79-.62-.63-.8-.79.62-.34-.43Z"/><path class="cls-1" d="M38.8,76.73l.39.33-.82,2.62-.44-.37.19-.58L37.31,78l-.54.28L36.35,78Zm-.52,1.5.27-.83-.78.4Z"/><path class="cls-1" d="M40.8,78.29l1,.56a1,1,0,0,1,.52.58.79.79,0,0,1-.09.61h0a.78.78,0,0,1-.85.42l.1,1.08-.56-.31-.08-1-.38-.21-.39.7-.48-.27Zm.38,1.6a.36.36,0,0,0,.54-.1h0c.12-.21,0-.39-.21-.52L41,79l-.35.63Z"/><path class="cls-1" d="M43.61,79.71l.52.17-.63,1.91,1.19.39-.16.48-1.71-.56Z"/><path class="cls-1" d="M46.29,80.48l1.88.24-.06.49L46.77,81l-.07.5,1.17.15-.06.49L46.64,82l-.07.52,1.35.18-.06.49L46,83Z"/><path class="cls-1" d="M49.17,82.9l.3-.41a1.15,1.15,0,0,0,.77.26c.23,0,.36-.11.35-.26h0c0-.14-.1-.21-.52-.29s-.85-.22-.87-.72h0a.78.78,0,0,1,.83-.8,1.46,1.46,0,0,1,.95.27l-.26.43a1.18,1.18,0,0,0-.67-.21c-.21,0-.32.12-.31.24h0c0,.16.12.21.56.3s.81.27.84.71h0c0,.5-.34.8-.88.83A1.61,1.61,0,0,1,49.17,82.9Z"/><path class="cls-1" d="M52.7,80.85,52,81l-.12-.49,2-.49.12.49-.74.18.47,1.94-.54.13Z"/><path class="cls-1" d="M55.12,81h0a1.33,1.33,0,0,1,2.41-1.14h0A1.33,1.33,0,0,1,55.12,81ZM57,80.07h0a.76.76,0,0,0-1-.39.75.75,0,0,0-.35,1h0a.76.76,0,0,0,1,.39A.75.75,0,0,0,57,80.07Z"/><path class="cls-1" d="M57.87,78.12l.4-.31,1.87.51-.94-1.22.43-.33,1.53,2-.37.29-1.94-.52,1,1.26-.43.33Z"/><path class="cls-1" d="M63.24,76.06l-.12-.49a1.15,1.15,0,0,0,.69-.43c.13-.18.14-.35,0-.43h0c-.11-.08-.22-.05-.56.22s-.71.51-1.11.22h0A.78.78,0,0,1,62.06,74a1.45,1.45,0,0,1,.81-.57l.17.48a1.18,1.18,0,0,0-.58.38c-.12.17-.11.32,0,.39h0c.13.1.24,0,.59-.24s.72-.46,1.08-.2h0a.8.8,0,0,1,.09,1.2A1.6,1.6,0,0,1,63.24,76.06Z"/><path class="cls-1" d="M64.31,73h0a1.27,1.27,0,0,1-.59-1.74,1.29,1.29,0,0,1,.78-.72l.21.49a.92.92,0,0,0-.54.45.74.74,0,0,0,.38,1h0a.74.74,0,0,0,1-.31.9.9,0,0,0,0-.72l.47-.16a1.28,1.28,0,0,1,0,1.12A1.27,1.27,0,0,1,64.31,73Z"/><circle class="cls-1" cx="17.45" cy="57.23" r="0.72"/><circle class="cls-1" cx="81.19" cy="57.23" r="0.72"/><path class="cls-1" d="M83.09,89.09a1.35,1.35,0,0,1,.72.64l.32-.37-.19.7c.46,0,.69.47.88.83l.05.1,0,.07a5.74,5.74,0,0,1,.22-3.42,4.55,4.55,0,0,1-2.35,1.28L83,89Z"/><path class="cls-1" d="M44.67,110.2l-.33,0c-1.85-.2-3.18.58-4.19,2.5a2.44,2.44,0,0,0,3.35-.36A4,4,0,0,0,44.67,110.2Z"/><path class="cls-1" d="M44.41,110.14l.2.16a7.34,7.34,0,0,0,0-2.25A4,4,0,0,0,42,104.62,6.49,6.49,0,0,0,44.41,110.14Z"/><path class="cls-1" d="M11.64,89.36c.8,1.84,2,3,3.3,3a2.84,2.84,0,0,0,1.32-.28l-.34-.43C14.57,89.93,13.21,89.2,11.64,89.36Z"/><path class="cls-1" d="M17.18,86.22c-1,1.23-1.26,2.9-.83,5.19l.1.51a2.84,2.84,0,0,0,1.15-1.4A4.69,4.69,0,0,0,17.18,86.22Z"/><path class="cls-1" d="M12,87.4a2.42,2.42,0,0,0,1.4.07L13.14,87c-1.17-2-2.45-2.93-4.08-3.11A4.63,4.63,0,0,0,12,87.4Z"/><path class="cls-1" d="M14.66,82c-1.16,1.15-1.53,2.69-1.2,4.92l.08.52a2.61,2.61,0,0,0,1.19-1.2A4.6,4.6,0,0,0,14.66,82Z"/><path class="cls-1" d="M8.16,72.92v.28a2.37,2.37,0,0,0,1.22-.8A3.79,3.79,0,0,0,10,68.51C8.62,69.19,8.06,70.56,8.16,72.92Z"/><path class="cls-1" d="M6.83,72.73a2.46,2.46,0,0,0,1.38.39l-.11-.19c-1.84-3.08-2.05-3.4-3.64-4.18A5.27,5.27,0,0,0,6.83,72.73Z"/><path class="cls-1" d="M11.53,82.63l0,.29a2.34,2.34,0,0,0,1.14-.9A3.78,3.78,0,0,0,13,78.1C11.67,78.87,11.23,80.29,11.53,82.63Z"/><path class="cls-1" d="M10,82.62a2.49,2.49,0,0,0,1.41.28l-.13-.18c-2.1-2.93-2.34-3.23-4-3.88A5.34,5.34,0,0,0,10,82.62Z"/><path class="cls-1" d="M45.73,105.9c.18,2.41,1.07,3.82,2.94,4.61a5,5,0,0,0-1.06-3.65A2.76,2.76,0,0,0,45.73,105.9Z"/><path class="cls-1" d="M48.52,110.74c-2-.09-3.14.83-3.8,3a2.67,2.67,0,0,0,2.86-.62A3.53,3.53,0,0,0,48.52,110.74Z"/><path class="cls-1" d="M40.16,108.9l0-.09a5.09,5.09,0,0,0-2.11-5.23,6.56,6.56,0,0,0,1.48,5.36v0l.39.46C40,109.34,40.09,109.23,40.16,108.9Z"/><path class="cls-1" d="M38.33,109.36a2.62,2.62,0,0,0-2.77,1.89,2.12,2.12,0,0,0,1,.58,2.57,2.57,0,0,0,2.54-.61,2.65,2.65,0,0,0,.75-1.7A9.79,9.79,0,0,0,38.33,109.36Z"/><path class="cls-1" d="M30.64,105.61l-.94-.33a2.9,2.9,0,0,0-3.3.95,3.58,3.58,0,0,0,2.94,1.32,2.15,2.15,0,0,0,1.7-1.78l0,0Z"/><path class="cls-1" d="M31.18,105.82a4.17,4.17,0,0,0,.81-2.88,4.61,4.61,0,0,0-1.39-3.11A7.19,7.19,0,0,0,31.18,105.82Z"/><path class="cls-1" d="M34.16,102.12c-.5,2.5-.11,4.29,1.18,5.58l.13.05A4.83,4.83,0,0,0,34.16,102.12Z"/><path class="cls-1" d="M35.22,108a4.28,4.28,0,0,0-1.55-.37c-.95,0-1.67.57-2.45,2a3.82,3.82,0,0,0,1.92.61C34.3,110.18,35.07,109.37,35.22,108Z"/><path class="cls-1" d="M26.84,103l0,0a6.2,6.2,0,0,0-2.55-.76,2.45,2.45,0,0,0-1.87.86,3.69,3.69,0,0,0,2.7,1.54A2.1,2.1,0,0,0,27,103.27l0,0A1.4,1.4,0,0,0,26.84,103Z"/><path class="cls-1" d="M27.09,103.07a4.27,4.27,0,0,0,1.1-2.74,5,5,0,0,0-1-3.32A7.28,7.28,0,0,0,27.09,103.07Z"/><path class="cls-1" d="M24.54,97.89a5.05,5.05,0,0,0-.61-3.55,6.68,6.68,0,0,0-.78,5.43h0l.06,0,.19.17A3.74,3.74,0,0,0,24.54,97.89Z"/><path class="cls-1" d="M23.15,99.85a2,2,0,0,1-1-.5,3.14,3.14,0,0,0-3.77-.15A3.94,3.94,0,0,0,21.52,101,2,2,0,0,0,23.15,99.85Z"/><path class="cls-1" d="M19.63,96.25l-1-.82A3.45,3.45,0,0,0,15,94.68c1,1.58,2.19,2.43,3.36,2.33a2.58,2.58,0,0,0,1.36-.57l-.08-.19Z"/><path class="cls-1" d="M19.91,96.56a4.61,4.61,0,0,0,.5-5.64C19.23,92.48,19.1,94,19.91,96.56Z"/><path class="cls-1" d="M4,57a4.53,4.53,0,0,0,2.43,4.65l0-.17A5.31,5.31,0,0,0,4,57Z"/><path class="cls-1" d="M9.46,58.42c-1.88.24-2.56,1-3,3.14C8.23,62,9.37,60.77,9.46,58.42Z"/><path class="cls-1" d="M5.16,74.1a4.72,4.72,0,0,0,4,3.53v0A5.62,5.62,0,0,0,5.16,74.1Z"/><path class="cls-1" d="M11.17,77a3.71,3.71,0,0,0,.43-3c-1.79.56-2.3,1.4-2.22,3.61A2,2,0,0,0,11.17,77Z"/><path class="cls-1" d="M3.48,63.26c.38,2.26,1.47,3.52,3.43,4l0-.15A5.64,5.64,0,0,0,3.48,63.26Z"/><path class="cls-1" d="M7.15,67.37a1.79,1.79,0,0,0,1.71-.55,4.48,4.48,0,0,0,.8-3.26C8.19,64,7.41,65.2,7.15,67.37Z"/><path class="cls-1" d="M92.88,50.4A2.34,2.34,0,0,0,91.54,50l.14.51c.59,2.18,1.54,3.44,3.07,4A4.45,4.45,0,0,0,92.88,50.4Z"/><path class="cls-1" d="M89,54.9c1.45-.82,2.24-2.21,2.54-4.45l.07-.51a2.74,2.74,0,0,0-1.49.86A4.65,4.65,0,0,0,89,54.9Z"/><path class="cls-1" d="M92.06,55.37a2.47,2.47,0,0,0-1.37.55,3.86,3.86,0,0,0-1.43,3.68c1.47-.4,2.32-1.63,2.74-4Z"/><path class="cls-1" d="M92.16,55.39l.07.22c1.13,3.37,1.26,3.73,2.65,4.8A5.14,5.14,0,0,0,93.44,56,2.41,2.41,0,0,0,92.16,55.39Z"/><path class="cls-1" d="M61.55,108.61l-.12.05a4.7,4.7,0,0,0-2.86,4.2,2.88,2.88,0,0,0,2.61-2.05A4.38,4.38,0,0,0,61.55,108.61Z"/><path class="cls-1" d="M61.49,108.39a5.59,5.59,0,0,0-.79-1.93,2.72,2.72,0,0,0-3.2-1.33c.51,1.74,1.66,2.69,3.89,3.24Z"/><path class="cls-1" d="M94.63,65c.08-2.27-.71-3.68-2.49-4.5l-.1.29A5.27,5.27,0,0,0,94.63,65Z"/><path class="cls-1" d="M94,70.35a4.44,4.44,0,0,0-2-4.85A5.22,5.22,0,0,0,94,70.35Z"/><path class="cls-1" d="M88.41,67.92c1.87,0,2.69-.58,3.43-2.68a2.5,2.5,0,0,0-1-.2C89.7,65,88.79,66.11,88.41,67.92Z"/><path class="cls-1" d="M92.16,60.55a2.16,2.16,0,0,0-.67-.11c-1.28,0-2.21,1.33-2.46,3.49C90.56,63.71,91.54,62.65,92.16,60.55Z"/><path class="cls-1" d="M77.37,102.21a4.45,4.45,0,0,0,1.37-4.42c-.14-.54-.3-.66-.4-.69a1.54,1.54,0,0,1-.29.27l-.05,0-.08.23C77.36,99.15,76.83,100.58,77.37,102.21Z"/><path class="cls-1" d="M80.42,99.38a4.34,4.34,0,0,0,1.14-2.76,3.88,3.88,0,0,0-.8-2.59C80.15,95.72,79.65,97.52,80.42,99.38Z"/><path class="cls-1" d="M82.85,89.58l-.13-.07a1.92,1.92,0,0,0-.9-.23,2.71,2.71,0,0,0-2.34,2c1.31.68,2.51.4,3.79-.89C83.44,89.88,83.23,89.78,82.85,89.58Z"/><path class="cls-1" d="M83.93,90.69c-.12-.23-.27-.54-.41-.54a.29.29,0,0,0-.14,0,6.89,6.89,0,0,0,.22,5.31A5,5,0,0,0,84,90.79Z"/><path class="cls-1" d="M92.88,74.26a4,4,0,0,0-.13-2.9,3.1,3.1,0,0,0-1.4-1.45l-.11.23A5.13,5.13,0,0,0,92.88,74.26Z"/><path class="cls-1" d="M91.14,69.8a2.7,2.7,0,0,0-1-.21A2.33,2.33,0,0,0,87.9,72,3,3,0,0,0,91.14,69.8Z"/><path class="cls-1" d="M89.35,77l-.35,0a3.07,3.07,0,0,0-1.35.35,4.86,4.86,0,0,0-2.58,3.46c1.66-.29,2.92-1.33,4-3.33Z"/><path class="cls-1" d="M90.78,77.88A2.26,2.26,0,0,0,89.67,77l-.06.53c-.27,2.24.16,3.72,1.38,4.77A4.34,4.34,0,0,0,90.78,77.88Z"/><path class="cls-1" d="M88.83,83.09a2.26,2.26,0,0,0-1-1v.24c-.2,3.53-.21,3.9.69,5.36A5.06,5.06,0,0,0,88.83,83.09Z"/><path class="cls-1" d="M87.61,82l.14-.23a2.53,2.53,0,0,0-1.47.07,4.06,4.06,0,0,0-2.72,3C85.08,85,86.35,84.08,87.61,82Z"/><path class="cls-1" d="M85.9,91.61c1.14-2.09,1.05-3.74-.27-5.25C84.82,88.54,84.91,90.23,85.9,91.61Z"/><path class="cls-1" d="M85.64,86.25a1.85,1.85,0,0,0-1.15-.42c-1,0-2.17.94-3,2.54C83,88.67,84.28,88,85.64,86.25Z"/><path class="cls-1" d="M76.68,94.3c1.25,1,2.48.94,3.89-.15l.06-.07a2.34,2.34,0,0,0-1.91-1.25A2.45,2.45,0,0,0,76.68,94.3Z"/><path class="cls-1" d="M76.36,95.41a2.61,2.61,0,0,0-2,1,2.94,2.94,0,0,0,3.77.75.5.5,0,0,0,.19-.29c0-.19-.16-.44-.32-.63A2.14,2.14,0,0,0,76.36,95.41Z"/><path class="cls-1" d="M70.41,100.24a2,2,0,0,0-1.31.47,3.65,3.65,0,0,0,3.26,1.87l.24-.31.19-.23a1.18,1.18,0,0,0-.08-.27A2.58,2.58,0,0,0,70.41,100.24Z"/><path class="cls-1" d="M73.29,102.95c-.06-.25-.15-.65-.26-.65a.4.4,0,0,0-.18.06,5.19,5.19,0,0,0-1.37,4.48A3.49,3.49,0,0,0,73.29,102.95Z"/><path class="cls-1" d="M87.64,74.79a1.45,1.45,0,0,0-.35,1,3.09,3.09,0,0,0,3-1c0-.11-.07-.22-.09-.32l-.06-.25-.18-.06A2.28,2.28,0,0,0,87.64,74.79Z"/><path class="cls-1" d="M90.85,74.53a1.82,1.82,0,0,0-.55-.2h0s0,0-.05.1a4.64,4.64,0,0,0,2.43,3.18A3,3,0,0,0,90.85,74.53Z"/><path class="cls-1" d="M75.07,98.85a2.29,2.29,0,0,0-3.37,0,2.87,2.87,0,0,0,2.52,1.34,6.26,6.26,0,0,0,1-.09l.11-.13h0l.31-.4a1.91,1.91,0,0,0-.46-.61Z"/><path class="cls-1" d="M75.86,100.62l-.05-.18c-.06-.24-.12-.44-.21-.44h-.07a5.14,5.14,0,0,0-.91,4.83A3.92,3.92,0,0,0,75.86,100.62Z"/><path class="cls-1" d="M69.08,103.08a2.15,2.15,0,0,0-3.4-.4,3,3,0,0,0,3,1.88c.3,0,.6,0,.86,0,.22-.53,0-.9-.34-1.33Z"/><path class="cls-1" d="M70,105.32l0-.21c0-.29-.08-.55-.17-.55h0a6.37,6.37,0,0,0-1.5,5.38A4.77,4.77,0,0,0,70,105.32Z"/><path class="cls-1" d="M52.84,110.52c.29-.3.25-.68.14-1.23l0-.14A2.6,2.6,0,0,0,49.76,107c.08,2,1.23,2.79,2.69,3.43l.39-.19Z"/><path class="cls-1" d="M52.7,111.25c0-.2.09-.47,0-.55a.22.22,0,0,0-.13-.06,5.67,5.67,0,0,0-3.27,4.42,4.32,4.32,0,0,0,3.34-3.61Z"/><path class="cls-1" d="M65.8,106.67a1.44,1.44,0,0,0-.24-1.09l-.06-.13a2.62,2.62,0,0,0-2.39-1.59,3.25,3.25,0,0,0-1.25.26c.6,1.91,1.92,2.42,3.5,2.71l.45-.37Z"/><path class="cls-1" d="M65.82,107.74c0-.07,0-.13,0-.2,0-.56-.11-.58-.27-.57a5.48,5.48,0,0,0-2,5A4.16,4.16,0,0,0,65.82,107.74Z"/><path class="cls-1" d="M54.92,113.93a2.53,2.53,0,0,0,1.88-1.06,3.5,3.5,0,0,0,.32-2.89l-.22,0C55.4,110.55,54.85,111.66,54.92,113.93Z"/><path class="cls-1" d="M54.18,106.4h0c.51,2.39,1.56,3.55,3.14,3.43C57.15,107.65,56,106.4,54.18,106.4Z"/><path class="cls-1" d="M54.62,8.23l-.2-.16a7.34,7.34,0,0,0,0,2.25A4,4,0,0,0,57,13.75,6.49,6.49,0,0,0,54.62,8.23Z"/><path class="cls-1" d="M54.49,8.16l.33,0C56.67,8.4,58,7.62,59,5.7a2.44,2.44,0,0,0-3.35.36A4,4,0,0,0,54.49,8.16Z"/><path class="cls-1" d="M80.95,31.72c1.12-1.14,1.56-2.77,1.38-5.09l0-.51A2.89,2.89,0,0,0,81,27.41,4.68,4.68,0,0,0,80.95,31.72Z"/><path class="cls-1" d="M83.58,25.84a2.83,2.83,0,0,0-1.31.34l.35.41C84,28.27,85.4,28.92,87,28.68,86.11,26.88,84.83,25.8,83.58,25.84Z"/><path class="cls-1" d="M84.31,36.44c1.17-1.15,1.53-2.69,1.2-4.92L85.43,31a2.61,2.61,0,0,0-1.19,1.2A4.6,4.6,0,0,0,84.31,36.44Z"/><path class="cls-1" d="M86.62,31.05a2.42,2.42,0,0,0-1.4.12l.33.41C87,33.37,88.36,34.16,90,34.12A4.63,4.63,0,0,0,86.62,31.05Z"/><path class="cls-1" d="M90.54,45.58v-.28a2.37,2.37,0,0,0-1.22.8A3.79,3.79,0,0,0,88.73,50C90.08,49.31,90.64,47.93,90.54,45.58Z"/><path class="cls-1" d="M91.94,45.62a2.49,2.49,0,0,0-1.38-.39l.11.19c1.84,3.08,2.05,3.4,3.64,4.18A5.27,5.27,0,0,0,91.94,45.62Z"/><path class="cls-1" d="M87.35,35.84l0-.29a2.34,2.34,0,0,0-1.14.9,3.78,3.78,0,0,0-.25,3.92C87.21,39.59,87.65,38.18,87.35,35.84Z"/><path class="cls-1" d="M88.87,35.86a2.5,2.5,0,0,0-1.44-.06l.16.16c2.53,2.57,2.82,2.83,4.55,3.21A5.34,5.34,0,0,0,88.87,35.86Z"/><path class="cls-1" d="M53.44,12.43c-.18-2.41-1.07-3.82-2.94-4.61a5,5,0,0,0,1.06,3.65A2.76,2.76,0,0,0,53.44,12.43Z"/><path class="cls-1" d="M50.46,7.62c2,.1,3.14-.83,3.8-3a2.68,2.68,0,0,0-2.86.62A3.53,3.53,0,0,0,50.46,7.62Z"/><path class="cls-1" d="M59,9.63l0,.09A5.09,5.09,0,0,0,61.09,15,6.57,6.57,0,0,0,59.6,9.59h0l-.39-.44C59.12,9.18,59.07,9.29,59,9.63Z"/><path class="cls-1" d="M60.94,9.15a2.62,2.62,0,0,0,2.77-1.89,2.11,2.11,0,0,0-1-.58,2.57,2.57,0,0,0-2.54.61A2.65,2.65,0,0,0,59.39,9,9.76,9.76,0,0,0,60.94,9.15Z"/><path class="cls-1" d="M68.44,13.08l.94.37a2.9,2.9,0,0,0,3.34-.82,3.76,3.76,0,0,0-2.64-1.44,2.06,2.06,0,0,0-2,1.61l.09.18Z"/><path class="cls-1" d="M67.86,12.85a4.17,4.17,0,0,0-.81,2.88,4.61,4.61,0,0,0,1.39,3.11A7.19,7.19,0,0,0,67.86,12.85Z"/><path class="cls-1" d="M64.8,16.33c.5-2.5.11-4.3-1.18-5.59l-.13-.06A4.83,4.83,0,0,0,64.8,16.33Z"/><path class="cls-1" d="M65.42,10.91A3.54,3.54,0,0,0,68,9.5a4,4,0,0,0-2-.62,2.3,2.3,0,0,0-2.27,1.62A4.49,4.49,0,0,0,65.42,10.91Z"/><path class="cls-1" d="M75,16.56a2.48,2.48,0,0,0,1.67-.85,3.55,3.55,0,0,0-2.84-1.54,2.09,2.09,0,0,0-1.72,1.21c.06.15.11.29.17.43A5.65,5.65,0,0,0,75,16.56Z"/><path class="cls-1" d="M71.77,15.36a4.27,4.27,0,0,0-1.1,2.74,5,5,0,0,0,1,3.32A7.28,7.28,0,0,0,71.77,15.36Z"/><path class="cls-1" d="M75.36,24.48a6.79,6.79,0,0,0,.4-5.73h0l-.06,0a3.65,3.65,0,0,0-1.13,2.26A5.07,5.07,0,0,0,75.36,24.48Z"/><path class="cls-1" d="M75.69,18.61a2,2,0,0,1,1,.51,3.13,3.13,0,0,0,3.77.21,4,4,0,0,0-3-1.88A2,2,0,0,0,75.69,18.61Z"/><path class="cls-1" d="M79.24,22.48l0,.05,0,0,1,.71a3.45,3.45,0,0,0,3.72.37c-1.56-2-3.41-2.56-4.79-1.33l.09.08Z"/><path class="cls-1" d="M78.67,27.87c1.17-1.56,1.31-3.12.5-5.64A4.61,4.61,0,0,0,78.67,27.87Z"/><path class="cls-1" d="M93.46,43.92a4.76,4.76,0,0,0-4.17-3.4A5.65,5.65,0,0,0,93.46,43.92Z"/><path class="cls-1" d="M89.08,40.61a2,2,0,0,0-1.57.87,3.55,3.55,0,0,0,.07,3.09C89.23,43.69,89.57,42.77,89.08,40.61Z"/><path class="cls-1" d="M37.67,9.55a5.59,5.59,0,0,0,.79,1.93,2.72,2.72,0,0,0,3.2,1.33c-.51-1.74-1.66-2.69-3.89-3.24Z"/><path class="cls-1" d="M37.61,9.53l.12-.05a4.7,4.7,0,0,0,2.87-4.2A2.88,2.88,0,0,0,38,7.32,4.38,4.38,0,0,0,37.61,9.53Z"/><path class="cls-1" d="M6.42,56.45c-.12-2.3-.86-3.83-2.33-4.77C3.85,54,4.58,55.49,6.42,56.45Z"/><path class="cls-1" d="M4.85,46.57a4.51,4.51,0,0,0,2.08,4.73L7,51A5.27,5.27,0,0,0,4.85,46.57Z"/><path class="cls-1" d="M8.13,51.52c1.19,0,2.1-1.07,2.48-2.88-1.87,0-2.69.58-3.43,2.68A2.5,2.5,0,0,0,8.13,51.52Z"/><path class="cls-1" d="M9.77,53.15c-1.53.22-2.51,1.28-3.13,3.37C8.24,57,9.48,55.67,9.77,53.15Z"/><path class="cls-1" d="M21,20.31c.16-1.56.3-3-.62-4.48a4.4,4.4,0,0,0-.23,4.6,1.91,1.91,0,0,0,.3.44l.2-.2A1.41,1.41,0,0,1,21,20.31Z"/><path class="cls-1" d="M18.07,23.77h0a6.9,6.9,0,0,0-.16-5.13A4.3,4.3,0,0,0,17,21.45a3.92,3.92,0,0,0,.94,2.44l.07-.08Z"/><path class="cls-1" d="M15.91,28.5l.13.07a1.92,1.92,0,0,0,.9.23,2.71,2.71,0,0,0,2.34-2c-1.29-.67-2.49-.4-3.76.85l0,.05C15.33,28.21,15.53,28.31,15.91,28.5Z"/><path class="cls-1" d="M14.76,27.38c.12.23.27.54.41.54a.3.3,0,0,0,.14,0,6.89,6.89,0,0,0-.22-5.31,5,5,0,0,0-.39,4.72Z"/><path class="cls-1" d="M7.59,46.81A6.85,6.85,0,0,0,5.8,41.65,4.48,4.48,0,0,0,7.59,46.81Z"/><path class="cls-1" d="M10.18,46.63A3.27,3.27,0,0,0,11,44.42c-1.61-.17-2.67.64-3.27,2.5A2,2,0,0,0,10.18,46.63Z"/><path class="cls-1" d="M8.8,42.71a2.86,2.86,0,0,0,1.7-.32,4.87,4.87,0,0,0,2.58-3.46c-1.66.29-2.92,1.33-4,3.33Z"/><path class="cls-1" d="M7.75,41.66a2.26,2.26,0,0,0,1.11.83L8.93,42c.27-2.24-.16-3.72-1.37-4.77A4.34,4.34,0,0,0,7.75,41.66Z"/><path class="cls-1" d="M10.71,37.2l-.14.23A2.53,2.53,0,0,0,12,37.36a4.06,4.06,0,0,0,2.72-3C13.22,34.29,12,35.17,10.71,37.2Z"/><path class="cls-1" d="M9.66,36.42a2.25,2.25,0,0,0,1,1v-.24c.2-3.53.21-3.9-.69-5.36A5.06,5.06,0,0,0,9.66,36.42Z"/><path class="cls-1" d="M13,31.82a5.08,5.08,0,0,0,0-4.74c-1.27,1.88-1.38,3.47-.36,5l.14-.12Z"/><path class="cls-1" d="M12.87,32.16a1.8,1.8,0,0,0,1.48.75,4.65,4.65,0,0,0,3.1-1.78C16,30.46,14.65,30.77,12.87,32.16Z"/><path class="cls-1" d="M22.14,23.77c-1.25-1-2.48-.94-3.89.15l-.06.07a2.34,2.34,0,0,0,1.91,1.25A2.45,2.45,0,0,0,22.14,23.77Z"/><path class="cls-1" d="M21,20.66a.49.49,0,0,0-.19.29c0,.19.16.44.32.63a2.14,2.14,0,0,0,1.68.82,2.61,2.61,0,0,0,2-1A2.94,2.94,0,0,0,21,20.66Z"/><path class="cls-1" d="M26.4,16.28a2.54,2.54,0,0,0,2.33,1.88,1.93,1.93,0,0,0,1.16-.39,3.57,3.57,0,0,0-3.05-2.34l-.27.3-.23.23A1.33,1.33,0,0,0,26.4,16.28Z"/><path class="cls-1" d="M26.29,15.53a.41.41,0,0,0,.16,0,5.86,5.86,0,0,0,1.84-4.66,3.82,3.82,0,0,0-2.2,4C26.13,15.07,26.18,15.53,26.29,15.53Z"/><path class="cls-1" d="M24,19.38a2.29,2.29,0,0,0,3.37,0,2.87,2.87,0,0,0-2.52-1.34,7.55,7.55,0,0,0-1.4.16c-.13.42.1.69.47,1.07Z"/><path class="cls-1" d="M23.25,18.06h.07a5.14,5.14,0,0,0,.91-4.83A3.92,3.92,0,0,0,23,17.43l.05.18C23.11,17.86,23.17,18.06,23.25,18.06Z"/><path class="cls-1" d="M30.24,14.71a2.28,2.28,0,0,0,3.35.37,3,3,0,0,0-2.91-1.62c-.3,0-.6,0-.85,0-.18.41,0,.7.34,1.11Z"/><path class="cls-1" d="M29.51,12.67l0,.18c.05.36.09.46.17.46h.05a5.19,5.19,0,0,0,1.48-4.7A4,4,0,0,0,29.51,12.67Z"/><path class="cls-1" d="M46.62,7.89a1,1,0,0,1-.28-.07c-.31.31-.27.69-.16,1.25l0,.14a2.59,2.59,0,0,0,3.19,2.11c-.08-2-1.23-2.79-2.69-3.43h-.09Z"/><path class="cls-1" d="M46.48,7.1c0,.2-.09.47,0,.55a.22.22,0,0,0,.13.06,5.67,5.67,0,0,0,3.27-4.42A4.32,4.32,0,0,0,46.52,6.9Z"/><path class="cls-1" d="M33.87,11.39l-.19,0h-.1c-.22.36-.08.73.17,1.23l.06.13a2.62,2.62,0,0,0,2.39,1.59,3.25,3.25,0,0,0,1.25-.26c-.6-1.91-1.92-2.42-3.5-2.71h-.09Z"/><path class="cls-1" d="M33.43,10.46c0,.07,0,.14,0,.21,0,.56.1.58.27.57a5.48,5.48,0,0,0,2-5A4.16,4.16,0,0,0,33.43,10.46Z"/><path class="cls-1" d="M42.74,8.24c1.13-.67,1.53-1.78,1.43-3.8a2.52,2.52,0,0,0-1.85,1.1A3.39,3.39,0,0,0,42,8.21l.22,0A3.05,3.05,0,0,1,42.74,8.24Z"/><path class="cls-1" d="M42,8.53c.13,2.19,1.26,3.43,3.1,3.43h0C44.64,9.57,43.61,8.41,42,8.53Z"/><path class="cls-1" d="M49.32,110.89c-23.74,0-43.05-23.2-43.05-51.71S25.58,7.47,49.32,7.47s43.05,23.2,43.05,51.71S73.06,110.89,49.32,110.89ZM49.32,8C25.85,8,6.75,30.93,6.75,59.18s19.1,51.22,42.57,51.22,42.57-23,42.57-51.22S72.79,8,49.32,8Z"/><path class="cls-1" d="M49.32,118.36C22.12,118.36,0,91.81,0,59.18S22.12,0,49.32,0,98.64,26.55,98.64,59.18,76.51,118.36,49.32,118.36Zm0-117.26C22.73,1.1,1.1,27.15,1.1,59.18s21.63,58.08,48.22,58.08S97.54,91.2,97.54,59.18,75.91,1.1,49.32,1.1Z"/><path class="cls-1" d="M38.8,37.77c.55-.1.93-.22.94-.92.31.53.58.9,1.21.87-.49.39-.71.78-.27,1.34a1,1,0,0,0-1.55,0C39.34,38.55,39.44,38.12,38.8,37.77Z"/><path class="cls-1" d="M57.71,37.77c.55-.1.93-.22.94-.92.31.53.58.9,1.21.87-.49.39-.71.78-.27,1.34a1,1,0,0,0-1.55,0C58.26,38.55,58.35,38.12,57.71,37.77Z"/><path class="cls-1" d="M47.68,32.33c.9-.16,1.52-.36,1.53-1.49.51.86.94,1.47,2,1.42-.8.63-1.16,1.26-.43,2.18a1.7,1.7,0,0,0-2.52,0C48.57,33.6,48.72,32.9,47.68,32.33Z"/><path class="cls-1" d="M45.68,57.66a.28.28,0,0,0-.23.07q-.66.46-1.34.89l-.68.43c-.12.07-.43.35-.58.27s-.12-.46-.12-.61c.07-1.36,0-1.69,0-2s-.07-.57.15-.66a14.08,14.08,0,0,0,1.61-1l.9-.57c.29-.18.58-.39.88-.55.07,0,.14-.09.23,0s.08.31.08.44,0,.47,0,.71c0,.58,0,1.15,0,1.73,0,.42,0,.83,0,1.25s0,.57,0,.86-.29.42-.5.54c-.52.3-1,.61-1.53.93l-1.41.89a.51.51,0,0,1-.21.09c-.14,0-.21-.1-.21-.23,0-.29,0-.58,0-.87a.61.61,0,0,1,.15-.47,1.35,1.35,0,0,1,.44-.3.4.4,0,0,1,.18,0,.17.17,0,0,1,.15.1c0,.09,0,.22.06.27s.11,0,.15,0l1.55-.95a.53.53,0,0,0,.32-.58v-.41a.22.22,0,0,0,0-.16Zm0-2.32c-.12-.12-.46.2-.54.26-.24.16-.47.34-.72.47s-.35.2-.52.32-.19.11-.24.21a1,1,0,0,0,0,.44c0,.13,0,.27,0,.4a2.09,2.09,0,0,0,0,.35.13.13,0,0,0,.1.11.18.18,0,0,0,.1,0c.24-.14.48-.3.71-.45l.53-.35c.18-.11.6-.25.64-.49a.64.64,0,0,0,0-.17,4.66,4.66,0,0,1,0-.58C45.74,55.7,45.81,55.44,45.71,55.34Z"/><path class="cls-1" d="M55.4,60.18c.09,0,.26.08.36.14s.39.17.39.41a.62.62,0,0,0,.26.54,5.94,5.94,0,0,0,.5.34c.1.07.45.42.56.2a.27.27,0,0,0,0-.11,2.11,2.11,0,0,0,0-.82c-.1-.23-.35-.34-.55-.47L56,59.83c-.2-.12-.6-.21-.63-.47a5.79,5.79,0,0,1,0-.74c0-.37,0-.74,0-1.11,0-.21,0-.43,0-.64s-.13-.78.23-.58c.7.39,1.39.81,2.06,1.25l.5.34c.17.12.18.19.2.4a15.77,15.77,0,0,1,0,1.61c0,.27,0,.55,0,.82,0,.74,0,1.48,0,2.23a.57.57,0,0,1,0,.17c-.1.34-.62-.12-.76-.21s-.24-.15-.3-.19L57,62.5l-1-.6c-.21-.13-.46-.23-.56-.47a1.39,1.39,0,0,1-.08-.41,3,3,0,0,1,0-.66C55.36,60.27,55.36,60.2,55.4,60.18Zm.79-2.57a.13.13,0,0,0,0,.08,2.11,2.11,0,0,0,0,.48c0,.32-.08.8.21,1a7.67,7.67,0,0,0,.66.41c.13.08.47.38.49.06s0-.62,0-.93,0-.38-.19-.52l-.58-.37C56.59,57.78,56.31,57.52,56.18,57.61Z"/><path class="cls-1" d="M54.41,56.08c0,1.41,0,2.81,0,4.22,0,.12.07.45-.11.48a.35.35,0,0,1-.23-.08l-2-1.24c-.24-.14-.54-.25-.61-.54a4.49,4.49,0,0,1,0-.76c0-.26,0-.51,0-.77,0-.55,0-1.11,0-1.66s0-1.15,0-1.72a.23.23,0,0,1,.05-.2.16.16,0,0,1,.15,0,4,4,0,0,1,.62.38c.31.2.63.39.94.59l.92.56a.51.51,0,0,1,.3.53A2,2,0,0,0,54.41,56.08Zm-.87,3.34,0,0a.32.32,0,0,0,0-.15c0-.56,0-1.13,0-1.7q0-.43,0-.86c0-.14,0-.29,0-.43s0-.21,0-.31a.56.56,0,0,0-.16-.14l-.67-.46c-.1-.07-.32-.29-.43-.16s0,.3,0,.42v.64q0,.56,0,1.12c0,.3,0,.6,0,.9a.94.94,0,0,0,0,.39.61.61,0,0,0,.21.23,7,7,0,0,0,.83.53C53.39,59.44,53.48,59.47,53.54,59.42Z"/><path class="cls-1" d="M40.39,62.95a.2.2,0,0,1-.1-.22c0-.58,0-1.16,0-1.74,0-1,0-1.95,0-2.91a1.08,1.08,0,0,1,0-.37c0-.09.15-.17.23-.21a2.65,2.65,0,0,1,.53-.3c.1,0,.15,0,.18.11a1.5,1.5,0,0,1,0,.61c0,.72,0,1.44,0,2.16,0,.47,0,.94,0,1.4,0,.23,0,.46,0,.69s0,.32-.15.42a2.67,2.67,0,0,1-.37.21C40.67,62.84,40.49,63,40.39,62.95Z"/><circle class="cls-1" cx="49.32" cy="55.89" r="0.53"/><path class="cls-1" d="M47.78,48.76s0,.08.05.09-.13.19-.25.22a1,1,0,0,0-.27.11.78.78,0,0,1-.24.06.47.47,0,0,1-.25,0c-.08.07-.2,0-.29.07s-.18,0-.27,0-.09,0-.14,0l-.06.05c0,.07.09.1.13.15a.44.44,0,0,1,.24,0,1.71,1.71,0,0,1,.31.09.42.42,0,0,0,.32,0c.16-.05.33-.07.49-.14a.35.35,0,0,1,.22,0,.1.1,0,0,1,0,.12.92.92,0,0,1-.43.26c-.11,0-.22.1-.34.12a1.15,1.15,0,0,1-.26,0,1.76,1.76,0,0,0-.42,0,3.64,3.64,0,0,1-.53,0c-.18,0-.35-.06-.53,0a2.08,2.08,0,0,0-.5-.1,2.46,2.46,0,0,1-.4-.1.49.49,0,0,0-.17,0,.52.52,0,0,1-.32-.09.47.47,0,0,0-.22-.05h-.3a.91.91,0,0,1-.3.11c-.08,0-.18,0-.24.1s-.05,0-.09,0-.19,0-.28,0a.7.7,0,0,0-.3.08,1.22,1.22,0,0,1-.4.1c-.29.05-.58,0-.86,0-.1,0-.18,0-.28,0a.77.77,0,0,1-.28,0c-.19-.05-.38-.08-.57-.15l-.2-.06a.83.83,0,0,1-.31-.15.5.5,0,0,1-.12-.17.94.94,0,0,1-.15-.41A.87.87,0,0,0,39,49a1.37,1.37,0,0,1-.13-.37.2.2,0,0,0-.08-.12c-.06,0-.1-.1-.15-.15s0-.08-.07-.11,0-.08,0-.12.07-.05.14,0a.67.67,0,0,0,.33.1l.13-.14s-.07-.09,0-.15-.06-.23-.1-.34a.17.17,0,0,1,.06-.18.69.69,0,0,1,.33-.59c.06,0,.1-.1.15-.14a1,1,0,0,1,.43-.15c.21,0,.41,0,.62,0s.5.06.76,0c.09,0,.19,0,.28,0a1.14,1.14,0,0,0,.28,0h.3c.06,0,.11.05.18,0a6.23,6.23,0,0,1,1.05,0c.06,0,.11-.05.18,0a.3.3,0,0,0,.16,0,.5.5,0,0,1,.22,0c.2,0,.39-.06.58,0a.6.6,0,0,1,.35.12.17.17,0,0,0,.08,0c.18,0,.27.18.39.29s0,.1.06.15a1.17,1.17,0,0,1,.06.5c0,.08-.09.13-.07.21s0,.07,0,.11a.55.55,0,0,1,0,.28c-.07.2,0,.36.28.43a.48.48,0,0,1,.14,0,.94.94,0,0,0,.33.1,2.05,2.05,0,0,1,.36.1.65.65,0,0,0,.4,0,1.21,1.21,0,0,1,.35,0c.08,0,.15,0,.23,0S47.67,48.76,47.78,48.76Zm-7.7-.59,0,0,.14.13c0,.11-.12.12-.18.19.1.08.23.1.28.22v.09a.63.63,0,0,0-.21.29.1.1,0,0,1-.12.07L39.86,49h-.17v.3c.07,0,.13.08.19,0s.14,0,.16-.1h.21a.23.23,0,0,1,.25-.06.34.34,0,0,0,.15,0,1.42,1.42,0,0,0,.37,0c.15,0,.29,0,.44,0s.28.06.42,0h0c.06.07.13,0,.2,0s.12.05.2,0,.28.06.42,0l0,0a1.11,1.11,0,0,0,.45.09.27.27,0,0,1,.14,0,.42.42,0,0,0,.26,0c.08,0,.14-.1.25-.1l.13.13a.59.59,0,0,0,.34.11c.09-.07.2,0,.3,0s.18.06.26.1.16,0,.25,0l.08-.13h.16l.13.14h.24a.7.7,0,0,0,.51.13s.05,0,0-.07a1.93,1.93,0,0,0-.6-.43s-.07,0-.11,0a5.29,5.29,0,0,1-.49-.42,1.28,1.28,0,0,1-.31-.59.41.41,0,0,0-.12-.26h-.11c0,.06-.11.1-.14.17h-.28c-.05,0-.1.07-.14,0s-.09,0-.14-.05-.14,0-.2-.07a1.6,1.6,0,0,1-.36-.29.21.21,0,0,0-.19.08.81.81,0,0,1-.25.17l-.15.07c-.09,0-.19,0-.28,0s-.05,0-.08,0A3.18,3.18,0,0,0,42,48a.26.26,0,0,1-.11-.07.72.72,0,0,0-.31-.22c-.16.08-.27.23-.45.32s-.09,0-.12,0-.09,0-.14.05-.15.06-.28,0l-.13,0a.46.46,0,0,1-.26-.09.3.3,0,0,0-.26-.07c-.1.1-.19.22-.33.26a.6.6,0,0,0-.31.21v0c0,.09.11.12.14.19a.23.23,0,0,0,.14.16c.06-.07.17-.08.2-.18a.3.3,0,0,1-.06-.23l.19-.19Zm-.46,1.23c-.07-.14-.21-.24-.19-.41a1,1,0,0,1-.21-.37.28.28,0,0,0,0-.2A.69.69,0,0,0,39,48.3c-.09,0-.07.15-.11.22s.1.16.17.21a.12.12,0,0,1,0,.08c0,.11.07.19.1.29s0,0,0,.09a.41.41,0,0,0,.15.3h.1Zm3.52-2.53h-.61s-.08,0-.1,0a.64.64,0,0,1-.38.07.11.11,0,0,0-.05.12l.05.05h.24a.76.76,0,0,0,.25,0,.38.38,0,0,1,.21,0,.58.58,0,0,0,.19,0,.48.48,0,0,0,.21-.16Zm1.93.86s0,.08,0,.14l0,0c0,.14.09.23.12.34s.07,0,.09-.06,0-.16,0-.22a.25.25,0,0,1,0-.27,2.67,2.67,0,0,0,.07-.28c0-.06-.06-.1,0-.14l-.15-.15a.24.24,0,0,0-.09.21.32.32,0,0,1-.1.22A.38.38,0,0,0,45.07,47.73Zm-5.43-.78a.23.23,0,0,0-.26.11l-.12.21a.41.41,0,0,0-.07.23c0,.06,0,.13,0,.17a.32.32,0,0,0,.12.17c.07,0,.1,0,.13-.05a1,1,0,0,1,.21-.78Zm2.44.55s.06,0,.05-.09l-.37-.21a.09.09,0,0,0-.05.1l.14.14C41.93,47.41,42,47.51,42.08,47.5ZM43.53,47l.12.13s.06,0,.08,0v-.06l-.14-.14h-.06S43.53,47,43.53,47Zm-.47.34a.18.18,0,0,0-.13,0s0,.06.1.06Z"/><path class="cls-1" d="M59,47.1s0-.07,0-.09a.37.37,0,0,1,.25-.07l.08.1h.3c.09.09.2.07.31.07s.13.11.12.22a.21.21,0,0,1-.15.2h-.18l-.12-.13h-.2l-.28.28v0c0,.11.13.15.14.27a.73.73,0,0,1-.35.29c-.11.14,0,.3-.06.45s.14.07.18.16a.35.35,0,0,1-.13.16.29.29,0,0,0-.15.3.77.77,0,0,1,0,.1l.08.16c.06,0,.1.08.16.13v.15a.22.22,0,0,1-.2.08v-.19l-.06-.05h-.15a.4.4,0,0,1-.44.24c-.08,0-.14.07-.21,0l-.06.08c-.07,0-.15,0-.23,0s-.09,0-.13.07a6.05,6.05,0,0,1-.72,0,.33.33,0,0,0-.17.05.18.18,0,0,1-.15,0,.9.9,0,0,0-.34,0,.41.41,0,0,0-.19.06.15.15,0,0,1-.11,0c-.09-.06-.18,0-.27,0s-.18,0-.27,0a.14.14,0,0,1-.1,0,2.14,2.14,0,0,0-.58-.07.38.38,0,0,1-.17-.05.13.13,0,0,0-.11,0c-.09.07-.17,0-.25,0a1.05,1.05,0,0,0-.47-.07l-.2-.11h-.27s0,.08,0,.12l.11.08h.44l0,.07h.1v.05h-.24a.68.68,0,0,1-.44-.13l-.07,0c-.16,0-.24-.11-.34-.2l0,0v-.14c.09-.15.24-.25.28-.44a1.57,1.57,0,0,0-.28-.36v-.11l.14-.14a.13.13,0,0,1,0,0,.18.18,0,0,0,0-.17.35.35,0,0,0-.17-.18l-.09,0A.22.22,0,0,1,52.5,48c.06-.21,0-.28-.16-.4a.31.31,0,0,0-.32,0l0,0a.18.18,0,0,1-.17,0c-.06,0-.18-.14-.18-.18a.23.23,0,0,1,0-.13A.48.48,0,0,1,52,47a.33.33,0,0,1,.23,0s.11,0,.15,0,.2-.14.35-.09l.11.12a.44.44,0,0,0,.26,0c.14-.07.26,0,.38.06l.2.11a.28.28,0,0,1,.18.18s-.06.06-.09.11l-.18-.19c-.09,0-.18,0-.19.15a.28.28,0,0,0,.24.13s.05,0,.08.06-.09.19-.07.32l.11.1c0,.08-.13.13-.15.23s0,0,0,.07h.15c0-.07.1-.06.16-.09a.82.82,0,0,0,.27-.16.25.25,0,0,1,.23-.06s.11,0,.13.1h.15l.08.09s-.08,0-.11.08h-.22a.33.33,0,0,0-.25.08c-.08.08-.18.05-.27.06l-.13.13H54l0,0c.06,0,.13,0,.19,0a1.57,1.57,0,0,0,.34,0,1,1,0,0,0,.34,0,1.15,1.15,0,0,1,.42,0h.13l0,.05v0l-.22.08a.26.26,0,0,0-.07.26c0,.14.17.16.27.23a.09.09,0,0,1-.14.06.64.64,0,0,0-.34,0,1.33,1.33,0,0,1-.46,0,.41.41,0,0,0-.23,0c-.07,0-.14.08-.22.06s-.15.06-.22,0l-.18.18s0,.07.08.1a1.16,1.16,0,0,0,.38-.09s.07-.05.12,0a1.52,1.52,0,0,0,.51-.07.7.7,0,0,1,.23,0,.18.18,0,0,0,.11,0,.32.32,0,0,0,.28,0,.51.51,0,0,1,.13,0,1.11,1.11,0,0,0,.34,0,.19.19,0,0,1,.18,0,.19.19,0,0,0,.15,0,.44.44,0,0,1,.31,0h.09a1.69,1.69,0,0,1,.64.07h.09a.91.91,0,0,1,.3,0,.18.18,0,0,0,.18,0,.1.1,0,0,1,.13,0s.07,0,.09,0l.13.13h.27a.33.33,0,0,0,.16-.12v-.15c0-.11.17-.11.22-.21a.34.34,0,0,0-.13-.25h-.11l-.08.14v.23l-.05.05H58c-.07-.05-.16-.06-.21-.14a4.25,4.25,0,0,1-1.13-.08s-.08,0-.08,0,.13-.17.14-.29-.21-.11-.21-.27c.11,0,.22,0,.33,0h.05a3.27,3.27,0,0,1,.53,0,1,1,0,0,1,.27.07.31.31,0,0,0,.4-.11s-.06-.07-.09-.11a.8.8,0,0,1-.51-.11.34.34,0,0,0-.19-.06c-.21,0-.41,0-.62,0H56.1c-.05,0-.11,0-.16,0a.11.11,0,0,1-.1,0,.34.34,0,0,0-.29,0,.73.73,0,0,1-.23,0c0-.17.23-.15.29-.27v-.11h-.19l-.08.11c-.07,0-.12,0-.14,0L55.08,48c0-.08.07-.13,0-.23a1.32,1.32,0,0,0-.33-.28v-.16a.3.3,0,0,1,.14-.11c.11,0,.16-.15.27-.2a.31.31,0,0,0,.18-.21V46.6l.14-.13s.09-.11.16-.12a.21.21,0,0,0,.11-.08A.25.25,0,0,1,56,46.2c.09.11.18.24.33.25l.18.17s0,.1-.09.14c-.22,0-.25-.22-.32-.38h-.17l-.12.12a.09.09,0,0,0,0,.11,1.59,1.59,0,0,1,.24.14.2.2,0,0,1,.11.29.33.33,0,0,0,0,.13s.07,0,.12,0,.23.08.26.26a.27.27,0,0,0-.14.1c0,.08,0,.11.09.16s.12,0,.16-.06v-.17a.33.33,0,0,0,.17-.06V47.3l-.08-.08h-.13c-.1-.07-.14-.19-.23-.26v-.17c.1,0,.12.12.2.15a.85.85,0,0,1,.19.1,2,2,0,0,0,.21.17s0,.07.07.11a.42.42,0,0,1-.11.17.34.34,0,0,0-.13.33.41.41,0,0,1,0,0s-.08,0-.08.05-.25,0-.35.06l.15.12a.93.93,0,0,0,.47.06l.09-.09v-.21c.06-.09.22-.07.24-.21s0-.32.2-.37a.24.24,0,0,1,.18.13.52.52,0,0,1,.07.36h-.28s0,.08,0,.13l.19.19c.06.07.14.08.22.14H58l.08.1a.26.26,0,0,0,.23-.06s0-.06,0-.1h-.29L58,47.93c0-.05.09-.05.14-.09s.19.13.26.22.11,0,.16-.08a2.78,2.78,0,0,1,.11-.48s0-.06.13-.08h0s0,0,0-.07l-.11-.08h-.09l-.06.06h-.24s-.11.07-.08.18l.12.11c0,.12-.07.12-.12.17l0,0v-.21a.27.27,0,0,1-.11-.21.26.26,0,0,1,.15-.1,1.23,1.23,0,0,0,.28-.13s0,0,.06,0a1.37,1.37,0,0,1,.5.1v.16l0,0h.18l.09-.08c0-.06,0-.11-.07-.12s-.08,0-.11,0S59.06,47.14,59,47.1Zm-3.61.58c0-.11-.16-.09-.18-.19s.06-.09,0-.14.22-.11.28-.22V47h-.19l-.18.18c-.06.06-.16,0-.21.1v.15c.06.1.18.06.23.14s0,.14,0,.19h.17Zm1.71,1.13a.23.23,0,0,0,.15.22.25.25,0,0,0,.27-.07v-.12A.36.36,0,0,0,57.14,48.81Zm-3.72.47a.27.27,0,0,0,.05-.2.23.23,0,0,0-.23-.07l-.09.08v.14l.06.06C53.31,49.35,53.36,49.29,53.42,49.28Zm-.7-2.2c-.07.08-.16.14-.16.26a.33.33,0,0,0,.1.1c.07,0,.17,0,.21-.13S52.84,47.11,52.72,47.07Zm1.79,1.72h-.19a.31.31,0,0,0-.08.14l.08.1c.1,0,.19,0,.26-.06v-.1Zm-.93-.86v-.11l-.16-.16h-.07l0,0a.26.26,0,0,0,.08.26A.33.33,0,0,0,53.57,47.94Zm2.11-.55.13.08c.07-.06.17-.06.22-.15a.51.51,0,0,0-.31-.13A.26.26,0,0,0,55.68,47.39Zm3.38.55v-.15a.12.12,0,0,0-.13,0l-.1.08v.24h.11Zm-3.19-.25a.3.3,0,0,0,.23.19l.06-.06c0-.08,0-.16-.06-.22h-.17S55.92,47.67,55.87,47.7Zm2.65.89s-.08.05-.09.11a.4.4,0,0,0,.13.17.11.11,0,0,0,.12-.05v-.14S58.62,48.57,58.53,48.59ZM53,47.42h.16s0-.06,0-.08,0-.05,0-.08l-.05,0c-.06,0-.12,0-.16.05Zm3.19,2.33s.07,0,.09,0l.06.06s.08,0,.12,0v-.11l0,0h-.18S56.23,49.7,56.23,49.76Zm-3.3-.9a.1.1,0,0,0,.13.08l0,0v-.12C53,48.73,53,48.81,52.94,48.85Zm.29-.27c0,.06,0,.07,0,.09s.14,0,.2,0l0,0Zm-1.09-1.37c-.08-.09-.1-.09-.15,0a.09.09,0,0,0,0,.11h.11S52.14,47.25,52.14,47.22ZM56,49.83c-.13,0-.18,0-.21.13S56,49.93,56,49.83Z"/><path class="cls-1" d="M57.82,50.31l.11-.11a.1.1,0,0,1,.13.06s0,0-.05.08a.88.88,0,0,0-.48.09.23.23,0,0,1-.18,0c-.13-.08-.25,0-.37,0s-.06,0-.08,0a.36.36,0,0,0-.35,0H56c-.06,0-.11,0-.18,0s-.14.06-.21,0-.18,0-.27,0l-.11,0H55a.69.69,0,0,1-.23,0c-.11,0-.23,0-.34,0a1.19,1.19,0,0,1-.49-.12s0,0,.05,0,.12-.06.18,0,.21.05.32,0,.11,0,.16,0a2.83,2.83,0,0,0,.44,0,5.09,5.09,0,0,0,.79,0,4.32,4.32,0,0,1,.63,0,.79.79,0,0,1,.25,0,.24.24,0,0,0,.22,0,.13.13,0,0,1,.08,0c.06,0,.13,0,.17,0s.09,0,.14,0a.31.31,0,0,1,.25,0C57.69,50.31,57.75,50.28,57.82,50.31Z"/><path class="cls-1" d="M55.61,48.69l0-.06c0-.05.06-.07.08-.11s.2,0,.3,0,.07,0,.11,0h.24c0,.1,0,.2,0,.29s0,.1,0,.17l.11.11-.05.05c-.06,0-.11,0-.18,0a.22.22,0,0,0-.18,0c-.11.05-.23,0-.34,0s0,0-.08,0a.74.74,0,0,0-.1-.25C55.47,48.76,55.58,48.76,55.61,48.69Zm.43,0c-.13,0-.24,0-.35,0a.1.1,0,0,0-.06.12l.13.12s.1,0,.13,0,.16,0,.23-.08.06-.09,0-.13S56.07,48.73,56,48.69Z"/><path class="cls-1" d="M54.1,47.9c.08-.11,0-.23,0-.36a1,1,0,0,1,.2-.25h.14c0,.11.13.19.12.33l.18.18c.06.06.16.07.18.18h-.24a2,2,0,0,0-.21-.16.3.3,0,0,0-.19-.05Z"/><path class="cls-1" d="M54.1,47.92a0,0,0,0,1,0,0h0A0,0,0,0,1,54.1,47.92Z"/><path class="cls-1" d="M43,49h-.19l-.08-.11,0,0c0-.06.09-.14.15-.16s.07-.09.12-.13v-.17a.4.4,0,0,1,.25-.17.33.33,0,0,1,.13.15.09.09,0,0,1,0,.08c-.08.11,0,.21,0,.31s.07.16.11.24,0,0,0,.07h-.22c-.06.06-.07.14-.16.18s-.09-.05-.14-.09Z"/><path class="cls-1" d="M41.61,48.28a.4.4,0,0,1,0-.25h.11a.45.45,0,0,1,.1.12.17.17,0,0,1,0,.14.39.39,0,0,0,.1.44l0,0c0,.07,0,.08,0,.11s-.16-.11-.27-.06a.27.27,0,0,1-.06.21h-.09c-.06,0-.05-.1-.11-.14h-.25V48.7a.48.48,0,0,1,.15-.11.3.3,0,0,0,.13-.14c0-.06,0-.13.14-.11S41.59,48.3,41.61,48.28Z"/><path class="cls-1" d="M44.69,49.16s-.09.06-.14.09-.13,0-.15.12a.15.15,0,0,1-.14.06s-.11-.06-.09-.15l.1-.08a.31.31,0,0,0,0-.14h-.06c-.07,0-.09.13-.2.1v-.2a.6.6,0,0,0,.2-.17v-.2s0-.05.07-.05h0a.32.32,0,0,1,.08.14.42.42,0,0,0,.2.28A.22.22,0,0,1,44.69,49.16Z"/><path class="cls-1" d="M44.56,48.62c0-.08-.13-.13-.11-.25s.1.13.17.16S44.58,48.59,44.56,48.62Z"/><path class="cls-1" d="M46.63,70c-.1.15-.1.15-.1.24l.11.09c0,.06,0,.1,0,.12s0,.16-.12.21-.18,0-.27,0H46c-.08-.07-.08-.07-.1-.15s.18-.15.21-.28A.43.43,0,0,0,46,70c0-.06-.1-.13,0-.22a.16.16,0,0,0,0-.08c0-.13,0-.26,0-.4s0-.07,0-.11,0-.08,0-.11a.39.39,0,0,0,0-.27.25.25,0,0,1,0-.17.31.31,0,0,0,0-.2q0-.41,0-.83A2.51,2.51,0,0,0,46,67a.71.71,0,0,0-.22-.18v-.16a.23.23,0,0,0,.06-.21c-.08,0-.14-.06-.22,0s0-.13-.1-.17-.3.07-.46.06-.08.11-.12.16,0,.11.06.16.06.11,0,.17l-.19.18c0,.08,0,.13,0,.17a.59.59,0,0,1,.09.36c0,.11,0,.22,0,.33a2.77,2.77,0,0,0,0,.34c0,.1-.05.18,0,.28s0,.19,0,.27a5.9,5.9,0,0,1,0,.88.6.6,0,0,1-.11.43.4.4,0,0,0,.14.23c0,.06.05.1,0,.16a.3.3,0,0,1-.37.13,3,3,0,0,0-.38,0l-.08-.08s.06-.08,0-.13l.19-.18c0-.06,0-.08,0-.1a.55.55,0,0,1-.07-.31c0-.07,0-.14,0-.21s0-.11,0-.18a4,4,0,0,0,0-.54s0,0,0-.05,0-.06,0-.11a1,1,0,0,0,0-.19,1.24,1.24,0,0,0,0-.45,5.49,5.49,0,0,0,0-.67c.07-.1,0-.22,0-.32l-.12-.12c-.07,0-.1,0-.15-.08v-.11l.06-.06v-.1c0-.1-.16,0-.2-.12a2.59,2.59,0,0,0,.1-.79h.16l.09.09c.07,0,.11,0,.14,0l.14.14h.14c.05,0,0-.11.11-.13s.05,0,.08.05v.1a.3.3,0,0,0,.19.1l.05-.06s0-.11,0-.14,0-.11.09-.15.09,0,.12.07v.18c0,.07.1.06.16.05s.07-.19.14-.27h.11c0,.07,0,.15,0,.23s.1.07.16,0v-.13a.35.35,0,0,1,.14-.09c.11.05.12.05.33,0a.39.39,0,0,1,.09.28c.06,0,.12,0,.17-.06v-.23l0,0c-.06-.05-.16,0-.21-.08s-.14,0-.19-.08,0,0-.07,0a1.43,1.43,0,0,1-.26,0,.3.3,0,0,0-.26,0s-.07,0-.1,0h-.48s-.1,0-.14,0a.09.09,0,0,1-.08,0c-.12-.06-.24,0-.37,0s-.26-.15-.46.05l-.05.05H43.9l-.12-.13h-.19c0-.05-.15,0-.12-.13l.15-.15A2.5,2.5,0,0,0,44,65c.18-.07.33-.19.51-.27a.37.37,0,0,1,.16-.06.13.13,0,0,0,.07,0,3.15,3.15,0,0,1,.6-.34s.1,0,.14-.08a0,0,0,0,1,0,0c.1,0,.16-.06.23-.1a1.06,1.06,0,0,1,.3-.15c.07,0,.13-.1.21-.12a1.46,1.46,0,0,1,.21-.08.52.52,0,0,0,.26-.15.21.21,0,0,1,.17-.08.16.16,0,0,0,.12,0,1.55,1.55,0,0,1,.35-.23h.11l.31-.2s0,0,.05,0,.2-.07.28-.12a1.42,1.42,0,0,1,.33-.16.51.51,0,0,0,.2-.13.37.37,0,0,1,.22-.11.25.25,0,0,0,.1,0,.57.57,0,0,1,.15-.09.66.66,0,0,1,.19,0l.3.17s0,0,.09,0a.28.28,0,0,1,.2.08l.2.11a.94.94,0,0,0,.2.1.47.47,0,0,1,.18.11.85.85,0,0,0,.31.17c.11,0,.2.12.31.16a1.12,1.12,0,0,1,.29.17,3.67,3.67,0,0,0,.43.24.72.72,0,0,1,.15.09l.06,0a1.75,1.75,0,0,1,.43.22,1.86,1.86,0,0,0,.17.08l.07,0c.07,0,.1.1.16.11a.27.27,0,0,1,.17.09.15.15,0,0,0,.08,0,.45.45,0,0,1,.27.17.68.68,0,0,1,.27.09c.11.08.24.13.36.22h0a.89.89,0,0,1,.2.1.9.9,0,0,0,.25.14,1.3,1.3,0,0,1,.31.19v.11h0a.38.38,0,0,1-.26-.11.67.67,0,0,0-.18-.1,1,1,0,0,1-.27-.14.32.32,0,0,0-.25-.09c-.06,0-.08-.06-.15,0a.32.32,0,0,0-.2-.13c-.06,0-.1-.07-.14-.11h-.12s0,0,0,0l.08.09a.2.2,0,0,1,.19,0c.1.08.22.12.3.23a.17.17,0,0,0,.1.06.94.94,0,0,1,.39.22.26.26,0,0,0,.13.06c.07,0,.07,0,.08.12a.12.12,0,0,1-.13,0,.61.61,0,0,0-.45-.09l-.05.05c0,.07,0,.16.05.22h.2c.12.06,0,.13,0,.2s0,.1.07.13v.45c-.06.06-.16,0-.21.12a.5.5,0,0,1,0,.28.56.56,0,0,0-.19.16v.21a.94.94,0,0,1,.13.37c0,.08.07.16,0,.25a.06.06,0,0,0,0,.05.84.84,0,0,1,0,.38c0,.26,0,.53,0,.79s0,.47,0,.71c0,.05-.05.08,0,.14S54,70,54,70s0,.19,0,.29.12.2.06.29h-.54l-.14.07s-.06-.06-.1-.08a.44.44,0,0,1,.06-.3.35.35,0,0,0,0-.39.41.41,0,0,1,0-.16c0-.25,0-.49,0-.74,0,0,0-.1,0-.14a.14.14,0,0,0,0-.13c0-.06,0-.12,0-.18,0-.3,0-.6,0-.9,0-.06,0-.11,0-.17s0-.08,0-.14.09-.09.1-.17V67c-.09-.09-.24,0-.3-.17s0-.09.06-.2v-.17a.39.39,0,0,1,.3,0,1.26,1.26,0,0,0,.28,0l.1-.08a.11.11,0,0,0,0-.13h-.06a1,1,0,0,1-.38,0,.74.74,0,0,0-.37.05c0,.05.09.12,0,.18a.6.6,0,0,1-.63-.23h-.19l-.05.05c0,.06.06.08.09.12a.12.12,0,0,1,.15.09c0,.07.05.1.07.14s.06.1,0,.16-.16.13-.23.21v.14a.29.29,0,0,1,.1.24.22.22,0,0,0,0,.13.21.21,0,0,1,0,.19.2.2,0,0,0,0,.18.42.42,0,0,1,0,.21q0,.85,0,1.7a.51.51,0,0,1,0,.16.27.27,0,0,0,.07.29.21.21,0,0,1,0,.3c-.06,0-.13.09-.21,0h0c-.06,0-.11,0-.18,0s-.1-.05-.16,0-.07.06-.1,0l-.16-.15s0-.09.06-.13a2.48,2.48,0,0,0,.12-.23.2.2,0,0,0,0-.19.84.84,0,0,1,0-.53.24.24,0,0,0,0-.05,3.22,3.22,0,0,0,0-.55,5,5,0,0,1,0-.69c0-.06,0-.13,0-.19a.1.1,0,0,0,0-.08.64.64,0,0,1,0-.39c0-.07,0-.13.07-.18s0-.1.08-.12-.07-.2-.2-.22a.16.16,0,0,1-.15-.18l.2-.2s0-.06,0-.09-.11,0-.17,0,0,0-.06,0-.29,0-.43,0a1,1,0,0,0-.3,0,3.42,3.42,0,0,1-.73,0h-.74a.78.78,0,0,1-.28,0,.21.21,0,0,0-.22,0,1.39,1.39,0,0,1-.3,0,.43.43,0,0,0-.3,0,.23.23,0,0,1-.18,0,.47.47,0,0,0-.23,0H46.6c0,.05,0,.1,0,.15a.26.26,0,0,1,0,.22l-.13.11a.74.74,0,0,0,.06.43c0,.1,0,.19,0,.29s0,.23,0,.34,0,.16,0,.24,0,.16,0,.23,0,.15,0,.23,0,.17,0,.26v1Zm6.21-4.5a.29.29,0,0,1-.32,0s-.08,0-.12,0a.2.2,0,0,1-.16,0c-.12,0-.24,0-.36-.08a.21.21,0,0,0-.19,0,.55.55,0,0,1-.12,0,.37.37,0,0,1-.23,0c-.08,0-.16.07-.24,0a.33.33,0,0,0-.26,0,1.44,1.44,0,0,1-.31,0c-.13,0-.26,0-.4,0H48.82a.7.7,0,0,0-.33,0,.16.16,0,0,1-.13,0,.47.47,0,0,0-.25,0h-.34c-.11,0-.21.07-.33,0s-.05.11-.14.11l-.08-.1H47c-.13.11,0,.22,0,.32a.12.12,0,0,0,.13.06.22.22,0,0,0,.13-.13c.07,0,0,.14.09.16h.15a.1.1,0,0,0,0-.12c0-.09,0-.09.05-.14l.13.13c0,.05,0,.11.08.11s.09,0,.09-.09,0-.08.1-.08v.15l.05.05h.15l0,0c-.05,0,0-.09,0-.12s.07-.07.12-.07l.09.08v.1h0l0,.06c.09,0,.13-.05.21-.07s.22.08.33,0-.08-.08-.1-.13.1-.05.14-.05l0,0c0,.07,0,.1,0,.17a.43.43,0,0,0,.16,0c0-.07-.08-.08-.07-.14s.08-.07.17,0v.1l.09.1c.06,0,.13,0,.18,0s-.07-.17,0-.26.07-.06.11,0a.19.19,0,0,1,.05.16l.08.1h.12l.09-.24c.06,0,.12,0,.16.06v.17s.07,0,.1,0v-.14s.06-.08.11-.09.12.18.22.24.11,0,.15-.06v-.09c0-.07.1-.06.15-.05s.07.09.13.1a.22.22,0,0,1,.09-.11c.06,0,.14.07.21,0a.52.52,0,0,1,.21,0c.08,0,.05.1.06.15l.08.09h.18s0,0,0-.08a.44.44,0,0,1-.07-.15.22.22,0,0,1,.14,0v.15a.27.27,0,0,0,.21.09.29.29,0,0,1,.19,0s.09,0,.13,0l.08-.08a.32.32,0,0,1,.08-.18,1,1,0,0,0,.19.23.11.11,0,0,0,.12-.06v-.1l.1-.1,0,0v.18c.07,0,.13.08.19,0s.12,0,.16,0,.11.08.18.07h0l.11-.11s0,0,0-.06a.21.21,0,0,0-.17-.22l-.19,0a.5.5,0,0,0-.3,0,.16.16,0,0,1-.14,0Zm-1.43-1a.31.31,0,0,1-.16-.12.77.77,0,0,0-.32-.19.86.86,0,0,1-.25-.14.51.51,0,0,0-.35-.15.76.76,0,0,0-.35-.2.51.51,0,0,1-.2-.1.71.71,0,0,0-.33-.15l-.12-.12H49.1c-.15.16-.37.19-.51.35H48.4l-.1.07a.62.62,0,0,0-.24.17.23.23,0,0,1-.16.07.29.29,0,0,0-.22.1.22.22,0,0,1-.11.07,1.17,1.17,0,0,0-.44.31.65.65,0,0,0-.43.15c0,.05,0,.11.06.15s.1,0,.16,0,.11-.05.18,0,.08,0,.1,0,.12,0,.18,0h.24a.71.71,0,0,1,.33,0,.09.09,0,0,0,.08,0s.1,0,.14,0h2s.1,0,.15,0,.12,0,.19,0,.12.09.18,0,.05,0,.08,0,.07,0,.12,0,.09,0,.14,0h.33a.33.33,0,0,1,.2,0c.06,0,.12,0,.15-.1s-.12-.18-.2-.26Zm-1.17-1.21A.33.33,0,0,1,50,63c-.07,0-.13,0-.2,0s-.13-.08-.22-.07l-.08-.09a.6.6,0,0,0-.33,0c-.08,0-.12.08-.17.13h-.17s-.07,0-.1.06-.31.16-.46.25a.31.31,0,0,0-.27.14h-.18a.77.77,0,0,1-.16.2h-.15c-.06,0,0-.1-.1-.13s-.11,0-.14.1h-.13l-.13.12c0,.06,0,.11,0,.16s-.17.13-.3.14l-.15.17h-.1s0,.08-.07.1h-.1a.53.53,0,0,1-.34.18.2.2,0,0,0-.12.07c-.09.11-.25.14-.34.27s-.06,0-.11,0a.17.17,0,0,0-.11.05.29.29,0,0,1-.25.08c-.12.09-.28.11-.36.22v.14a.13.13,0,0,0,.15,0c.11-.09.18-.21.33-.26s.13-.15.24-.16a.31.31,0,0,1,.3-.12.59.59,0,0,0,.18-.12A1,1,0,0,1,46,64.6c.06,0,.09-.09.14-.11a2,2,0,0,0,.32-.21h.13A2.56,2.56,0,0,1,47.2,64h0c.15-.14.36-.16.52-.28l.21-.12a.81.81,0,0,1,.23-.11s.11,0,.12-.07.13-.1.21-.1l.1-.1a.35.35,0,0,0,.31-.07.63.63,0,0,1,.48-.13c.13.11.23.24.42.24l0,0a.69.69,0,0,1,.32.21l.09,0a6.46,6.46,0,0,0,.69.36.11.11,0,0,1,.05,0,.4.4,0,0,0,.19.12.7.7,0,0,1,.3.15l.05,0a.51.51,0,0,1,.22.09l.09,0,.13.13a.83.83,0,0,0,.28.07.82.82,0,0,0,.28.2,4,4,0,0,1,.51.27h.15s0-.06,0-.09c-.17-.16-.4-.24-.56-.42a.43.43,0,0,1-.33-.12s-.07-.05-.1,0-.09,0-.14,0-.19-.06-.18-.18l.13-.06c0-.07,0-.09,0-.13s-.08,0-.13,0l-.11.13c-.09,0-.15,0-.22,0a.93.93,0,0,0-.28-.21c-.05,0-.11,0-.16,0s-.24-.11-.32-.22a.44.44,0,0,1-.34-.14A.33.33,0,0,0,50.24,63.25Zm3.55,1.84c-.13,0-.25-.07-.38,0,0,.14.09.27.24.32h.21C53.93,65.27,53.92,65.23,53.79,65.09ZM46,66.34v.07c.16.09.33,0,.49,0s0,0,.05,0c-.08-.23-.27-.14-.42-.16S46,66.29,46,66.34Zm3.51-3.65a.53.53,0,0,0,.31.17l.07.09c.11,0,.21.07.31,0l-.09-.09a.23.23,0,0,1-.19-.06.92.92,0,0,1-.18-.14.21.21,0,0,0-.19-.07h0Zm1.09,2.5c-.1,0-.18,0-.27,0s0,.07,0,.09h.22s.05,0,0-.08Zm1.27,1.1c0,.07,0,.1,0,.13H52s.05,0,0-.08,0,0,0,0Zm-2.73-3.66,0,0a.2.2,0,0,1-.16,0l-.14.14c.1,0,.16-.13.28-.11S49.14,62.64,49.16,62.63Zm-3.94,2h.19s.06,0,.05-.09S45.35,64.53,45.22,64.62Zm5.44-1.46-.05-.05s-.08,0-.12,0,.06.09.13.08Zm2.93,3.62c.13,0,.13,0,.13-.09s-.08,0-.13,0Zm-2.32-3.13.11,0s-.06-.06-.11-.06,0,0,0,0Zm-5.11,3.08a.18.18,0,0,0,.16,0s0,0,0-.05S46.22,66.67,46.16,66.74Zm3-4.2a.15.15,0,0,0,.14,0A.16.16,0,0,0,49.19,62.55Zm-2.61,1.39a.09.09,0,0,0,.06-.05s-.05,0-.07,0S46.56,63.92,46.57,63.94Zm3,1.33s-.05,0-.07,0S49.57,65.29,49.6,65.27Zm1.27-1.89a0,0,0,0,0,.07,0A0,0,0,0,0,50.87,63.37Z"/><path class="cls-1" d="M54.34,70.77l.11.12c0,.06,0,.1-.09.15a2.22,2.22,0,0,0-.44,0c-.06,0-.12,0-.18,0a.14.14,0,0,0-.12,0,1.4,1.4,0,0,1-.45,0c-.06,0-.1-.05-.16,0a1.47,1.47,0,0,0-.28.08s0,.06,0,.08a2.32,2.32,0,0,0,.67,0c.06,0,.11,0,.18,0a.63.63,0,0,0,.19,0c.05,0,.12,0,.18,0a.1.1,0,0,1,.1,0c.06.05.12,0,.18,0a.69.69,0,0,0,.33,0,.88.88,0,0,1,.22,0c.08,0,.06.1.06.16l-.15.15h-.42c-.08,0-.17,0-.24,0h0c-.09-.06-.2,0-.29,0a1.58,1.58,0,0,0-.45,0,.53.53,0,0,0-.3,0H52.9a.71.71,0,0,0-.42,0,.39.39,0,0,1-.28,0,.26.26,0,0,0-.12,0,2,2,0,0,1-.45,0,3.61,3.61,0,0,0-.54,0,2.52,2.52,0,0,1-.64,0,4,4,0,0,0-.76,0,1.35,1.35,0,0,0-.26,0c-.08,0-.17,0-.24,0l-.25-.06c-.05,0-.12,0-.15,0a.3.3,0,0,1-.2,0H48c-.12,0-.23-.07-.35,0a1.75,1.75,0,0,1-.47,0c-.09,0-.17,0-.26,0s-.37.05-.55,0-.37,0-.55,0c0,0-.06,0-.08,0a.08.08,0,0,1-.1,0,.93.93,0,0,0-.38,0h-.4a.2.2,0,0,0-.16.09s0,.06,0,.08h.77s.06,0,.08,0a.08.08,0,0,1,.1,0,.66.66,0,0,0,.33,0h2.13c.06,0,.12,0,.18,0a.06.06,0,0,1,.08,0s.06,0,.09,0,.12,0,.18,0,.07,0,.1,0a.43.43,0,0,1,.3,0h1.36a.47.47,0,0,0,.16,0,.25.25,0,0,1,.23,0s.05,0,.08,0h.52c.07,0,.12,0,.19,0h.21a.12.12,0,0,1,.09,0s.06,0,.11,0h.38c.06,0,.1.06.16,0s.1.05.16,0a.36.36,0,0,1,.14,0h.48a3,3,0,0,0,.52,0,3.27,3.27,0,0,1,.5,0h.52c.1,0,.19-.06.3,0l.12.13v.08l-.15.12h-.27a1.54,1.54,0,0,0-.42,0,.33.33,0,0,1-.21,0A.3.3,0,0,0,54,72a.16.16,0,0,1-.1,0c-.36,0-.71,0-1.07,0s-.85,0-1.28,0H47.63a2.05,2.05,0,0,1-.4,0,7.47,7.47,0,0,0-1.14,0,.28.28,0,0,0-.21,0h-.05a6.45,6.45,0,0,0-1,0c-.09,0-.16.05-.24,0a1.67,1.67,0,0,1-.24,0,2.09,2.09,0,0,0-.56,0c-.07,0-.15,0-.21,0a.35.35,0,0,1-.25-.12v-.21l.08-.08h.16c.05,0,.09,0,.13-.05s0,0,0-.08a.21.21,0,0,1,0-.17l.07-.07h.41c.15,0,.29.05.43,0a1.5,1.5,0,0,1,.43,0,2.58,2.58,0,0,0,.78,0c.26,0,.51,0,.76,0,.05,0,.11,0,.16,0a.1.1,0,0,0,.1,0,.14.14,0,0,1,.11,0h.38s0,0,0,0,.11,0,.17,0h.88a.36.36,0,0,0,.23,0,.13.13,0,0,1,.1,0,.43.43,0,0,0,.35,0,.19.19,0,0,1,.09,0,1.89,1.89,0,0,1,.52,0,.13.13,0,0,0,.11,0,.31.31,0,0,1,.23,0,.78.78,0,0,0,.37,0,.87.87,0,0,1,.39,0,1,1,0,0,0,.4,0,1.86,1.86,0,0,1,.59,0,.3.3,0,0,0,.23,0,.16.16,0,0,1,.08,0h.23l.08-.07c-.12,0-.21,0-.31,0s-.19,0-.28,0l-.12.06c-.08,0-.12-.06-.2-.07s-.15.08-.24,0-.06,0-.08,0h-.59a.19.19,0,0,0-.11,0,.19.19,0,0,1-.16,0,.57.57,0,0,0-.35,0,.16.16,0,0,1-.14,0,.26.26,0,0,0-.18,0,.84.84,0,0,1-.39,0,.72.72,0,0,0-.3,0,.66.66,0,0,1-.37,0l-.1,0h-.76a.16.16,0,0,0-.1,0s0,0-.07,0a2.09,2.09,0,0,0-.38,0,.43.43,0,0,1-.21,0,.57.57,0,0,0-.23,0c-.06,0-.13,0-.18,0h0c-.09-.06-.19,0-.28,0a.7.7,0,0,1-.4,0s-.07,0-.1,0H44.59s-.1,0-.14,0a.32.32,0,0,1-.33-.12v-.1l.09-.08c.05,0,.11,0,.17,0s.11,0,.16,0,.08,0,.12,0h.15a.75.75,0,0,0,.33,0,.58.58,0,0,1,.25,0,.43.43,0,0,1,.25,0s.07,0,.1,0,.17,0,.25,0a.09.09,0,0,0,.1,0c.06,0,.12,0,.18,0s.22,0,.33,0,.08,0,.13,0H47c.2,0,.4-.05.61,0a.21.21,0,0,1,.12,0s.06,0,.11,0h.53c.09,0,.17.05.26,0s.13,0,.19,0a.09.09,0,0,1,.08,0,.36.36,0,0,0,.23,0h1a.67.67,0,0,0,.26,0,.3.3,0,0,1,.2,0,.13.13,0,0,0,.15,0s.05,0,.08,0h.74a.23.23,0,0,1,.11,0,.24.24,0,0,0,.17,0,.6.6,0,0,1,.4,0,.13.13,0,0,0,.11,0,.21.21,0,0,1,.26,0s.07,0,.1,0h.52a.94.94,0,0,1,.37.06.17.17,0,0,0,.13,0,.3.3,0,0,1,.21,0C54.07,70.8,54.2,70.73,54.34,70.77Zm-10.12.77.05.05a.42.42,0,0,0,.16,0s0-.06,0-.09h-.14Z"/><path class="cls-1" d="M52.3,65.7a0,0,0,0,1,0,.07A0,0,0,0,1,52.3,65.7Z"/><path class="cls-1" d="M47.24,64.6c-.08,0-.06-.1-.06-.15s.09,0,.12-.09,0,0,0,0,.07,0,.12,0a1.82,1.82,0,0,1,.3-.15c.11,0,.2-.1.3-.15a1.24,1.24,0,0,0,.37-.23.66.66,0,0,1,.26-.12,1.79,1.79,0,0,0,.43-.22h.24a.6.6,0,0,0,.35.21.59.59,0,0,1,.25.15.24.24,0,0,0,.11.07,1.26,1.26,0,0,1,.39.22.49.49,0,0,0,.14.07.26.26,0,0,1,.12.05.55.55,0,0,0,.3.12.21.21,0,0,1,.19.21,2,2,0,0,1-.47,0,.36.36,0,0,0-.26,0,1.41,1.41,0,0,1-.52,0H49.9c-.15.07-.3,0-.45,0s-.08-.05-.14,0-.12,0-.15,0-.08,0-.13,0-.1,0-.15,0a2.91,2.91,0,0,1-.67,0,.44.44,0,0,1-.18,0,.25.25,0,0,0-.23,0,.16.16,0,0,1-.08,0Z"/><path class="cls-1" d="M49.31,76.78l-.13,0C35.68,72,35.81,61.51,35.81,61.4v-18h27v18c0,.1.13,10.56-13.38,15.32Zm-13-32.93V61.41a13.08,13.08,0,0,0,1.53,5.68c1.45,2.85,4.63,6.75,11.49,9.18,6.88-2.43,10.05-6.34,11.51-9.2a13,13,0,0,0,1.52-5.64V43.85Z"/><polygon class="cls-1" points="62.51 59.14 49.32 50.95 36.13 59.14 35.88 58.73 49.32 50.38 62.76 58.73 62.51 59.14"/><polygon class="cls-1" points="61.28 67.03 49.32 59.6 37.36 67.03 37.1 66.62 49.32 59.03 61.54 66.62 61.28 67.03"/><path class="cls-1" d="M38.68,90.44c.08.16.26.2.41.27l.59.27c.33.16.67.31,1,.46s.59.34.82.2a.3.3,0,0,0,.09-.24,4.45,4.45,0,0,1,.11-.78,1.19,1.19,0,0,1,.62-.84,1.77,1.77,0,0,1,1.5-.1l.55.17c.28.08.53.22.8.32,1.79.6,5.82.53,7.67.34a8.14,8.14,0,0,0,1.45-.28c.48-.14.93-.35,1.42-.47a1.78,1.78,0,0,1,1.26.15c.49.25.47.86.48,1.33,0,.22.07.47.33.44a2.72,2.72,0,0,0,.4-.15l.52-.19c.33-.13.66-.27,1-.42a4.5,4.5,0,0,0,.82-.46.3.3,0,0,0,.13-.21.39.39,0,0,0-.08-.23c-.32-.47-.88-.72-.92-1.35a1.58,1.58,0,0,1,.81-1.31,19.8,19.8,0,0,1,2.9-1.25,7.1,7.1,0,0,0,1.49-1q.44-.37.86-.77a17.6,17.6,0,0,0,2.82-3.08,17.84,17.84,0,0,0,1.87-3.52,25.3,25.3,0,0,0,.93-2.65,20.71,20.71,0,0,0,.51-2.79c.08-.65.1-1.32.17-2,0-.34.06-.68.1-1a9.4,9.4,0,0,0,.13-1A24,24,0,0,1,72.74,66a13,13,0,0,1,.77-2.16,9,9,0,0,1,.55-1c.19-.3.47-.58.65-.88a2.09,2.09,0,0,1,1.92-.8,2.22,2.22,0,0,1,1,.58c.12.12.21.26.33.37a5.15,5.15,0,0,0,.51.42,6.71,6.71,0,0,0,1.16.66l.27.12a21.47,21.47,0,0,0,2.37.71c.67.19,1.54.68,1.42,1.51A4.31,4.31,0,0,1,83,67.25a8,8,0,0,1-.93,1.07c-.46.46-.91,1-1.36,1.43-.23.24-.21.55.19.64a1.37,1.37,0,0,0,.37,0c.32,0,.46.12.45.44a.59.59,0,0,1,0,.21,3.78,3.78,0,0,1-.41.82l-.19.25-.2.24a.77.77,0,0,1-1,.12,3.63,3.63,0,0,1-.37-.25.53.53,0,0,0-.35-.1.25.25,0,0,0-.25.22,3.27,3.27,0,0,0,0,.56q0,.31,0,.62a22.82,22.82,0,0,1-1.2,5.28l-.15.43a1.43,1.43,0,0,0-.12.37c-.27.76-.59,1.52-.91,2.25a12.43,12.43,0,0,1-.93,1.8c-.44.69-1,1.32-1.43,2s-.94,1.29-1.44,1.92a20.19,20.19,0,0,1-3.92,3.9,15.22,15.22,0,0,1-1.66,1,4.87,4.87,0,0,0-.81.45c-.22.19-.07.42.14.53l.18.11a1,1,0,0,1,.34.87,1.8,1.8,0,0,1-.73,1,22.12,22.12,0,0,1-1.87,1.34,14.65,14.65,0,0,1-2.6,1.33c-.41.17-.83.3-1.24.45a13.62,13.62,0,0,1-2.13.6,8.44,8.44,0,0,1-2.15.23,1.77,1.77,0,0,1-.87-.29.75.75,0,0,1-.31-1c.07-.14.14-.35,0-.48s-.24,0-.37,0a4.52,4.52,0,0,1-.48.11c-.41.08-.82.09-1.23.12L51.71,98c-.85.06-3.82.06-4.67,0a13.54,13.54,0,0,1-2.58-.29.56.56,0,0,0-.33,0c-.29.11,0,.83-.08,1.07a.79.79,0,0,1-.44.5,3.76,3.76,0,0,1-2.29.21,15.34,15.34,0,0,1-4.15-1.18c-.28-.12-.55-.27-.84-.39a14,14,0,0,1-1.83-1c-.3-.19-.59-.38-.88-.59a5.63,5.63,0,0,1-.75-.57c-.34-.34-.92-1-.67-1.5a3.14,3.14,0,0,1,.27-.48,1.71,1.71,0,0,0,.17-.25.38.38,0,0,0,0-.29c-.06-.17-.34-.22-.48-.29s-.53-.28-.78-.43-.51-.32-.75-.5c-.54-.39-1-.85-1.55-1.27s-1.09-.93-1.6-1.43q-.48-.47-.93-1a4.91,4.91,0,0,1-.8-1c-.38-.57-.84-1.09-1.24-1.65s-.76-.81-1.13-1.39-.64-1.18-1-1.75a11.48,11.48,0,0,1-.91-2c-.07-.28-.21-.54-.3-.82A35.68,35.68,0,0,1,20,75.19a11.61,11.61,0,0,1-.2-2.17c0-.21-.08-.74-.41-.56a1.41,1.41,0,0,0-.35.28,1,1,0,0,1-1.35-.12,2.91,2.91,0,0,1-.86-1.48.56.56,0,0,1,.4-.73,3.24,3.24,0,0,0,.49-.15.38.38,0,0,0,.19-.17C18,69.74,17,69.2,16.8,69a7.15,7.15,0,0,1-1-1,5.83,5.83,0,0,1-1.1-2.24A1.52,1.52,0,0,1,15,64.45a1.11,1.11,0,0,1,.91-.34,8.59,8.59,0,0,0,3-.75,6.2,6.2,0,0,0,1.84-1.24,2.6,2.6,0,0,1,1.51-1,2.29,2.29,0,0,1,1.61.65A5.65,5.65,0,0,1,25,63.15c.38.65.6,1.36.91,2,.13.27.19.57.29.85a8.87,8.87,0,0,1,.43,1.68c.13.87.28,1.75.39,2.63s.15,1.77.27,2.65q.09.65.23,1.28.07.32.15.63a2.57,2.57,0,0,1,.15.54,21.85,21.85,0,0,0,2.05,4.89c.23.4.48.79.73,1.17s.55.7.83,1.06a18.85,18.85,0,0,0,1.81,1.76A10.17,10.17,0,0,0,35.29,86l.14.08A18.49,18.49,0,0,0,37.5,87a3.6,3.6,0,0,1,1.55,1,1.27,1.27,0,0,1,.29.82,2.17,2.17,0,0,1-.43,1l-.05.1C38.8,90.05,38.6,90.3,38.68,90.44ZM81.29,64.56c.08-.06.2-.12.19-.23s-.3-.19-.42-.23c-.28-.09-.58-.14-.85-.24a11.56,11.56,0,0,1-1.48-.69c-.77-.43-1.45-1.34-2.3-1.56-1.15-.29-2.06,1.57-2.49,2.38a15.77,15.77,0,0,0-1.23,5.16,43.74,43.74,0,0,1-1.47,7.78,18.63,18.63,0,0,1-3.38,6.29,18.32,18.32,0,0,1-3,2.61,11.73,11.73,0,0,1-2.52,1.25c-.54.23-1.89.69-2,1.34a1.06,1.06,0,0,0,.35.9A6.32,6.32,0,0,1,62,91.57a8.87,8.87,0,0,1,.33,2.13c0,.08,0,.18.1.22a.25.25,0,0,0,.19,0L64.75,93A19.16,19.16,0,0,0,70,89.72a22.21,22.21,0,0,0,3.66-4.17,25.44,25.44,0,0,0,2.94-5.22,28.18,28.18,0,0,0,1.5-5.12c.26-1.38.32-2.85.47-4.27a13.32,13.32,0,0,1,.71-3.37A12.94,12.94,0,0,1,80,65.81a3,3,0,0,1,.56-.69,5.73,5.73,0,0,1,.52-.45Zm-64,.11v0c-.05.34.78,1.07,1,1.35a10.94,10.94,0,0,1,1,1.9,17.54,17.54,0,0,1,.94,4.72A33.5,33.5,0,0,0,21.69,79a24.52,24.52,0,0,0,4.43,7.66A27.14,27.14,0,0,0,30.2,91a12.43,12.43,0,0,0,3.21,1.75c.59.24,1.19.45,1.79.67.3.11,1,.54,1.34.49s.34-.36.33-.61a5.75,5.75,0,0,1,1-3c.27-.44,1.12-1.22.78-1.8a2.85,2.85,0,0,0-1.87-1.16c-5.21-1.49-8.17-7.28-9.6-12-.64-2.11-.52-4.19-.86-6.34s-1-5-2.58-6.5c-.7-.68-1.41-.93-2.16-.22a8,8,0,0,1-3.17,2C18.1,64.3,17.44,64.37,17.33,64.67Zm41.31,31s-1-1.75-1.1-1.93a12.08,12.08,0,0,1-.59-2,3.9,3.9,0,0,1-.14-.66c0-.19,0-.42-.1-.58a.66.66,0,0,0-.32-.18c-.9-.25-1.9.38-2.76.57a36.37,36.37,0,0,1-5.75.3,14.63,14.63,0,0,1-2-.18,7.56,7.56,0,0,1-1.38-.41,6.91,6.91,0,0,0-1.22-.4.87.87,0,0,0-.73.2,1.44,1.44,0,0,0-.3.86A9.36,9.36,0,0,1,42,92.4a13.61,13.61,0,0,1-1.6,3.17.3.3,0,0,0-.06.19.21.21,0,0,0,.17.16,5.33,5.33,0,0,1,.69.07c.82.26,1.6.64,2.44.87a19.26,19.26,0,0,0,2.73.53A36.4,36.4,0,0,0,54,97.26a12.22,12.22,0,0,0,2.7-.76A7.18,7.18,0,0,0,58.64,95.71ZM61,90.87c-.16,0-.16,0-.26.1a4.8,4.8,0,0,1-1.7.91c-.28.09-.58.12-.86.21-.48.16-.49.31-.34.77a6.77,6.77,0,0,0,1.6,2.78l.34.33a.75.75,0,0,1,.22.7c-.14.69-.9,1-1.52,1.11a6.26,6.26,0,0,1-1.05.13,2.91,2.91,0,0,0-1.55.4c-.08.06-.16.14-.15.24s.1.15.18.19a3.37,3.37,0,0,0,1.87-.06,18.5,18.5,0,0,0,2-.46,16.23,16.23,0,0,0,4.34-1.9c.52-.34,1-.71,1.54-1.06a2.44,2.44,0,0,0,.69-.69.3.3,0,0,0-.06-.37c-.34-.24-.94.26-1.21.44a6.83,6.83,0,0,1-1.63.9,1.46,1.46,0,0,1-1.17-.08c-.61-.36-.45-1-.54-1.61A17.34,17.34,0,0,0,61.12,91,.2.2,0,0,0,61,90.87Zm-17.83,7.9v0a.37.37,0,0,0-.2-.26,1.08,1.08,0,0,0-.32-.1c-.59-.11-1.19-.18-1.78-.31a3.92,3.92,0,0,1-1.51-.55c-.66-.5-.29-1.21.11-1.76.68-.93,1.2-1.9,1.79-2.89a.51.51,0,0,0,0-.58.59.59,0,0,0-.27-.15,16.57,16.57,0,0,1-1.86-.7c-.22-.1-.55-.37-.8-.37s-.33.26-.42.46a5.11,5.11,0,0,0-.37,2.93.84.84,0,0,1,0,.39c0,.13-.09.25-.13.37a.75.75,0,0,1-.69.53,2.61,2.61,0,0,1-1.48-.44,6.17,6.17,0,0,0-1.89-.83A.35.35,0,0,0,33,95a1.1,1.1,0,0,0,.29.29A17.84,17.84,0,0,0,42.7,99C42.88,99,43.17,99,43.17,98.77ZM82.59,64.69c-.91-.31-1.82,1.16-2.2,1.78A12.28,12.28,0,0,0,79,71c0,.2-.17.93.3.68a.53.53,0,0,0,.21-.32A8.69,8.69,0,0,1,81,68.73a12.18,12.18,0,0,0,1.91-2.26C83.16,65.92,83.31,64.94,82.59,64.69ZM19.65,71.48a1.66,1.66,0,0,0-.1-.52c-.23-.64-.26-1.36-.47-2a8.75,8.75,0,0,0-1.88-3.28c-.37-.4-.79-.94-1.38-.9a.46.46,0,0,0-.47.52,3.59,3.59,0,0,0,.43,1.48c.83,1.42,2.37,2.23,3.08,3.72.11.23.36,1.4.56,1.39a.22.22,0,0,0,.2-.18A1.62,1.62,0,0,0,19.65,71.48Zm20.72,25a1.73,1.73,0,0,0-.49.07c-.56.18,0,.59.28.74a7.16,7.16,0,0,0,2.08.46c.26.06,1.07.51,1.15,0a.45.45,0,0,0-.22-.43,3.81,3.81,0,0,0-.72-.26A5.4,5.4,0,0,0,40.37,96.46Zm15.28,1.25v0s1.34-.26,1.45-.28c.57-.1,1.14-.2,1.7-.34a1,1,0,0,0,.48-.21.35.35,0,0,0-.16-.61c-.49-.18-1,.14-1.49.3a17,17,0,0,0-1.66.7.8.8,0,0,0-.25.17A.28.28,0,0,0,55.65,97.71Zm10-4.44-.63.21c-.52.2-1,.42-1.55.6a2.64,2.64,0,0,0-.7.41.75.75,0,0,0-.16.17.23.23,0,0,0,.1.35A.38.38,0,0,0,63,95a4,4,0,0,1,.68-.21.85.85,0,0,0,.19-.08A14.17,14.17,0,0,0,65.14,94a1.69,1.69,0,0,1,.48-.21.3.3,0,0,0,.24-.16A.31.31,0,0,0,65.62,93.27Zm-32.41.59a.34.34,0,0,0,.28.15,4,4,0,0,1,1.5.53,3.49,3.49,0,0,0,1.33.65.34.34,0,0,0,.37-.27.33.33,0,0,0-.17-.29,8.77,8.77,0,0,0-1.37-.56,14.19,14.19,0,0,0-1.55-.51C33.34,93.49,33.24,93.56,33.21,93.85Zm-15-23.18a3.68,3.68,0,0,1-.61.27.24.24,0,0,0-.14.38c.16.24.28.51.46.74a.79.79,0,0,0,.33.26c.21.09.35,0,.4-.18a2.17,2.17,0,0,0,0-.94,1.46,1.46,0,0,0-.15-.34A.33.33,0,0,0,18.17,70.68Zm63,.32s-.05-.07-.09-.08a3.66,3.66,0,0,1-.57-.26.24.24,0,0,0-.35.16,4.47,4.47,0,0,0-.15.5.86.86,0,0,0,.12.68.33.33,0,0,0,.6,0,4.85,4.85,0,0,0,.39-.65A.47.47,0,0,0,81.13,71Z"/><path class="cls-1" d="M23.36,65.62,23.82,67a1.19,1.19,0,0,1-.7,1.65h0a1.24,1.24,0,0,1-1.61-.93l-.19-.55-1,.34-.25-.72Zm-1.2,1.86a.54.54,0,0,0,.69.4h0c.32-.11.42-.4.29-.76L23,66.56l-1,.35Z"/><path class="cls-1" d="M22.87,69.91h0a1.84,1.84,0,0,1,.67,3.62h0a1.84,1.84,0,0,1-.67-3.62Zm.52,2.84h0a1.05,1.05,0,0,0,.88-1.23A1,1,0,0,0,23,70.7h0a1.05,1.05,0,0,0-.88,1.23A1,1,0,0,0,23.39,72.76Z"/><path class="cls-1" d="M22.45,74.79l.59.39a1.59,1.59,0,0,0-.3,1.08c0,.31.18.48.38.46h0c.19,0,.28-.15.36-.74s.24-1.18.92-1.26h0a1.08,1.08,0,0,1,1.18,1.08,2,2,0,0,1-.29,1.33l-.62-.33a1.62,1.62,0,0,0,.23-.93c0-.29-.18-.43-.35-.41h0c-.23,0-.28.18-.37.79s-.31,1.14-.91,1.21h0c-.68.08-1.13-.4-1.21-1.14A2.21,2.21,0,0,1,22.45,74.79Z"/><path class="cls-1" d="M23.29,79l.68.18A1.59,1.59,0,0,0,24,80.27c.13.28.32.4.51.32h0c.18-.08.22-.23.11-.82s-.14-1.2.48-1.49h0a1.08,1.08,0,0,1,1.46.67,2,2,0,0,1,.14,1.35L26,80.18a1.62,1.62,0,0,0-.07-1c-.12-.27-.31-.35-.46-.28h0c-.21.09-.21.26-.1.87s.06,1.18-.49,1.43h0a1.1,1.1,0,0,1-1.51-.71A2.21,2.21,0,0,1,23.29,79Z"/><path class="cls-1" d="M26,82.24l1.6-1.17.45.61-1.58,1.16A.73.73,0,0,0,26.24,84a.72.72,0,0,0,1.11.11L29,82.89l.45.61-1.58,1.16a1.39,1.39,0,0,1-2.16-.3A1.38,1.38,0,0,1,26,82.24Z"/><path class="cls-1" d="M30.19,84.39l.51.48-.27,2.67L31.89,86l.55.51L30.07,89l-.47-.44.28-2.76-1.51,1.61-.55-.51Z"/><path class="cls-1" d="M33.73,88.29l-.88-.59.39-.58,2.39,1.6-.39.59-.88-.59L32.82,91l-.63-.42Z"/><path class="cls-1" d="M45.11,96l-.25-.37a1.67,1.67,0,0,1-.94,0,1.57,1.57,0,0,1-1.18-1.92h0a1.62,1.62,0,0,1,3.15.8h0a1.57,1.57,0,0,1-.48.78l.24.34Zm-.62-.93-.38-.53.53-.36.37.56a1.07,1.07,0,0,0,.18-.39h0a.93.93,0,0,0-.66-1.16.91.91,0,0,0-1.12.69h0a.94.94,0,0,0,1.07,1.18Z"/><path class="cls-1" d="M46.71,94.85l.12-1.74.67,0-.12,1.72c0,.5.2.77.61.8s.67-.2.71-.69l.12-1.75.67,0L49.37,95a1.23,1.23,0,0,1-1.43,1.28A1.21,1.21,0,0,1,46.71,94.85Z"/><path class="cls-1" d="M51.13,93.15l.62-.07L53.38,96l-.7.08-.35-.65L51,95.57l-.2.71-.68.08Zm.9,1.71-.51-.94-.29,1Z"/><path class="cls-1" d="M53.51,92.82l2.2-.67.18.57-1.56.48.18.59,1.38-.42.18.57-1.38.42.19.61,1.58-.49.18.57-2.22.68Z"/><path class="cls-1" d="M63.65,88.2l.67-.5,2.18,1.41-.73-2.5.66-.49,1,3.63-.54.4Z"/><path class="cls-1" d="M68.37,86.84h0A1.84,1.84,0,0,1,71,84.23h0a1.84,1.84,0,0,1-2.61,2.6Zm2-2h0a1.05,1.05,0,0,0-1.51,0,1,1,0,0,0,0,1.5h0a1.05,1.05,0,0,0,1.51,0A1,1,0,0,0,70.42,84.8Z"/><path class="cls-1" d="M70.46,82l.39-.66,2.39,1.41.88-1.49.6.35-1.27,2.14Z"/><path class="cls-1" d="M74,79.51l-1.89-.6.23-.73,1.87.6c.54.17.9,0,1-.45a.72.72,0,0,0-.56-1l-1.89-.6.23-.73,1.86.59a1.39,1.39,0,0,1,1,1.92A1.37,1.37,0,0,1,74,79.51Z"/><path class="cls-1" d="M73.34,74.66l.07-.7,2.28-1.41-2.13-.21.07-.75,3.45.34-.06.65L74.67,74l2.19.21-.07.75Z"/><path class="cls-1" d="M74.61,69l-.19,1-.69-.12.5-2.83.69.12-.19,1,2.72.48-.13.75Z"/></g></g></svg>