<?xml version="1.0" encoding="utf-8"?>
<!-- Generator: Adobe Illustrator 20.1.0, SVG Export Plug-In . SVG Version: 6.00 Build 0)  -->
<svg version="1.1" id="Layer_1" xmlns="http://www.w3.org/2000/svg" xmlns:xlink="http://www.w3.org/1999/xlink" x="0px" y="0px"
	 viewBox="0 0 244.601 90.833" enable-background="new 0 0 244.601 90.833" xml:space="preserve">
<g>
	<g>
		<g>
			<path fill="#4E4E56" d="M8.551,66.749H3.975l-0.659,1.686c-0.873,2.289-0.543,2.949,1.222,3.239v0.252H0v-0.252
				c1.28-0.349,1.978-1.105,2.792-3.2l4.13-10.452h0.815l4.344,11.79c0.485,1.319,0.776,1.648,2.268,1.862v0.252H7.989v-0.252
				c1.843-0.097,2.114-0.504,1.726-1.59L8.551,66.749z M8.416,66.36l-2.017-5.72H6.322l-2.211,5.72H8.416z"/>
			<path fill="#4E4E56" d="M25.956,67.427h0.272c1.164,2.579,2.54,4.383,4.615,4.383c1.901,0,2.851-1.28,2.851-2.502
				c0-1.706-1.164-2.385-3.568-3.219c-1.94-0.679-3.956-1.299-3.956-3.8c0-2.56,1.959-4.151,4.577-4.151
				c1.144,0,2.21,0.33,2.909,0.66l0.698-0.776h0.233v4.325h-0.271c-1.067-2.56-2.308-3.84-3.878-3.84
				c-1.319,0-2.521,0.854-2.521,2.386c0,1.667,1.261,2.288,3.491,3.025c1.842,0.621,3.82,1.299,3.82,3.82
				c0,2.133-1.261,4.46-4.616,4.46c-1.105,0-2.405-0.387-3.258-0.873l-1.164,0.951h-0.233V67.427z"/>
			<path fill="#4E4E56" d="M46.956,71.674c1.687-0.058,2.113-0.465,2.113-1.26V59.923c0-0.796-0.426-1.222-2.113-1.28v-0.232h6.361
				v0.232c-1.668,0.058-1.978,0.446-1.978,1.28v4.789h6.031v-4.789c0-0.834-0.31-1.222-1.94-1.28v-0.232h6.322v0.232
				c-1.687,0.058-2.114,0.484-2.114,1.28v10.491c0,0.795,0.427,1.202,2.114,1.26v0.252H55.43v-0.252
				c1.629-0.058,1.94-0.426,1.94-1.26v-5.295h-6.031v5.295c0,0.834,0.31,1.202,1.978,1.26v0.252h-6.361V71.674z"/>
			<path fill="#4E4E56" d="M73.675,71.674c1.687-0.058,2.113-0.484,2.113-1.28V59.923c0-0.776-0.426-1.222-2.113-1.28v-0.232h6.38
				v0.232c-1.765,0.058-1.997,0.465-1.997,1.28v11.635h1.513c2.676,0,3.8-0.912,5.119-4.189l0.271,0.019l-0.194,4.538H73.675V71.674
				z"/>
			<path fill="#4E4E56" d="M96.688,71.674c1.687-0.058,2.114-0.484,2.114-1.28V59.923c0-0.776-0.427-1.222-2.114-1.28v-0.232h11.247
				l0.058,4.363l-0.272,0.039c-1.124-2.754-2.017-4.034-4.324-4.034h-2.327v5.953h1.047c1.609,0,2.463-0.602,2.986-2.656h0.252
				v5.681h-0.252c-0.523-2.055-1.377-2.656-2.986-2.656h-1.047v6.458h2.288c2.715,0,3.742-1.299,4.925-4.267l0.272,0.02
				l-0.097,4.615H96.688V71.674z"/>
			<path fill="#4E4E56" d="M130.115,61.048c0.912-1.551,0.815-2.075-0.97-2.405v-0.232h4.48v0.232
				c-1.299,0.233-1.978,0.718-3.123,2.695l-2.656,4.557v4.499c0,0.796,0.407,1.222,2.172,1.28v0.252h-6.593v-0.252
				c1.784-0.058,2.172-0.484,2.172-1.28v-4.111l-3.413-6.031c-0.582-1.008-1.047-1.357-2.21-1.609v-0.232h6.244v0.232
				c-1.921,0.116-2.037,0.66-1.454,1.687l2.83,5.138L130.115,61.048z"/>
			<path fill="#4E4E56" d="M158.457,71.674c1.687-0.058,2.114-0.465,2.114-1.26V59.923c0-0.796-0.426-1.222-2.114-1.28v-0.232h6.361
				v0.232c-1.667,0.058-1.978,0.446-1.978,1.28v4.789h6.031v-4.789c0-0.834-0.31-1.222-1.94-1.28v-0.232h6.322v0.232
				c-1.686,0.058-2.113,0.484-2.113,1.28v10.491c0,0.795,0.426,1.202,2.113,1.26v0.252h-6.322v-0.252
				c1.629-0.058,1.94-0.426,1.94-1.26v-5.295h-6.031v5.295c0,0.834,0.31,1.202,1.978,1.26v0.252h-6.361V71.674z"/>
			<path fill="#4E4E56" d="M193.164,66.749h-4.576l-0.66,1.686c-0.873,2.289-0.543,2.949,1.221,3.239v0.252h-4.537v-0.252
				c1.28-0.349,1.978-1.105,2.792-3.2l4.131-10.452h0.814l4.344,11.79c0.485,1.319,0.776,1.648,2.269,1.862v0.252h-6.361v-0.252
				c1.843-0.097,2.114-0.504,1.727-1.59L193.164,66.749z M193.028,66.36l-2.018-5.72h-0.077l-2.211,5.72H193.028z"/>
			<path fill="#4E4E56" d="M210.329,71.674c1.687-0.058,2.114-0.484,2.114-1.28V59.923c0-0.776-0.426-1.222-2.114-1.28v-0.232h6.381
				v0.232c-1.765,0.058-1.998,0.465-1.998,1.28v11.635h1.512c2.676,0,3.801-0.912,5.119-4.189l0.271,0.019l-0.193,4.538h-11.093
				V71.674z"/>
			<path fill="#4E4E56" d="M233.315,71.674c1.687-0.058,2.114-0.484,2.114-1.28V59.923c0-0.776-0.426-1.222-2.114-1.28v-0.232h6.381
				v0.232c-1.766,0.058-1.998,0.465-1.998,1.28v11.635h1.512c2.676,0,3.801-0.912,5.119-4.189l0.272,0.019l-0.194,4.538h-11.093
				V71.674z"/>
		</g>
	</g>
	<g>
		<g>
			<path fill="#4E4E56" d="M65.182,89.502c0.695-0.024,0.871-0.199,0.871-0.527v-4.315c0-0.32-0.176-0.495-0.871-0.519v-0.104h4.611
				l0.064,1.838l-0.104,0.008c-0.487-1.19-0.895-1.693-1.886-1.693h-0.879v2.525h0.431c0.664,0,0.999-0.232,1.215-1.079h0.104v2.325
				h-0.104c-0.216-0.847-0.551-1.087-1.215-1.087h-0.431v2.102c0,0.336,0.168,0.503,0.887,0.527v0.104h-2.693V89.502z"/>
			<path fill="#4E4E56" d="M75.424,86.832c0-1.758,1.271-2.933,2.709-2.933c1.47,0,2.701,1.135,2.701,2.909
				c0,1.759-1.271,2.934-2.701,2.934C76.655,89.742,75.424,88.607,75.424,86.832z M79.78,86.824c0-2.093-0.688-2.772-1.686-2.772
				c-0.991,0-1.606,0.688-1.606,2.764c0,2.094,0.68,2.773,1.678,2.773C79.156,89.59,79.78,88.902,79.78,86.824z"/>
			<path fill="#4E4E56" d="M86.95,87.983v-3.324c0-0.32-0.184-0.503-0.871-0.527v-0.096h2.613v0.096
				c-0.679,0.024-0.807,0.191-0.807,0.527v3.228c0,1.207,0.719,1.582,1.622,1.582c0.399,0,0.775-0.12,1.023-0.367
				c0.28-0.279,0.447-0.688,0.447-1.294v-2.446c0-0.783-0.264-1.119-1.071-1.23v-0.096h2.206v0.096
				c-0.751,0.127-0.935,0.447-0.935,1.23v2.509c0,1.119-0.631,1.871-2.054,1.871C87.742,89.742,86.95,89.142,86.95,87.983z"/>
			<path fill="#4E4E56" d="M98.746,84.939h-0.008v3.333c0,0.783,0.208,1.118,1.023,1.23v0.104h-2.189v-0.104
				c0.751-0.12,0.975-0.447,0.975-1.23v-3.213c0-0.495-0.288-0.895-0.975-0.927v-0.096h1.702l3.173,4.22h0.008v-2.894
				c0-0.783-0.272-1.119-1.071-1.23v-0.096h2.197v0.096c-0.751,0.127-0.935,0.447-0.935,1.23v4.364h-0.264L98.746,84.939z"/>
			<path fill="#4E4E56" d="M109.027,89.502c0.695-0.024,0.871-0.199,0.871-0.527v-4.315c0-0.32-0.176-0.503-0.871-0.527v-0.096
				h2.501c1.982,0,3.013,1.151,3.013,2.685c0,1.478-0.879,2.885-2.917,2.885h-2.597V89.502z M111.368,89.454
				c1.598,0,2.118-0.615,2.118-2.668c0-2.078-0.696-2.597-2.094-2.597h-0.559v5.266H111.368z"/>
			<path fill="#4E4E56" d="M119.858,89.502c0.695-0.024,0.871-0.199,0.871-0.527v-4.315c0-0.32-0.176-0.503-0.871-0.527v-0.096
				h4.635l0.024,1.798l-0.111,0.016c-0.463-1.134-0.832-1.661-1.783-1.661h-0.959v2.453h0.431c0.664,0,1.015-0.248,1.231-1.095
				h0.104v2.341h-0.104c-0.216-0.847-0.567-1.094-1.231-1.094h-0.431v2.66h0.943c1.119,0,1.542-0.535,2.03-1.758l0.112,0.008
				l-0.04,1.902h-4.851V89.502z"/>
			<path fill="#4E4E56" d="M130.352,89.502c0.696-0.024,0.872-0.199,0.872-0.527v-4.315c0-0.32-0.176-0.503-0.872-0.527v-0.096
				h2.502c1.982,0,3.013,1.151,3.013,2.685c0,1.478-0.88,2.885-2.918,2.885h-2.597V89.502z M132.694,89.454
				c1.598,0,2.118-0.615,2.118-2.668c0-2.078-0.696-2.597-2.094-2.597h-0.559v5.266H132.694z"/>
			<path fill="#4E4E56" d="M147.582,89.502c0.752-0.008,1.007-0.136,1.007-0.503v-3.843c0-0.479-0.143-0.624-1.023-0.648v-0.096
				l1.919-0.16v4.747c0,0.367,0.239,0.495,1.007,0.503v0.104h-2.91V89.502z"/>
			<path fill="#4E4E56" d="M156.169,89.654c1.462-0.343,2.413-1.135,2.613-2.693l-0.032-0.008c-0.2,0.527-0.744,0.832-1.279,0.832
				c-0.943,0-1.686-0.648-1.686-1.662c0-1.023,0.792-1.918,1.991-1.918c1.214,0,1.958,0.903,1.958,2.229
				c0,0.911-0.304,1.614-0.848,2.158c-0.639,0.64-1.366,1.007-2.716,1.159V89.654z M158.783,85.946c0-1.047-0.416-1.606-1.031-1.606
				c-0.68,0-1.007,0.624-1.007,1.694c0,1.071,0.335,1.55,0.959,1.55C158.207,87.584,158.783,87.033,158.783,85.946z"/>
			<path fill="#4E4E56" d="M165.339,86.976c0-1.542,0.928-2.772,2.142-2.772c1.255,0,2.134,1.198,2.134,2.74
				c0,1.542-0.927,2.773-2.142,2.773C166.219,89.718,165.339,88.527,165.339,86.976z M168.584,86.96
				c0-1.854-0.343-2.613-1.143-2.613c-0.791,0-1.079,0.752-1.079,2.613c0,1.863,0.352,2.613,1.151,2.613
				C168.305,89.574,168.584,88.823,168.584,86.96z"/>
			<path fill="#4E4E56" d="M175.559,89.654c1.462-0.343,2.413-1.135,2.613-2.693l-0.032-0.008c-0.2,0.527-0.744,0.832-1.279,0.832
				c-0.943,0-1.686-0.648-1.686-1.662c0-1.023,0.792-1.918,1.991-1.918c1.214,0,1.958,0.903,1.958,2.229
				c0,0.911-0.304,1.614-0.848,2.158c-0.639,0.64-1.366,1.007-2.716,1.159V89.654z M178.172,85.946c0-1.047-0.416-1.606-1.031-1.606
				c-0.68,0-1.007,0.624-1.007,1.694c0,1.071,0.335,1.55,0.959,1.55C177.597,87.584,178.172,87.033,178.172,85.946z"/>
		</g>
	</g>
	<g>
		<path fill="#4E4E56" d="M122.797,23.912l0.06-0.079c0.728-0.955,1.511-1.871,2.326-2.725l0.046-0.048l-0.041-0.051
			c-0.759-0.949-1.546-1.843-2.336-2.656l-0.054-0.056l-0.054,0.056c-0.819,0.842-1.606,1.735-2.339,2.653l-0.041,0.052l0.046,0.047
			c0.818,0.857,1.602,1.774,2.329,2.728L122.797,23.912z"/>
		<path fill="#4E4E56" d="M129.251,25.193l-0.037,0.04l0.026,0.048c0.622,1.145,1.166,2.323,1.614,3.502l0.046,0.121l0.083-0.099
			c0.816-0.979,1.719-1.923,2.685-2.803l0.04-0.037l-0.022-0.05c-0.496-1.129-1.051-2.223-1.648-3.255l-0.046-0.078l-0.069,0.058
			C131.297,23.167,130.324,24.039,129.251,25.193z"/>
		<path fill="#4E4E56" d="M126.594,21.167l0.04,0.053c0.713,0.95,1.388,1.959,2.007,2.998l0.051,0.086l0.069-0.073
			c1.082-1.139,2.041-1.986,2.656-2.497l0.051-0.042l-0.035-0.056c-0.61-0.976-1.267-1.922-2.01-2.892l-0.047-0.06l-0.06,0.047
			c-0.379,0.296-1.399,1.123-2.675,2.391L126.594,21.167z"/>
		<path fill="#4E4E56" d="M100.042,31.135c-0.47,0.55-0.944,1.177-1.368,1.87c0.39,0.899,0.702,1.868,0.876,2.906
			c0.312-0.96,0.834-1.849,1.417-2.641C100.704,32.514,100.392,31.802,100.042,31.135z"/>
		<path fill="#4E4E56" d="M97.208,37.436h1.796c-0.044-1.312-0.333-2.536-0.77-3.658C97.667,34.88,97.27,36.117,97.208,37.436z"/>
		<path fill="#4E4E56" d="M101.727,33.382c0.404,1.249,0.67,2.602,0.705,4.054h2.052c-0.044-2.128-0.503-4.057-1.176-5.769
			C102.808,32.134,102.248,32.716,101.727,33.382z"/>
		<path fill="#4E4E56" d="M99.938,37.436h1.801c-0.031-1.19-0.215-2.314-0.514-3.364C100.547,35.079,100.023,36.23,99.938,37.436z"
			/>
		<path fill="#4E4E56" d="M116.839,24.207l0.069,0.072l0.051-0.086c0.599-1.006,1.272-2.008,2-2.978l0.04-0.053l-0.047-0.047
			c-1.308-1.299-2.339-2.128-2.721-2.423l-0.06-0.047l-0.046,0.061c-0.708,0.933-1.378,1.909-1.993,2.901l-0.035,0.056l0.051,0.042
			C114.782,22.229,115.765,23.087,116.839,24.207z"/>
		<path fill="#4E4E56" d="M119.586,20.271l0.06,0.059l0.053-0.065c0.729-0.907,1.512-1.792,2.326-2.63l0.053-0.054l-0.054-0.053
			c-1.452-1.399-2.551-2.233-2.757-2.387l-0.053-0.04l-0.046,0.048c-0.799,0.829-1.579,1.713-2.319,2.629l-0.048,0.06l0.061,0.047
			C117.35,18.26,118.356,19.068,119.586,20.271z"/>
		<path fill="#4E4E56" d="M114.602,28.794l0.083,0.099l0.046-0.121c0.447-1.176,0.99-2.353,1.612-3.498l0.026-0.048l-0.037-0.04
			c-1.09-1.172-2.071-2.05-2.702-2.58l-0.069-0.058l-0.045,0.078c-0.587,1.023-1.137,2.122-1.635,3.264l-0.022,0.05l0.04,0.037
			C112.874,26.863,113.783,27.81,114.602,28.794z"/>
		<path fill="#4E4E56" d="M125.469,28.181l0.059,0.117l0.072-0.109c0.683-1.04,1.474-2.072,2.35-3.068l0.036-0.041l-0.027-0.047
			c-0.588-1.016-1.268-2.045-2.02-3.059l-0.054-0.073l-0.061,0.066c-0.831,0.887-1.617,1.826-2.337,2.794l-0.033,0.044l0.031,0.044
			C124.212,25.887,124.88,27.009,125.469,28.181z"/>
		<path fill="#4E4E56" d="M114.29,30.017l-0.025-0.032c-0.794-1.014-1.718-2.014-2.743-2.973l-0.082-0.077l-0.04,0.104
			c-1.255,3.218-1.927,6.576-1.998,9.979l-0.002,0.077h3.68l0.002-0.074c0.058-2.349,0.46-4.694,1.196-6.967L114.29,30.017z"/>
		<path fill="#4E4E56" d="M122.743,16.809l0.053,0.051l0.053-0.051c1.213-1.174,2.196-1.967,2.673-2.336l0.069-0.053l-0.063-0.061
			c-1.328-1.286-2.37-2.114-2.756-2.411l-0.047-0.035l-0.046,0.036c-0.48,0.375-1.467,1.18-2.678,2.361l-0.063,0.062l0.07,0.053
			C120.392,14.718,121.429,15.537,122.743,16.809z"/>
		<path fill="#4E4E56" d="M123.515,17.579l0.053,0.054c0.799,0.823,1.582,1.708,2.326,2.633l0.053,0.065l0.06-0.058
			c1.206-1.181,2.194-1.977,2.676-2.347l0.061-0.048l-0.049-0.06c-0.745-0.914-1.528-1.796-2.33-2.62l-0.047-0.048l-0.053,0.04
			c-0.379,0.286-1.401,1.087-2.694,2.336L123.515,17.579z"/>
		<path fill="#4E4E56" d="M119.711,21.898l-0.054,0.073c-0.722,0.972-1.395,1.996-2.003,3.041l-0.027,0.047l0.036,0.041
			c0.863,0.975,1.652,2.004,2.345,3.059l0.072,0.109l0.059-0.117c0.589-1.163,1.252-2.276,1.973-3.308l0.031-0.044l-0.033-0.044
			c-0.72-0.967-1.507-1.906-2.338-2.792L119.711,21.898z"/>
		<path fill="#4E4E56" d="M93.793,30.485c0.464,0.524,0.933,1.123,1.365,1.781c0.349-0.692,0.738-1.338,1.149-1.926
			c-0.453-0.609-0.914-1.149-1.354-1.618C94.553,29.261,94.161,29.852,93.793,30.485z"/>
		<path fill="#4E4E56" d="M99.701,30.496c-0.37-0.64-0.768-1.229-1.171-1.772c-0.44,0.469-0.901,1.009-1.354,1.618
			c0.414,0.592,0.805,1.243,1.156,1.941C98.768,31.619,99.239,31.02,99.701,30.496z"/>
		<path fill="#4E4E56" d="M98.574,27.679c0.679-0.664,1.246-1.126,1.558-1.367c-0.467-0.573-0.923-1.079-1.351-1.519
			c-0.224,0.169-0.813,0.631-1.56,1.353C97.65,26.589,98.109,27.102,98.574,27.679z"/>
		<path fill="#4E4E56" d="M100.521,30.598c0.348,0.639,0.666,1.318,0.94,2.039c0.534-0.642,1.082-1.193,1.563-1.632
			c-0.293-0.665-0.613-1.295-0.955-1.886C101.679,29.447,101.124,29.95,100.521,30.598z"/>
		<path fill="#4E4E56" d="M98.095,28.166c-0.465-0.581-0.924-1.098-1.354-1.539c-0.429,0.442-0.891,0.956-1.355,1.538
			c0.438,0.459,0.9,0.99,1.356,1.588C97.196,29.155,97.657,28.625,98.095,28.166z"/>
		<path fill="#4E4E56" d="M96.742,30.958c-0.418,0.617-0.81,1.289-1.15,2.014c0.496,0.867,0.911,1.821,1.152,2.85
			c0.244-1.021,0.659-1.972,1.155-2.836C97.557,32.255,97.163,31.578,96.742,30.958z"/>
		<path fill="#4E4E56" d="M100.172,29.979c0.613-0.646,1.168-1.139,1.546-1.453c-0.378-0.605-0.77-1.161-1.165-1.676
			c-0.296,0.231-0.865,0.704-1.549,1.385C99.405,28.769,99.799,29.352,100.172,29.979z"/>
		<path fill="#4E4E56" d="M98.296,24.309c-0.722-0.698-1.308-1.175-1.597-1.397c-0.283,0.22-0.849,0.682-1.551,1.368
			c0.267,0.204,0.858,0.677,1.592,1.388C97.445,24.986,98.015,24.526,98.296,24.309z"/>
		<path fill="#4E4E56" d="M93.435,31.132c-0.349,0.665-0.663,1.376-0.926,2.129c0.586,0.794,1.11,1.686,1.424,2.649
			c0.173-1.037,0.485-2.005,0.874-2.903C94.381,32.312,93.906,31.683,93.435,31.132z"/>
		<path fill="#4E4E56" d="M94.478,37.436h1.796c-0.061-1.317-0.459-2.553-1.027-3.654C94.81,34.902,94.522,36.125,94.478,37.436z"/>
		<path fill="#4E4E56" d="M96.261,26.148c-0.789-0.76-1.406-1.24-1.596-1.382c-0.424,0.439-0.881,0.95-1.344,1.524
			c0.304,0.232,0.885,0.701,1.587,1.389C95.372,27.102,95.832,26.59,96.261,26.148z"/>
		<path fill="#4E4E56" d="M91.736,37.436h1.809c-0.086-1.208-0.611-2.361-1.29-3.369C91.955,35.118,91.767,36.244,91.736,37.436z"/>
		<path fill="#4E4E56" d="M92.016,32.631c0.274-0.719,0.592-1.399,0.939-2.037c-0.615-0.661-1.178-1.169-1.565-1.494
			c-0.339,0.592-0.657,1.225-0.947,1.891C90.926,31.43,91.477,31.984,92.016,32.631z"/>
		<path fill="#4E4E56" d="M90.164,31.656c-0.668,1.713-1.113,3.65-1.157,5.779h2.049c0.036-1.451,0.293-2.809,0.697-4.058
			C91.227,32.707,90.663,32.123,90.164,31.656z"/>
		<path fill="#4E4E56" d="M93.313,29.965c0.372-0.623,0.765-1.202,1.164-1.733c-0.708-0.703-1.29-1.183-1.576-1.404
			c-0.391,0.516-0.78,1.077-1.155,1.682C92.156,28.846,92.712,29.338,93.313,29.965z"/>
		<path fill="#4E4E56" d="M142.275,31.656c-0.668,1.713-1.113,3.65-1.157,5.779h2.049c0.036-1.451,0.292-2.809,0.697-4.058
			C143.338,32.707,142.774,32.123,142.275,31.656z"/>
		<path fill="#4E4E56" d="M144.128,32.631c0.274-0.719,0.592-1.399,0.939-2.037c-0.615-0.661-1.178-1.169-1.565-1.494
			c-0.339,0.592-0.657,1.225-0.947,1.891C143.037,31.43,143.589,31.984,144.128,32.631z"/>
		<path fill="#4E4E56" d="M143.847,37.436h1.809c-0.086-1.208-0.611-2.361-1.29-3.369C144.066,35.118,143.878,36.244,143.847,37.436
			z"/>
		<path fill="#4E4E56" d="M148.372,26.148c-0.789-0.76-1.406-1.24-1.596-1.382c-0.424,0.439-0.881,0.95-1.344,1.524
			c0.304,0.232,0.885,0.701,1.587,1.389C147.483,27.102,147.943,26.59,148.372,26.148z"/>
		<path fill="#4E4E56" d="M150.408,24.309c-0.722-0.698-1.308-1.175-1.597-1.397c-0.283,0.22-0.849,0.682-1.551,1.368
			c0.267,0.204,0.858,0.677,1.592,1.388C149.556,24.986,150.126,24.526,150.408,24.309z"/>
		<path fill="#4E4E56" d="M145.424,29.965c0.372-0.623,0.765-1.202,1.164-1.733c-0.708-0.703-1.29-1.183-1.576-1.404
			c-0.391,0.516-0.78,1.077-1.155,1.682C144.267,28.846,144.823,29.338,145.424,29.965z"/>
		<path fill="#4E4E56" d="M145.546,31.132c-0.349,0.665-0.663,1.376-0.926,2.129c0.586,0.794,1.11,1.686,1.424,2.649
			c0.173-1.037,0.485-2.005,0.875-2.903C146.493,32.312,146.017,31.683,145.546,31.132z"/>
		<path fill="#4E4E56" d="M153.838,33.382c0.404,1.249,0.67,2.602,0.705,4.054h2.052c-0.044-2.128-0.503-4.057-1.176-5.769
			C154.919,32.134,154.359,32.716,153.838,33.382z"/>
		<path fill="#4E4E56" d="M152.049,37.436h1.8c-0.031-1.19-0.215-2.314-0.514-3.364C152.658,35.079,152.134,36.23,152.049,37.436z"
			/>
		<path fill="#4E4E56" d="M150.685,27.679c0.679-0.664,1.246-1.126,1.558-1.367c-0.467-0.573-0.923-1.079-1.351-1.519
			c-0.224,0.169-0.813,0.631-1.56,1.353C149.761,26.589,150.221,27.102,150.685,27.679z"/>
		<path fill="#4E4E56" d="M146.589,37.436h1.796c-0.061-1.317-0.459-2.553-1.027-3.654
			C146.922,34.902,146.633,36.125,146.589,37.436z"/>
		<path fill="#4E4E56" d="M148.854,30.958c-0.418,0.617-0.81,1.289-1.15,2.014c0.496,0.867,0.911,1.821,1.152,2.85
			c0.244-1.021,0.659-1.972,1.155-2.836C149.668,32.255,149.274,31.578,148.854,30.958z"/>
		<path fill="#4E4E56" d="M152.153,31.135c-0.47,0.55-0.944,1.177-1.368,1.87c0.39,0.899,0.702,1.868,0.876,2.906
			c0.312-0.96,0.834-1.849,1.417-2.641C152.815,32.514,152.503,31.802,152.153,31.135z"/>
		<path fill="#4E4E56" d="M149.319,37.436h1.796c-0.044-1.312-0.333-2.536-0.77-3.658C149.778,34.88,149.381,36.117,149.319,37.436z
			"/>
		<path fill="#4E4E56" d="M120.291,30.693l-0.077-0.149l-0.061,0.157c-0.812,2.082-1.259,4.208-1.33,6.318l-0.002,0.078h3.251
			l-0.004-0.079C121.97,34.916,121.372,32.789,120.291,30.693z"/>
		<path fill="#4E4E56" d="M134.174,27.058l-0.041-0.104l-0.082,0.076c-1.023,0.959-1.941,1.955-2.729,2.961l-0.025,0.032
			l0.012,0.038c0.747,2.31,1.154,4.652,1.21,6.961l0.002,0.074h3.684l-0.002-0.077C136.136,33.661,135.452,30.309,134.174,27.058z"
			/>
		<path fill="#4E4E56" d="M125.44,30.694l-0.061-0.157l-0.077,0.149c-1.081,2.098-1.679,4.228-1.776,6.331l-0.004,0.079h3.251
			l-0.002-0.078C126.7,34.906,126.252,32.778,125.44,30.694z"/>
		<path fill="#4E4E56" d="M130.59,31.206l-0.044-0.157l-0.091,0.135c-1.346,2.002-2.096,3.964-2.229,5.83l-0.005,0.081h3.259
			l-0.002-0.077C131.427,35.054,131.128,33.099,130.59,31.206z"/>
		<path fill="#4E4E56" d="M130.158,29.858l-0.013-0.038c-0.441-1.267-0.978-2.507-1.597-3.686l-0.052-0.099l-0.072,0.085
			c-0.903,1.056-1.698,2.142-2.364,3.229l-0.021,0.034l0.016,0.036c0.722,1.663,1.228,3.34,1.503,4.986l0.051,0.305l0.096-0.294
			c0.474-1.46,1.292-2.983,2.429-4.527L130.158,29.858z"/>
		<path fill="#4E4E56" d="M119.552,29.388l-0.021-0.034c-0.667-1.088-1.464-2.178-2.371-3.238l-0.073-0.085l-0.051,0.099
			c-0.625,1.191-1.163,2.428-1.599,3.676l-0.013,0.038l0.024,0.032c1.143,1.55,1.964,3.077,2.441,4.541l0.096,0.294l0.051-0.305
			c0.274-1.644,0.78-3.32,1.501-4.982L119.552,29.388z"/>
		<path fill="#4E4E56" d="M124.875,29.36l-0.017-0.035c-0.557-1.19-1.229-2.369-1.997-3.503l-0.063-0.092l-0.063,0.092
			c-0.764,1.128-1.432,2.298-1.987,3.479l-0.017,0.035l0.02,0.034c0.933,1.631,1.598,3.276,1.976,4.887l0.073,0.312l0.075-0.311
			c0.383-1.605,1.049-3.241,1.98-4.864L124.875,29.36z"/>
		<path fill="#4E4E56" d="M151.812,30.496c-0.37-0.64-0.768-1.229-1.171-1.772c-0.44,0.469-0.901,1.009-1.354,1.618
			c0.414,0.592,0.805,1.243,1.156,1.941C150.88,31.619,151.35,31.02,151.812,30.496z"/>
		<path fill="#4E4E56" d="M115.133,31.176l-0.091-0.135l-0.044,0.157c-0.544,1.908-0.845,3.866-0.896,5.821l-0.002,0.077h3.273
			l-0.005-0.081C117.235,35.147,116.483,33.182,115.133,31.176z"/>
		<path fill="#4E4E56" d="M145.904,30.485c0.464,0.524,0.933,1.123,1.365,1.781c0.349-0.692,0.738-1.338,1.149-1.926
			c-0.453-0.609-0.914-1.149-1.354-1.618C146.665,29.261,146.272,29.852,145.904,30.485z"/>
		<path fill="#4E4E56" d="M152.283,29.979c0.613-0.646,1.168-1.139,1.546-1.453c-0.378-0.605-0.77-1.161-1.165-1.676
			c-0.296,0.231-0.865,0.704-1.549,1.385C151.516,28.769,151.91,29.352,152.283,29.979z"/>
		<path fill="#4E4E56" d="M150.206,28.166c-0.465-0.581-0.924-1.098-1.354-1.539c-0.43,0.442-0.891,0.956-1.356,1.538
			c0.439,0.459,0.9,0.99,1.356,1.588C149.308,29.155,149.768,28.625,150.206,28.166z"/>
		<path fill="#4E4E56" d="M152.632,30.598c0.347,0.639,0.666,1.318,0.94,2.039c0.534-0.642,1.082-1.193,1.563-1.632
			c-0.293-0.665-0.613-1.295-0.955-1.886C153.79,29.447,153.235,29.95,152.632,30.598z"/>
		<path fill="#4E4E56" d="M206.842,39.864L122.895,1.136c-0.103-0.048-0.222-0.047-0.325,0L38.752,39.864
			c-0.166,0.076-0.255,0.257-0.216,0.436c0.039,0.178,0.197,0.305,0.379,0.305h167.765c0.182,0,0.34-0.127,0.379-0.305
			C207.097,40.121,207.007,39.94,206.842,39.864z M192.302,39.451l-69.57-32.142L53.168,39.451h-2.713l-0.745-1.614l1.839-0.849
			l0.742,1.608l1.645-0.759l-0.743-1.609l1.839-0.849l0.737,1.597l1.645-0.759l-0.737-1.598l1.839-0.849l0.732,1.586l1.645-0.759
			l-0.732-1.586l1.839-0.849l0.727,1.575l1.645-0.759L63.642,31.4l1.839-0.849l0.722,1.563l1.645-0.759l-0.722-1.564l1.839-0.85
			l0.716,1.552l1.645-0.759l-0.717-1.553l1.839-0.85l0.711,1.541l1.645-0.759l-0.712-1.542l1.839-0.85l0.706,1.53l1.645-0.759
			l-0.706-1.53l1.839-0.85l0.701,1.519l1.645-0.759l-0.701-1.519l1.839-0.85l0.696,1.507l1.645-0.759l-0.696-1.508l1.839-0.849
			l0.691,1.496l1.645-0.759l-0.691-1.497l1.839-0.849l0.685,1.485l1.645-0.759l-0.686-1.486l1.839-0.849l0.68,1.474l1.645-0.759
			l-0.68-1.474l1.838-0.849l0.675,1.463l1.645-0.759l-0.675-1.463l1.839-0.849l0.67,1.451l1.645-0.759l-0.67-1.452l1.839-0.85
			l0.665,1.44l1.645-0.759l-0.665-1.441l1.839-0.849l0.66,1.429l1.645-0.759l-0.66-1.43l1.839-0.849l0.654,1.418l1.645-0.759
			l-0.655-1.418l1.839-0.849l0.649,1.406l1.645-0.759l-0.649-1.407l1.838-0.849l0.644,1.395l1.645-0.759l-0.644-1.396l2.461-1.137
			v1.669h1.811V4.517l2.484,1.148l-0.638,1.383l1.645,0.759l0.638-1.382l1.863,0.861l-0.638,1.383l1.645,0.759l0.638-1.382
			l1.863,0.861l-0.638,1.383l1.645,0.759l0.638-1.382l1.863,0.861l-0.638,1.383l1.645,0.759l0.638-1.382l1.863,0.861l-0.638,1.383
			l1.645,0.759l0.638-1.382l1.863,0.861l-0.638,1.383l1.645,0.759l0.638-1.382l1.863,0.861l-0.638,1.383l1.645,0.759l0.638-1.382
			l1.863,0.861l-0.638,1.383l1.645,0.759l0.638-1.382l1.863,0.861l-0.638,1.383l1.645,0.759l0.638-1.382l1.863,0.861l-0.638,1.383
			l1.645,0.759l0.638-1.382l1.863,0.861l-0.638,1.383l1.645,0.759l0.638-1.382l1.863,0.861l-0.638,1.382l1.645,0.759l0.638-1.382
			l1.863,0.861l-0.638,1.382l1.645,0.759l0.638-1.382l1.863,0.861l-0.638,1.382l1.645,0.759l0.638-1.382l1.863,0.861l-0.638,1.382
			l1.645,0.759l0.638-1.382l1.863,0.861l-0.638,1.382l1.645,0.759l0.638-1.382l1.863,0.861l-0.638,1.382l1.645,0.759l0.638-1.382
			l1.863,0.861l-0.638,1.382l1.645,0.759l0.638-1.382l1.863,0.861l-0.638,1.382l1.645,0.759l0.638-1.382l1.863,0.861l-0.638,1.382
			l1.645,0.759l0.638-1.382l1.863,0.861l-0.635,1.376H192.302z M105.167,38.116h-0.009h-3.402H99.92h-0.895h-1.836h-0.895h-1.836
			h-0.895h-5.247v-0.34v-0.34h0.009c0.188-9.45,8.097-15.169,8.178-15.227l0.196-0.138l0.196,0.138
			c0.082,0.057,8.074,5.776,8.264,15.227v0C105.16,37.55,105.167,38.116,105.167,38.116z M108.363,38.116v-1.02h0.013l0.002-0.074
			c0.324-16.263,13.914-26.065,14.051-26.162l0.293-0.208l0.295,0.206c0.138,0.097,13.872,9.861,14.199,26.163
			c0.004,0.162,0.012,0.859,0.014,1.093H108.363z M157.278,38.116h-0.009h-3.402h-1.836h-0.895H149.3h-0.895h-1.836h-0.895h-5.247
			v-0.34h0l0-0.34h0.009c0.188-9.45,8.097-15.169,8.178-15.227l0.196-0.138l0.196,0.138c0.082,0.057,8.074,5.776,8.264,15.227v0
			C157.271,37.55,157.278,38.116,157.278,38.116z M48.46,39.451h-2.243l1.849-0.854L48.46,39.451z M197.919,38.835l1.335,0.617
			h-1.619L197.919,38.835z M202.398,39.828L122.938,3.115l-0.205-0.094L43.071,39.828H40.68l82.053-37.911l82.179,37.911H202.398z"
			/>
	</g>
</g>
</svg>
