<svg xmlns="http://www.w3.org/2000/svg" viewBox="0 0 393.33 341.63"><defs><style>.cls-1{isolation:isolate;}.cls-2{font-size:16px;fill:#4e4e56;font-family:Gotham-Medium, Gotham;}.cls-2,.cls-6{letter-spacing:0.08em;}.cls-3{letter-spacing:0.04em;}.cls-4{letter-spacing:0.04em;}.cls-5{letter-spacing:0.06em;}.cls-7{letter-spacing:0.04em;}.cls-8{letter-spacing:0.07em;}.cls-9{mix-blend-mode:multiply;}.cls-10{fill:#6e5c7f;}</style></defs><title>offers-text</title><g class="cls-1"><g id="Layer_2" data-name="Layer 2"><g id="Layer_1-2" data-name="Layer 1"><text class="cls-2" transform="translate(98.07 218.81)">KEEP SCROLLING <tspan class="cls-3" x="168.62" y="0">T</tspan><tspan x="179.58" y="0">O</tspan><tspan x="-14.08" y="28">EXP</tspan><tspan class="cls-4" x="22.59" y="28">L</tspan><tspan x="33.06" y="28">ORE MORE OF THE</tspan><tspan class="cls-5"><tspan x="-8.42" y="56">A</tspan><tspan class="cls-6" x="5.23" y="56">SHLEY HALL </tspan><tspan class="cls-7" x="127.12" y="56">W</tspan><tspan class="cls-6" x="145.55" y="56">ORL</tspan><tspan class="cls-4" x="184.23" y="56">D</tspan><tspan class="cls-8" x="197.3" y="56">.</tspan></tspan></text><g class="cls-9"><path class="cls-10" d="M192.85,31.56c-.65.82-1.29,1.64-2,2.45a31.71,31.71,0,0,0-3.34,5.28,8.21,8.21,0,0,0-.78,5.06,3,3,0,0,0,.35,1,5.87,5.87,0,0,0,3.47,3,1.34,1.34,0,0,0,1-.08,3.55,3.55,0,0,0,1.8-1.81,21.37,21.37,0,0,0,1.9-5.94,8.45,8.45,0,0,1,.56-2,13.71,13.71,0,0,0,.64-2.52c.11-.69.24-1.37.39-2a2.89,2.89,0,0,1,.76-1.35,7.16,7.16,0,0,1,1.15-1.06,31.32,31.32,0,0,1,3.54-2.19,11.25,11.25,0,0,1,4.46-1.36,8.29,8.29,0,0,0,1.54-.22,2.25,2.25,0,0,0,.93-.43,2.55,2.55,0,0,0,.55-.84c.13-.27-.49-1.12-.84-1.21-.17,0-.33-.11-.5-.15a14.13,14.13,0,0,0-4.15-.18,6.42,6.42,0,0,0-1.51.35c-.49.17-.95.44-1.43.64-.32.13-.66.18-1,.3s-.94-.44-.93-1a6.69,6.69,0,0,1,.53-2.54,10.42,10.42,0,0,0,.91-4,2.18,2.18,0,0,0-1.27-2.1,1.59,1.59,0,0,0-1.48,0,18.25,18.25,0,0,0-3.28,2.56A28.32,28.32,0,0,1,192.4,21a51.3,51.3,0,0,1-8.88,4.36,5.69,5.69,0,0,1-1,.26,1.28,1.28,0,0,1-.48-.06,1.65,1.65,0,0,1-.92-1.7,3.83,3.83,0,0,1,.41-.94c.73-1,1.5-1.91,2.25-2.86l.66-.8a1.42,1.42,0,0,0-.39-1.82,2.73,2.73,0,0,0-3.37.27,11.53,11.53,0,0,0-1.09,1.12c-.65.82-1.25,1.67-1.88,2.5a4.9,4.9,0,0,1-1.57,1.35c-1.52.84-3,1.69-4.58,2.51a26.38,26.38,0,0,1-4.85,1.89,17.63,17.63,0,0,1-2.55.46c-.15,0-.33-.11-.48-.19a1.9,1.9,0,0,1-1.09-1.64,2.34,2.34,0,0,1,.46-1.46,5.81,5.81,0,0,1,.67-.79,41.82,41.82,0,0,1,3.53-3.09,3.86,3.86,0,0,0,1.41-2.7,22.52,22.52,0,0,0,.15-2.6,2.3,2.3,0,0,0-1.3-2.09,4,4,0,0,0-2.52-.42,3.15,3.15,0,0,0-1.81,1,6.81,6.81,0,0,0-1,1.21c-1.45,2.37-3,4.68-3.58,7.48a2.12,2.12,0,0,1-.19.48,3.7,3.7,0,0,1-1.28,1.61A45.75,45.75,0,0,1,152.68,27a2,2,0,0,1-2-.13,7.75,7.75,0,0,1-2.79-3,4.85,4.85,0,0,1-.38-1,2.25,2.25,0,0,1,.14-1.52,3.42,3.42,0,0,1,.57-.87c3-3.35,5.77-7,8.58-10.49a4.45,4.45,0,0,0,.56-.88,3.53,3.53,0,0,0,.09-3,5.58,5.58,0,0,0-2-2.34A5,5,0,0,0,153,3a3.81,3.81,0,0,0-3.65,1.53A16.12,16.12,0,0,0,147.1,8a29.41,29.41,0,0,1-1.49,2.75,3.59,3.59,0,0,0-.42,1c-.44,2.21-1.47,4.29-1.54,6.58a4.81,4.81,0,0,1-2.29,3.87,31.18,31.18,0,0,1-4.46,2.69,14.91,14.91,0,0,1-2.45.88,6.06,6.06,0,0,1-2.59.11,3,3,0,0,1-2.42-2.4,13.36,13.36,0,0,1-.08-1.56c0-1.22.16-2.43.19-3.65a4.34,4.34,0,0,0-.76-2.46,1.84,1.84,0,0,0-.77-.67,6.11,6.11,0,0,0-1.5-.41,4.06,4.06,0,0,0-3.39,1,12.1,12.1,0,0,0-2.76,3.1,22.05,22.05,0,0,1-3.51,4.51c-.31.32-.58.53-.65.34a1.74,1.74,0,0,1-.05-1,55.16,55.16,0,0,1,2.41-6.32A37.26,37.26,0,0,1,125,6.26a12.34,12.34,0,0,0,1.22-1.68,1,1,0,0,0,0-1,1.87,1.87,0,0,0-2.09-1.15,1.23,1.23,0,0,0-.5.14,13.81,13.81,0,0,0-3,2.88c-1,1.39-2.29,2.64-2.85,4.34a3.47,3.47,0,0,1-.47.92c-1.21,1.7-2.33,3.48-3.7,5-2.17,2.48-4.08,5.21-6.62,7.35a14.27,14.27,0,0,1-4.57,3.4,14.72,14.72,0,0,1-2.42.95,2.16,2.16,0,0,1-1.52-.05.9.9,0,0,1-.5-.82,2.12,2.12,0,0,1,.3-1c1.13-2.36,2.59-4.53,3.81-6.83a6.12,6.12,0,0,0,.65-3,1.75,1.75,0,0,0-1.66-1.66,14.49,14.49,0,0,0-2.6,0,66.37,66.37,0,0,1-7.8.54,5.65,5.65,0,0,0-1,.1c-2.21.49-4.51.37-6.71.91a6.43,6.43,0,0,1-1.56,0,1.38,1.38,0,0,1-1.3-1.33,4.19,4.19,0,0,1,.11-1A19.81,19.81,0,0,0,81.26,9.8a26.27,26.27,0,0,1,1-4,11.57,11.57,0,0,0,.47-4.12,1.51,1.51,0,0,0-.37-.95A2.5,2.5,0,0,0,79.5.28a3.31,3.31,0,0,0-.74.71,118.34,118.34,0,0,1-8.16,9.49,19.42,19.42,0,0,1-1.5,1.45c-1.59,1.35-3.21,2.67-4.81,4a7.23,7.23,0,0,1-2.24,1.31,2.82,2.82,0,0,0-1.52,1.31,3.32,3.32,0,0,1-1.09,1.09c-2.39,1.43-4.54,3.22-7,4.54a10.79,10.79,0,0,1-4.68,2.17,2.92,2.92,0,0,0-.87.53,1.12,1.12,0,0,0-.13,1.39,2.14,2.14,0,0,0,.39.35,3.93,3.93,0,0,0,4,.09A40.18,40.18,0,0,0,57,25.28c1.66-1.25,3.48-2.3,5.22-3.45a9.61,9.61,0,0,1,5.41-1.62c.7,0,1.39-.09,2.09-.06,1.23,0,2.39-.44,3.61-.43a.89.89,0,0,1,.76.61,2.24,2.24,0,0,1,0,1.53c-.8,2.11-1.71,4.18-2.42,6.32a23.53,23.53,0,0,1-1.32,3.39,48.34,48.34,0,0,0-2.41,6.32,2.54,2.54,0,0,0,1.47,3,1.63,1.63,0,0,0,2.12-.9c1.22-3.8,2.41-7.62,4-11.29.79-2.85,2.1-5.52,3-8.32A2.05,2.05,0,0,1,79.93,19c1.35-.33,2.7-.63,4.06-.9a6.77,6.77,0,0,1,3.1.07c.29.08.5.44.75.68a31,31,0,0,0,.78,4.62c.88,3.39,2.69,6,6.22,7.1.33.1.65.26,1,.38a4.25,4.25,0,0,0,2,.25c.86-.1,1.72-.27,2.58-.4A14.18,14.18,0,0,0,107,27.86c1.24-1,2.31-2.1,3.64-2.95a.56.56,0,0,1,.47-.07.61.61,0,0,1,.24.45q0,1.3,0,2.59a3.82,3.82,0,0,0,1.93,3.47,2.82,2.82,0,0,0,1.49.39,1.25,1.25,0,0,0,1-.36,31.74,31.74,0,0,0,3.76-5c.93-1.47,1.8-3,2.75-4.43a20.2,20.2,0,0,1,1.59-2.06,3.62,3.62,0,0,1,.83-.59c.38-.24.67-.13.79.33.39,1.51.42,3.09.71,4.61A4.93,4.93,0,0,0,127.66,27a6.93,6.93,0,0,0,3.64,1.89,10.66,10.66,0,0,0,5.64-.46c.65-.25,1.3-.49,1.94-.76a22.72,22.72,0,0,0,3.67-2,4.09,4.09,0,0,1,1.91-.75A5.68,5.68,0,0,1,146,26.36a25.92,25.92,0,0,0,3,2.92,4.91,4.91,0,0,0,2.35,1,8.92,8.92,0,0,0,1,.13,4.38,4.38,0,0,0,2.51-.55c.6-.35,1.18-.73,1.76-1.11s.85-.6,1.29-.88a2,2,0,0,1,2,0c.69.53,1.34,1.11,2.06,1.6a4.93,4.93,0,0,0,1.41.64A7.91,7.91,0,0,0,168,30a26.59,26.59,0,0,0,5.76-2.4c.89-.54,1.87-.93,2.8-1.39a1.61,1.61,0,0,1,1.9.34,13.26,13.26,0,0,0,1.11,1.1,11.27,11.27,0,0,0,1.77,1.08,2.86,2.86,0,0,0,2,.19,13,13,0,0,0,2-.62A33.11,33.11,0,0,0,190,26a32.55,32.55,0,0,1,4.67-2.28c.27-.12.59.17.62.58.16,2.35-.77,4.41-1.78,6.45A5.09,5.09,0,0,1,192.85,31.56ZM152.6,6.86A1,1,0,0,1,154,6.74c.11.1.28.3.24.39a8.55,8.55,0,0,1-3.1,4,.91.91,0,0,1-.47.13,1.52,1.52,0,0,1-.37,0,3.37,3.37,0,0,1,.15-.9A11.48,11.48,0,0,1,152.6,6.86ZM149.53,12a1.18,1.18,0,0,1,.3-.39,1.39,1.39,0,0,1,.26-.17c0,.25-.07.51-.12.75s-.11.42-.19.43C149.45,12.65,149.35,12.4,149.53,12ZM77.37,10.37A8.83,8.83,0,0,0,77,11.73a10,10,0,0,1-1.17,3.49,2.2,2.2,0,0,1-1.55,1.19,9.1,9.1,0,0,1-4,.44.74.74,0,0,1-.42-.28.55.55,0,0,1,0-.41,1.07,1.07,0,0,1,.25-.43c.75-.7,1.5-1.4,2.28-2.06a18.28,18.28,0,0,0,2.83-3,8.19,8.19,0,0,1,1.12-1,.77.77,0,0,1,.91-.2C77.58,9.7,77.53,10,77.37,10.37Zm20.57,8.1a44.47,44.47,0,0,1-3.35,5.85.91.91,0,0,1-.9.38,1,1,0,0,1-.77-.59,10.22,10.22,0,0,1-.79-5.58A1.37,1.37,0,0,1,93,17.35a7.81,7.81,0,0,1,1.48-.41,18,18,0,0,1,1.9,0c.51.12.85.17,1.17.28a.67.67,0,0,1,.48.79A1.72,1.72,0,0,1,97.94,18.48Z"/><path class="cls-10" d="M324.34,14.34a9.78,9.78,0,0,0,.9-1.27A65.81,65.81,0,0,0,330,3.79a4,4,0,0,0,.1-.51,2.09,2.09,0,0,0-.88-1.76c-.46-.24-.94-.44-1.37-.64-2.2.61-2.69.85-3.74,1.83-.25.24-.52.46-.76.72A29.42,29.42,0,0,0,317.11,13c-.81,2.11-1.71,4.18-2.39,6.33a4,4,0,0,1-1.57,2,12.4,12.4,0,0,1-1.3.87,60.85,60.85,0,0,1-8.12,3.9c-.89,0-1.93.15-3,.12a9.08,9.08,0,0,1-2-.36,2.8,2.8,0,0,1-1.61-1.23,1.79,1.79,0,0,1-.06-2c3.48-4.46,3.14-4.16,4.8-8a17,17,0,0,0,2-5.88c.12-.68.41-1.33.59-2a3.62,3.62,0,0,0-.69-3,1.59,1.59,0,0,0-.82-.59A6.12,6.12,0,0,0,301.42,3a3.15,3.15,0,0,0-2.36.91,18.83,18.83,0,0,0-4.71,7.41c-.49,1.3-1,2.6-1.36,3.94a23.9,23.9,0,0,0-.58,4.65c0,.35-.07.69-.09,1a3.29,3.29,0,0,1-2,2.82c-1.38.73-2.77,1.46-4.18,2.13a16.5,16.5,0,0,1-2.44.9,4.45,4.45,0,0,1-2.07,0,2.34,2.34,0,0,1-1.73-1.74,5.17,5.17,0,0,1-.07-1,6.92,6.92,0,0,1,.8-3A34.71,34.71,0,0,0,283,15.9a1.86,1.86,0,0,0-.54-1.91,1.8,1.8,0,0,0-2.36,0c-.24.25-.5.49-.71.75-.43.54-.84,1.11-1.27,1.66a.78.78,0,0,1-1.29.11,3.09,3.09,0,0,0-2.66-1.34,4.59,4.59,0,0,0-1.51.34,13.32,13.32,0,0,0-3.48,2.27c-1.3,1.16-2.53,2.38-3.84,3.53a25.47,25.47,0,0,0-4,4.75,3.48,3.48,0,0,0,.5,4.29A7,7,0,0,0,264,31.66a2.59,2.59,0,0,0,1.53.07,11.91,11.91,0,0,0,4.23-2c1-.7,1.93-1.49,2.9-2.21.42-.31.88-.56,1.32-.83a1.91,1.91,0,0,1,2.39.22c.24.25.45.53.69.79a7,7,0,0,0,5,2.36,6.46,6.46,0,0,0,3.05-.51,66.71,66.71,0,0,0,7-3.36,1.39,1.39,0,0,1,1.48.07c1.2.7,2.36,1.47,3.55,2.18a4.91,4.91,0,0,0,2,.66,12.16,12.16,0,0,0,6.17-.47,12.78,12.78,0,0,0,3.92-1.38c1.38-.74,2.89-1.18,4.22-2,.25-.16.62,0,.92.28a3,3,0,0,1,.81,1.31,9.85,9.85,0,0,0,2.38,3.39,8.42,8.42,0,0,0,4.61,2.25,3.85,3.85,0,0,0,.52,0,1.61,1.61,0,0,0,1.3-.72.65.65,0,0,0-.1-.94,8.82,8.82,0,0,0-2.22-1.29,4.19,4.19,0,0,1-1.52-1.39c-.36-.6-.74-1.18-1.1-1.77a5,5,0,0,1-.64-3,4.5,4.5,0,0,1,1-2.88C321.29,18.57,322.72,16.38,324.34,14.34Zm-51.48,6.32a4.55,4.55,0,0,0,0,.48,6.44,6.44,0,0,1-2,3.54c-1.57,1-2.91,2.37-4.64,3.14a.6.6,0,0,1-.85-.35,1.06,1.06,0,0,1-.11-.45,1.4,1.4,0,0,1,.14-.48,1.69,1.69,0,0,1,.26-.44,43.61,43.61,0,0,1,6-6.29.71.71,0,0,1,.88-.07A.9.9,0,0,1,272.86,20.66Zm24.38-6.28c.51-1.25,1-2.52,1.58-3.75a2,2,0,0,1,1.1-1s.18.27.27.41a1.49,1.49,0,0,1,0,.49c-.32,1-.83,1.84-1.09,2.84a6.07,6.07,0,0,1-1.27,2.18c-.09.11-.34.27-.37.24a1,1,0,0,1-.31-.92A2.29,2.29,0,0,1,297.24,14.38Z"/><path class="cls-10" d="M251.3,24c-.76,1.57-1.05,3.31-1.72,4.92a8.47,8.47,0,0,0-.36,1,7.19,7.19,0,0,0-.19,1,2.43,2.43,0,0,0,1.23,2.64c.45.26.88.56,1.43.29a2.06,2.06,0,0,0,1.1-1.05,2,2,0,0,0,.2-.48,29.43,29.43,0,0,1,1.51-5.52c1-3.15,2-6.28,2.92-9.46a18.3,18.3,0,0,0,.58-2,30.61,30.61,0,0,1,1.37-5.56,6.11,6.11,0,0,0,.28-1.54c.12-1.38.2-2.77.29-4.16a1.49,1.49,0,0,0-.34-1,1.59,1.59,0,0,0-2.25-.31c-.13.11-.33.23-.35.37-.34,2.06-.85,4.07-1.38,6.09-.49,1.85-1.15,3.64-1.69,5.47a1.94,1.94,0,0,1-1.24.83c-.35,0-.69.08-1,.06-1.39-.07-2.78-.16-4.17-.25h0c-.87-.05-1.74-.1-2.6-.16s-1.73-.14-2.6-.22c-1-.1-1.6-.9-1.23-1.76.07-.16.12-.33.2-.48A49.44,49.44,0,0,0,244,6,4.79,4.79,0,0,0,244.21,4a1.59,1.59,0,0,0-.78-1.26,2,2,0,0,0-2.69.79A10.09,10.09,0,0,0,240.23,5a11.31,11.31,0,0,1-1.28,3.4c-1,1.65-1.79,3.38-2.61,5.1a2,2,0,0,1-1.64,1.11c-1.22,0-2.43,0-3.65,0a17.62,17.62,0,0,0-5.16.62.73.73,0,0,0-.29,1.2,2.49,2.49,0,0,0,1.24.9,12.06,12.06,0,0,0,2,.4c1.38.16,2.78,0,4.16.24a1.65,1.65,0,0,1,.87,1.18,5.61,5.61,0,0,1-.09,1c-.31,1-.72,2-1,3a22.43,22.43,0,0,1-1.11,3.47,5.49,5.49,0,0,0-.36,2A2.71,2.71,0,0,0,234,31.24a1.2,1.2,0,0,0,.89-.46c.1-.14.26-.26.3-.41.47-1.67,1-3.34,1.37-5s1.29-3.23,1.55-5a3.44,3.44,0,0,1,.39-1,2.16,2.16,0,0,1,1.59-1.22,11.53,11.53,0,0,1,2.08-.09c1.22,0,2.43.1,3.65.1s2.43-.16,3.64-.06c.87.07,1.73-.26,2.58.05.14.05.24.23.34.36a1.24,1.24,0,0,1,.23,1C252.29,21.06,251.51,22.46,251.3,24Z"/><path class="cls-10" d="M97.2,72.85l2.09,3,.65,2.42a6.81,6.81,0,0,1-1.22,2.56c-.87,1.18-1.6,2.47-2.37,3.69a.68.68,0,0,0,.61.54,1.55,1.55,0,0,0,.44-.06,58.82,58.82,0,0,0,8.35-3.64,4.91,4.91,0,0,0,.56-.44c.45-.7-.24-1.68.71-2.18a9.15,9.15,0,0,1,3.32.33c.89-.52,1.8-1,2.69-1.58a11.29,11.29,0,0,1,1.85-.94,6.87,6.87,0,0,0,2-1.16,13.07,13.07,0,0,1,3.36-1.89l1.52.09A2,2,0,0,1,123,76a46,46,0,0,1-3.17,6.16A29.81,29.81,0,0,0,117.14,88a5.28,5.28,0,0,1-.87,1.92,1.56,1.56,0,0,1-2.09-.18,5.64,5.64,0,0,1-1.16-1.4A43.24,43.24,0,0,0,109.75,84a3.56,3.56,0,0,0-.45-.38,2.16,2.16,0,0,0-.69.08q-1.19.54-2.34,1.15a3,3,0,0,1-1.22.43,2.19,2.19,0,0,0-1.19.48,2.18,2.18,0,0,1-.68.38c-1.68.48-3.08,1.58-4.78,2a7.61,7.61,0,0,1-3.6.15,3.67,3.67,0,0,1-2.35-1.92,7.09,7.09,0,0,1-.39-.91,4.33,4.33,0,0,1,.72-2.25,28.43,28.43,0,0,1,1.49-2.44,37.38,37.38,0,0,0,1.91-3.33A2,2,0,0,0,95,75.74a3.48,3.48,0,0,0-.63.43c-.48.5-.91,1-1.39,1.55a31.46,31.46,0,0,1-6.31,5,33.23,33.23,0,0,1-3.38,2c-.47.22-1,.39-1.45.58-.24.09-.56.08-.73.24-1,.93-2.33,1.13-3.46,1.77s-2.25.93-3.36,1.42A11.47,11.47,0,0,1,69,89.73a5.12,5.12,0,0,1-2.25-.6,8.89,8.89,0,0,1-3.06-2.39,2.24,2.24,0,0,0-.38-.33,1.69,1.69,0,0,0-1.27.12A53.37,53.37,0,0,1,55,88.19a7.34,7.34,0,0,1-2.86,0A6.58,6.58,0,0,0,50.84,88a1.09,1.09,0,0,0-.66.34,1.92,1.92,0,0,0-.37.67c-.49,1.3-1.08,2.56-1.47,3.9-.47,1.59-1.28,3-1.89,4.58a60.19,60.19,0,0,1-6.9,12.22c-.15.21-.31.42-.47.63a4,4,0,0,1-3.42,1.71,7.21,7.21,0,0,1-2.09-.89,2.13,2.13,0,0,1-1.13-1.66,9.73,9.73,0,0,1,.14-4.14,26,26,0,0,1,2.18-5.57A44.37,44.37,0,0,0,37,95.14a17.1,17.1,0,0,1,1.41-2.79c1.27-2,2.14-4.17,3.22-6.25a2.2,2.2,0,0,0,.11-.71c-.19-.26-.39-.44-.67-.37a9.8,9.8,0,0,0-1.75.5,42.58,42.58,0,0,1-4.15,1.41l-1.13,0L33,87.54a13.47,13.47,0,0,1-7.29-1.1c-.2.15-.4.23-.44.36a15.48,15.48,0,0,0-.53,2c-.32,2-.61,3.95-1,5.9A29.9,29.9,0,0,1,22.05,101c-.28.62-.35,1.34-.58,2a24.2,24.2,0,0,1-1.86,4l-1.17,2c-.18.3-.35.6-.55.89a4,4,0,0,1-.51.59c-.31.3-.64.58-1,.89l-2.25.29a5,5,0,0,1-2.56-1.36,1.83,1.83,0,0,1-.47-.91,12.2,12.2,0,0,1,.09-5.17,30.32,30.32,0,0,1,.71-3c.51-1.29,1.05-2.57,1.59-3.85a.68.68,0,0,1,.13-.23c1-1,1.24-2.27,1.78-3.44.88-1.89,1.9-3.71,2.91-5.54a6.84,6.84,0,0,1,.89-1.29,8.42,8.42,0,0,0,1.25-2c.31-.62.53-1.28.82-1.91s.61-1.24.91-1.87a1.12,1.12,0,0,0,0-.32c-.2-.08-.43-.26-.65-.25a3.2,3.2,0,0,0-1.26.3,16.79,16.79,0,0,1-4.69,1.51,3.7,3.7,0,0,0-2,1.12l-1.05,1.16a9.83,9.83,0,0,1-.9.94,47.23,47.23,0,0,1-5,4l-2.57.71a11.58,11.58,0,0,1-2.71-1.16,2.64,2.64,0,0,1-.79-.67A1.89,1.89,0,0,1,0,87c0-.61.09-1.21.14-1.77a13.81,13.81,0,0,1,2.18-4.19,15.71,15.71,0,0,0,1.44-3.6c.77-1.16,1.37-2.45,3-3.34a11.86,11.86,0,0,1,3.41-.87,7.76,7.76,0,0,1,3.07,1.86c.4.79.81,1.55,1.18,2.34s.61,1.41.92,2.12c1.69-.62,3.37-1.11,4.94-1.85a50.62,50.62,0,0,1,5-2.06A13.23,13.23,0,0,0,27.4,73a18.66,18.66,0,0,1,2.25-2.86c.74-.85,1.59-1.61,2.35-2.43a3.94,3.94,0,0,1,3.51-1.32l.25.05A2.42,2.42,0,0,1,37,67.7a2.31,2.31,0,0,1,0,.53,10.88,10.88,0,0,1-1.54,3.57,12.63,12.63,0,0,1-2.2,2.56,25.24,25.24,0,0,1-4.47,3.18c-1,1.41-2.23,2.68-2.18,4.65.17.28.34.58.53.86a3.55,3.55,0,0,0,3.12,1.58,9.2,9.2,0,0,0,3.6-.4,18.43,18.43,0,0,0,5-1.53,52.18,52.18,0,0,0,5-2.24,8.51,8.51,0,0,0,2.29-1.7,14.84,14.84,0,0,0,2.77-4.08,16.86,16.86,0,0,1,3.1-4.79c.3-.31.57-.65.82-.94l2.16-1.43A6.38,6.38,0,0,1,57,67.18c.65.41,1.45.65,1.65,1.64a13.1,13.1,0,0,1-3,5.62c-1,1.18-1.89,2.49-3,3.59a3.16,3.16,0,0,0-.4.66A24.59,24.59,0,0,1,52,81.53c-.21.93-.41,1.86-.6,2.72a1.86,1.86,0,0,0,1.59.93,10.89,10.89,0,0,0,2.34-.08,36.76,36.76,0,0,0,6.78-1.84c.4-.16.78-.37,1.08-.51a7.64,7.64,0,0,0,1-1.92,9.11,9.11,0,0,1,1.21-2A2.15,2.15,0,0,0,66,78a5.79,5.79,0,0,1,1.7-2.57c.83-.88,1.64-1.79,2.47-2.68a3.17,3.17,0,0,1,2.07-1l2.25-.2a1.8,1.8,0,0,1,1.27,1A2.67,2.67,0,0,1,76,74a4.25,4.25,0,0,1-.26,1,17.59,17.59,0,0,1-7.53,9,7.49,7.49,0,0,0-.83.62.68.68,0,0,0-.17.71,3.1,3.1,0,0,0,1.72,1.51,1.71,1.71,0,0,0,.77.06,4.59,4.59,0,0,0,1-.29c2-.8,4.06-1.53,6-2.51,1.48-.74,3-1.42,4.46-2.15A25.41,25.41,0,0,0,87,78.2c2.58-1.6,4.24-4.07,6-6.42a7.32,7.32,0,0,0,.57-1.06A5,5,0,0,1,96,70.37a1.23,1.23,0,0,1,.89.9C97,71.77,97.08,72.29,97.2,72.85Zm-61,34.07c.15.29.34.37.6.2A.74.74,0,0,0,37,107a57.72,57.72,0,0,0,4.31-6.81c.46-.84,1-1.65,1.42-2.48A21.22,21.22,0,0,0,44,95.16c1.18-3,2.13-6,3.37-9,.19-.44,0-.81-.68-1.15a5.15,5.15,0,0,0-1.34,1.89C44,89.57,42.52,92.25,41.16,95,40,97.22,39,99.52,37.91,101.79A21.59,21.59,0,0,0,36.17,106.92ZM21.29,91.81c-.43-.48-.56-.49-.75-.11-1,1.93-1.95,3.85-2.89,5.79-.46.93-.8,1.91-1.29,2.83a23.54,23.54,0,0,0-1.72,5.13,4.79,4.79,0,0,0-.07,1.28c0,.15.13.3.21.45.15-.07.37-.09.45-.2.6-.94,1.22-1.88,1.75-2.86a14.17,14.17,0,0,1,.82-1.89,6.68,6.68,0,0,0,1.06-2.6c.23-.92.56-1.81.84-2.72a10.32,10.32,0,0,0,.42-1.49A11.69,11.69,0,0,1,21.29,91.81ZM8.35,83.22A10.1,10.1,0,0,0,6,82.1c-.19.15-.47.26-.57.45C4.9,83.7,4.36,84.86,3.82,86c0,.07,0,.17,0,.25s.28.5.49.47A1.8,1.8,0,0,0,5,86.57c.9-.65,1.78-1.31,2.64-2a3,3,0,0,0,.61-.81A1.46,1.46,0,0,0,8.35,83.22Zm1.73-7c-.79.13-.72.89-1,1.38-1,.87-1,.87-1.26,1.54a1,1,0,0,0,.65.75,8.09,8.09,0,0,0,1.51.34,1.36,1.36,0,0,0,1.5-.85,5.33,5.33,0,0,0-.19-2.25A1.44,1.44,0,0,0,10.08,76.2Zm106.1,3.95c-.14-.08-.32-.25-.42-.21A11.82,11.82,0,0,0,113,81.29a3.36,3.36,0,0,0-.52.54,3.77,3.77,0,0,0,1.55,2c.11.08.32,0,.55,0A19.07,19.07,0,0,0,116.17,80.15Z"/><path class="cls-10" d="M287.21,83.17c-.18.46-.15.78.15,1a2,2,0,0,0,.43.29c.63.29,1.27.56,1.93.85a29.59,29.59,0,0,0,3.16.13,10.41,10.41,0,0,0,3.22-.9,43.1,43.1,0,0,1,4.61-2,1.82,1.82,0,0,1-.19,2.15,4,4,0,0,1-1.73.89c-1.29.45-2.53,1.06-3.84,1.46s-2.67.51-4,.77c-.82-.17-1.76-.35-2.68-.58a6.05,6.05,0,0,1-1.64-.78,9.33,9.33,0,0,0-2.26-1.39c-.72.23-1.48.42-2.19.73a18.64,18.64,0,0,1-3.93,1.34,9.28,9.28,0,0,0-2,.93,16.58,16.58,0,0,0-3.33.71,7.54,7.54,0,0,1-3.19-.56c-1.36-.85-2.44-1.91-2.47-3.62a5.21,5.21,0,0,1,.81-2c.38-.58.8-1.14,1.18-1.72s1.2-.77,1.25-1.58a2.66,2.66,0,0,0-.15-.22.7.7,0,0,0-.18-.18l-2.29-1.26c-.91.4-1.7.93-2.54,1.38-1.07.58-2.14,1.16-3.23,1.7a4.12,4.12,0,0,1-1,.25c-.17,0-.35,0-.52.06-.76.16-1.39.72-2.22.72a7.25,7.25,0,0,0-2,.41,8.31,8.31,0,0,1-1.8.25c-2.25.14-4.51.24-6.8.36A3.25,3.25,0,0,0,246.42,84a5.87,5.87,0,0,1-1.37,1.18c-.87.56-1.63,1.31-2.52,1.84a14.37,14.37,0,0,0-2.36,1.29l-2.69.69a4.6,4.6,0,0,1-3-2.74,15.64,15.64,0,0,1,2.71-7,3.29,3.29,0,0,0,.26-.68c-.48-.38-.88,0-1.26.07a35.66,35.66,0,0,1-10.33,1c-.92-.2-1.29-1-2.1-.8a7.82,7.82,0,0,0-.88,2.26A17.48,17.48,0,0,1,220.06,85a4.79,4.79,0,0,1-1.69,1.19,10,10,0,0,0-2,1.14,1.61,1.61,0,0,1-1.27-.24c-.3-.18-.58-.38-.87-.57a6.85,6.85,0,0,1-3.16-4.29,1.58,1.58,0,0,0-.27-.44,1.54,1.54,0,0,0-.49,0,1.13,1.13,0,0,0-.44.26,22.68,22.68,0,0,1-3.82,2.7,19.18,19.18,0,0,1-3.93,2,11.57,11.57,0,0,1-2.78,1.4A5.45,5.45,0,0,1,195,88a6.26,6.26,0,0,1-2.35-3.34,3.16,3.16,0,0,1,.51-1.72c.35-.6.73-1.18,1-1.8a27,27,0,0,1,3.45-5.07,3.23,3.23,0,0,1,2.15,0,1.37,1.37,0,0,1,.64,1.57,2.53,2.53,0,0,1-.21.48c-.51.71-1,1.4-1.54,2.1a14.19,14.19,0,0,0-2,3.37,5.5,5.5,0,0,0-.18.75.86.86,0,0,0,.8.84,2,2,0,0,0,.26,0,37,37,0,0,0,5.24-2.27,47.07,47.07,0,0,0,4.93-3.38,20.85,20.85,0,0,0,2.81-2.7l2-2.39a7,7,0,0,1,1.05-2.39l.63-.32a4.36,4.36,0,0,1,2.28,1.11,9,9,0,0,1-.59,3.27,24.92,24.92,0,0,0-1.52,6.31,1.38,1.38,0,0,0,0,.25c.12.32.26.64.36.9a1.06,1.06,0,0,0,1.49,0,12,12,0,0,0,2.76-3.1,14,14,0,0,0,1-1.82A2.88,2.88,0,0,0,220.6,77c.32-1.43.24-2.94.79-4.33a1.19,1.19,0,0,1,.84-.58,5.81,5.81,0,0,1,1.81.6,5.92,5.92,0,0,1,.58,1,7.53,7.53,0,0,1,.2,1.28c.15,1,.16,1,1.29,2,.75.12,1.6.28,2.46.39a3.13,3.13,0,0,0,1,0c2.55-.55,5.1-1.09,7.63-1.68.84-.2,1.64-.55,2.53-.86l1.54-2.42c.47-.08,1-.12,1.49-.25a11.19,11.19,0,0,0,1.26-.49,8.61,8.61,0,0,1,3,1.06c.58,1,.87,2.21,1.37,3.22a12.13,12.13,0,0,0,.55,3.58,23.73,23.73,0,0,0,3.27.35c1.69-.39,3.44-.4,5.13-.81l2.59-.62c2.41-1.06,4.85-2.2,6.7-4.66.17-.39.43-1,.73-1.66a1.25,1.25,0,0,1,1.75-.63,9.42,9.42,0,0,1,1.32.83c.18.14.24.44.39.71l-.74,1.8a2.63,2.63,0,0,0,.48,1.41c.69.38,1.43.82,2.2,1.22s1.41.67,2.07,1a2.51,2.51,0,0,1,.36.45,1.49,1.49,0,0,1-.63,2.22,11.27,11.27,0,0,0-2.91,2.59,5,5,0,0,0-.7,1.09,1.83,1.83,0,0,0,0,.72c.2.11.34.27.49.27a8.68,8.68,0,0,0,3.33-.42c1.3-.48,2.67-.77,4-1.3a7.83,7.83,0,0,1,1.56-.3,21.28,21.28,0,0,0,2.6-1.67.93.93,0,0,0,.13-.22c.23-.54-.19-1-.16-1.76l.33-2.38c.14-.28.3-.59.44-.91.34-.8.71-1.59,1-2.41A12.44,12.44,0,0,1,286,72.22c.61-1,1.34-2,2-3.07a4.15,4.15,0,0,1,1.64-1.64,10.76,10.76,0,0,0,2.59-2.16,11.89,11.89,0,0,1,4.66-3.13,3.88,3.88,0,0,1,1.88.64L299.84,64c.05.18.12.27.1.33-.15.5-.32,1-.51,1.58l-.84.86c-.15.49.12,1-.11,1.51a5.84,5.84,0,0,0-.25,1.34A66.34,66.34,0,0,1,294,76.13a36.94,36.94,0,0,1-4.87,5.41C288.47,82.14,287.79,82.68,287.21,83.17Zm-.71-3.54a9.79,9.79,0,0,0,.88-.68c.74-.73,1.42-1.51,2.2-2.2a5.82,5.82,0,0,0,1.32-1.58,5.15,5.15,0,0,1,1.74-1.76,7.52,7.52,0,0,1,1.21-2.07,21.21,21.21,0,0,0,1.57-2.06,8,8,0,0,0,1.16-2.59.49.49,0,0,0,0-.25.92.92,0,0,0-.21-.44.5.5,0,0,0-.45-.07,32.8,32.8,0,0,0-6.58,6.56,1.27,1.27,0,0,0-.14.22c-.82,1.62-1.81,3.15-2.48,4.84a6.56,6.56,0,0,0-.37,1.24A3,3,0,0,0,286.5,79.64Zm-44.17-1.31a8.89,8.89,0,0,0-.79.55,2.49,2.49,0,0,0-.51.58c-.51.9-1,1.82-1.51,2.71A14.29,14.29,0,0,0,238.24,85c.17.07.35.22.47.18a3.85,3.85,0,0,0,.94-.4c1.18-.71,2.35-1.44,3.45-2.13l1.38-1.82C243.86,80,243,79.34,242.33,78.33Z"/><path class="cls-10" d="M392.06,82.44c.49,0,.94,0,1.26.36.05.38-.19.63-.35.93s-.3.62-.46.94a10.1,10.1,0,0,1-2.86,2.62c-.75.43-1.53.82-2.32,1.19a6.45,6.45,0,0,1-1.47.52,41,41,0,0,1-4.4.25,14,14,0,0,1-3.54-.81,3.17,3.17,0,0,0-1.77-.31c-.25,0-.39.14-.76.7a8.69,8.69,0,0,0,.1,1,31.33,31.33,0,0,1,.49,5.17,29.86,29.86,0,0,1-.1,3.9,14.12,14.12,0,0,1-2,6.15c-.63,1-1.18,2.13-1.85,3.14a16.9,16.9,0,0,1-4.64,4.93,1,1,0,0,1-.19.09,8.17,8.17,0,0,1-3.6,0,2.49,2.49,0,0,1-1.33-.77,2.45,2.45,0,0,1-.79-1.6,11.31,11.31,0,0,1,.8-5.61c.29-.63.52-1.29.87-1.89a44.17,44.17,0,0,0,2.43-5.17,49.58,49.58,0,0,1,3-6,20.24,20.24,0,0,0,2.07-4.76,4,4,0,0,0,.09-.7c-.18-.61-.65-.88-1-1.27a1.26,1.26,0,0,1-.34-1,1.75,1.75,0,0,1,.29-.77c1.17-.6,2,0,2.73-.42.36-.39.68-.77.37-1.41a2.29,2.29,0,0,0-.71,0c-1,.31-2,.71-3,1s-2,.46-3,.73-2.17.62-3.48,1c-.67.48-1.55,1-2.36,1.69a9.6,9.6,0,0,1-3.88,2,6.48,6.48,0,0,0-.83.33l-1.9,0a5.67,5.67,0,0,1-2.41-1.63,2.21,2.21,0,0,1-.32-2.66c.54-.88,1.15-1.73,1.73-2.59l.5-.76a2.55,2.55,0,0,0,.09-.38c.11-2.6-.22-1.74,1.56-4.34l2.95-1.82c1.11.13,2.11-.5,3.17-.13l1.25.77a9.69,9.69,0,0,1,2.92,5.45l.48.38a10.24,10.24,0,0,0,1.3-.16c.83-.21,1.61-.58,2.48-.73a10.71,10.71,0,0,0,2.17-.86,4.12,4.12,0,0,1,.7-.34A10.08,10.08,0,0,0,375.83,77a32.85,32.85,0,0,1,2-3.26c1.38-1.8,2.27-3.88,3.58-6l1.17-.88a6.35,6.35,0,0,1,2.61.29,1.29,1.29,0,0,1,.49,1.21,7.35,7.35,0,0,1-.58,2.53c-.3.72-.62,1.44-.89,2.17a9.62,9.62,0,0,1-3.29,4.27,34.42,34.42,0,0,0-2.86,2.39,48,48,0,0,0-2.33,4.58c.21.22.34.49.55.57,1.3.49,2.61.93,3.93,1.39a5.81,5.81,0,0,0,3.08.26c.85-.17,1.7-.36,2.55-.52s1.55-.77,2.44-.88c.23,0,.42-.28.64-.42C390,83.91,391,83,392.06,82.44Zm-19.48,11c-.06-.34-.11-.77-.21-1.19a1.32,1.32,0,0,0-.24-.44.27.27,0,0,0-.2-.08c-.08,0-.21,0-.23.09a13.4,13.4,0,0,1-.58,1.43,14.66,14.66,0,0,0-.76,1.65,28.71,28.71,0,0,1-1.5,3.32,38,38,0,0,0-2.28,5,15.61,15.61,0,0,1-.69,1.69,10,10,0,0,0-.91,3.77,3.64,3.64,0,0,0,.2,1.26.47.47,0,0,0,.41.2,1.78,1.78,0,0,0,.68-.34,18,18,0,0,0,3.43-3.89,12.41,12.41,0,0,0,1.22-2c.57-1.36,1-2.76,1.52-4.15a3.77,3.77,0,0,0,.25-1.27A23.85,23.85,0,0,0,372.58,93.49ZM357,79.15l1.5.79.6,1.15a2,2,0,0,0,2,.33c.07,0,.13-.11.33-.27l.79-1.63c-.31-1.45-.31-1.45-1.83-3.1l-.94-.17a4.28,4.28,0,0,0-2.26,2.06A2.85,2.85,0,0,0,357,79.15Zm.1,4.94a1,1,0,0,0-1.28-.47c-.42.4-.93.74-.82,1.42a1,1,0,0,0,1,0A1.71,1.71,0,0,0,357.09,84.09Z"/><path class="cls-10" d="M318.19,84.34c-.26-.89-.42-1.48-.61-2.05a4.77,4.77,0,0,0-.33-.66c-.21-.05-.38-.16-.52-.12a8.65,8.65,0,0,0-2.68,1.56c-1.42,1-3,1.71-4.43,2.73a19.12,19.12,0,0,0-2.83,1.57l-2.92.78c-.33,0-.68,0-1-.08-2.31-.36-2.31-.36-4-2.11a2.76,2.76,0,0,1,.23-2.73,4.09,4.09,0,0,1,2-1.92c.38-.15.65-.55,1-.78a14.5,14.5,0,0,1,1.58-.91c.46-.22,1-.3,1.44-.56a15.09,15.09,0,0,0,1.15-1,10.74,10.74,0,0,1,3.33-1.41c.41-.14.82-.25,1.24-.35a6.13,6.13,0,0,1,1.27-.23,4,4,0,0,1,3.29,1.24,1.54,1.54,0,0,0,.42.29,1.36,1.36,0,0,0,.34.06l1.53-.91c.09-.34.19-.67.27-1a6.4,6.4,0,0,1,.32-1.25,23.29,23.29,0,0,1,3.74-6.21,10.29,10.29,0,0,0,2.14-2.93,5.33,5.33,0,0,1,1.59-2,1.3,1.3,0,0,1,1.5.05,13.66,13.66,0,0,1,1.34,1.23,1.66,1.66,0,0,1,.21.53,3,3,0,0,1-.28.66,5.87,5.87,0,0,0-1.32,2.5c-.65,1.23-1.07,2.56-1.71,3.78a14.79,14.79,0,0,1-2.27,3.47c-.72.75-1.33,1.6-2,2.41l-.57,2.76.58,2.9c.14.26.29.57.48.86a4.43,4.43,0,0,0,3.7,2.09,8,8,0,0,0,3.58-.35,2.14,2.14,0,0,1,1.77.08c.31.15.63.27.88.38a.53.53,0,0,1-.09.74,2.62,2.62,0,0,1-1.3.82c-1.18.29-2.35.65-3.54.84a12.39,12.39,0,0,1-3.89-.14,2.7,2.7,0,0,1-1.17-.54A9.36,9.36,0,0,1,320.19,87C319.47,86.14,318.83,85.21,318.19,84.34Zm-12.74.12,4-2.29a4.94,4.94,0,0,1,1.73-1.81c.41-.32.84-.61,1.23-.95.11-.09.12-.31.17-.46a.89.89,0,0,0-.94-.24c-.82.26-1.63.55-2.26.77A17.79,17.79,0,0,1,307,81a15.55,15.55,0,0,0-4.11,3.11,4.21,4.21,0,0,0-.49.82C303.63,85.17,304.54,84.5,305.45,84.46Z"/><path class="cls-10" d="M174.46,84.26a1.74,1.74,0,0,1,1.14.89,1.48,1.48,0,0,1-.38,1.2,11.14,11.14,0,0,1-6.83,3.08,31.21,31.21,0,0,1-3.37-.83,13.89,13.89,0,0,1-4.26-4,12.71,12.71,0,0,0-.54-1.36c-.1-.2-.38-.3-.55-.43a2.58,2.58,0,0,0-.53.22L155,86.19a18.94,18.94,0,0,1-4.63,2.33,6.22,6.22,0,0,1-3.08.25,3.57,3.57,0,0,1-1.22-.43,11.14,11.14,0,0,1-1.16-.81,5.58,5.58,0,0,1-.74-2.3,6.28,6.28,0,0,1,2.17-3.79c1.06-.9,1.73-2.18,3-2.87a.49.49,0,0,0,.18-.18,9.77,9.77,0,0,1,3-2.78c.51-.38,1.1-.5,1.61-.82s1-.76,1.48-1a2.63,2.63,0,0,1,1.24-.31,11.53,11.53,0,0,1,1.64.22,2.19,2.19,0,0,1,1.17,1.51,1.27,1.27,0,0,0,.75,1c.63-.27.47-1,.91-1.45a3.13,3.13,0,0,1,1.87-.57,2.36,2.36,0,0,1,1.58,1.29,2.3,2.3,0,0,1,.05.55c-.17,1-.63,2-.78,3a12.84,12.84,0,0,0,0,4.31,7,7,0,0,0,2.15,2.53l2.06.61A14.16,14.16,0,0,0,172.46,85C173.14,84.6,174,84.88,174.46,84.26Zm-26.27,1.13c.14.09.28.25.42.25a4.28,4.28,0,0,0,1.27-.15,6.09,6.09,0,0,0,1.87-.85,13.46,13.46,0,0,0,2.94-2.39c.54-1.32,1-2.88,1.76-4.35a.73.73,0,0,0,0-.5c0-.13-.22-.22-.39-.38L155,77.6l-1,.53a13,13,0,0,1-1,1.06,27.57,27.57,0,0,0-4.58,5.24A1.17,1.17,0,0,0,148.19,85.39Z"/><path class="cls-10" d="M45.44,146a3.66,3.66,0,0,0-1,.1c-1,.42-2.07.9-3.23,1.4-.3.06-.73.13-1.14.25-2.07.62-3.73-.24-5.28-1.46a7.2,7.2,0,0,1-1-1.16,2,2,0,0,1-.41-1.21,8.22,8.22,0,0,1,.88-4,1.24,1.24,0,0,1,.81-.6,2.59,2.59,0,0,1,1.54.08,1.12,1.12,0,0,1,.72.7c.11.33.2.66.3,1L37,143.48a1.57,1.57,0,0,0,1.51,1,3.56,3.56,0,0,0,1.52-.3c1.78-.71,3.48-1.59,5.18-2.44a6.14,6.14,0,0,0,1.45-1.09,35.08,35.08,0,0,1,3.47-2.73l1.59-1.19a4.18,4.18,0,0,1,1.89-.17,4.29,4.29,0,0,0,2.25-.54,25.58,25.58,0,0,1,4.31-1.82,11,11,0,0,1,7.84.15c1.26,1.19,1.26,1.19,2.17,3.6a11,11,0,0,0-.3,3,1.08,1.08,0,0,0,1.2.4c.85-.17,1.69-.39,2.52-.63,2.42-.68,4.85-1.37,7.26-2.08a10.33,10.33,0,0,0,4.18-2.06,9.35,9.35,0,0,1,3.35-1.91c.55-.46,1.05-.94,1.62-1.33a2.23,2.23,0,0,1,2.46-.19c.38.21.73.44,1,.62a12.72,12.72,0,0,1,.6,6.12,1,1,0,0,0,.81.74,3.22,3.22,0,0,0,.78,0,12.9,12.9,0,0,0,1.3-.12,84.05,84.05,0,0,0,8.68-1.71c1.68-.45,3.31-1,5-1.55.58-.18,1.17-.29,2-.48a8.14,8.14,0,0,1,2.91-1.73,2,2,0,0,0,.69-.35,28.7,28.7,0,0,1,4.55-2.53,18.79,18.79,0,0,1,3.71-1.26l1.81.49.52.79a3.63,3.63,0,0,1,0,.6,7.85,7.85,0,0,1-.8,2.2c-.36.69-.66,1.42-1,2.09a16.62,16.62,0,0,1-1,1.49c-.61.84-1.26,1.66-1.84,2.53a3.91,3.91,0,0,0-.78,1.9c.16.08.32.24.46.22.42-.07.83-.22,1.25-.31a82.92,82.92,0,0,0,9.69-3,31.19,31.19,0,0,0,4.48-2.09c1.14-.62,2.28-1.25,3.39-1.92a14.87,14.87,0,0,1,2.88-1.19,2.49,2.49,0,0,1,2,.26,1.7,1.7,0,0,1,.9,2,21.09,21.09,0,0,1-2.28,5.8,8.14,8.14,0,0,0-.66,1.42,4.34,4.34,0,0,0-.17.73,1.19,1.19,0,0,0,1.23.27c1.77-.43,3.55-.85,5.31-1.31,1.43-.38,2.83-.85,4.26-1.22a24.85,24.85,0,0,0,4.2-1.57c.64-.66.71-1.74,1.45-2.39l1.39-1.24a5.17,5.17,0,0,1,2.38-.39,11.08,11.08,0,0,1,1,.59,1.42,1.42,0,0,1,.56,1.82c-.1.33-.23.65-.37,1l.47,1.67c-.13.81-.26,1.58-.36,2.35a.79.79,0,0,0,.85.76c.67-.19,1.33-.4,2-.63,2.77-1,5.47-2.22,8.26-3.19,1.47-.51,2.89-1.19,4.45-1.84a8.67,8.67,0,0,0,1.92-2.28c.49-.81,1.15-1.51,1.69-2.3s1-1.63,1.52-2.43c.24-.36.54-.68.8-1a3,3,0,0,0,.6-.84c.35-1.22,1.31-2,2-3.05a11.52,11.52,0,0,0,1-1.52,3.42,3.42,0,0,1,1.65-1.82,2.66,2.66,0,0,1,1.55.52,2,2,0,0,1,.27.43,2.85,2.85,0,0,1-.46,2.7c-1,1.39-1.89,2.91-2.87,4.34a41,41,0,0,0-2,3.61.53.53,0,0,0,.42.6,13.75,13.75,0,0,0,1.56.1,10.23,10.23,0,0,1,4.26,1.07l1.41.67a9.7,9.7,0,0,1,2.17,3.22,7.21,7.21,0,0,0,1.07.11,28.93,28.93,0,0,0,5.41-.77c2-.48,4-1,6-1.54a6.07,6.07,0,0,0,1.78-1.55,8.31,8.31,0,0,1,3.16-2.24,3.44,3.44,0,0,1,3.48.21c.22.14.42.31.59.43a1.29,1.29,0,0,1-.07,1.72,7.09,7.09,0,0,1-1.74,1.55c-1.17.75-2.3,1.56-3.45,2.35l-.37.92c.17.4.35.69.76.77a12,12,0,0,0,4.63-1.51,26.08,26.08,0,0,1,2.64-1.11c2.53-.94,5-1.89,7.49-3,.79-.37,1.55-.79,2.34-1.16a4.34,4.34,0,0,0,2.29-2,.74.74,0,0,1,.14-.22c1.39-1.32,2.37-3,3.7-4.36s2.65-2.76,4-4.11a27.52,27.52,0,0,0,2.14-1.89,16.9,16.9,0,0,1,3.44-2.76,2.85,2.85,0,0,1,3.62,0l.2.16a1.83,1.83,0,0,1,.47,1.56,6.26,6.26,0,0,1-.5.76,49.43,49.43,0,0,0-3.57,4.48,4.69,4.69,0,0,1-.51.59c-.84.88-1.66,1.79-2.53,2.64s-1.78,1.65-2.7,2.45a19.51,19.51,0,0,0-1.62,1.3,6.79,6.79,0,0,1-1.28,1.27c-.59.37-1.14.79-1.7,1.2a5.26,5.26,0,0,0-1.67,2c-.31.62-.56,1.27-.82,1.86a4,4,0,0,0,.54,3.05,3.21,3.21,0,0,0,2.14.78,10.65,10.65,0,0,0,5.06-1,30.9,30.9,0,0,0,3-1.55,20.6,20.6,0,0,1,2.71-1.56c.88-.39,1.7-.85,2.57-1.26a10,10,0,0,0,3-2.08,13.26,13.26,0,0,1,3.62-2.48,6.22,6.22,0,0,1,2.23.69,2,2,0,0,1,.62,1.4,2.39,2.39,0,0,1-.24.45,7.17,7.17,0,0,1-1.68,1.21,13.23,13.23,0,0,0-3.51,3.08,2.35,2.35,0,0,0-.2.54,2,2,0,0,0,.64.27,5.16,5.16,0,0,0,2.29-.39,28.58,28.58,0,0,0,3.82-1.63,7.88,7.88,0,0,1,1.95-.73,78.07,78.07,0,0,0,7.23-3,15.53,15.53,0,0,0,2-1.21c.64-1.06,1.28-2.09,1.88-3.14a.72.72,0,0,0-.25-1,2.41,2.41,0,0,0-1.66,0,34.16,34.16,0,0,1-3.87.5c-.52.05-1,.18-1.52.27a2.13,2.13,0,0,1-1.53-.93l-.88-1.2c.08-.95.32-1.33.94-1.41a27,27,0,0,1,4.4-.51,14.61,14.61,0,0,0,2.59-.22,8.54,8.54,0,0,0,2.3-.21,5.91,5.91,0,0,1,1.55-.14c.51-.06,1-.16,1.51-.24.81-.86,1.59-1.66,2.35-2.5,1.29-1.42,2.85-2.53,4.26-3.83a3.41,3.41,0,0,1,1.9-.78,3,3,0,0,1,1.71.75,3.68,3.68,0,0,1,.24.66,2.7,2.7,0,0,1,0,.78,1.71,1.71,0,0,1-.78,1.3c-.44.28-.9.51-1.36.77a7,7,0,0,0-2.34,2,.48.48,0,0,0,.11.7.47.47,0,0,0,.19.09c1.91.12,3.78.51,5.69.57a17.51,17.51,0,0,1,3.84.66,15.57,15.57,0,0,0,2,.36c1.46.17,2.9.48,4.34.74,1.72.31,3.32,1,5,1.27,1.6,1.2,1.6,1.2,1.92,2a2.2,2.2,0,0,1-1.29,1.5,1.73,1.73,0,0,1-.52,0q-1.26-.33-2.5-.71l-3.48-1.07a3.11,3.11,0,0,0-.5-.12l-2.53-.31c-.18.33.06.5.19.67a2.1,2.1,0,0,1,.1,2.66c-.57.87-1.1,1.77-1.73,2.59a17,17,0,0,0-1.93,3.2l-.43,2.77c.22.17.39.39.61.44a3.22,3.22,0,0,0,2-.18c.72-.3,1.42-.65,2.14-1a10.84,10.84,0,0,1,1.45-.56,3.1,3.1,0,0,0,1.17-.53,16,16,0,0,1,3.41-1.87,19.84,19.84,0,0,0,5.59-3.8l1.61-.15c1-.61,1.81-1.51,2.86-2.13s2-1.35,3-2l2.14-.65a3.36,3.36,0,0,1,2.05.66,2.27,2.27,0,0,1,.68,1.43,6.88,6.88,0,0,1-.87,2.26,28.36,28.36,0,0,1-6.89,5.7,11.12,11.12,0,0,0-1.25.94c-.1.08-.1.27-.15.42a4.16,4.16,0,0,0,2.06.1c.69,0,1.39-.11,2.22-.18a8.68,8.68,0,0,1,3.33-1c2.14-.73,4.41-1,6.52-1.81a8,8,0,0,1,1.25-.36,26.65,26.65,0,0,0,7.05-2.57c1.83-1,3.73-1.85,5.59-2.78a10.67,10.67,0,0,0,2.65-1.64,5.52,5.52,0,0,1,1.58-.89c.55-.24,1.15-.39,1.77-.6a2.55,2.55,0,0,1,2.43,2.21,6,6,0,0,1-1.19,2.35,17.12,17.12,0,0,1-1.27,1.65c-.73.75-1.29,1.63-2,2.42a19.56,19.56,0,0,1-1.69,1.62,9.29,9.29,0,0,0-1.73,1.94,2.29,2.29,0,0,1-.32.41,37.61,37.61,0,0,0-3.73,4.69,11.26,11.26,0,0,1-2.7,2.41.93.93,0,0,1-1-.16,5,5,0,0,1-1.64-2.31c-.41-1.23-.77-2.48-1.15-3.74.07-.24.17-.48.22-.73.28-1.28-.33-1.92-1.5-1.57-.67.2-1.31.45-2,.68a14.86,14.86,0,0,1-4.37.92,10.54,10.54,0,0,1-3.6,1.31,49.11,49.11,0,0,1-6.11,1.25,5.85,5.85,0,0,1-4.05-.81,11.76,11.76,0,0,1-2.33-2.8,1.8,1.8,0,0,0-1.4.42c-.8.55-1.82.52-2.63,1.1a8.23,8.23,0,0,1-2.3,1.2c-.72.22-1.09.85-1.73,1.12-.8.34-1.59.7-2.4,1.07a8.79,8.79,0,0,1-2.75.18,4.86,4.86,0,0,1-3.2-2.2,2.53,2.53,0,0,0-.36-.38,3.7,3.7,0,0,1-1-2.62,10.21,10.21,0,0,1,.39-2.83c0-.13-.1-.31-.16-.46a6,6,0,0,0-2.32,1.56,7.81,7.81,0,0,1-1.21,1c-.75.59-1.51,1.17-2.27,1.75-.49.37-1,.73-1.48,1.06-1.23.82-2.54,1.48-3.78,2.28a10.2,10.2,0,0,1-4.4,1.41l-1.51-.41a6.33,6.33,0,0,1-2.86-3.83c0-1.1.5-2.12,0-3.21a4.87,4.87,0,0,0-1,.25c-2.8,1.4-5.78,2.39-8.64,3.65a36.92,36.92,0,0,1-4.33,1.31l-2.17-.51a9.66,9.66,0,0,0-3-2.18,4.53,4.53,0,0,0-2.06,1c-.89.56-1.83,1-2.74,1.5a9.05,9.05,0,0,1-1.94.75c-1.67.47-3.35.88-5.08,1.32a10.06,10.06,0,0,1-4.57-1.61c-.12-.11-.62-.59-1.14-1.05a5,5,0,0,1-1.69-3.15c-.05-.34-.12-.68-.19-1-.23-.14-.44-.37-.66-.39a12.32,12.32,0,0,0-1.5.07c-.73.42-1.39.84-2.09,1.18a15.06,15.06,0,0,1-2.18.87,24.32,24.32,0,0,0-3.83,1.63c-1.17.59-2.39,1-3.6,1.5a5.8,5.8,0,0,1-2.57.3,3.45,3.45,0,0,1-2.13-.87,7.55,7.55,0,0,1-2.16-2.58,1.19,1.19,0,0,0-1.13-.72,24.51,24.51,0,0,1-6.23,1.29,22.24,22.24,0,0,0-2.83.4c-.94.18-1.86.43-2.75.64a7.1,7.1,0,0,1-2.71,2.43,12.33,12.33,0,0,1-4.35,1.64,5.52,5.52,0,0,1-5.18-1.82c-.35-.38-.68-.79-1-1.15l-.49-1.22c-.72,0-.75.66-1,1.05s-.55.9-1.19,1c-.27-.15-.56-.32-.87-.48a3.37,3.37,0,0,1-1.83-2.1,3.36,3.36,0,0,0-.34-.63c-.23,0-.44-.11-.55,0a30.56,30.56,0,0,1-5.6,2.73,19.63,19.63,0,0,0-3.11,1.31,6.27,6.27,0,0,1-1.45.56c-.75.21-1.52.37-2.23.54-.21-.06-.39-.08-.55-.14a5.18,5.18,0,0,1-3.75-4.26c0-.16-.17-.29-.26-.44a2.18,2.18,0,0,0-.5-.09,1.45,1.45,0,0,0-.5.14,60.56,60.56,0,0,1-9.71,2.92,21.86,21.86,0,0,1-3.82.83,5.25,5.25,0,0,0-1.22.43,11.66,11.66,0,0,1-6.68.22,6.48,6.48,0,0,1-3.69-2.28c-.37-.48-.79-.93-1.13-1.43s-.51-.89-.73-1.28c-.26-.06-.44-.17-.59-.13a5.58,5.58,0,0,0-1,.32,6.76,6.76,0,0,1-3.23.68l-3,1.35-5.58,1c-1.09.18-1.73,1.08-2.37,1.61a2.24,2.24,0,0,1-2.11-.63,16.56,16.56,0,0,1-2.63-3.22,14.41,14.41,0,0,1-1-3.21c0-.22-.28-.4-.47-.66a22.07,22.07,0,0,1-2.27.45,6.1,6.1,0,0,0-2.23.68,1.43,1.43,0,0,1-.49.16c-2.34.23-4.54,1.19-6.91,1.29a14.63,14.63,0,0,1-5.12.49,1.69,1.69,0,0,0-1.07.75,20.81,20.81,0,0,1-2.62,2.9,9.82,9.82,0,0,1-4.7,2.59L82.64,150a5.88,5.88,0,0,1-3-3.69c.09-.64.15-1.24.25-1.84s.24-1.17.37-1.81a2.25,2.25,0,0,0-.76-.19,7.32,7.32,0,0,0-1.25.34,48.52,48.52,0,0,1-7.87,1.78c-1,.16-2,.39-3.11.59a17.86,17.86,0,0,1-3.48,3.09,6.7,6.7,0,0,1-2.71,1.52,11.42,11.42,0,0,1-4,.68c-.36-.16-.84-.36-1.31-.58a4.83,4.83,0,0,1-1.9-1.74,9.23,9.23,0,0,1-.63-1.14,4,4,0,0,1,0-4l.61-.21a2.2,2.2,0,0,1,1,1.54,10.76,10.76,0,0,0,.51,1.74,5.89,5.89,0,0,0,.55,1,2.4,2.4,0,0,0,1.73.69l2.61-1c.68-.58,1.41-1.2,2.11-1.84.08-.07,0-.31,0-.46-1.32-.83-2.63-1.68-4-2.48-.67-.4-1.38-.73-2.09-1.07a8,8,0,0,0-.9-.32,5.59,5.59,0,0,0-3.07,2.4c-.9,1.69-2,3.23-3.07,4.83a29.75,29.75,0,0,0-1.73,2.9c-1.7,3.43-3.49,6.81-5.29,10.18a22.07,22.07,0,0,1-1.94,3.08,27.32,27.32,0,0,0-2.53,4.25c-.6,1.16-1.15,2.33-1.67,3.39a1.47,1.47,0,0,1-1.53.46.92.92,0,0,1-.24-.11l-1.43-1.29a1.38,1.38,0,0,1-.22-1.37q.69-1.54,1.47-3.05c.67-1.31,1.42-2.58,2.19-3.83a10.37,10.37,0,0,0,.52-.9A28.45,28.45,0,0,1,40,156.41a5.1,5.1,0,0,0,.63-1.13c.3-.72.54-1.46.83-2.18a9.71,9.71,0,0,1,1.57-2.67,26.39,26.39,0,0,0,2.14-3.26,1.79,1.79,0,0,0,.17-1.27.86.86,0,0,0,.22-.06s0-.09.06-.14Q45.45,145.66,45.44,146Zm227.89-.29a1.88,1.88,0,0,0,.34,0,11.34,11.34,0,0,0,3.56-1.54c1-.66,2.16-1.14,3.15-1.83,2.7-1.88,5.42-3.72,8.2-5.48a18.24,18.24,0,0,0,2.75-1.94A24.64,24.64,0,0,1,294,133a.62.62,0,0,0-.53-.6,32.41,32.41,0,0,0-5.12-.8,7.07,7.07,0,0,1-1-.07,25.66,25.66,0,0,0-7,0,8.82,8.82,0,0,0-.79.71,7.48,7.48,0,0,0-.59.85c-1.72,2.61-3.22,5.35-4.77,8.06a10.27,10.27,0,0,0-1.08,2.92,3.16,3.16,0,0,0-.07,1C273,145.31,273.23,145.51,273.33,145.68ZM59,138.59a2.51,2.51,0,0,0,1.27,1.22c1,.57,1.95,1.09,3,1.65a4.87,4.87,0,0,0,2.15.27,1.45,1.45,0,0,0,.26-.2,6.2,6.2,0,0,0,1.11-3.63,1.41,1.41,0,0,0-1-1.38,2.5,2.5,0,0,0-1.76-.19,23,23,0,0,0-4.78,1.82C59.1,138.23,59.06,138.44,59,138.59Zm124.5,5.59a.45.45,0,0,0,.73.15A5,5,0,0,1,187,143c1.56-.1,3.06-.55,4.63-.53a14.16,14.16,0,0,0,1.8-.19c.26,0,.56-.26.55-.46a1.33,1.33,0,0,0-.2-.71,2.35,2.35,0,0,0-.78-.65c-.54-.26-1.12-.45-1.42-.56-.89,0-1.5,0-2.1,0a4.11,4.11,0,0,0-1.25.29,15.7,15.7,0,0,0-4.35,2.76ZM84.1,146.8a8.24,8.24,0,0,0,3-1.76,8.45,8.45,0,0,0,2-2.92,11.52,11.52,0,0,0-1.29-2.32c0-.06-.14-.07-.22-.1a1.59,1.59,0,0,0-.48.15c-1.46,1.06-2.06,2.75-3,4.19a3.09,3.09,0,0,0-.63,2Zm250.16-1.11c1.78-1.85,3.08-4,4.88-5.67,0-.41-.25-.58-.51-.47-1.35.56-2.65,1.25-4,1.76-.89.33-1.77.71-2.62,1.11-.19.09-.27.38-.43.62.42.49.82.94,1.19,1.4S333.31,145.53,334.26,145.69Zm-214-8.83c-.82-.13-1.16.36-1.63.51s-1,.27-1.46.4c-.68.43-1.35.83-2,1.26a1.79,1.79,0,0,0-.81,1l.26,2c.3.3.6.61.93.89a1.82,1.82,0,0,0,.51.2,2.43,2.43,0,0,0,.58-.43A31.34,31.34,0,0,0,120.26,136.86ZM136,142.59a2.39,2.39,0,0,0,.55,1.88,2.63,2.63,0,0,0,2.34,0,21,21,0,0,0,1.93-4.23l-.29-.28c-.85.26-1.42.87-2.23.95a1.56,1.56,0,0,0-.66.37C137.12,141.74,136.59,142.16,136,142.59Z"/><path class="cls-10" d="M226.32,128.16l-1.47-.43c-.38-.58-.78-1.15-1.12-1.75a1.33,1.33,0,0,1-.1-.75.91.91,0,0,1,.59-.79,2.68,2.68,0,0,1,2.27.1,1.92,1.92,0,0,1-.17,3.63Z"/><path class="cls-10" d="M167.4,129.94a2,2,0,0,1-1.76-.54,2.86,2.86,0,0,1-1.07-2,1.53,1.53,0,0,1,0-.51,2.85,2.85,0,0,1,.29-.5l1.46-.33,1.7.38c.93.9.56,1.8.18,2.79Z"/><path class="cls-10" d="M265.57,125.46a6.57,6.57,0,0,1-.71.49,1.8,1.8,0,0,1-2.58-.89c-.22-.47-.38-1-.52-1.31a1,1,0,0,1,.85-1,3.29,3.29,0,0,1,2.79.63A2.58,2.58,0,0,1,265.57,125.46Z"/><path class="cls-10" d="M308.41,126.7c-.88-.57-.88-.57-2.22-2.37.2-.79.49-1.08,1.1-1.14a2.67,2.67,0,0,1,2.12.77,2.06,2.06,0,0,1,0,2.15C309.3,126.38,309.09,126.49,308.41,126.7Z"/></g></g></g></g></svg>