<?xml version="1.0" encoding="utf-8"?>
<!-- Generator: Adobe Illustrator 20.1.0, SVG Export Plug-In . SVG Version: 6.00 Build 0)  -->
<svg version="1.1" id="Layer_1" xmlns="http://www.w3.org/2000/svg" xmlns:xlink="http://www.w3.org/1999/xlink" x="0px" y="0px"
	 viewBox="0 0 393.3 172.1" style="enable-background:new 0 0 393.3 172.1;" xml:space="preserve">
<style type="text/css">
	.st0{fill:#6E5C7F;}
</style>
<title>offers-text</title>
<g>
	<path class="st0" d="M47.2,28.6c1.2,0.8,2.8,0.8,4,0.1c2-1,4-2.1,5.8-3.4c1.7-1.2,3.5-2.3,5.2-3.5c1.6-1.1,3.5-1.6,5.4-1.6
		c0.7,0,1.4-0.1,2.1-0.1c1.2,0,2.4-0.4,3.6-0.4c0.4,0,0.7,0.3,0.8,0.6c0.2,0.5,0.2,1,0,1.5c-0.8,2.1-1.7,4.2-2.4,6.3
		c-0.4,1.2-0.8,2.3-1.3,3.4c-0.9,2-1.8,4.2-2.4,6.3c-0.3,1.2,0.3,2.5,1.5,3c0.8,0.3,1.8-0.1,2.1-0.9c1.2-3.8,2.4-7.6,4-11.3
		c0.8-2.8,2.1-5.5,3-8.3c0.2-0.7,0.7-1.2,1.4-1.4c1.4-0.3,2.7-0.6,4.1-0.9c1-0.2,2.1-0.2,3.1,0.1c0.3,0.1,0.5,0.4,0.8,0.7
		c0.1,1.6,0.4,3.1,0.8,4.6c0.9,3.4,2.7,6,6.2,7.1c0.3,0.1,0.6,0.3,1,0.4c0.6,0.2,1.3,0.3,2,0.2c0.9-0.1,1.7-0.3,2.6-0.4
		c2.4-0.4,4.7-1.4,6.6-2.9c1.2-1,2.3-2.1,3.6-3c0.1-0.1,0.3-0.1,0.5-0.1c0.1,0.1,0.2,0.3,0.2,0.5c0,0.9,0,1.7,0,2.6
		c-0.1,1.4,0.7,2.8,1.9,3.5c0.5,0.3,1,0.4,1.5,0.4c0.4,0,0.7-0.1,1-0.4c1.4-1.5,2.7-3.2,3.8-5c0.9-1.5,1.8-3,2.8-4.4
		c0.5-0.7,1-1.4,1.6-2.1c0.2-0.2,0.5-0.4,0.8-0.6c0.4-0.2,0.7-0.1,0.8,0.3c0.4,1.5,0.4,3.1,0.7,4.6c0.2,1.1,0.7,2,1.5,2.8
		c1,1,2.3,1.6,3.6,1.9c1.9,0.4,3.8,0.2,5.6-0.5c0.7-0.2,1.3-0.5,1.9-0.8c1.3-0.6,2.5-1.2,3.7-2c0.6-0.4,1.2-0.7,1.9-0.8
		c0.6,0.4,1.1,0.9,1.5,1.4c0.9,1.1,1.9,2,3,2.9c0.7,0.5,1.5,0.9,2.4,1c0.3,0.1,0.7,0.1,1,0.1c0.9,0.1,1.7-0.1,2.5-0.5
		c0.6-0.4,1.2-0.7,1.8-1.1c0.6-0.4,0.9-0.6,1.3-0.9c0.6-0.4,1.4-0.4,2,0c0.7,0.5,1.3,1.1,2.1,1.6c0.4,0.3,0.9,0.5,1.4,0.6
		c1.5,0.4,3.1,0.4,4.6-0.1c2-0.6,3.9-1.4,5.8-2.4c0.9-0.5,1.9-0.9,2.8-1.4c0.6-0.3,1.4-0.2,1.9,0.3c0.3,0.4,0.7,0.8,1.1,1.1
		c0.6,0.4,1.1,0.8,1.8,1.1c0.6,0.3,1.3,0.4,2,0.2c0.7-0.2,1.4-0.4,2-0.6c1.6-0.6,3.2-1.4,4.7-2.3c1.5-0.9,3.1-1.6,4.7-2.3
		c0.3-0.1,0.6,0.2,0.6,0.6c0.2,2.3-0.8,4.4-1.8,6.4c-0.2,0.3-0.4,0.6-0.7,0.8c-0.7,0.8-1.3,1.6-2,2.4c-1.3,1.6-2.4,3.4-3.3,5.3
		c-0.8,1.6-1.1,3.3-0.8,5.1c0.1,0.4,0.2,0.7,0.3,1c0.7,1.4,2,2.5,3.5,3c0.3,0.1,0.7,0.1,1-0.1c0.8-0.4,1.4-1,1.8-1.8
		c0.9-1.9,1.6-3.9,1.9-5.9c0.1-0.7,0.3-1.4,0.6-2c0.3-0.8,0.5-1.7,0.6-2.5c0.1-0.7,0.2-1.4,0.4-2c0.1-0.5,0.4-1,0.8-1.3
		c0.3-0.4,0.7-0.7,1.1-1.1c1.1-0.8,2.3-1.5,3.5-2.2c1.4-0.8,2.9-1.2,4.5-1.4c0.5,0,1-0.1,1.5-0.2c0.3-0.1,0.7-0.2,0.9-0.4
		c0.2-0.2,0.4-0.5,0.6-0.8c0.1-0.3-0.5-1.1-0.8-1.2c-0.2,0-0.3-0.1-0.5-0.2c-1.4-0.3-2.8-0.3-4.1-0.2c-0.5,0.1-1,0.2-1.5,0.4
		c-0.5,0.2-1,0.4-1.4,0.6c-0.3,0.1-0.7,0.2-1,0.3c-0.3,0.1-0.9-0.4-0.9-1c0-0.9,0.2-1.7,0.5-2.5c0.6-1.3,0.9-2.6,0.9-4
		c0-0.9-0.5-1.7-1.3-2.1c-0.5-0.2-1-0.2-1.5,0c-1.2,0.7-2.3,1.6-3.3,2.6c-0.8,0.6-1.6,1.2-2.4,1.8c-2.8,1.7-5.8,3.2-8.9,4.4
		c-0.3,0.1-0.7,0.2-1,0.3c-0.2,0-0.3,0-0.5-0.1c-0.6-0.3-1-1-0.9-1.7c0.1-0.3,0.2-0.6,0.4-0.9c0.7-1,1.5-1.9,2.2-2.9l0.7-0.8
		c0.3-0.6,0.2-1.4-0.4-1.8c-1.1-0.7-2.4-0.6-3.4,0.3c-0.4,0.3-0.8,0.7-1.1,1.1c-0.7,0.8-1.2,1.7-1.9,2.5c-0.4,0.6-1,1-1.6,1.4
		c-1.5,0.8-3,1.7-4.6,2.5c-1.6,0.8-3.2,1.4-4.8,1.9c-0.8,0.2-1.7,0.4-2.6,0.5c-0.1,0-0.3-0.1-0.5-0.2c-0.6-0.3-1.1-0.9-1.1-1.6
		c0-0.5,0.1-1,0.5-1.5c0.2-0.3,0.4-0.5,0.7-0.8c1.1-1.1,2.3-2.1,3.5-3.1c0.8-0.7,1.3-1.6,1.4-2.7c0.1-0.9,0.2-1.7,0.1-2.6
		c0-0.9-0.5-1.7-1.3-2.1c-0.8-0.4-1.7-0.6-2.5-0.4c-0.7,0.1-1.3,0.5-1.8,1c-0.4,0.4-0.7,0.8-1,1.2c-1.5,2.4-3,4.7-3.6,7.5
		c0,0.2-0.1,0.3-0.2,0.5c-0.3,0.6-0.7,1.2-1.3,1.6c-1.4,1-2.9,1.9-4.5,2.7c-0.6,0.3-1.4,0.3-2-0.1c-1.2-0.7-2.1-1.8-2.8-3
		c-0.2-0.3-0.3-0.7-0.4-1c-0.1-0.5-0.1-1,0.1-1.5c0.1-0.3,0.3-0.6,0.6-0.9c3-3.4,5.8-7,8.6-10.5c0.2-0.3,0.4-0.6,0.6-0.9
		c0.5-0.9,0.5-2,0.1-3c-0.4-1-1.1-1.8-2-2.3C154.7,3.3,153.9,3,153,3c-1.4-0.2-2.8,0.4-3.6,1.5c-0.9,1.1-1.7,2.2-2.2,3.5
		c-0.4,0.9-0.9,1.9-1.5,2.8c-0.2,0.3-0.3,0.6-0.4,1c-0.4,2.2-1.5,4.3-1.5,6.6c-0.1,1.6-0.9,3-2.3,3.9c-1.4,1-2.9,1.9-4.5,2.7
		c-0.8,0.4-1.6,0.7-2.5,0.9c-0.8,0.2-1.7,0.3-2.6,0.1c-1.2-0.2-2.2-1.2-2.4-2.4c-0.1-0.5-0.1-1-0.1-1.6c0-1.2,0.2-2.4,0.2-3.7
		c0-0.9-0.3-1.7-0.8-2.5c-0.2-0.3-0.5-0.5-0.8-0.7c-0.5-0.2-1-0.3-1.5-0.4c-1.2-0.2-2.5,0.2-3.4,1c-1.1,0.9-2,1.9-2.8,3.1
		c-1,1.6-2.1,3.2-3.5,4.5c-0.3,0.3-0.6,0.5-0.7,0.3c-0.1-0.3-0.1-0.7,0-1c0.7-2.2,1.5-4.3,2.4-6.3c1.6-3.7,3.8-7.1,6.4-10.1
		c0.5-0.5,0.9-1.1,1.2-1.7c0.2-0.3,0.2-0.7,0-1c-0.3-0.8-1.2-1.3-2.1-1.1c-0.2,0-0.3,0.1-0.5,0.1c-1.1,0.8-2.2,1.8-3,2.9
		c-1,1.4-2.3,2.6-2.8,4.3c-0.1,0.3-0.3,0.6-0.5,0.9c-1.2,1.7-2.3,3.5-3.7,5c-2.2,2.5-4.1,5.2-6.6,7.4c-1.3,1.4-2.8,2.6-4.6,3.4
		c-0.8,0.4-1.6,0.7-2.4,1c-0.5,0.2-1,0.2-1.5,0c-0.3-0.2-0.5-0.5-0.5-0.8c0-0.4,0.1-0.7,0.3-1c1.1-2.4,2.6-4.5,3.8-6.8
		c0.5-0.9,0.7-2,0.6-3c0-0.9-0.8-1.6-1.7-1.7c-0.9-0.1-1.7-0.1-2.6,0c-2.6,0.3-5.2,0.5-7.8,0.5c-0.3,0-0.7,0-1,0.1
		c-2.2,0.5-4.5,0.4-6.7,0.9c-0.5,0.1-1,0.1-1.6,0c-0.7,0-1.3-0.6-1.3-1.3c0-0.3,0-0.7,0.1-1c0.5-1.1,0.8-2.3,1-3.5
		c0.2-1.4,0.6-2.7,1-4c0.4-1.3,0.6-2.7,0.5-4.1c0-0.4-0.1-0.7-0.4-1c-0.8-0.7-1.9-0.9-2.9-0.5C79.2,0.5,79,0.7,78.8,1
		c-2.6,3.3-5.3,6.5-8.2,9.5c-0.5,0.5-1,1-1.5,1.5c-1.6,1.3-3.2,2.7-4.8,4c-0.7,0.6-1.4,1-2.2,1.3c-0.7,0.2-1.2,0.7-1.5,1.3
		c-0.3,0.4-0.6,0.8-1.1,1.1c-2.4,1.4-4.5,3.2-7,4.5c-1.4,1.1-3,1.8-4.7,2.2c-0.3,0.1-0.6,0.3-0.9,0.5c-0.4,0.4-0.4,1-0.1,1.4
		C46.9,28.4,47,28.5,47.2,28.6z M150.5,10.4c0.5-1.3,1.2-2.5,2.2-3.5c0.4-0.4,1-0.5,1.4-0.1c0.1,0.1,0.3,0.3,0.2,0.4
		c-0.6,1.6-1.7,3-3.1,4c-0.1,0.1-0.3,0.1-0.5,0.1c-0.1,0-0.2,0-0.4,0C150.3,11,150.4,10.7,150.5,10.4z M149.5,12
		c0.1-0.1,0.2-0.3,0.3-0.4c0.1-0.1,0.2-0.1,0.3-0.2c0,0.2-0.1,0.5-0.1,0.8c0,0.2-0.1,0.4-0.2,0.4C149.5,12.6,149.4,12.4,149.5,12z
		 M92.1,18.5c0-0.5,0.4-1,0.9-1.2c0.5-0.2,1-0.3,1.5-0.4c0.6,0,1.3,0,1.9,0c0.5,0.1,0.8,0.2,1.2,0.3c0.3,0.1,0.6,0.4,0.5,0.8
		c0,0.2,0,0.3-0.1,0.5v0c-1,2-2.1,4-3.3,5.8c-0.2,0.3-0.6,0.4-0.9,0.4c-0.3-0.1-0.6-0.3-0.8-0.6C92.1,22.4,91.9,20.4,92.1,18.5z
		 M69.9,16.2c0-0.2,0.1-0.3,0.2-0.4c0.8-0.7,1.5-1.4,2.3-2.1c1.1-0.9,2-1.9,2.8-3c0.3-0.4,0.7-0.7,1.1-1c0.2-0.3,0.6-0.3,0.9-0.2
		c0.3,0.2,0.3,0.5,0.1,0.9c-0.2,0.4-0.3,0.9-0.4,1.4c-0.2,1.2-0.6,2.4-1.2,3.5c-0.3,0.6-0.9,1.1-1.5,1.2c-1.3,0.4-2.7,0.6-4,0.4
		c-0.2,0-0.3-0.1-0.4-0.3C69.8,16.4,69.8,16.3,69.9,16.2z"/>
	<path class="st0" d="M264,31.7c0.5,0.2,1,0.2,1.5,0.1c1.5-0.4,3-1.1,4.2-2c1-0.7,1.9-1.5,2.9-2.2c0.4-0.3,0.9-0.6,1.3-0.8
		c0.7-0.5,1.7-0.4,2.4,0.2c0.2,0.2,0.5,0.5,0.7,0.8c1.3,1.4,3.1,2.3,5,2.4c1,0.1,2.1-0.1,3-0.5c2.4-1,4.7-2.1,7-3.4
		c0.5-0.3,1-0.2,1.5,0.1c1.2,0.7,2.4,1.5,3.5,2.2c0.6,0.4,1.3,0.6,2,0.7c2.1,0.4,4.2,0.2,6.2-0.5c1.4-0.2,2.7-0.7,3.9-1.4
		c1.4-0.7,2.9-1.2,4.2-2c0.2-0.2,0.6,0,0.9,0.3c0.4,0.4,0.7,0.8,0.8,1.3c0.5,1.3,1.4,2.4,2.4,3.4c1.3,1.2,2.9,2,4.6,2.2
		c0.2,0,0.3,0,0.5,0c0.5,0,1-0.3,1.3-0.7c0.2-0.3,0.2-0.7-0.1-0.9c0,0,0,0,0,0c-0.7-0.5-1.4-1-2.2-1.3c-0.6-0.3-1.1-0.8-1.5-1.4
		c-0.4-0.6-0.7-1.2-1.1-1.8c-0.5-0.9-0.7-2-0.6-3c0-1,0.3-2.1,1-2.9c1.9-1.9,3.3-4.1,4.9-6.2c0.3-0.4,0.6-0.8,0.9-1.3
		c1.8-3,3.4-6.1,4.8-9.3c0-0.2,0.1-0.3,0.1-0.5c0-0.7-0.3-1.4-0.9-1.8c-0.5-0.2-0.9-0.4-1.4-0.6c-2.2,0.6-2.7,0.9-3.7,1.8
		c-0.2,0.2-0.5,0.5-0.8,0.7c-2.7,2.8-4.8,6-6.2,9.6c-0.8,2.1-1.7,4.2-2.4,6.3c-0.3,0.8-0.8,1.5-1.6,2c-0.4,0.3-0.8,0.6-1.3,0.9
		c-2.6,1.5-5.3,2.8-8.1,3.9c-0.9,0-1.9,0.1-3,0.1c-0.7,0-1.3-0.2-2-0.4c-0.7-0.2-1.2-0.6-1.6-1.2c-0.4-0.6-0.4-1.4-0.1-2
		c3.5-4.5,3.1-4.2,4.8-8c1-1.8,1.7-3.8,2-5.9c0.1-0.7,0.4-1.3,0.6-2c0.2-1.1,0-2.2-0.7-3c-0.2-0.3-0.5-0.5-0.8-0.6
		c-0.5-0.1-1-0.2-1.5-0.2c-0.9,0-1.7,0.3-2.4,0.9c-2.1,2.1-3.7,4.6-4.7,7.4c-0.5,1.3-1,2.6-1.4,3.9c-0.3,1.5-0.5,3.1-0.6,4.7
		c0,0.3-0.1,0.7-0.1,1c-0.1,1.2-0.9,2.3-2,2.8c-1.4,0.7-2.8,1.5-4.2,2.1c-0.8,0.4-1.6,0.7-2.4,0.9c-0.7,0.2-1.4,0.2-2.1,0
		c-0.9-0.2-1.5-0.9-1.7-1.7c-0.1-0.3-0.1-0.7-0.1-1c0-1,0.3-2.1,0.8-3c0.9-1.6,1.7-3.4,2.4-5.1c0.2-0.7,0-1.4-0.5-1.9
		c-0.7-0.6-1.7-0.6-2.4,0c-0.2,0.2-0.5,0.5-0.7,0.8c-0.4,0.5-0.8,1.1-1.3,1.7c-0.2,0.4-0.7,0.5-1.1,0.3c-0.1,0-0.2-0.1-0.2-0.2
		c-0.6-0.9-1.6-1.4-2.7-1.3c-0.5,0-1,0.1-1.5,0.3c-1.3,0.6-2.4,1.3-3.5,2.3c-1.3,1.2-2.5,2.4-3.8,3.5c-1.5,1.4-2.9,3-4,4.8
		c-0.8,1.4-0.6,3.1,0.5,4.3C262.5,30.9,263.2,31.4,264,31.7z M297.2,14.9c0-0.2,0-0.3,0.1-0.5c0.5-1.2,1-2.5,1.6-3.8
		c0.2-0.5,0.6-0.8,1.1-1c0,0,0.2,0.3,0.3,0.4c0,0.2,0,0.3,0,0.5c-0.3,1-0.8,1.8-1.1,2.8c-0.3,0.8-0.7,1.6-1.3,2.2
		c-0.1,0.1-0.3,0.3-0.4,0.2C297.2,15.6,297.1,15.2,297.2,14.9z M265.4,26.5c0.1-0.2,0.2-0.3,0.3-0.4c1.8-2.3,3.8-4.4,6-6.3
		c0.2-0.2,0.6-0.3,0.9-0.1c0.3,0.2,0.4,0.6,0.3,0.9c0,0.2,0,0.3,0,0.5c-0.3,1.4-1,2.6-2,3.5c-1.6,1-2.9,2.4-4.6,3.1
		c-0.3,0.2-0.7,0-0.8-0.3c0,0,0-0.1,0-0.1c-0.1-0.1-0.1-0.3-0.1-0.5C265.3,26.9,265.3,26.7,265.4,26.5z"/>
	<path class="st0" d="M225.6,16.4c0.3,0.4,0.7,0.7,1.2,0.9c0.7,0.2,1.3,0.3,2,0.4c1.4,0.2,2.8,0,4.2,0.2c0.5,0.2,0.8,0.7,0.9,1.2
		c0,0.3,0,0.7-0.1,1c-0.3,1-0.7,2-1,3c-0.3,1.2-0.6,2.3-1.1,3.5c-0.2,0.6-0.4,1.3-0.4,2c0,1.5,1.2,2.6,2.7,2.6
		c0.3,0,0.7-0.2,0.9-0.5c0.1-0.1,0.3-0.3,0.3-0.4c0.5-1.7,1-3.3,1.4-5c0.4-1.7,1.3-3.2,1.5-5c0.1-0.4,0.2-0.7,0.4-1
		c0.3-0.6,0.9-1.1,1.6-1.2c0.7-0.1,1.4-0.1,2.1-0.1c1.2,0,2.4,0.1,3.7,0.1c1.2,0,2.4-0.2,3.6-0.1c0.9,0.1,1.7-0.3,2.6,0
		c0.1,0,0.2,0.2,0.3,0.4c0.2,0.3,0.3,0.6,0.2,1c-0.3,1.6-1.1,3-1.3,4.5c-0.8,1.6-1,3.3-1.7,4.9c-0.1,0.3-0.3,0.7-0.4,1
		c-0.1,0.3-0.2,0.7-0.2,1c-0.2,1.1,0.3,2.1,1.2,2.6c0.5,0.3,0.9,0.6,1.4,0.3c0.5-0.2,0.9-0.6,1.1-1c0.1-0.2,0.2-0.3,0.2-0.5
		c0.3-1.9,0.8-3.7,1.5-5.5c1-3.2,2-6.3,2.9-9.5c0.2-0.7,0.4-1.3,0.6-2c0.3-1.9,0.7-3.8,1.4-5.6c0.2-0.5,0.3-1,0.3-1.5
		c0.1-1.4,0.2-2.8,0.3-4.2c0-0.4-0.1-0.7-0.3-1c-0.5-0.7-1.5-0.9-2.2-0.3c0,0,0,0,0,0C257.2,2.9,257,3,257,3.1
		c-0.3,2.1-0.9,4.1-1.4,6.1c-0.5,1.8-1.2,3.6-1.7,5.5c-0.3,0.4-0.7,0.7-1.2,0.8c-0.3,0-0.7,0.1-1,0.1c-1.4-0.1-2.8-0.2-4.2-0.2
		c-0.9,0-1.7-0.1-2.6-0.2c-0.9-0.1-1.7-0.1-2.6-0.2c-1-0.1-1.6-0.9-1.2-1.8c0.1-0.2,0.1-0.3,0.2-0.5c1.1-2.2,2-4.4,2.7-6.7
		c0.2-0.6,0.3-1.3,0.2-2c0-0.5-0.3-1-0.8-1.3c-1-0.5-2.2-0.2-2.7,0.8c-0.2,0.5-0.4,1-0.5,1.5c-0.2,1.2-0.7,2.3-1.3,3.4
		c-1,1.7-1.8,3.4-2.6,5.1c-0.3,0.6-0.9,1.1-1.6,1.1c-1.2,0-2.4,0-3.7,0c-1.7,0-3.5,0.2-5.2,0.6c-0.4,0.1-0.6,0.5-0.5,0.9
		C225.5,16.3,225.5,16.4,225.6,16.4z"/>
	<path class="st0" d="M33.6,111.2c0.6,0.4,1.4,0.7,2.1,0.9c1.4,0,2.6-0.6,3.4-1.7c0.2-0.2,0.3-0.4,0.5-0.6c2.8-3.8,5.1-7.9,6.9-12.2
		c0.6-1.6,1.4-3,1.9-4.6c0.4-1.3,1-2.6,1.5-3.9c0.1-0.2,0.2-0.5,0.4-0.7c0.2-0.2,0.4-0.3,0.7-0.3c0.4,0,0.9,0.1,1.3,0.2
		c0.9,0.2,1.9,0.2,2.9,0c2.4-0.4,4.7-0.9,7-1.7c0.4-0.2,0.8-0.2,1.3-0.1c0.1,0.1,0.3,0.2,0.4,0.3c0.8,1,1.9,1.8,3.1,2.4
		c0.7,0.4,1.5,0.6,2.2,0.6c1.8,0.1,3.6-0.3,5.3-1c1.1-0.5,2.2-0.8,3.4-1.4c1.1-0.6,2.5-0.8,3.5-1.8c0.2-0.2,0.5-0.2,0.7-0.2
		c0.5-0.2,1-0.4,1.5-0.6c1.2-0.6,2.3-1.3,3.4-2c2.3-1.4,4.4-3.1,6.3-5c0.5-0.5,0.9-1,1.4-1.5c0.2-0.2,0.4-0.3,0.6-0.4
		c0.7,0.3,1.1,1,1.2,1.7c-0.6,1.1-1.2,2.3-1.9,3.3c-0.5,0.8-1,1.6-1.5,2.4c-0.4,0.7-0.7,1.4-0.7,2.2c0.1,0.3,0.2,0.6,0.4,0.9
		c0.5,0.9,1.3,1.6,2.3,1.9c1.2,0.2,2.4,0.2,3.6-0.2c1.7-0.4,3.1-1.5,4.8-2c0.2-0.1,0.5-0.2,0.7-0.4c0.3-0.3,0.8-0.4,1.2-0.5
		c0.4-0.1,0.8-0.2,1.2-0.4c0.8-0.4,1.5-0.8,2.3-1.2c0.2-0.1,0.5-0.1,0.7-0.1c0.2,0.1,0.3,0.2,0.5,0.4c1.2,1.4,2.3,2.8,3.3,4.3
		c0.3,0.5,0.7,1,1.2,1.4c0.5,0.6,1.5,0.7,2.1,0.2c0.4-0.6,0.7-1.2,0.9-1.9c0.7-2,1.6-4,2.7-5.8c1.2-2,2.3-4,3.2-6.2
		c0.3-1-0.3-2.1-1.2-2.4l-1.5-0.1c-1.2,0.5-2.3,1.1-3.4,1.9c-0.6,0.5-1.3,0.9-2,1.2c-0.6,0.3-1.3,0.6-1.9,0.9
		c-0.9,0.6-1.8,1.1-2.7,1.6c-1.1-0.3-2.2-0.4-3.3-0.3c-1,0.5-0.3,1.5-0.7,2.2c-0.2,0.2-0.4,0.3-0.6,0.4c-2.7,1.4-5.5,2.6-8.3,3.6
		c-0.1,0-0.3,0.1-0.4,0.1c-0.3,0-0.5-0.2-0.6-0.5c0.8-1.2,1.5-2.5,2.4-3.7c0.6-0.8,1-1.6,1.2-2.6l-0.7-2.4l-2.1-3
		c-0.1-0.6-0.2-1.1-0.3-1.6c-0.1-0.4-0.4-0.8-0.9-0.9c-0.8-0.1-1.7,0-2.4,0.3c-0.2,0.4-0.4,0.7-0.6,1.1c-1.8,2.3-3.4,4.8-6,6.4
		c-1.8,1.5-3.7,2.8-5.8,3.8c-1.5,0.7-3,1.4-4.5,2.2c-1.9,1-4,1.7-6,2.5c-0.3,0.1-0.7,0.2-1,0.3c-0.3,0-0.5,0-0.8-0.1
		c-0.7-0.3-1.4-0.8-1.7-1.5c-0.1-0.2,0-0.5,0.2-0.7c0.3-0.2,0.5-0.4,0.8-0.6c3.5-2,6.1-5.2,7.5-9c0.1-0.3,0.2-0.7,0.3-1
		c0.1-0.5,0-1-0.2-1.4c-0.2-0.5-0.7-0.9-1.3-1l-2.2,0.2c-0.8,0.1-1.5,0.4-2.1,1c-0.8,0.9-1.6,1.8-2.5,2.7C66.9,76.1,66.3,77,66,78
		c-0.1,0.3-0.3,0.6-0.6,0.8c-0.5,0.6-0.9,1.3-1.2,2c-0.2,0.7-0.6,1.3-1,1.9c-0.3,0.1-0.7,0.4-1.1,0.5c-2.2,0.8-4.5,1.4-6.8,1.8
		c-0.8,0.1-1.6,0.1-2.3,0.1c-0.7,0-1.3-0.4-1.6-0.9c0.2-0.9,0.4-1.8,0.6-2.7c0.1-0.9,0.2-1.9,0.2-2.8c0.1-0.2,0.2-0.5,0.4-0.7
		c1.1-1.1,2-2.4,3-3.6c1.4-1.6,2.5-3.5,3-5.6c-0.2-1-1-1.2-1.7-1.6c-0.7,0-1.4,0.1-2,0.3l-2.2,1.4c-0.2,0.3-0.5,0.6-0.8,0.9
		c-1.3,1.4-2.3,3-3.1,4.8c-0.7,1.5-1.6,2.9-2.8,4.1c-0.7,0.7-1.4,1.3-2.3,1.7c-1.6,0.8-3.3,1.6-5,2.2c-1.6,0.7-3.3,1.3-5,1.5
		c-1.2,0.4-2.4,0.5-3.6,0.4c-1.2,0.1-2.4-0.5-3.1-1.6c-0.2-0.3-0.4-0.6-0.5-0.9c0-2,1.2-3.2,2.2-4.6c1.6-0.9,3.1-2,4.5-3.2
		c0.8-0.8,1.6-1.6,2.2-2.6c0.7-1.1,1.2-2.3,1.5-3.6c0-0.2,0-0.4,0-0.5c-0.2-0.6-0.7-1-1.2-1.3l-0.2,0c-1.3-0.2-2.6,0.3-3.5,1.3
		c-0.8,0.8-1.6,1.6-2.3,2.4C28.8,71,28.1,72,27.4,73c-0.6,1-1.3,1.9-2.1,2.6c-1.7,0.6-3.4,1.3-5,2.1c-1.6,0.7-3.2,1.2-4.9,1.9
		c-0.3-0.7-0.6-1.3-0.9-2.1c-0.4-0.8-0.8-1.6-1.2-2.3c-0.9-0.9-1.9-1.5-3.1-1.9c-1.2,0.1-2.3,0.4-3.4,0.9c-1.6,0.9-2.2,2.2-3,3.3
		c-0.3,1.3-0.8,2.5-1.4,3.6c-1,1.3-1.7,2.7-2.2,4.2C0.1,85.8,0,86.4,0,87c0,0.5,0.2,1.1,0.6,1.4c0.2,0.3,0.5,0.5,0.8,0.7
		c0.9,0.5,1.8,0.9,2.7,1.2l2.6-0.7c1.8-1.2,3.4-2.6,5-4c0.3-0.3,0.6-0.6,0.9-0.9l1.1-1.2c0.5-0.6,1.2-1,2-1.1
		c1.6-0.3,3.2-0.8,4.7-1.5c0.4-0.2,0.8-0.3,1.3-0.3c0.2,0,0.4,0.2,0.6,0.2c0,0.1,0,0.2,0,0.3c-0.3,0.6-0.6,1.2-0.9,1.9
		c-0.3,0.6-0.5,1.3-0.8,1.9c-0.3,0.7-0.7,1.4-1.2,2c-0.3,0.4-0.6,0.8-0.9,1.3c-1,1.8-2,3.6-2.9,5.5c-0.5,1.2-0.8,2.4-1.8,3.4
		c-0.1,0.1-0.1,0.1-0.1,0.2c-0.5,1.3-1.1,2.6-1.6,3.9c-0.3,1-0.5,2-0.7,3c-0.4,1.7-0.4,3.5-0.1,5.2c0.1,0.3,0.2,0.7,0.5,0.9
		c0.7,0.7,1.6,1.2,2.6,1.4l2.2-0.3c0.4-0.3,0.7-0.6,1-0.9c0.2-0.2,0.4-0.4,0.5-0.6c0.2-0.3,0.4-0.6,0.5-0.9l1.2-2
		c0.7-1.3,1.4-2.6,1.9-4c0.2-0.7,0.3-1.4,0.6-2c0.8-2,1.4-4.1,1.7-6.3c0.4-2,0.7-3.9,1-5.9c0.1-0.7,0.3-1.3,0.5-2
		c0-0.1,0.2-0.2,0.4-0.4c2.3,1,4.8,1.4,7.3,1.1l1-0.6h1.1c1.4-0.4,2.8-0.9,4.2-1.4c0.6-0.2,1.2-0.4,1.8-0.5c0.3-0.1,0.5,0.1,0.7,0.4
		c0,0.2,0,0.5-0.1,0.7c-1.1,2.1-2,4.2-3.2,6.2c-0.6,0.9-1,1.8-1.4,2.8c-0.7,1.6-1.4,3.1-2.2,4.7c-0.9,1.8-1.7,3.6-2.2,5.6
		c-0.3,1.4-0.4,2.8-0.1,4.1C32.5,110.2,32.9,110.8,33.6,111.2z M113,81.3c0.9-0.6,1.8-1,2.8-1.3c0.1,0,0.3,0.1,0.4,0.2
		c-0.4,1.3-0.9,2.5-1.6,3.7c-0.2,0-0.4,0.1-0.5,0c-0.7-0.5-1.3-1.2-1.6-2C112.6,81.6,112.8,81.5,113,81.3z M8.2,83.8
		c-0.2,0.3-0.4,0.6-0.6,0.8c-0.9,0.7-1.7,1.4-2.6,2c-0.2,0.1-0.5,0.1-0.7,0.2c-0.2,0-0.5-0.4-0.5-0.5c0-0.1,0-0.2,0-0.2
		c0.5-1.1,1.1-2.3,1.6-3.4c0.1-0.2,0.4-0.3,0.6-0.5c0.8,0.3,1.6,0.6,2.3,1.1C8.4,83.4,8.3,83.6,8.2,83.8z M11.5,79.4
		c-0.2,0.6-0.9,1-1.5,0.9c-0.5-0.1-1-0.2-1.5-0.3c-0.3-0.1-0.6-0.4-0.6-0.8c0.3-0.7,0.3-0.7,1.3-1.5c0.3-0.5,0.2-1.2,1-1.4v0
		c0.5,0.1,1,0.4,1.2,0.9C11.5,77.9,11.6,78.6,11.5,79.4z M20.1,95.4c-0.1,0.5-0.2,1-0.4,1.5c-0.3,0.9-0.6,1.8-0.8,2.7
		c-0.2,0.9-0.5,1.8-1.1,2.6c-0.3,0.6-0.6,1.2-0.8,1.9c-0.5,1-1.1,1.9-1.8,2.9c-0.1,0.1-0.3,0.1-0.4,0.2c-0.1-0.1-0.2-0.3-0.2-0.4
		c0-0.4,0-0.9,0.1-1.3c0.4-1.8,1-3.5,1.7-5.1c0.5-0.9,0.8-1.9,1.3-2.8c0.9-1.9,1.9-3.9,2.9-5.8c0.2-0.4,0.3-0.4,0.8,0.1
		C20.7,92.9,20.3,94.2,20.1,95.4z M37.9,101.8c1.1-2.3,2.1-4.6,3.2-6.8c1.4-2.8,2.8-5.4,4.2-8.1c0.3-0.7,0.8-1.4,1.3-1.9
		c0.7,0.3,0.9,0.7,0.7,1.2c-1.2,3-2.2,6-3.4,9c-0.4,0.9-0.8,1.7-1.3,2.5c-0.4,0.8-1,1.6-1.4,2.5c-1.3,2.4-2.7,4.6-4.3,6.8
		c-0.1,0.1-0.1,0.1-0.2,0.1c-0.3,0.2-0.5,0.1-0.6-0.2h0C36.5,105.1,37.1,103.4,37.9,101.8z"/>
	<path class="st0" d="M207.7,79.5c-1.6,1.2-3.2,2.4-4.9,3.4c-1.7,0.9-3.4,1.6-5.2,2.3c-0.1,0-0.2,0-0.3,0c-0.4,0-0.8-0.4-0.8-0.8
		c0-0.3,0.1-0.5,0.2-0.8c0.5-1.2,1.2-2.3,2-3.4c0.5-0.7,1-1.4,1.5-2.1c0.1-0.2,0.2-0.3,0.2-0.5c0.2-0.6-0.1-1.3-0.6-1.6
		c-0.7-0.2-1.5-0.2-2.2,0c-1.3,1.6-2.5,3.3-3.5,5.1c-0.3,0.6-0.6,1.2-1,1.8c-0.3,0.5-0.5,1.1-0.5,1.7c0.4,1.3,1.2,2.5,2.3,3.3
		c1.4,0.6,2.9,0.7,4.3,0.2c1-0.3,1.9-0.8,2.8-1.4c1.4-0.5,2.7-1.2,3.9-2c1.4-0.8,2.6-1.7,3.8-2.7c0.1-0.1,0.3-0.2,0.4-0.3
		c0.2,0,0.3,0,0.5,0c0.1,0.1,0.2,0.3,0.3,0.4c0.4,1.8,1.6,3.3,3.2,4.3c0.3,0.2,0.6,0.4,0.9,0.6c0.4,0.3,0.8,0.3,1.3,0.2
		c0.6-0.5,1.3-0.8,2-1.1c0.6-0.3,1.2-0.7,1.7-1.2c1.1-1.2,2.1-2.5,2.8-3.9c0.2-0.8,0.5-1.6,0.9-2.3c0.8-0.2,1.2,0.6,2.1,0.8
		c3.5,0.2,7-0.2,10.3-1c0.4-0.1,0.8-0.5,1.3-0.1c-0.1,0.2-0.1,0.5-0.3,0.7c-1.5,2.1-2.4,4.5-2.7,7c0.5,1.3,1.6,2.3,3,2.7l2.7-0.7
		c0.7-0.5,1.5-0.9,2.4-1.3c0.9-0.5,1.6-1.3,2.5-1.8c0.5-0.3,1-0.7,1.4-1.2c0.3-0.5,0.8-1,1.3-1.2c2.3-0.1,4.5-0.2,6.8-0.4
		c0.6,0,1.2-0.1,1.8-0.2c0.6-0.2,1.3-0.4,2-0.4c0.8,0,1.5-0.6,2.2-0.7c0.2-0.1,0.3-0.1,0.5-0.1c0.3,0,0.7-0.1,1-0.2
		c1.1-0.5,2.2-1.1,3.2-1.7c0.8-0.5,1.6-1,2.5-1.4l2.3,1.3c0.1,0,0.1,0.1,0.2,0.2c0.1,0.1,0.1,0.1,0.1,0.2c0,0.8-0.9,1-1.2,1.6
		c-0.4,0.6-0.8,1.1-1.2,1.7c-0.4,0.6-0.7,1.3-0.8,2c0,1.7,1.1,2.8,2.5,3.6c1,0.4,2.1,0.6,3.2,0.6c1.1-0.4,2.2-0.6,3.3-0.7
		c0.6-0.4,1.3-0.7,2-0.9c1.4-0.3,2.7-0.7,3.9-1.3c0.7-0.3,1.5-0.5,2.2-0.7c0.8,0.4,1.6,0.8,2.3,1.4c0.5,0.3,1.1,0.6,1.6,0.8
		c0.9,0.2,1.9,0.4,2.7,0.6c1.3-0.3,2.7-0.4,4-0.8c1.3-0.4,2.5-1,3.8-1.4c0,0.1,0.1,0.2,0.1,0.4c1.7,1.8,1.7,1.8,4,2.1
		c0.3,0.1,0.7,0.1,1,0.1l2.9-0.8c0.9-0.6,1.8-1.1,2.8-1.6c1.4-1,3-1.7,4.4-2.7c0.8-0.7,1.7-1.2,2.7-1.6c0.1,0,0.3,0.1,0.5,0.1
		c0.1,0.2,0.2,0.4,0.3,0.7c0.2,0.6,0.3,1.2,0.6,2c0.6,0.9,1.3,1.8,2,2.7c0.4,0.5,0.9,1,1.5,1.4c0.3,0.3,0.7,0.5,1.2,0.5
		c1.3,0.3,2.6,0.3,3.9,0.1c1.2-0.2,2.4-0.5,3.5-0.8c0.5-0.1,1-0.4,1.3-0.8c0.2-0.2,0.3-0.5,0.1-0.7c-0.2-0.1-0.6-0.2-0.9-0.4
		c-0.6-0.3-1.2-0.3-1.8-0.1c-1.2,0.4-2.4,0.5-3.6,0.3c-1.5,0-2.9-0.8-3.7-2.1c-0.2-0.3-0.3-0.6-0.5-0.9l-0.6-2.9l0.6-2.8
		c0.7-0.8,1.3-1.7,2-2.4c0.9-1,1.7-2.2,2.3-3.5c0.6-1.2,1.1-2.5,1.7-3.8c0.2-0.9,0.7-1.8,1.3-2.5c0.1-0.2,0.2-0.4,0.3-0.7
		c0-0.2-0.1-0.4-0.2-0.5c-0.4-0.4-0.9-0.9-1.3-1.2c-0.4-0.3-1-0.4-1.5,0c-0.7,0.5-1.2,1.2-1.6,2c-0.5,1.1-1.3,2.1-2.1,2.9
		c-1.6,1.9-2.8,4-3.7,6.2c-0.1,0.4-0.3,0.8-0.3,1.2c-0.1,0.3-0.2,0.7-0.3,1l-1.5,0.9c-0.1,0-0.2,0-0.3-0.1c-0.2-0.1-0.3-0.2-0.4-0.3
		c-0.8-0.9-2.1-1.4-3.3-1.2c-0.4,0-0.9,0.1-1.3,0.2c-0.4,0.1-0.8,0.2-1.2,0.4c-1.2,0.3-2.3,0.8-3.3,1.4c-0.4,0.4-0.8,0.7-1.2,1
		c-0.4,0.3-1,0.3-1.4,0.6c-0.5,0.3-1.1,0.6-1.6,0.9c-0.4,0.2-0.6,0.6-1,0.8c-0.8,0.4-1.5,1-2,1.9c-1,0.4-2,0.9-3,1.4
		c-1,0.5-2.1,0.8-3.2,0.9c-1.1,0-2.1,0-3.2-0.1c-0.7-0.3-1.3-0.6-1.9-0.8c-0.2-0.1-0.3-0.2-0.4-0.3c-0.3-0.2-0.3-0.5-0.1-1
		c0.6-0.5,1.3-1,1.9-1.6c1.8-1.6,3.4-3.5,4.9-5.4c1.5-2.1,2.9-4.3,4.2-6.5c0-0.5,0.1-0.9,0.2-1.3c0.2-0.5,0-1,0.1-1.5l0.8-0.9
		c0.2-0.6,0.4-1.1,0.5-1.6c0-0.1,0-0.1-0.1-0.3l-1.1-1.1c-0.6-0.4-1.2-0.6-1.9-0.6c-1.8,0.7-3.4,1.7-4.7,3.1
		c-0.7,0.9-1.6,1.6-2.6,2.2c-0.7,0.4-1.3,0.9-1.6,1.6c-0.7,1.1-1.4,2.1-2,3.1c-0.5,0.7-1,1.4-1.3,2.2c-0.3,0.8-0.7,1.6-1,2.4
		c-0.1,0.3-0.3,0.6-0.4,0.9l-0.3,2.4c0,0.8,0.4,1.2,0.2,1.8c0,0.1-0.1,0.2-0.1,0.2c-0.8,0.6-1.7,1.2-2.6,1.7c-0.5,0-1.1,0.1-1.6,0.3
		c-1.3,0.5-2.7,0.8-4,1.3c-1.1,0.4-2.2,0.5-3.3,0.4c-0.2,0-0.3-0.2-0.5-0.3c0-0.2,0-0.5,0-0.7c0.2-0.4,0.4-0.8,0.7-1.1
		c0.8-1,1.8-1.9,2.9-2.6c0.1,0,0.2-0.1,0.3-0.1c0.7-0.5,0.8-1.4,0.4-2.1c-0.1-0.2-0.2-0.3-0.4-0.5c-0.7-0.3-1.3-0.6-2.1-1
		c-0.8-0.4-1.5-0.8-2.2-1.2c-0.3-0.4-0.5-0.9-0.5-1.4l0.7-1.8c-0.2-0.3-0.2-0.6-0.4-0.7c-0.4-0.3-0.9-0.6-1.3-0.8c0,0-0.1,0-0.1-0.1
		c-0.6-0.3-1.4,0-1.6,0.7c-0.3,0.7-0.6,1.3-0.7,1.7c-1.8,2.5-4.3,3.6-6.7,4.7l-2.6,0.6c-1.7,0.4-3.4,0.4-5.1,0.8
		c-1.1,0-2.2-0.2-3.3-0.3c-0.4-1.2-0.5-2.4-0.5-3.6c-0.5-1-0.8-2.2-1.4-3.2c-0.9-0.5-1.9-0.9-3-1.1c-0.4,0.2-0.8,0.4-1.3,0.5
		c-0.5,0.1-1,0.2-1.5,0.2l-1.5,2.4c-0.9,0.3-1.7,0.7-2.5,0.9c-2.5,0.6-5.1,1.1-7.6,1.7c-0.3,0.1-0.7,0.1-1,0
		c-0.9-0.1-1.7-0.3-2.5-0.4c-1.1-1-1.1-1-1.3-2c0-0.4-0.1-0.9-0.2-1.3c-0.2-0.4-0.4-0.7-0.6-1c-0.6-0.3-1.2-0.5-1.8-0.6
		c-0.4,0.1-0.7,0.3-0.8,0.6c-0.5,1.4-0.5,2.9-0.8,4.3c0,0.6-0.3,1.2-0.6,1.7c-0.3,0.6-0.6,1.2-1,1.8c-0.7,1.2-1.7,2.2-2.8,3.1
		c-0.4,0.4-1.1,0.4-1.5,0c-0.1-0.3-0.2-0.6-0.4-0.9c0-0.1,0-0.2,0-0.2c0.2-2.2,0.7-4.3,1.5-6.3c0.4-1,0.6-2.2,0.6-3.3
		c-0.6-0.6-1.4-1-2.3-1.1l-0.6,0.3c-0.5,0.7-0.9,1.5-1,2.4l-2,2.4C209.7,77.8,208.7,78.7,207.7,79.5z M302.9,84.1
		c1.2-1.3,2.6-2.3,4.1-3.1c0.8-0.4,1.6-1,2.4-1.5c0.6-0.2,1.4-0.5,2.3-0.8c0.3-0.1,0.7,0,0.9,0.2c-0.1,0.2-0.1,0.4-0.2,0.5
		c-0.4,0.3-0.8,0.6-1.2,1c-0.7,0.4-1.3,1.1-1.7,1.8l-4,2.3c-0.9,0-1.8,0.7-3,0.5C302.5,84.6,302.7,84.4,302.9,84.1z M286.7,77.6
		c0.7-1.7,1.7-3.2,2.5-4.8c0-0.1,0.1-0.2,0.1-0.2c1.9-2.5,4.1-4.7,6.6-6.6c0.2-0.1,0.3,0,0.5,0.1c0.1,0.1,0.2,0.3,0.2,0.4
		c0,0.1,0,0.2,0,0.2c-0.2,0.9-0.6,1.8-1.2,2.6c-0.5,0.7-1,1.4-1.6,2.1c-0.5,0.6-0.9,1.3-1.2,2.1c-0.7,0.4-1.3,1-1.7,1.8
		c-0.3,0.6-0.8,1.1-1.3,1.6c-0.8,0.7-1.5,1.5-2.2,2.2c-0.3,0.2-0.6,0.5-0.9,0.7v0c-0.1-0.3-0.1-0.6-0.1-0.8
		C286.4,78.4,286.6,78,286.7,77.6z M239.5,82.2c0.5-0.9,1-1.8,1.5-2.7c0.1-0.2,0.3-0.4,0.5-0.6c0.3-0.2,0.5-0.4,0.8-0.6v0
		c0.7,1,1.5,1.7,2.2,2.5l-1.4,1.8c-1.1,0.7-2.3,1.4-3.5,2.1c-0.3,0.2-0.6,0.3-0.9,0.4c-0.1,0-0.3-0.1-0.5-0.2
		C238.6,84,239,83.1,239.5,82.2z"/>
	<path class="st0" d="M392.1,82.4c-1.1,0.6-2.1,1.5-3.1,2.3c-0.2,0.1-0.4,0.4-0.6,0.4c-0.9,0.1-1.6,0.7-2.4,0.9
		c-0.8,0.2-1.7,0.4-2.5,0.5c-1,0.2-2.1,0.1-3.1-0.3c-1.3-0.5-2.6-0.9-3.9-1.4c-0.2-0.1-0.3-0.3-0.5-0.6c0.7-1.6,1.5-3.1,2.3-4.6
		c0.9-0.8,1.9-1.6,2.9-2.4c1.5-1.1,2.6-2.6,3.3-4.3c0.3-0.7,0.6-1.4,0.9-2.2c0.3-0.8,0.5-1.7,0.6-2.5c0.1-0.5-0.1-0.9-0.5-1.2
		c-0.8-0.3-1.7-0.4-2.6-0.3l-1.2,0.9c-1.3,2.1-2.2,4.2-3.6,6c-0.7,1-1.4,2.1-2,3.3c-1.1,0.8-2.3,1.4-3.6,1.8
		c-0.2,0.1-0.5,0.2-0.7,0.3c-0.7,0.4-1.4,0.7-2.2,0.9c-0.9,0.1-1.7,0.5-2.5,0.7c-0.4,0.1-0.9,0.1-1.3,0.2l-0.5-0.4
		c-0.4-2.1-1.4-4-2.9-5.5l-1.2-0.8c-1.1-0.4-2.1,0.3-3.2,0.1l-3,1.8c-1.8,2.6-1.5,1.7-1.6,4.3c0,0.1-0.1,0.3-0.1,0.4l-0.5,0.8
		c-0.6,0.9-1.2,1.7-1.7,2.6c-0.5,0.9-0.4,1.9,0.3,2.7c0.6,0.7,1.5,1.3,2.4,1.6h1.9c0.3-0.1,0.5-0.2,0.8-0.3c1.4-0.4,2.8-1,3.9-2
		c0.8-0.7,1.7-1.2,2.4-1.7c1.3-0.4,2.5-0.7,3.5-1c1-0.3,2-0.4,3-0.7c1-0.3,2-0.7,3-1c0.2,0,0.5,0,0.7,0c0.3,0.6,0,1-0.4,1.4
		c-0.7,0.4-1.6-0.2-2.7,0.4c-0.2,0.2-0.3,0.5-0.3,0.8c0,0.4,0.1,0.7,0.3,1c0.3,0.4,0.8,0.7,1,1.3c0,0.2,0,0.5-0.1,0.7
		c-0.5,1.7-1.2,3.3-2.1,4.8c-1.1,1.9-2.1,3.9-3,6c-0.7,1.8-1.5,3.5-2.4,5.2c-0.3,0.6-0.6,1.3-0.9,1.9c-0.7,1.8-1,3.7-0.8,5.6
		c0.1,0.6,0.3,1.2,0.8,1.6c0.4,0.4,0.8,0.7,1.3,0.8c1.2,0.3,2.4,0.3,3.6,0c0.1,0,0.1-0.1,0.2-0.1c1.9-1.3,3.4-3,4.6-4.9
		c0.7-1,1.2-2.1,1.8-3.1c1.1-1.9,1.8-4,2-6.2c0.1-1.3,0.2-2.6,0.1-3.9c0-1.7-0.2-3.5-0.5-5.2c-0.1-0.3-0.1-0.7-0.1-1
		c0.4-0.6,0.5-0.7,0.8-0.7c0.6-0.1,1.2,0,1.8,0.3c1.1,0.4,2.3,0.7,3.5,0.8c1.5,0,2.9-0.1,4.4-0.2c0.5-0.1,1-0.3,1.5-0.5
		c0.8-0.4,1.6-0.8,2.3-1.2c1.1-0.7,2.1-1.6,2.9-2.6c0.2-0.3,0.3-0.6,0.5-0.9c0.2-0.3,0.4-0.5,0.3-0.9
		C393,82.4,392.5,82.4,392.1,82.4z M357.1,84.1c-0.2,0.5-0.6,0.8-1.1,1c-0.3,0.2-0.7,0.2-1,0c-0.1-0.7,0.4-1,0.8-1.4
		C356.3,83.4,356.9,83.6,357.1,84.1L357.1,84.1z M361.4,81.1c-0.2,0.2-0.3,0.3-0.3,0.3c-0.7,0.3-1.4,0.1-2-0.3l-0.6-1.2l-1.5-0.8
		c0-0.3,0.1-0.6,0.2-0.8c0.5-0.9,1.3-1.7,2.3-2.1l0.9,0.2c1.5,1.7,1.5,1.7,1.8,3.1L361.4,81.1z M372.7,98.5c0,0.4-0.1,0.9-0.2,1.3
		c-0.5,1.4-1,2.8-1.5,4.2c-0.3,0.7-0.8,1.4-1.2,2c-0.9,1.5-2.1,2.8-3.4,3.9c-0.2,0.2-0.4,0.3-0.7,0.3c-0.2,0-0.3-0.1-0.4-0.2
		c-0.1-0.4-0.2-0.8-0.2-1.3c0.1-1.3,0.4-2.6,0.9-3.8c0.3-0.5,0.5-1.1,0.7-1.7c0.6-1.7,1.4-3.4,2.3-5c0.6-1.1,1.1-2.2,1.5-3.3
		c0.2-0.6,0.5-1.1,0.8-1.7c0.2-0.5,0.4-0.9,0.6-1.4c0-0.1,0.2-0.1,0.2-0.1c0.1,0,0.1,0,0.2,0.1c0.1,0.1,0.2,0.3,0.2,0.4
		c0.1,0.4,0.2,0.9,0.2,1.2v0.1C372.8,95.1,372.8,96.8,372.7,98.5z"/>
	<path class="st0" d="M175.6,85.1c-0.2-0.4-0.6-0.8-1.1-0.9c-0.5,0.6-1.3,0.3-2,0.7c-1.3,0.7-2.7,1.2-4.2,1.5l-2.1-0.6
		c-0.9-0.7-1.6-1.5-2.2-2.5c-0.2-1.4-0.2-2.9,0-4.3c0.2-1,0.6-2,0.8-3c0-0.2,0-0.4-0.1-0.5c-0.3-0.6-0.9-1.1-1.6-1.3
		c-0.7,0-1.3,0.2-1.9,0.6c-0.4,0.5-0.3,1.2-0.9,1.5c-0.4-0.2-0.7-0.6-0.8-1c-0.1-0.7-0.6-1.2-1.2-1.5c-0.5-0.1-1.1-0.2-1.6-0.2
		c-0.4,0-0.9,0.1-1.2,0.3c-0.5,0.2-1,0.7-1.5,1c-0.5,0.3-1.1,0.4-1.6,0.8c-1.2,0.7-2.2,1.7-3,2.8c0,0.1-0.1,0.1-0.2,0.2
		c-1.3,0.7-1.9,2-3,2.9c-1.2,1-1.9,2.3-2.2,3.8c0.1,0.8,0.3,1.6,0.7,2.3c0.4,0.3,0.8,0.6,1.2,0.8c0.4,0.2,0.8,0.4,1.2,0.4
		c1,0.2,2.1,0.1,3.1-0.2c1.6-0.6,3.2-1.3,4.6-2.3l4.1-3.2c0.2-0.1,0.3-0.2,0.5-0.2c0.2,0.1,0.4,0.2,0.5,0.4c0.2,0.4,0.4,0.9,0.5,1.4
		c1.1,1.6,2.6,3,4.3,4c1.1,0.3,2.2,0.6,3.4,0.8c2.6-0.2,5-1.3,6.8-3.1C175.5,86,175.7,85.6,175.6,85.1z M156.5,77.9
		c-0.8,1.5-1.2,3-1.8,4.3c-0.9,0.9-1.9,1.7-2.9,2.4c-0.6,0.4-1.2,0.7-1.9,0.9c-0.4,0.1-0.8,0.2-1.3,0.1c-0.1,0-0.3-0.2-0.4-0.2
		c-0.1-0.3,0-0.7,0.2-1c1.3-1.9,2.8-3.7,4.6-5.2c0.4-0.3,0.7-0.7,1-1.1l1-0.5l1.1-0.6c0.2,0.2,0.4,0.2,0.4,0.4
		C156.5,77.6,156.5,77.7,156.5,77.9z"/>
	<path class="st0" d="M346,132c-0.6,0.2-1.2,0.4-1.8,0.6c-0.6,0.2-1.1,0.5-1.6,0.9c-0.8,0.7-1.7,1.2-2.6,1.6
		c-1.9,0.9-3.8,1.8-5.6,2.8c-2.2,1.2-4.6,2.1-7,2.6c-0.4,0.1-0.8,0.2-1.2,0.4c-2.1,0.8-4.4,1.1-6.5,1.8c-1.2,0.1-2.3,0.4-3.3,1
		c-0.8,0.1-1.5,0.2-2.2,0.2c-0.7,0.1-1.4,0.1-2.1-0.1c0-0.1,0-0.3,0.1-0.4c0.4-0.3,0.8-0.7,1.2-0.9c2.6-1.5,4.9-3.4,6.9-5.7
		c0.4-0.7,0.7-1.5,0.9-2.3c0-0.5-0.3-1.1-0.7-1.4c-0.6-0.4-1.3-0.7-2-0.7l-2.1,0.7c-1,0.6-2,1.4-3,2c-1,0.6-1.9,1.5-2.9,2.1
		l-1.6,0.1c-1.6,1.6-3.5,2.9-5.6,3.8c-1.2,0.5-2.4,1.1-3.4,1.9c-0.3,0.3-0.7,0.4-1.2,0.5c-0.5,0.2-1,0.3-1.5,0.6
		c-0.7,0.3-1.4,0.7-2.1,1c-0.6,0.3-1.3,0.3-2,0.2c-0.2,0-0.4-0.3-0.6-0.4l0.4-2.8c0.5-1.1,1.2-2.2,1.9-3.2c0.6-0.8,1.2-1.7,1.7-2.6
		c0.6-0.8,0.6-1.9-0.1-2.7c-0.1-0.2-0.4-0.3-0.2-0.7l2.5,0.3c0.2,0,0.3,0.1,0.5,0.1l3.5,1.1c0.8,0.3,1.7,0.5,2.5,0.7
		c0.2,0,0.3,0,0.5,0c0.6-0.3,1.1-0.8,1.3-1.5c-0.3-0.8-0.3-0.8-1.9-2c-1.7-0.3-3.3-1-5-1.3c-1.4-0.3-2.9-0.6-4.3-0.7
		c-0.7-0.1-1.3-0.2-2-0.4c-1.3-0.4-2.5-0.6-3.8-0.7c-1.9-0.1-3.8-0.5-5.7-0.6c-0.1,0-0.1,0-0.2-0.1c0,0,0,0,0,0
		c-0.2-0.2-0.2-0.5-0.1-0.7c0.6-0.8,1.4-1.5,2.3-2c0.5-0.3,0.9-0.5,1.4-0.8c0.4-0.3,0.7-0.8,0.8-1.3c0-0.3,0-0.5,0-0.8
		c-0.1-0.2-0.1-0.4-0.2-0.7c-0.5-0.4-1.1-0.7-1.7-0.8c-0.7,0.1-1.4,0.3-1.9,0.8c-1.4,1.3-3,2.4-4.3,3.8c-0.8,0.8-1.5,1.6-2.3,2.5
		c-0.5,0.1-1,0.2-1.5,0.2c-0.5,0-1,0-1.5,0.1c-0.8,0.2-1.5,0.2-2.3,0.2c-0.9,0.2-1.7,0.2-2.6,0.2c-1.5,0-2.9,0.2-4.4,0.5
		c-0.6,0.1-0.9,0.5-0.9,1.4l0.9,1.2c0.3,0.5,0.9,0.9,1.5,0.9c0.5-0.1,1-0.2,1.5-0.3c1.3-0.1,2.6-0.3,3.9-0.5c0.5-0.2,1.1-0.2,1.7,0
		c0,0,0,0,0,0c0.3,0.2,0.4,0.7,0.2,1c-0.6,1-1.2,2.1-1.9,3.1c-0.6,0.5-1.3,0.9-2,1.2c-2.4,1.1-4.8,2.1-7.2,3c-0.7,0.2-1.3,0.4-2,0.7
		c-1.2,0.6-2.5,1.2-3.8,1.6c-0.7,0.3-1.5,0.4-2.3,0.4c-0.2-0.1-0.4-0.1-0.6-0.3c0-0.2,0.1-0.4,0.2-0.5c1-1.2,2.2-2.3,3.5-3.1
		c0.6-0.3,1.2-0.7,1.7-1.2c0.1-0.1,0.2-0.3,0.2-0.5c0-0.5-0.2-1-0.6-1.4c-0.7-0.4-1.4-0.6-2.2-0.7c-1.3,0.6-2.6,1.5-3.6,2.5
		c-0.9,0.9-1.9,1.6-3,2.1c-0.9,0.4-1.7,0.9-2.6,1.3c-0.9,0.5-1.8,1-2.7,1.6c-1,0.6-2,1.1-3,1.5c-1.6,0.7-3.3,1.1-5.1,1
		c-0.8,0-1.5-0.3-2.1-0.8c-0.6-0.9-0.8-2-0.5-3c0.3-0.6,0.5-1.2,0.8-1.9c0.4-0.8,1-1.5,1.7-2c0.6-0.4,1.1-0.8,1.7-1.2
		c0.5-0.4,0.9-0.8,1.3-1.3c0.5-0.5,1.1-0.9,1.6-1.3c0.9-0.8,1.8-1.6,2.7-2.5c0.9-0.9,1.7-1.8,2.5-2.6c0.2-0.2,0.4-0.4,0.5-0.6
		c1.1-1.6,2.3-3.1,3.6-4.5c0.2-0.2,0.4-0.5,0.5-0.8c0.1-0.6-0.1-1.1-0.5-1.6l-0.2-0.2c-1.1-0.9-2.6-0.9-3.6,0
		c-1.3,0.8-2.4,1.7-3.4,2.8c-0.7,0.7-1.4,1.3-2.1,1.9c-1.3,1.3-2.7,2.8-4,4.1c-1.3,1.4-2.3,3-3.7,4.4c-0.1,0.1-0.1,0.1-0.1,0.2
		c-0.5,0.9-1.3,1.6-2.3,2c-0.8,0.4-1.6,0.8-2.3,1.2c-2.5,1.1-5,2.1-7.5,3c-0.9,0.3-1.8,0.7-2.6,1.1c-1.4,0.8-3,1.3-4.6,1.5
		c-0.4-0.1-0.6-0.4-0.8-0.8l0.4-0.9c1.2-0.8,2.3-1.6,3.5-2.3c0.7-0.4,1.2-0.9,1.7-1.6c0.5-0.5,0.5-1.2,0.1-1.7
		c-0.2-0.1-0.4-0.3-0.6-0.4c-1-0.7-2.4-0.8-3.5-0.2c-1.2,0.5-2.3,1.3-3.2,2.2c-0.5,0.6-1.1,1.2-1.8,1.6c-2,0.5-4,1.1-6,1.5
		c-1.8,0.4-3.6,0.7-5.4,0.8c-0.4,0-0.7,0-1.1-0.1c-0.5-1.2-1.2-2.3-2.2-3.2l-1.4-0.7c-1.3-0.7-2.8-1-4.3-1.1c-0.5,0-1,0-1.6-0.1
		c-0.3-0.1-0.5-0.3-0.4-0.6c0.6-1.2,1.3-2.4,2-3.6c1-1.4,1.9-2.9,2.9-4.3c0.6-0.8,0.8-1.8,0.5-2.7c-0.1-0.2-0.2-0.3-0.3-0.4
		c-0.4-0.3-1-0.5-1.5-0.5c-0.8,0.4-1.3,1-1.6,1.8c-0.3,0.5-0.6,1-1,1.5c-0.7,1-1.7,1.8-2,3c-0.1,0.3-0.4,0.6-0.6,0.8
		c-0.3,0.3-0.6,0.6-0.8,1c-0.5,0.8-1,1.6-1.5,2.4c-0.5,0.8-1.2,1.5-1.7,2.3c-0.5,0.9-1.2,1.6-1.9,2.3c-1.6,0.7-3,1.3-4.5,1.8
		c-2.8,1-5.5,2.2-8.3,3.2c-0.7,0.2-1.3,0.4-2,0.6c0,0,0,0,0,0c-0.4,0-0.8-0.3-0.8-0.8c0.1-0.8,0.2-1.5,0.4-2.3l-0.5-1.7
		c0.1-0.3,0.3-0.7,0.4-1c0.3-0.7,0.1-1.4-0.6-1.8c-0.3-0.2-0.7-0.4-1-0.6c-0.8-0.1-1.6,0.1-2.4,0.4l-1.4,1.2
		c-0.7,0.6-0.8,1.7-1.5,2.4c-1.3,0.6-2.8,1.2-4.2,1.6c-1.4,0.4-2.8,0.8-4.3,1.2c-1.8,0.5-3.5,0.9-5.3,1.3c-0.4,0.2-0.9,0-1.2-0.3
		c0-0.2,0.1-0.5,0.2-0.7c0.2-0.5,0.4-1,0.7-1.4c1-1.8,1.8-3.8,2.3-5.8c0.2-0.8-0.2-1.6-0.9-2c-0.6-0.4-1.3-0.5-2-0.3
		c-1,0.3-2,0.7-2.9,1.2c-1.1,0.7-2.2,1.3-3.4,1.9c-1.4,0.8-2.9,1.5-4.5,2.1c-3.2,1.2-6.4,2.2-9.7,3c-0.4,0.1-0.8,0.2-1.2,0.3
		c-0.1,0-0.3-0.1-0.5-0.2c0.1-0.7,0.4-1.3,0.8-1.9c0.6-0.9,1.2-1.7,1.8-2.5c0.4-0.5,0.7-1,1-1.5c0.3-0.7,0.6-1.4,1-2.1
		c0.4-0.7,0.6-1.4,0.8-2.2c0-0.2,0-0.4,0-0.6l-0.5-0.8l-1.8-0.5c-1.3,0.3-2.5,0.7-3.7,1.3c-1.6,0.7-3.1,1.6-4.5,2.5
		c-0.2,0.2-0.4,0.3-0.7,0.3c-1.1,0.4-2.1,1-2.9,1.7c-0.8,0.2-1.4,0.3-2,0.5c-1.7,0.5-3.3,1.1-5,1.5c-2.9,0.7-5.8,1.3-8.7,1.7
		c-0.4,0.1-0.9,0.1-1.3,0.1c-0.3,0-0.5,0-0.8,0c-0.4-0.1-0.7-0.4-0.8-0.7c0.3-2.1,0.1-4.2-0.6-6.1c-0.3-0.2-0.6-0.4-1-0.6
		c-0.8-0.4-1.8-0.4-2.5,0.2c-0.6,0.4-1.1,0.9-1.6,1.3c-1.2,0.4-2.4,1-3.4,1.9c-1.2,1-2.6,1.7-4.2,2.1c-2.4,0.7-4.8,1.4-7.3,2.1
		c-0.8,0.2-1.7,0.5-2.5,0.6c-0.4,0.1-0.9,0-1.2-0.4c0-1,0.1-2,0.3-3c-0.9-2.4-0.9-2.4-2.2-3.6c-2.5-1-5.3-1.1-7.8-0.2
		c-1.5,0.5-2.9,1.1-4.3,1.8c-0.7,0.4-1.5,0.6-2.2,0.5c-0.6-0.1-1.3,0-1.9,0.2l-1.6,1.2c-1.2,0.8-2.4,1.7-3.5,2.7
		c-0.4,0.4-0.9,0.8-1.4,1.1c-1.7,0.9-3.4,1.7-5.2,2.4c-0.5,0.2-1,0.3-1.5,0.3c-0.7,0-1.3-0.4-1.5-1l0.6-2.4c-0.1-0.3-0.2-0.7-0.3-1
		c-0.1-0.3-0.4-0.6-0.7-0.7c-0.5-0.2-1-0.2-1.5-0.1c-0.3,0.1-0.6,0.3-0.8,0.6c-0.6,1.2-0.9,2.6-0.9,4c0,0.4,0.1,0.9,0.4,1.2
		c0.3,0.4,0.6,0.8,1,1.2c1.6,1.2,3.2,2.1,5.3,1.5c0.4-0.1,0.8-0.2,1.1-0.2c1.2-0.5,2.2-1,3.2-1.4c0.3-0.1,0.6-0.1,0.9-0.1
		c0.1,0.4,0,0.8-0.2,1.2c-0.6,1.1-1.3,2.2-2.1,3.3c-0.7,0.8-1.2,1.7-1.6,2.7c-0.3,0.7-0.5,1.5-0.8,2.2c-0.2,0.4-0.4,0.8-0.6,1.1
		c-1.2,1.6-2.3,3.3-3.2,5.1c-0.2,0.3-0.3,0.6-0.5,0.9c-0.8,1.2-1.5,2.5-2.2,3.8c-0.5,1-1,2-1.5,3.1c-0.2,0.5-0.1,1,0.2,1.4l1.4,1.3
		c0.1,0,0.2,0.1,0.2,0.1c0.6,0.2,1.2,0,1.5-0.5c0.5-1.1,1.1-2.2,1.7-3.4c0.7-1.5,1.6-2.9,2.5-4.2c0.7-1,1.4-2,1.9-3.1
		c1.8-3.4,3.6-6.8,5.3-10.2c0.5-1,1.1-2,1.7-2.9c1.1-1.6,2.2-3.1,3.1-4.8c0.7-1.1,1.8-2,3.1-2.4c0.3,0.1,0.6,0.2,0.9,0.3
		c0.7,0.3,1.4,0.7,2.1,1.1c1.4,0.8,2.7,1.7,4,2.5c0,0.2,0.1,0.4,0,0.5c-0.7,0.6-1.4,1.3-2.1,1.8l-2.6,1c-0.6,0-1.3-0.2-1.7-0.7
		c-0.2-0.3-0.4-0.6-0.5-1c-0.2-0.6-0.4-1.1-0.5-1.7c-0.1-0.6-0.5-1.2-1-1.5l-0.6,0.2c-0.7,1.2-0.7,2.8,0,4c0.2,0.4,0.4,0.8,0.6,1.1
		c0.5,0.7,1.1,1.3,1.9,1.7c0.5,0.2,0.9,0.4,1.3,0.6c1.4,0,2.7-0.2,4-0.7c1-0.3,1.9-0.8,2.7-1.5c1.3-0.9,2.5-1.9,3.5-3.1
		c1.1-0.2,2.1-0.4,3.1-0.6c2.7-0.4,5.3-1,7.9-1.8c0.4-0.2,0.8-0.3,1.2-0.3c0.3,0,0.5,0.1,0.8,0.2c-0.1,0.6-0.3,1.2-0.4,1.8
		c-0.1,0.6-0.2,1.2-0.2,1.8c0.4,1.6,1.5,2.9,3,3.7l2.2,0.5c1.8-0.4,3.4-1.3,4.7-2.6c1-0.9,1.8-1.9,2.6-2.9c0.2-0.4,0.6-0.7,1.1-0.8
		c1.7,0.1,3.5,0,5.1-0.5c2.4-0.1,4.6-1.1,6.9-1.3c0.2,0,0.3-0.1,0.5-0.2c0.7-0.4,1.4-0.6,2.2-0.7c0.8-0.1,1.5-0.3,2.3-0.5
		c0.2,0.3,0.5,0.4,0.5,0.7c0.2,1.1,0.5,2.2,1,3.2c0.7,1.2,1.6,2.3,2.6,3.2c0.5,0.6,1.3,0.8,2.1,0.6c0.6-0.5,1.3-1.4,2.4-1.6l5.6-1
		l3-1.3c1.1,0,2.2-0.2,3.2-0.7c0.3-0.1,0.7-0.2,1-0.3c0.1,0,0.3,0.1,0.6,0.1c0.2,0.4,0.4,0.8,0.7,1.3c0.3,0.5,0.8,1,1.1,1.4
		c0.9,1.2,2.2,2,3.7,2.3c2.2,0.6,4.5,0.5,6.7-0.2c0.4-0.2,0.8-0.3,1.2-0.4c1.3-0.2,2.6-0.4,3.8-0.8c3.3-0.7,6.6-1.7,9.7-2.9
		c0.2-0.1,0.3-0.1,0.5-0.1c0.2,0,0.3,0,0.5,0.1c0.1,0.2,0.3,0.3,0.3,0.4c0.3,2,1.8,3.7,3.8,4.3c0.2,0.1,0.3,0.1,0.5,0.1
		c0.7-0.2,1.5-0.3,2.2-0.5c0.5-0.1,1-0.3,1.5-0.6c1-0.5,2-1,3.1-1.3c2-0.7,3.8-1.6,5.6-2.7c0.1-0.1,0.3,0,0.5,0
		c0.1,0.2,0.2,0.4,0.3,0.6c0.3,0.9,0.9,1.7,1.8,2.1c0.3,0.2,0.6,0.3,0.9,0.5c0.6-0.1,0.9-0.6,1.2-1s0.3-1,1-1l0.5,1.2
		c0.3,0.4,0.7,0.8,1,1.2c1.3,1.5,3.3,2.2,5.2,1.8c1.5-0.3,3-0.8,4.4-1.6c1.1-0.6,2-1.4,2.7-2.4c0.9-0.2,1.8-0.5,2.8-0.6
		c0.9-0.2,1.9-0.3,2.8-0.4c2.1-0.2,4.2-0.6,6.2-1.3c0.5,0,0.9,0.3,1.1,0.7c0.5,1,1.3,1.9,2.2,2.6c0.6,0.5,1.3,0.8,2.1,0.9
		c0.9,0.1,1.7,0,2.6-0.3c1.2-0.5,2.4-0.9,3.6-1.5c1.2-0.7,2.5-1.2,3.8-1.6c0.7-0.2,1.5-0.5,2.2-0.9c0.7-0.3,1.4-0.8,2.1-1.2
		c0.5-0.1,1-0.1,1.5-0.1c0.2,0,0.4,0.2,0.7,0.4c0.1,0.3,0.1,0.7,0.2,1c0.2,1.2,0.8,2.3,1.7,3.2c0.5,0.5,1,0.9,1.1,1
		c1.4,0.9,2.9,1.5,4.6,1.6c1.7-0.4,3.4-0.8,5.1-1.3c0.7-0.2,1.3-0.4,1.9-0.8c0.9-0.5,1.8-0.9,2.7-1.5c0.6-0.5,1.3-0.8,2.1-1
		c1.1,0.5,2.2,1.3,3,2.2l2.2,0.5c1.5-0.3,2.9-0.8,4.3-1.3c2.9-1.3,5.8-2.2,8.6-3.7c0.3-0.1,0.7-0.2,1-0.2c0.5,1.1,0,2.1,0,3.2
		c0.4,1.6,1.4,3,2.9,3.8l1.5,0.4c1.6-0.1,3.1-0.6,4.4-1.4c1.2-0.8,2.5-1.5,3.8-2.3c0.5-0.3,1-0.7,1.5-1.1c0.8-0.6,1.5-1.2,2.3-1.8
		c0.4-0.3,0.8-0.6,1.2-1c0.6-0.7,1.4-1.2,2.3-1.6c0.1,0.2,0.2,0.3,0.2,0.5c-0.3,0.9-0.4,1.9-0.4,2.8c0,1,0.3,1.9,1,2.6
		c0.1,0.1,0.3,0.2,0.4,0.4c0.7,1.1,1.9,1.9,3.2,2.2c0.9,0.1,1.8,0,2.8-0.2c0.8-0.4,1.6-0.7,2.4-1.1c0.6-0.3,1-0.9,1.7-1.1
		c0.8-0.3,1.6-0.7,2.3-1.2c0.8-0.6,1.8-0.5,2.6-1.1c0.4-0.3,0.9-0.5,1.4-0.4c0.6,1,1.4,2,2.3,2.8c1.2,0.8,2.6,1,4,0.8
		c2.1-0.3,4.1-0.7,6.1-1.2c1.3-0.2,2.5-0.7,3.6-1.3c1.5-0.1,3-0.4,4.4-0.9c0.7-0.2,1.3-0.5,2-0.7c1.2-0.3,1.8,0.3,1.5,1.6
		c0,0.2-0.2,0.5-0.2,0.7c0.4,1.3,0.7,2.5,1.2,3.7c0.3,0.9,0.9,1.7,1.6,2.3c0.3,0.2,0.7,0.3,1,0.2c1-0.7,1.9-1.5,2.7-2.4
		c1.1-1.7,2.4-3.2,3.7-4.7c0.1-0.1,0.2-0.3,0.3-0.4c0.5-0.7,1.1-1.4,1.7-1.9c0.6-0.5,1.2-1,1.7-1.6c0.7-0.8,1.3-1.7,2-2.4
		c0.5-0.5,0.9-1.1,1.3-1.7c0.6-0.7,1-1.5,1.2-2.3C348.3,133,347.2,132.1,346,132z M45.6,145.8C45.5,145.9,45.5,145.9,45.6,145.8
		c-0.1-0.1,0-0.2,0.1-0.1C45.6,145.8,45.6,145.8,45.6,145.8z M65.7,141.5c-0.1,0.1-0.2,0.1-0.3,0.2c-0.7,0.1-1.5,0-2.1-0.3
		c-1-0.6-2-1.1-3-1.7c-0.6-0.2-1-0.7-1.3-1.2c0.1-0.2,0.1-0.4,0.2-0.4c1.5-0.8,3.1-1.4,4.8-1.8c0.6-0.2,1.2-0.1,1.8,0.2
		c0.6,0.2,1,0.7,1,1.4C66.8,139.2,66.4,140.5,65.7,141.5z M87.1,145c-0.9,0.8-1.9,1.4-3,1.8l-0.6-0.8c0-0.7,0.2-1.4,0.6-2
		c0.9-1.4,1.5-3.1,3-4.2c0.2-0.1,0.3-0.1,0.5-0.2c0.1,0,0.2,0,0.2,0.1c0.5,0.7,1,1.5,1.3,2.3C88.6,143.2,88,144.2,87.1,145z
		 M116.6,142.7c-0.2,0.2-0.4,0.3-0.6,0.4c-0.2,0-0.4-0.1-0.5-0.2c-0.3-0.3-0.6-0.6-0.9-0.9l-0.3-2c0.1-0.4,0.4-0.8,0.8-1
		c0.6-0.4,1.3-0.8,2-1.3c0.5-0.1,1-0.2,1.5-0.4c0.5-0.1,0.8-0.6,1.6-0.5C119.3,138.9,118.1,140.9,116.6,142.7z M138.9,144.5
		c-0.7,0.4-1.6,0.4-2.3,0c-0.4-0.5-0.6-1.2-0.5-1.9c0.6-0.4,1.1-0.8,1.6-1.3c0.2-0.2,0.4-0.3,0.7-0.4c0.8-0.1,1.4-0.7,2.2-1l0.3,0.3
		C140.3,141.7,139.7,143.1,138.9,144.5z M193.4,142.3c-0.6,0.1-1.2,0.2-1.8,0.2c-1.6,0-3.1,0.4-4.6,0.5c-1,0.1-2,0.6-2.8,1.3
		c0,0-0.1,0.1-0.1,0.1c-0.2,0.1-0.5,0-0.6-0.2l0.4-1.2c1.3-1.2,2.8-2.1,4.4-2.8c0.4-0.2,0.8-0.3,1.2-0.3c0.6,0,1.2,0,2.1,0
		c0.3,0.1,0.9,0.3,1.4,0.6c0.3,0.2,0.6,0.4,0.8,0.6c0.1,0.2,0.2,0.5,0.2,0.7C194,142,193.7,142.3,193.4,142.3z M288.6,136.9
		c-2.8,1.8-5.5,3.6-8.2,5.5c-1,0.7-2.2,1.2-3.2,1.8c-1.1,0.7-2.3,1.2-3.6,1.5c-0.1,0-0.2,0-0.3,0v0c-0.1-0.2-0.3-0.4-0.3-0.6
		c0-0.3,0-0.7,0.1-1c0.2-1,0.6-2,1.1-2.9c1.5-2.7,3-5.5,4.8-8.1c0.2-0.3,0.4-0.6,0.6-0.9c0.2-0.3,0.5-0.5,0.8-0.7
		c2.3-0.3,4.7-0.3,7,0c0.3,0,0.7,0.1,1,0.1c1.7,0.1,3.4,0.4,5.1,0.8c0.3,0,0.5,0.3,0.5,0.6c-0.9,0.6-1.8,1.2-2.7,1.9
		C290.5,135.7,289.6,136.3,288.6,136.9z M334.3,145.7c-1-0.2-1.1-0.8-1.5-1.2c-0.4-0.5-0.8-0.9-1.2-1.4c0.2-0.2,0.2-0.5,0.4-0.6
		c0.9-0.4,1.7-0.8,2.6-1.1c1.4-0.5,2.7-1.2,4-1.8c0.3-0.1,0.5,0.1,0.5,0.5C337.3,141.7,336,143.8,334.3,145.7z"/>
	<path class="st0" d="M227.6,127c0.4-1-0.1-2.1-1.1-2.5c-0.7-0.4-1.5-0.4-2.3-0.1c-0.3,0.1-0.6,0.4-0.6,0.8c0,0.3,0,0.5,0.1,0.8
		c0.3,0.6,0.7,1.2,1.1,1.8l1.5,0.4v0C226.9,128,227.4,127.6,227.6,127z"/>
	<path class="st0" d="M166.3,126.1l-1.5,0.3c-0.1,0.2-0.2,0.3-0.3,0.5c0,0.2,0,0.3,0,0.5c0.1,0.8,0.5,1.5,1.1,2
		c0.5,0.5,1.1,0.7,1.8,0.5l0.8-0.7c0.4-1,0.8-1.9-0.2-2.8L166.3,126.1z"/>
	<path class="st0" d="M262.6,122.7c-0.5,0.1-0.9,0.5-0.8,1c0.1,0.3,0.3,0.8,0.5,1.3c0,0.1,0.1,0.2,0.1,0.2c0.5,0.9,1.6,1.1,2.5,0.6
		c0.2-0.1,0.5-0.3,0.7-0.5c0.2-0.7,0.2-1.4-0.2-2.1C264.6,122.8,263.6,122.5,262.6,122.7z"/>
	<path class="st0" d="M307.3,123.2c-0.6,0.1-0.9,0.4-1.1,1.1c1.3,1.8,1.3,1.8,2.2,2.4c0.7-0.2,0.9-0.3,1-0.6c0.4-0.7,0.4-1.5,0-2.2
		C308.9,123.4,308.1,123.1,307.3,123.2z"/>
</g>
</svg>
