<?xml version="1.0" encoding="utf-8"?>
<!-- Generator: Adobe Illustrator 20.1.0, SVG Export Plug-In . SVG Version: 6.00 Build 0)  -->
<svg version="1.1" id="disc-1" xmlns="http://www.w3.org/2000/svg" xmlns:xlink="http://www.w3.org/1999/xlink" x="0px" y="0px"
	 viewBox="0 0 497.4 244" style="enable-background:new 0 0 497.4 244;" xml:space="preserve">
<style type="text/css">
	.st0{fill:#6E5C7F;}
</style>
<g id="disc-group">
	<path class="st0" d="M496.7,102.5c-0.5-0.2-1-0.4-1.5-0.5c-3.1-0.3-6.2-0.5-9.4-0.8c-0.9-0.3-1.4-1.2-1.2-2.2
		c0-0.1,0.1-0.2,0.1-0.2c0.7-1.4,1.6-2.7,2.6-3.9c0.6-0.5,1-1.2,1.4-1.9c1.2-2.6,2.1-5.3,2.6-8.2c0.1-0.5,0.1-1,0.1-1.6
		c-0.1-1.3-0.9-2.5-2.1-3c-0.5-0.2-1-0.3-1.5-0.4c-1.5-0.3-3.2,0-4.5,0.8c-1.1,0.6-2.2,1.3-3.2,2.2c-2.2,1.9-4.1,4-5.7,6.4
		c-1.7,2.3-3.1,4.8-4.4,7.4c-0.5,1.2-1.1,2.3-1.7,3.5c-0.4,1-1.2,1.7-2.3,1.9c-1.8,0.4-3.6,0.7-5.4,0.8c-0.8,0-1.6,0.1-2.3,0.4
		c-0.5,0.2-0.8,0.6-0.8,1.2c0,0.5,0.1,1,0.5,1.4c0.6,0.8,1.5,1.4,2.5,1.7c0.5,0.1,1,0.3,1.5,0.4c0.2,0.1,0.5,0.3,0.6,0.5
		c0.1,0.5,0,1-0.4,1.3c-1.1,1.3-2.7,1.5-4,2.3c-1.3,0.9-2.6,1.8-3.9,2.6c-3.1,1.9-6.5,3.4-10,4.4c-1.6,0.4-3.2-0.5-3.6-2.1
		c-0.3-1-0.3-2.1-0.1-3.1c0.4-1.3,0.9-2.5,1.5-3.6c0.4-0.9,0.6-2,0.6-3c0-0.8-0.4-1.5-1.1-2c-1.1-0.7-2.6-0.7-3.7,0.1
		c-0.2,0.1-0.4,0.3-0.6,0.5c-0.7,1.4-1.4,2.8-2,4.2c-0.3,0.7-0.7,1.4-1.1,2.1c-0.5,0.6-1.1,1.1-1.9,1.3c-0.4-0.3-0.8-0.6-1.2-1
		c-0.3-0.4-0.6-0.9-0.9-1.3c-1.1-1.3-2.6-2.1-4.3-2.2c-0.7,0-1.4,0-2.1,0.1c-2,0.5-3.9,1.4-5.5,2.8c-2.3,2.1-4.5,4.4-6.5,6.8
		c-0.2,0.2-0.3,0.4-0.4,0.7c-0.4,0.7-0.3,1.6,0.1,2.2c0.1,0.2,0.3,0.5,0.4,0.7c1.2,1.4,2.9,2.3,4.7,2.7c0.2,0.1,0.5,0.1,0.8,0
		c2.8-0.4,5.6-1.3,8.1-2.6c2.5-1.4,5-2.8,7.5-4.2c0.7-0.3,1.6-0.1,2.1,0.5c1.2,1.7,2.8,3.1,4.6,4.2c1.8,1.1,4,1.4,6,0.8
		c3-0.8,5.9-2.1,8.6-3.8c2.2-1.4,4.5-2.7,6.7-4c0.5-0.2,1-0.2,1.5-0.2c0.6,0,0.9,0.3,1.2,0.9c0.7,1.5,0.4,3.1,0.9,4.6
		c0.3,1.3,1.2,2.3,2.5,2.8c1,0.2,2.1-0.2,2.6-1.1c0.4-0.9,0.6-2,0.5-3c-0.1-1.3-0.4-2.6-0.5-3.9c-0.1-0.8-0.1-1.6,0.2-2.3
		c0.3-1,0.7-2,1.1-2.9c0.2-0.5,0.5-0.9,0.9-1.2c1.2-1,2.5-1.9,3.8-2.8c0.9-0.6,1.9-0.9,2.9-1c4.7-0.3,9.3-1,14-0.8
		c0.8,0,1.6-0.1,2.3-0.2c0.5-0.1,1-0.3,1.4-0.6c0.5-0.2,0.8-0.7,0.8-1.2C497.4,102.8,497,102.6,496.7,102.5z M418,120
		c0-0.1,0.1-0.3,0.2-0.4s0.3-0.1,0.4-0.1C418.5,119.9,418.3,120.1,418,120z M424.4,116.5c-0.7,0.7-1.5,1.5-2.2,2.2
		c-0.9,0.9-2.2,1.2-3.4,0.8c-0.1-0.5,0.1-0.9,0.4-1.3c1.1-1.4,2.5-2.6,4.1-3.5c0.4-0.3,0.9-0.3,1.4-0.1
		C425.1,114.8,425.1,115.8,424.4,116.5z M476.8,100.5L476.8,100.5c-0.4,0.2-1,0.2-1.4-0.2c-0.4-0.3-0.6-0.8-0.5-1.4
		c0.1-0.2,0.1-0.5,0.1-0.8s0.1-0.5,0.2-0.7c2.5-4.5,5.2-8.9,9.4-12c0.6-0.5,1.3-0.8,2.1-0.8c0.5,0,0.9,0.4,1.1,0.8
		c0,0.5-0.1,1-0.3,1.5c-1.2,2.6-2.6,5-4.2,7.4C481.8,96.9,479.5,99,476.8,100.5z"/>
	<path class="st0" d="M302.4,116.2c0.7,1,1.4,2.1,2.2,3.1c0.9,1.3,2.2,2.2,3.7,2.8c0.7,0.3,1.5,0.6,2.2,0.8c1.9,0.5,3.6-0.8,5.3-1.4
		c2.2-0.8,4.5-1.3,6.7-2.1l1.5-0.6c0,0.2,0,0.3,0.1,0.4c0.3,1.8,1.4,3.4,3,4.4c1.1,0.7,2.3,1.2,3.6,1.3c1.6,0.2,3.1,0.1,4.7-0.2
		c2-0.5,4-1,6-1.6s4-1.2,6-1.8c2-0.7,3.9-1.6,5.9-2.1s4-1.1,6-1.7c0.8-0.2,1.6-0.1,2.2,0.4s1.2,1,1.7,1.6c1.6,1.7,3.7,3,5.9,3.7
		c1.7,0.6,3.6,0.6,5.4,0c2.2-0.8,4.4-1.7,6.4-2.9c0.4-0.3,0.7-0.7,0.9-1.2c0.1-0.2,0.1-0.4,0-0.7c-0.1-0.2-0.3-0.3-0.6-0.3
		c-1.3-0.1-2.6,0.1-3.8,0.6c-2,0.6-4.1,0.8-6.2,0.5c-1.8-0.3-3.4-1.5-4.1-3.2c-0.3-1-0.1-2.1,0.4-3c0.4-0.4,0.7-0.8,1.1-1.1
		c1.3-1.3,2.6-2.5,3.9-3.8c1.8-1.9,3.2-4.1,4.1-6.6c0.3-1.3-0.2-2.6-1.4-3.3c-1.4-0.8-3.1-0.9-4.5-0.2c-3.1,1.3-5.7,3.8-7.3,6.8
		c-1,1.9-1.8,3.8-2.7,5.6c-0.5,0.9-1.2,1.7-2.2,2.2c-1.4,0.8-2.8,1.4-4.3,1.8c-1,0.2-2,0.5-3,0.8c-4.9,1.7-10,2.9-14.9,4.6
		c-0.5,0.2-1,0.3-1.5,0.3c-1,0.2-2.1,0.2-3.1,0.1c-1.1-0.1-2-1-2-2.2c0-0.2,0-0.4,0.1-0.6c0.5-1.2,1.1-2.4,1.9-3.4
		c0.7-0.8,1.6-1.3,2.7-1.4c0.8,0,1.6-0.1,2.3-0.1c0.8-0.1,1.5-0.6,1.9-1.2c0.5-0.9,1-1.8,1.4-2.8c0.1-0.5,0.2-1,0.2-1.5
		c-0.1-1-0.8-1.9-1.9-2.2c-1-0.2-2.1-0.2-3.1-0.1s-2,0.5-2.8,1.2c-2.2,2.2-4.3,4.5-6.1,7.1c-0.3,0.4-0.6,0.9-0.9,1.3
		c-1.4,0.9-2.9,1.6-4.5,2.3c-2.7,1.2-5.5,1.1-8.4,1.8c-1.3,0.3-2.7-0.2-3.5-1.3c-0.7-0.8-1.1-1.8-1.2-2.8c0-0.3-0.1-0.5,0-0.8
		c-0.1-2.4,0.2-4.7,0.7-7c0.3-1,0.5-2,0.6-3.1c-0.1-1-0.9-1.9-1.9-2.2c-1.8-0.3-3.7,0-5.3,1c-3.6,2.2-7.1,4.4-10.1,7.4
		c-0.5,0.6-1.3,0.9-1.8,1.5c-2,2.2-4.8,3-7.6,3.8c-2.9,0.3-5.5,1.5-8.4,1.9c-1.8,0.3-3.5,1.1-5.3,1.3c-1.6,0.2-3.1,0.1-4.6-0.4
		c-0.7-0.3-1.4-0.8-1.8-1.4c-0.3-0.7-0.2-1.5,0.2-2.2c0.3-0.4,0.7-0.7,1.2-1c4.5-2.7,8.4-6.3,11.5-10.4c1.5-1.8,2.6-3.9,3.1-6.2
		c0.2-1.3,0.7-2.5,1-3.8c0.2-0.8,0.3-1.5,0.4-2.3c0.2-1.8-0.5-3.7-1.8-5c-1.1-1.2-2.8-1.5-4.3-0.8c-1.9,0.8-3.6,2-5,3.6
		c-1.7,2-3.4,3.9-5,6c-1.7,2.3-3.3,4.7-4.7,7.2c-1.5,2.5-2.6,5.2-3.1,8c-0.2,0.8-0.4,1.5-0.8,2.2c-0.2,0.5-0.6,0.9-1,1.2
		c-0.8,0.7-1.7,1.2-2.6,1.6c-2.2,0.7-4.2,2-6.4,2.8l-2.9,1.1c-0.7,0.2-1.4-0.2-1.6-0.8c0-0.1,0-0.1,0-0.2c-0.1-2.1-0.2-4.2-0.4-6.2
		c-0.2-1.6-0.8-3.1-1.8-4.2c-0.8-1-2-1.7-3.3-1.9c-1-0.1-2.1-0.1-3.1-0.1c-1.6,0-3.1,0.6-4.3,1.6s-2.7,1.7-4.2,1.9
		c-1,0.2-1.9,0.9-2.3,1.9c-1.1,2.1-1.3,4.5-2.5,6.6c-1.3,3.7-2.6,7.4-3.6,11.2c-0.5,2-1.2,4-2.1,5.9c-0.9,1.9-1.6,3.8-2.2,5.9
		c-0.6,1.7-0.9,3.6-0.9,5.4c0,0.8,0.2,1.5,0.6,2.2c0.5,0.6,1.2,1,2,1c0.8-0.1,1.5-0.5,1.9-1.2c0.6-1.7,1.2-3.4,1.7-5.2
		c1.4-6.1,3.9-11.9,6-17.7c0.4-0.9,1.4-1.3,2.2-0.9c0.1,0,0.2,0.1,0.3,0.2c2.1,1.6,4.7,2.3,7.3,2.2c2.6,0,5.2-0.5,7.6-1.5
		c3.6-1.5,7.4-2.6,10.8-4.6c1.1-0.6,2.3-1.2,3.6-1.6c1-0.4,2.1-0.2,3,0.4l3.2,2.2l3.7,1.3c1.2,0.4,2.6,0.5,3.9,0.2
		c1.8-0.3,3.6-0.7,5.3-1.2c2.2-0.8,4.5-1.1,6.8-2c1.2-0.4,2.5-0.7,3.8-0.8c1.3-0.3,2.6,0,3.7,0.8c0.6,0.5,1.2,1,1.8,1.5
		c1.8,1.2,4,1.4,6,0.4c1.6-0.8,3.1-1.9,4.5-3.2C300.4,117.1,301.3,116.5,302.4,116.2z M262.8,105c1.4-3.1,3.1-6,5.1-8.6
		c1.3-1.6,2.5-3.3,3.7-4.9c0.5-0.6,1.1-1.1,1.7-1.5c0.4-0.3,0.9-0.4,1.4-0.4c0.5,0.1,0.7,0.7,0.8,1.2c0,0.5,0.1,1,0.1,1.5
		s-0.1,1-0.2,1.5c-0.7,2.5-1.9,4.8-3.4,6.9c-1,1.2-1.9,2.5-2.9,3.6c-1.3,1.6-3.1,2.8-5.1,3.4c-0.6,0.2-1.2-0.2-1.4-0.8
		c0-0.1-0.1-0.3,0-0.5C262.6,106.1,262.6,105.5,262.8,105z M235.7,116.8L235.7,116.8c-0.1,1-0.5,2-1.2,2.8c-0.8,1-2.2,1.5-3.5,1.1
		c-1.5-0.4-2.9-1.2-4.1-2.1c-0.6-0.5-0.8-1.3-0.6-2.1c0.7-2,1.8-3.8,3.2-5.3c1.1-1.1,2.5-1.9,4-2.3c1.1,0.7,1.9,1.8,2,3.2
		C235.8,113.6,235.8,115.2,235.7,116.8z"/>
	<path class="st0" d="M27.7,147c0.2-0.1,0.5-0.2,0.7-0.4c2.3-1.3,4.3-3.1,5.8-5.2c1.8-2.5,3.7-5.1,5.3-7.7c0.9-1.6,1.7-3.2,2.4-4.9
		c0.8-1.9,1.6-3.8,2.4-5.8c0.6-1.5,1.7-2.7,3.2-3.3c2.9-1.1,5.9-2.2,8.8-3.3c0.5-0.2,1-0.4,1.5-0.5c2.8-0.5,5.5-1.6,8.3-2.2
		c0.8-0.1,1.6-0.1,2.3,0c0.3,0,0.5,0.1,0.7,0.2c0.4,0.3,0.7,0.8,0.7,1.3c-0.3,1.3-0.8,2.5-1.1,3.7c-0.3,1.3,0,2.7,0.8,3.7
		c0.9,1.3,2.3,2.2,3.8,2.5c2.1,0.4,4.2,0.3,6.2-0.4c3.2-1.1,6.3-2.7,9-4.7c0.6-0.5,1.2-0.9,1.9-1.4c0.7-0.4,1.4-0.7,2.2-0.7
		c1.3,0,2.6-0.2,3.9-0.6c1.4-0.6,2.9-1,4.4-1.2c0.4,0.3,0.7,0.8,0.7,1.3c0,0.8,0,1.6,0,2.3c0.1,1.8,1,3.6,2.4,4.7
		c0.2,0.2,0.4,0.3,0.7,0.4c2.2,1,4.7,1,6.8-0.1c2.5-1.4,4.9-3.1,6.9-5.1c0.6-0.5,1.2-1,1.9-1.4c0.6-0.4,1-0.3,1.3,0.3
		c0.5,1.2,1,2.4,1.5,3.6c0.2,0.5,0.5,0.9,0.9,1.3c1.8,2,4.6,2.8,7.2,2.2c3.1-0.7,6.1-1.6,8.9-2.9c3.1-1.4,6.2-2.7,9.3-4.1
		c0.7-0.3,1.4-0.6,2.1-1c4.1-2.3,8.3-4.4,12.2-7c0.7-0.4,1.6-0.3,2.2,0.2c0.6,0.5,1.1,1.1,1.5,1.8c0.6,0.9,0.8,2,0.4,3
		c-0.5,1.5-1.2,2.9-1.8,4.3c-0.2,0.8-0.2,1.6,0.2,2.3c0.4,1,1.1,1.8,2,2.3c1.2,0.6,2.4,1,3.3,1.3c0.4,0.1,0.7,0.1,1.1,0.1
		c0.8-0.1,1.5-0.3,2.3-0.3c2.1-0.1,4.2-0.5,6.1-1.3c1.2-0.5,2.5-0.9,3.6-1.4c0.4-0.3,0.8-0.6,1.1-1.1c0.4-0.7,0.4-1.5-0.1-2.2
		c-0.2-0.5-0.8-0.8-1.3-0.7c-2.3,0.4-4.6,0.9-6.8,1.6c-0.8,0.2-1.5,0.3-2.3,0.4c-0.5,0-1,0-1.5-0.1c-0.9-0.2-1.5-1.1-1.3-2
		c0-0.1,0.1-0.3,0.1-0.4c0.2-0.5,0.5-0.9,0.8-1.4c1-1.6,0.9-3.7-0.4-5.1c-0.5-0.6-1-1.2-1.5-1.8c-0.8-1-1.4-2.2-1.6-3.5
		c-0.1-0.5-0.2-1-0.4-1.5c-0.3-1-1.1-1.8-2.1-2.1c-1-0.5-2.1-0.4-3,0.3c-1.4,1.1-2.7,2.4-4.1,3.6c-3.8,3.3-8,5.9-12.5,7.9
		c-3.1,1.4-6.1,2.9-9.2,4.3c-0.7,0.4-1.4,0.7-2.2,0.9c-2,0.5-4.1,0.9-6.1,1.3c-0.5,0-1-0.1-1.5-0.3c-0.9-0.5-1.4-1.5-1.4-2.6
		c0.6-1.5,1.1-2.9,1.7-4.4c0.4-0.9,0.8-1.9,1.1-2.9c0.1-1-0.5-2-1.5-2.4c-1.8-0.6-3.7-0.3-5.2,0.8c-1.1,0.7-2.1,1.5-3.1,2.4
		c-1.6,1.4-3.1,2.8-4.6,4.2c-1.4,1.2-2.8,2.3-4.4,3.2c-0.7,0.4-1.4,0.7-2.2,0.9c-0.4,0.3-0.9,0.1-1.2-0.3c0-0.1-0.1-0.1-0.1-0.2
		c-0.3-0.4-0.4-1-0.2-1.5c0.3-1,0.8-2,1.4-2.8c1.7-2,3.4-4,5.1-6c0.3-0.4,0.6-0.9,0.8-1.3c0.2-0.7,0-1.6-0.5-2.1
		c-0.8-0.7-1.9-0.9-2.9-0.4c-2.1,1-4.1,2.3-6.1,3.4c-3.4,1.9-7.1,3.2-11,3.9c-0.8,0-1.5-0.4-1.9-1.1c-0.6-1.5-1.3-2.9-2.1-4.2
		c-0.6-0.8-1.4-1.5-2.4-2c-0.4-0.3-1-0.4-1.5-0.3c-2,0.7-4.1,0.8-6.2,0.3c-0.3,0-0.5,0-0.8,0c-0.8,0-1.6,0.2-2.2,0.6
		c-0.5,0.3-0.9,0.6-1.2,0.9c-1.5,1.5-3.4,2.4-5.6,2.6c-7.3,1.8-14.8,3.3-21.8,6.1c-0.2,0.1-0.5,0.1-0.8,0.1c-0.5,0.1-0.9-0.3-1-0.8
		V115c-0.1-0.5,0-1,0.1-1.5c0.8-2.2,1.8-4.3,3-6.4c0.7-1.1,1.2-2.3,1.8-3.5c0.1-0.8-0.2-1.5-0.8-2c-1.5-0.7-3.2-0.8-4.5,0.2
		c-5.4,4.6-11.5,8.1-17.7,11.4c-0.9,0.5-1.8,1-2.8,1.4c-2.2,0.9-4.3,2-6.3,3.2c-1.4,0.8-2.8,1.4-4.3,1.8c-0.3,0-0.5,0-0.8,0
		c-0.8-0.2-1.2-1-1-1.8l0,0c1.5-2.7,3.1-5.4,4.6-8.2c0.5-0.9,0.7-2,0.5-3c-0.2-0.8-0.7-1.4-1.3-1.8c-2.2-0.8-4.6-0.9-6.9-0.3
		c-2.8,0.7-5.5,1.6-8.2,2.5c-0.5,0.1-1,0.4-1.4,0.8c-0.3,0.3-0.6,0.7-0.8,1.2c-0.1,0.2-0.1,0.5,0,0.8c0.3,0.4,0.7,0.7,1.1,1
		c0.5,0.2,1,0.3,1.5,0.3c1.8,0.1,3.7-0.2,5.3-1c0.7-0.3,1.4-0.6,2.2-0.9c0.7-0.2,1.4,0.1,1.7,0.8c0.1,0.3,0.1,0.7,0,1
		c-0.7,1.4-1.6,2.7-2.6,3.9c-0.6,0.8-1.2,1.7-1.8,2.6c-0.9,1.6-0.8,3.7,0.4,5.2c0.5,0.6,1.1,1.1,1.9,1.4c2.4,1,5.2,1,7.6,0
		c1.2-0.5,2.4-1,3.6-1.7c5.7-3.2,11.7-5.9,17.3-9.2c0.9-0.5,1.9-0.9,3-1c0.3,0.4,0.5,0.9,0.4,1.4c-0.1,1.3-0.8,2.5-1.1,3.7
		c-0.2,1.3-1.1,2.4-2.2,3.1c-2.5,1.4-4.9,3-7.3,4.6c-3.8,2.4-6.9,5.6-9.1,9.5c-0.6,1.1-1.3,2.3-1.9,3.4c-0.7,1.4-0.9,3-0.8,4.6
		c0,0.5,0.2,1,0.4,1.5C21.1,147,24.6,148.3,27.7,147z M74.5,118.6c0-0.3,0.1-0.5,0.2-0.8c0.7-1.9,1.8-3.7,3.2-5.2
		c0.4-0.3,0.8-0.6,1.3-0.8c0.2,0.1,0.4,0.3,0.6,0.5c1,1.2,1.9,2.4,2.6,3.8c0.3,0.7,0.1,1.5-0.5,2.1c-0.4,0.3-0.8,0.6-1.3,0.8
		c-1.4,0.5-2.9,1-4.4,1.5C75.3,120.8,74.2,119.7,74.5,118.6z M24.2,141.3c0-0.5,0-1,0-1.5c0-0.3,0.1-0.5,0.2-0.7
		c2.2-4.4,5.3-8.2,9.2-11.2c0.4-0.3,0.9-0.5,1.3-0.8c0.4-0.3,1-0.3,1.4,0c0.4,0.2,0.5,0.7,0.3,1.1c0,0.1-0.1,0.1-0.1,0.1
		c-2.1,4.2-4.7,8.1-7.6,11.8c-0.8,1-1.8,1.8-3,2.2C25.4,142.6,24.3,141.9,24.2,141.3z"/>
	<path class="st0" d="M94.3,5.4c1.5-0.3,3-0.9,4.5-1.2c1.8-0.1,3.6-0.4,5.4-0.7c0.5-0.1,1-0.1,1.5,0.1c1.5,0.3,3.1,0.7,4.6,1
		c1,0.2,2,0.6,2.9,1.1c1.4,0.7,2.8,1.5,4.1,2.2c0.5,0.2,0.9,0.5,1.3,0.9c2,1.7,3.8,3.6,5.4,5.7c1.4,1.9,2.6,3.9,3.8,5.9
		c1.1,1.8,2,3.7,2.6,5.7c0.3,1,0.5,2,0.5,3.1c0.2,1.3-0.6,2.6-1.9,3c-2.8,0.8-5.5,1.6-8.2,2.5c-2.2,0.7-4.4,1.6-6.5,2.8
		c-1.9,1-3.5,2.3-4.7,4c-0.6,0.9-1.4,1.6-1.9,2.5c-1.1,1.8-1.3,4-0.6,6c0.2,0.5,0.5,0.9,0.9,1.3c1.6,1.3,3.7,2.1,5.8,2
		c1.3,0,2.6-0.2,3.8-0.6c2.2-0.9,4.4-1.7,6.5-2.8c4.3-2.1,7.7-5.6,9.6-9.9c0.3-0.7,0.6-1.4,1-2.1c1-2.1,1.7-2.6,4.1-3.3
		c1.5-0.4,3.1-0.6,4.6-0.6c2.6-0.1,5.2-0.5,7.7-1.3c0.3-0.1,0.5-0.1,0.8-0.1c1.1-0.1,2,0.7,2.1,1.7c-0.1,1.8,0,3.7,0.2,5.5
		c0.1,0.5,0.3,1,0.5,1.5c1,1.9,2.7,3.3,4.7,3.9c0.5,0.2,1,0.3,1.5,0.3c2.9,0.1,5.7,0.1,8.4-1.2c1.2-0.5,2.4-0.9,3.6-1.4
		c3.6-1.6,7.1-3.2,10.7-4.7c3.4-1.3,6.7-3,9.7-5c0.2-0.1,0.5-0.2,0.7-0.3c0.7-0.3,1.6-0.1,2.1,0.5l0.4,0.7c2.9,4.4,3.4,4.9,8,7.2
		c0.9,0.5,1.9,0.9,2.8,1.3c1.2,0.5,2.5,0.9,3.8,0.9c1.3,0.1,2.6,0.1,3.9,0.2c1.6,0,3.1-0.2,4.6-0.6c4.3-1.1,8.5-2.6,12.6-4.3
		c0.7-0.3,1.5-0.5,2.2-0.7c0.8,0,1.5,0.3,1.9,1c0.3,1,0.5,2,0.6,3.1c0.5,2.9,2.4,5.3,5.2,6.3c1.7,0.7,3.7,0.7,5.3-0.2
		c5-2.8,10-5.6,15-8.5c1.3-0.8,2.5-1.9,3.8-2.8c0.4-0.3,0.9-0.5,1.4-0.6c0.1,0,0.4,0.4,0.4,0.6c0,0.8-0.1,1.6-0.4,2.3
		c-0.3,1-0.1,2.1,0.3,3c0.9,1.9,2.6,3.3,4.6,3.9c0.5,0.1,1,0.1,1.5-0.1c2.2-0.7,4.4-1.7,6.4-2.9c2.8-1.5,5.5-3,8.4-4.2
		c6.2-2.6,12.4-5.5,18.5-8.6c0.5-0.3,1.7,0.4,1.8,1c0.4,2.6-0.1,5.2,0.2,7.8c0.1,1.3,0.7,2.5,1.8,3.3c1.3,0.9,3.1,0.6,4.1-0.7
		c0,0,0,0,0-0.1c0.4-0.6,0.7-1.3,1.1-2c1.2-2.3,2.8-4.4,4.7-6.2c1.1-1.1,2.7-1.7,4.3-1.4c0.8,0.1,1.5,0.3,2.3,0.5
		c2.9,1.1,5.9,2.2,8.8,3.1c0.7,0.3,1.4,0.8,1.8,1.5c0.3,0.4,0.6,0.9,0.8,1.4c1.4,2.8,4,4,6.8,4.7c2,0.5,4.2,0.5,6.2-0.1
		s4.1-0.8,6.1-1.4c1.5-0.4,2.9-1.3,4.3-1.8c3.9-1.5,7.7-3.3,11.5-5c3.6-1.5,7-3.6,9.9-6.2c0.2-0.2,0.4-0.3,0.7-0.4
		c0.6-0.5,1.5-0.5,2.1,0c1.5,1.3,2,3,0.7,4.8c-0.6,0.8-1.2,1.7-1.8,2.5c-0.7,1.1-0.8,2.5-0.2,3.7c0.7,1.4,1.7,2.7,2.9,3.6
		c1.2,1.1,2.7,1.7,4.2,1.8c1.6,0,3.1,0,4.7,0c1.8-0.1,3.6-0.4,5.4-1c1.7-0.6,3.4-1.3,5.1-2.1c0.5-0.2,0.9-0.5,1.3-0.8s0.7-0.7,1-1.2
		c0.4-0.4,0.5-0.9,0.3-1.4c-0.3-0.5-0.9-0.7-1.4-0.5c-2.3,0.5-4.5,1.1-6.8,1.8c-2.5,0.8-5.1,1.1-7.7,0.9c-0.8-0.1-1.5-0.3-2.2-0.6
		c-0.9-0.6-1.3-1.7-1-2.7c0.5-1.2,1.4-2.2,2-3.3c0.5-0.9,0.5-2.1,0-3c-0.2-0.5-0.5-0.9-0.8-1.3c-0.8-1.1-1.4-2.2-1.9-3.4
		c-0.5-1.2-0.7-2.5-0.5-3.8c0.1-0.5,0.3-1,0.4-1.5c0-1.1-0.7-2.1-1.6-2.5c-1-0.4-2.1-0.2-2.8,0.6c-0.9,1.3-1.7,2.6-2.6,3.9
		c-1.3,2-3,3.6-5,4.9c-1.1,0.7-2.1,1.5-3.2,2.2c-0.9,0.6-1.7,1.2-2.6,1.7c-6,3.1-12.4,5.5-18.9,7.3c-2.3,0.6-4.7,0.7-7,0.3
		c-0.8-0.2-1.5-0.5-2-1.1s-0.5-1.5,0-2.1c0.6-0.5,1.2-1,1.8-1.4c1.9-0.9,3.7-1.9,5.4-3.2c0.6-0.4,1.2-0.9,1.8-1.5
		c1.2-1.1,1.8-2.6,1.8-4.2c-0.1-1.6-0.3-3.1-0.7-4.6c-0.4-1.3-1.6-2.2-2.9-2.2c-0.8,0-1.6,0.2-2.2,0.5c-1.5,1-3.1,2-4.6,3
		c-1.7,1.2-3.2,2.7-4.4,4.4c-0.7,1.1-1.4,2.2-2.1,3.3c-0.5,0.6-1.3,1-2.1,0.9c-0.8,0-1.6-0.1-2.3-0.3c-2-0.7-3.9-1.5-5.9-2.2
		c-1.2-0.4-2.5-0.7-3.8-0.9c-2.1-0.4-4.2,0-6,1.1c-0.2,0.1-0.4,0.3-0.7,0.4c-1.3,0.7-1.9,0.4-2.1-1c0-1-0.2-2.1-0.4-3.1
		c-0.6-1.6-3.2-2.8-4.5-2c-2.2,1.3-4.5,2.7-6.7,4.1c-2.8,1.9-5.8,3.6-8.8,5.1c-0.5,0.2-1,0.4-1.5,0.5c-0.8,0-1.5-0.5-1.7-1.2
		c-0.1-0.8-0.1-1.6-0.2-2.3c-0.1-1.3-0.5-2.6-1.2-3.7c-0.6-1.2-1.7-2-3-2.2c-2.1-0.5-4.2-0.1-6,1c-0.5,0.3-0.9,0.6-1.3,0.9
		c-1.1,0.8-2.4,1.1-3.7,1c-1,0-2.1,0.2-3,0.7c-1.9,0.9-3.6,2.1-5.1,3.5c-2.6,2.6-5.6,4.8-8.9,6.4c-0.9,0.5-1.8,1-2.7,1.6
		c-2.9,1.8-6,3.2-9,4.7c-1,0.4-1.9,0.7-2.9,1c-1.1,0.1-2.1-0.4-2.6-1.4c-0.4-0.7-0.5-1.5-0.4-2.3c0.2-1.5,0.6-3.1,1-4.6
		c0.7-2.3,1.7-4.4,4-5.5c0.5-0.2,0.9-0.5,1.2-0.9c1.5-1.8,3-3.6,4.3-5.6c0.5-1,0.1-2.1-0.8-2.7c-0.2-0.1-0.5-0.2-0.8-0.2
		c-1.5-0.3-3.2,0.1-4.4,1.1c-3.3,2.6-6,5.9-8,9.6c-0.1,0.2-0.3,0.5-0.4,0.6c-0.4,0.4-0.8,0.7-1.2,1c-0.6,0.5-1.3,0.8-2.1,1.1
		c-2.3,0.6-4.3,1.8-6.6,2.4c-2.3,0.7-4.5,1.4-6.7,2.1c-0.5,0.1-1,0.2-1.5,0.3l-6.9,0.9c-1.3-0.4-2.6-0.6-3.7-1.5
		c-0.5-0.3-0.6-0.9-0.3-1.4l0,0c1.4-2.5,3.2-4.8,4.8-7.1c1.6-2.4,3-4.9,4.2-7.5c0.3-0.7,0.5-1.5,0.5-2.3c0.3-2.1-1.2-4.1-3.3-4.5
		c-1-0.2-2.1-0.2-3.1,0.1c-2.8,0.8-5.4,2.1-7.8,3.6c-2.4,1.6-4.7,3.3-6.9,5.1c-1.5,1.4-3.2,2.7-4.9,3.9c-3.1,2-6.2,3.8-9.5,5.4
		c-5.2,2.5-10.5,4.7-15.9,6.7c-1.5,0.5-3,0.9-4.5,1.3c-0.8,0.1-1.6-0.1-2.1-0.7c-0.6-0.5-1-1.2-1.4-1.8c-0.5-0.9-0.6-2-0.3-3
		c1.1-3.3,2.9-6.1,6-7.9c0.2-0.1,0.5-0.3,0.7-0.4c0.2-0.2,0.4-0.4,0.6-0.5c0.4-0.7,0.4-1.5-0.1-2.1c-0.9-1-2.3-1.4-3.5-0.9
		c-0.7,0.2-1.4,0.6-2.1,1c-2.5,2.1-5.5,2.9-8.5,3.8c-1.8,0.5-3.5,1-5.3,1.5c-0.8,0.2-1.5,0.3-2.3,0.4c-2.1,0.1-4.2,0.2-6.3,0.3
		c-0.3,0-0.5-0.1-0.8-0.1c-0.7-0.2-1.4-0.7-1.8-1.4c-0.9-4.6-3-8.9-6-12.6c-0.3-0.4-0.5-0.9-0.7-1.4c-0.4-0.7-0.9-1.3-1.4-1.9
		c-2.2-2.6-4.6-5-7.2-7.2c-0.6-0.5-1.3-0.9-1.9-1.3c-0.9-0.6-1.8-1.1-2.7-1.6c-2.7-1.7-5.8-2.2-8.8-3.1c0.3-1,0-1-0.2-1
		c-2.6,0.1-5.2,0.2-7.8,0.4c-1.6,0.2-3.1,0.5-4.6,0.9c-1,0.2-2,0.6-3,1c-0.2,0.1-0.5,0.2-0.7,0.3c-0.7,0.3-0.7,1.1,0.1,1.9
		C91.7,5.4,93,5.7,94.3,5.4z M129.1,37.9c0,0.3-0.1,0.5-0.1,0.8c-1.5,3-3.7,5.6-6.4,7.6c-1.5,1-3.1,1.8-4.9,2.3
		c-0.7,0.2-1.5,0.4-2.5,0.6l-1.3,0.2c-0.8,0.1-2.1-1.3-1.9-2c0.4-2,1.5-3.8,3.2-5.1c2.9-2.2,6.1-3.9,9.5-5.2c1-0.4,2-0.5,3-0.4
		c0.2,0,0.5,0.1,0.7,0.2C128.9,36.8,129.2,37.3,129.1,37.9z M349.4,24.7c0.2,0,0.4,0.3,0.6,0.4c0,0.2-0.1,0.4-0.1,0.6
		c-0.6,1.1-1.6,2-2.8,2.5c-0.2,0.1-0.4,0-0.6-0.1s-0.4-0.4-0.3-0.6C346.7,26.1,347.9,25,349.4,24.7z M279.3,32.1
		c1.6-2.1,3.5-3.8,5.7-5.2c0.4-0.3,1-0.3,1.4,0c0.5,0.3,0.7,0.8,0.7,1.3c-0.7,3.3-2.9,6.1-5.9,7.6c-0.2,0.1-0.5,0.1-0.7,0.1
		c-0.2-0.1-0.5-0.2-0.7-0.4C278.7,34.7,278.5,33.2,279.3,32.1z M275.1,38.5c0.1,0,0.1,0,0.2,0.1c0.2,0.1,0.3,0.3,0.5,0.5
		c-0.3,0.4-0.8,0.6-1.2,0.4l0,0c-0.2-0.1-0.5-0.4-0.4-0.5C274.3,38.5,274.7,38.3,275.1,38.5z M202.8,26.4c2.5-2.6,5.2-5,8.7-6.2
		c0.5-0.2,0.8,0.1,1.1,0.7c0,0.5,0,1-0.1,1.5s-0.3,1-0.6,1.4c-2.1,3-3.9,6.1-6.5,8.7l0,0c-0.6,0.5-1.4,0.4-1.9-0.1
		c-0.1-0.1-0.1-0.1-0.1-0.2c-0.1-0.2-0.3-0.4-0.3-0.7c-0.3-1-0.6-2-0.9-3C202,27.8,202.2,26.9,202.8,26.4z"/>
	<path class="st0" d="M111.1,9.8c0-0.8-0.4-1.5-1-2c-1.2-0.6-2.6-0.2-3.4,0.8c-0.7,1.1-1.2,2.3-1.5,3.6c-0.3,1.8-0.8,3.6-1.5,5.2
		c-1.4,4.7-3.5,9.2-5.2,13.8c-0.9,2.4-1.8,4.9-2.6,7.3c-0.7,2.3-1.3,4.6-1.5,7c0,0.3-0.1,0.8-0.1,1.4c0.1,1.6,1.1,3,2.6,3.5
		c0.2,0.1,0.5,0.1,0.8,0.1c0.5,0,1-0.3,1.3-0.8c0.8-1.7,1.3-3.4,1.5-5.2c0.4-1.8,0.6-3.6,1.1-5.3c1.1-3.7,2.2-7.5,3.6-11.1
		c2.1-5,3.7-10.2,5.5-15.4C111,11.9,111.1,10.9,111.1,9.8z"/>
	<path class="st0" d="M172.3,14.7c0.4,0.3,0.8,0.6,1.3,0.8c1.5,0.5,3.1,0.5,4.5,0c0.7-0.2,1.1-1,0.8-1.7c0,0,0-0.1-0.1-0.1
		c-0.5-0.9-1.4-1.5-2.5-1.5h-2c-0.6,0.1-1.2,0.1-1.8,0.3c-0.5,0.1-0.9,0.5-1,1C171.7,13.9,171.9,14.4,172.3,14.7z"/>
	<path class="st0" d="M274.8,209.9c-0.3,0-0.5,0-0.8,0l-3.8,0.5c-0.3-0.5-0.7-1-0.8-1.4c-0.1-2.1-0.1-4.2-0.2-6.2
		c-0.1-0.5-0.2-1-0.3-1.5c-0.6-1.5-2.2-2.3-3.7-1.9c-1.5,0.5-2.9,1.3-4.1,2.2l-2.5,2c-3.7,2.9-7.8,5.3-12.2,7
		c-1.2,0.5-2.5,0.7-3.8,0.6c-1.6,0-2.9-1.4-2.9-3c0-1,0.2-2.1,0.7-3c0.6-1.1,1.4-2.2,2-3.4c0.2-0.5,0.3-1,0.4-1.5
		c0-0.8-0.3-1.5-1-1.9c-1-0.4-2.1-0.2-3,0.4c-0.8,0.7-1.5,1.5-2,2.4s-1.2,1.7-2,2.4c-4,3.1-8.6,5.5-13.4,7.1L220,211
		c-2.8,0.7-5.6,1-8.5,0.7c-0.9,0-1.9-0.4-2.5-1c-0.4-0.6-0.7-1.2-0.9-1.9c-0.1-0.7,0.7-0.8,1.2-1.1c1.4-0.7,2.7-1.6,3.8-2.7
		c1.3-1.2,2.3-2.8,2.9-4.5c0.3-0.8,0.8-1.4,1.1-2.2c0.3-0.9,0.5-1.9,0.5-2.8c0-0.7,0-1.4-0.1-2.1c0.1-0.8,0-1.5-0.3-2.2
		c-0.4-0.6-1.1-1-1.8-1.1s-1.4-0.1-2.2,0c-0.7,0.1-1.5,0.3-2.2,0.5c-1.4,0.7-2.6,1.6-3.5,2.8c-0.7,0.8-1.5,1.7-2.1,2.6
		c-0.4,0.5-0.7,0.9-0.9,1.5c-0.2,0.5-0.3,1-0.5,1.5c-0.3,1.4-0.6,2.8-0.9,4.2c-0.1,0.7-0.2,1.4-0.4,2.1c-0.1,0.6,0,1.3-0.6,1.6
		c-1.2,0.9-2.5,1.7-3.8,2.5c-0.6,0.3-1.2,0.6-1.8,0.9c-0.1,0.1-0.3,0.2-0.4,0.2c-1.2,0.4-2.5,0.8-3.8,1.2c-1.8,0.5-3.6,0.5-5.4,0.1
		c-1-0.2-1.9-0.8-2.7-1.5c-0.5-0.6-0.5-1.5-0.1-2.1c1.2-1.4,2.7-2.5,4-3.8c3.6-3.7,4.2-8,6.4-12.5c1.1-2.1,1.9-4.3,2.5-6.5
		c0.6-2.6,0.5-5.3-0.2-7.9c-0.3-1.1-1-2.3-2.1-2.3c-0.7,0.1-1.3,0.5-1.8,1c-4.4,4.4-8,9.5-11.5,14.6c-1.5,2-2.5,4.3-2.8,6.8
		c-0.2,2.6-1.2,5.1-1.7,7.6c-0.3,1-1,1.9-2,2.3c-2.1,1.1-4.3,1.8-6.6,2.3c-2.6,0.5-5.2,0.3-7.7-0.6c-0.5-0.2-0.9-0.4-1.4-0.8
		c-1.7-1.3-2.8-3.1-3.1-5.2c-0.2-1.6-0.3-3.1-0.5-4.7c-0.2-1-0.5-2-0.8-3c-0.3-0.7-1-1.3-1.7-1.4c-1.5-0.5-3.2,0-4.2,1.3
		c-1.4,1.5-2.6,3.2-3.7,5c-1.3,2.3-2.9,4.3-4.9,6.1c-0.2,0.1-0.4,0.2-0.6,0.1c-0.2-0.2-0.3-0.4-0.4-0.7c-0.2-2.9,0.8-5.7,2.6-8
		c1.1-1.4,2.3-2.8,3.4-4.3c2.6-3.6,4.7-7.5,6.3-11.7c0.4-1,0.4-2.1,0-3.1c-0.3-1-1.2-1.7-2.3-1.9c-0.8-0.1-1.6,0.2-2.2,0.7
		c-0.4,0.3-0.7,0.7-1.1,1.1c-2.5,2.7-3.7,6.3-5.8,9.3c-0.7,1.1-1.2,2.3-1.6,3.5c-0.8,1.7-1.5,3.3-2.3,5c-0.3,0.7-0.8,1.3-1.5,1.8
		c-2.7,2.1-6,3.2-8.7,5.3c-0.4,0.3-0.9,0.5-1.4,0.7c-0.2,0.1-0.5,0.1-0.8,0.2c-1,0.4-1.9,0.8-2.8,1.3c-1.3,0.8-2.8,1.5-4.3,1.9
		c-2.5,0.7-5,1.5-7.5,2.3c-0.3,0.1-0.5,0.1-0.8,0.1c-0.5,0.1-1-0.1-1.4-0.4c-0.4-0.3-0.5-0.9-0.3-1.4c0.5-1.8,1.2-3.5,2.3-4.9
		c1.3-1.6,2.3-3.5,2.9-5.5c0.2-0.8,0.2-1.5,0.1-2.3c-0.4-1.3-1.7-2.1-3-2.1c-2,0.6-4,1.1-6.1,1.5c-0.5,0.1-1,0.3-1.5,0.5
		c-5,1.6-9.9,3.4-15,4.2c-2.9,1.2-6.1,1.4-9.1,2.2c-0.8,0.1-1.6,0.1-2.3,0c-0.8,0-1.6-0.9-1.5-1.5c0.9-4.6,2-9.1,3.5-13.6
		c1.2-3.7,2.3-7.5,3.1-11.3c0.2-1.5,1-3,1.2-4.5s-0.5-3.2-2.4-3.2c-0.5-0.1-1.1,0.1-1.4,0.5c-1.5,1.8-2.8,3.8-4.4,5.4
		c-0.5,0.6-0.9,1.3-1.3,1.9c-1,1.2-1.9,2.5-2.9,3.7s-2.1,2.4-3.1,3.6c-1,1.2-1.8,2.6-2.8,3.7c-1.5,1.8-3.2,3.4-4.7,5.2
		c-3.5,4.2-7.5,8-11.7,11.5c-0.8,0.6-1.6,1.4-2.4,2.1c-1.9,1.8-3.8,3.6-5.8,5.3c-2.2,1.9-3.9,4.2-6.1,6.1c-1.2,1-2.2,2.2-3.4,3.2
		c-1,0.9-2.1,1.6-3.2,2.1c-0.4,0.3-0.8,0.6-1,1.1c-0.1,0.2-0.2,0.5-0.1,0.7c0.6,1.6,2.4,2.4,4,1.8c0.2-0.1,0.3-0.2,0.5-0.2
		c0.4-0.3,0.9-0.6,1.2-1c1.7-1.7,3.3-3.3,4.9-5.1c4.2-4.7,9.1-8.6,13.8-12.7c0.6-0.5,1.4-0.7,2.2-0.6c0.8,0.1,1.5,0.2,2.3,0.5
		c2.2,1,4.5,1.4,6.9,1.4c1.3-0.1,2.6,0,3.9,0.4c0.5,0.2,0.8,0.6,1,1.1c0.3,0.7,0.3,1.6,0,2.3c-0.6,2-1.2,4-1.7,5.9
		c-0.7,1-1.3,1.8-1.9,2.7c-0.5,0.7-0.5,1.5-0.2,2.2s0.6,1.4,0.9,2.1c0.3,0.4,0.6,0.8,1.1,1.1c1.7,1.1,2.6,0.7,3.2-0.7
		c1.3-3.4,2.5-6.9,3.4-10.4c0.5-2,1.2-4,1.7-6c0.2-0.8,0.8-1.4,1.5-1.6c2.2-0.9,4.5-1.5,6.8-1.7c1.6-0.2,3.1-0.5,4.6-1
		c2-0.7,4-1.2,6-1.5c0.5,0,1,0.3,1.2,0.8c0.8,1.6,1.4,3.4,1.8,5.2c0.3,1.8,0.8,3.6,1.5,5.2c0.6,1.5,1.6,2.7,3,3.5
		c0.7,0.4,1.5,0.4,2.2,0.1c0.3-0.1,0.5-0.2,0.7-0.4c1.5-1.5,3.5-2.3,5.6-2.2c3.2,0,6.1-1.2,9-2.4c5.5-2.4,10.8-5.3,16.2-7.8
		c0.7-0.2,1.3,0.2,1.5,0.8c0,0.1,0,0.2,0.1,0.3c-0.2,0.8-0.2,1.5-0.2,2.3c0.3,1.5,0.7,3.1,1.2,4.5c0.3,0.7,0.8,1.3,1.4,1.8
		c1.5,1.2,3.6,1,4.9-0.4c2.7-3.8,5.6-7.5,8-11.6c0.2-0.5,0.8-0.7,1.3-0.5l0,0c0.5,0.2,0.8,0.6,1,1.1s0.2,1,0.4,1.5
		c1.6,5.4,6.4,9.3,12,9.7c2.4,0.2,4.7-0.1,7-0.8c2-0.7,4-1.3,5.9-2c1-0.3,2.1-0.1,2.9,0.6c1.3,1.2,2.9,2.3,4.5,3.1
		c0.7,0.3,1.4,0.6,2.2,0.8c2.3,0.5,4.7,0.5,7-0.2c2-0.7,4.1-1.3,6.2-2.1v-0.1c1.4-0.5,2.7-1.2,4-1.9c0.6,1.2,1.6,2.1,2.8,2.7
		c1.2,0.5,2.5,1,3.7,1.2c1.3,0.4,2.6,0.6,4,0.7h0.7c1.5-0.1,2.9-0.4,4.3-0.8c1.1-0.2,2.1-0.5,3.1-0.9h0.1c0.6-0.2,1.2-0.2,1.8-0.4
		c0.5-0.2,1-0.5,1.4-0.8c2.5-0.9,4.8-2.1,7.2-3.1c0.7-0.4,1.6-0.3,2.1,0.3c0.8,1,1.6,2.1,2.5,3c1.1,1.2,2.6,1.9,4.2,2
		c1,0.1,2.1,0.1,3.1,0.1c0.5,0,1-0.1,1.5-0.2c2-0.6,3.9-1.4,5.8-2.4c3.2-1.8,6.5-3.3,9.4-5.6c0.4-0.3,0.9-0.5,1.4-0.7
		c0.3-0.1,0.5-0.1,0.8,0c0.5,0.1,0.9,0.5,1,1c0.3,2.6-0.7,5.3-2.6,7.1s-4,3.4-5.8,5.2c-3.4,3.2-6.2,7.1-8.1,11.4c-0.4,1-0.6,2-0.7,3
		c-0.2,1.3-0.1,2.6,0.2,3.9c0.6,1.7,1.6,3.3,3,4.5c0.4,0.3,0.9,0.6,1.4,0.7c1.3,0.4,2.6,0.5,3.9,0.3c1.3-0.1,2.5-0.7,3.4-1.7
		c0.5-0.6,1-1.2,1.4-1.9c1.7-2.9,3-6.1,3.8-9.4c0.5-2.6,1.5-5,2-7.6c0.4-1.8,1-3.5,1.6-5.2c0.2-0.5,0.5-0.9,0.9-1.3
		c1.1-1.2,2.4-2.1,3.8-2.6c1.2-0.4,2.4-1.1,3.4-1.9c0.4-0.3,0.7-0.8,0.6-1.4C276.3,210.3,275.6,209.9,274.8,209.9z M70.7,193
		c-0.3,1.9-1.6,4.5-2,7.3c-0.1,0.5-0.3,1-0.6,1.4c-0.5,0.9-1.4,1.6-2.5,1.7c-3.1,0.3-6.2,0.2-9.3-0.4c-0.5-0.1-0.9-0.5-1.1-0.9
		c-0.2-0.5-0.1-1.1,0.3-1.5c0.3-0.4,0.6-0.8,0.9-1.2c1.1-1.1,2.2-2.2,3.3-3.3c2.8-2.7,5.4-5.6,7.8-8.6c1.4-1.9,3-3.5,4.9-5
		c0.2-0.1,0.5-0.2,0.6-0.1c0.2,0.2,0.3,0.4,0.3,0.7C72.5,186.2,71.7,189.2,70.7,193z M106.2,200c-1.1,2.4-2.3,4.6-3.7,6.9
		c-0.3,0.4-0.6,0.8-1,1.2c-0.7,0.6-1.8,0.6-2.5-0.2c-0.1-0.1-0.1-0.2-0.2-0.3c-0.8-1.3-1.4-2.8-1.7-4.3c-0.2-1.3,0.5-2.6,1.8-3.1
		c0.5-0.2,1-0.4,1.5-0.5s1-0.2,1.5-0.3l1.5-0.2l1.5-0.4c0.5-0.2,1,0.1,1.2,0.6C106.3,199.5,106.3,199.8,106.2,200z M182,202.3
		C182,202.2,182,202.2,182,202.3c0-0.1,0-0.2,0-0.2c-0.1-2.5,1.1-5,2.2-7.3c1.7-3.3,3.6-6.6,5.7-9.7c0.7-1.1,1.7-2.2,3-2.3
		c0.2,1.2,0,2.4-0.6,3.5c-1.5,4.2-3.4,8.3-5.5,12.2c-0.7,1.5-1.7,2.9-2.9,4c-0.3,0.3-0.8,0.5-1.2,0.5
		C182.4,202.9,182.1,202.7,182,202.3z M207.4,201.2c0.3-1.3,1-2.4,1.9-3.3c0.4-0.4,0.9-0.8,1.3-1.1c0.4-0.3,0.8-0.6,1.2-0.7
		c0.4-0.2,0.9-0.2,1.4,0.1c1,0.6,0.1,1.7-0.2,2.4c-0.5,1-1.2,1.8-2,2.6c-0.5,0.5-1.1,0.9-1.7,1.3c-0.6,0.5-1.2,1.1-1.9,1.6
		C207.2,203,207.2,202.1,207.4,201.2z M260.8,225.7c-0.2,0.8-0.5,1.5-0.8,2.4c-0.7,3.5-2,6.9-3.8,10.1c-0.2,0.5-1.5,1.3-1.9,1.2
		c-0.8-0.2-1.4-0.7-1.7-1.4c-0.5-0.9-0.5-2-0.2-3c0.1-0.2,0.1-0.5,0.2-0.7c1.5-3.6,3.7-6.9,6.4-9.7c0.4-0.4,1-0.4,1.4-0.1
		c0.2,0.2,0.4,0.4,0.4,0.6C260.9,225.2,260.9,225.5,260.8,225.7L260.8,225.7z"/>
	<path class="st0" d="M351.6,179.5c0.8-2.7,1.4-5.5,2.2-8.3c0.2-1.3-0.4-2.6-1.6-3.2c-0.7-0.3-1.6,0-2.1,0.6
		c-0.9,1.9-1.6,3.8-2.1,5.8c-0.9,4.3-2.3,8.5-3.6,12.8c-0.2,0.5-0.4,1-0.6,1.4c-0.3,0.7-0.9,1.3-1.6,1.6c-3.6,1.5-7.5,2.1-11.3,3.1
		c-2.3,0.5-4.7,0.7-7,0.6c-0.8,0-1.6-0.4-2-1.2c0.4-1.4,0.9-2.9,1.4-4.4s1.1-2.9,1.7-4.4c0.5-1.2,0.8-2.5,0.9-3.8
		c0.1-1,0.1-2.1,0.2-3.1c0-1.1-0.5-2.1-1.3-2.7c-0.6-0.5-1.5-0.3-2,0.3l0,0c-0.2,0.5-0.4,0.9-0.6,1.4c-0.8,3.6-1.9,7-3.4,10.4
		c-0.3,0.7-0.4,1.5-0.7,2.2c-0.6,1.4-1.2,2.9-1.9,4.3c-0.6,1.2-1.8,2-3.1,2c-3.9,0.2-7.8,0.5-11.6-0.7c-0.3-0.1-0.5-0.1-0.8,0
		c-0.2,0.1-0.4,0.3-0.6,0.5c-0.4,0.4-0.5,0.9-0.3,1.4c0.3,0.7,0.9,1.3,1.6,1.6c2.6,1.2,5.5,1.8,8.3,1.9c0.8,0,1.5,0.2,2.3,0.4
		c0.5,0.2,0.8,0.7,0.7,1.2c-0.2,1-0.6,2-1.1,2.9c-1,1.5-1.8,3.2-2.4,4.9c-0.7,2.2-0.7,4.6,2.2,5.8c0.5,0.2,1.1,0.1,1.4-0.3
		c0.4-0.4,0.7-0.8,0.9-1.2c1-1.6,1.1-3.5,1.9-5.1c1.2-2.3,2.2-4.7,3.1-7.2c0.3-0.7,0.9-1.3,1.7-1.6c0.7-0.3,1.4-0.6,2.2-0.8
		c1.8-0.3,3.6-0.5,5.4-0.9c2-0.5,4.1-0.9,6.1-1.1c1.8-0.1,3.6-0.5,5.4-0.8c0.5,0.2,0.8,0.7,0.8,1.2c0.1,1.8-0.2,3.7-1,5.3
		c-1.9,4.3-2.8,8.9-3.9,13.5c-0.2,1.6,0.8,3.1,2.3,3.6c0.8,0.1,1.6-0.2,2-0.9c0.8-1.9,1.5-3.9,1.9-5.9c0.2-1,0.5-2,0.8-3
		c1.3-4.8,3.1-9.4,4.5-14.1c0.6-2.3,1.8-4.3,3.5-6c0.8-0.7,1-1.9,0.4-2.8c-0.6-0.9-0.7-2-0.3-3C350.8,182.5,351.2,181,351.6,179.5z"
		/>
	<path class="st0" d="M447,175.3c-1.2-0.6-2.6-0.4-3.6,0.6c-0.5,0.6-1,1.2-1.4,1.9c-2.8,5-5.8,9.9-8.8,14.8
		c-1.1,1.8-2.4,3.4-4.1,4.7c-0.8,0.6-1.5,1.4-2.3,2.1c-0.6,0.5-1.2,1-1.8,1.5c-2.2,1.4-4.4,2.8-6.6,4.2c-3.1,1.9-6.4,3.5-9.8,4.8
		l-0.7,0.2c-1.5,0.7-3.3,0.1-4.1-1.3c-0.4-0.6-0.5-1.5-0.2-2.2c0.4-0.7,0.9-1.3,1.5-1.8c2.5-2.2,4.8-4.8,6.7-7.6
		c0.9-1.3,1.6-2.7,2.3-4.1c0.6-1.4,1.2-2.9,1.7-4.4c0.6-1.7,0.9-3.6,0.8-5.4c0-1.1-0.5-2-1.4-2.7c-1.3-0.9-3.1-0.9-4.5-0.1
		c-0.6,0.5-1.2,1-1.8,1.5c-2.1,2.3-4.1,4.7-5.9,7.3c-1.4,1.9-2.6,3.9-3.5,6.1c-1,2.7-2.3,5.3-2.6,8.2c-0.1,0.8-0.5,1.5-1.2,1.9
		c-1.5,1-3.1,2-4.7,2.8c-2.1,1.1-4.2,2-6.5,2.8c-1.9,0.8-3.9,1.4-6,1.7c-1.1,0.2-2.1-0.1-3-0.7c-1.4-1.2-2-3.1-1.7-4.9
		c0.5-1.7,1.1-3.5,1.7-5.2h0.1c0.8-1.9,1.6-3.9,2.3-5.8c0.1-0.5-0.1-1.1-0.5-1.4c-0.7-0.8-1.8-1.1-2.9-0.7c-1.2,0.4-2.4,1.2-3.7,1.1
		c-2.4-0.2-4.7,0.6-6.5,2.2c-1,0.8-2,1.6-3,2.5c-1.3,1.2-2.8,2.4-4.2,3.5c-1.7,1.2-3,2.9-3.9,4.8c-0.6,1.2-0.5,2.6,0.3,3.7
		c1,1.2,2,2.4,3.1,3.5c0.5,0.6,1.4,0.9,2.1,0.5c2.8-1.5,5.4-3.2,7.8-5.1c0.8-0.7,1.5-0.6,1.9,0.1c0.6,1.1,1.3,2.3,2.1,3.3
		c1.6,2.1,4.1,3.4,6.8,3.4c2.1,0,4.2-0.3,6.1-1.1s3.9-1.5,5.8-2.4c1.6-0.8,3.3-1.5,5-2.3c0.7-0.3,1.4-0.7,2.1-1s1.6-0.1,2.2,0.4
		c1.6,1.3,3.4,2.5,5.3,3.4c1.4,0.7,3,0.9,4.5,0.6c1-0.3,2-0.6,3-0.9c0.7-0.2,1.5-0.5,2.2-0.9c4.4-2.3,8.6-4.9,12.6-7.9
		c0.6-0.5,1.3-0.9,2-1.3s1.7,0.3,1.8,0.9c0.2,1.5,0.2,3.1,0,4.7c-0.1,1.8,0.4,3.7,1.4,5.2c0.1,0.2,0.3,0.4,0.5,0.6
		c0.3,0.4,0.8,0.7,1.2,0.9c0.7,0.4,1.6,0.2,2.1-0.4c0.4-0.4,0.4-0.9,0.2-1.4c-0.9-1.9-1.2-4-0.9-6.1c0.2-2.7,0.8-5.4,1.9-7.9
		c1.1-2.3,3.3-3.5,5.2-5.2c4.1-3.7,6.1-9.2,6.5-14.7C448.1,179.3,448.6,176.1,447,175.3z M405.5,194.5c0.9-1.9,2.1-3.6,3.5-5.1
		c0.6-0.5,1.2-1,1.8-1.4c0.5,0.3,0.7,0.9,0.5,1.4c-0.3,0.7-0.7,1.4-1,2.1c-0.4,1.2-1.1,2.4-2,3.3c-0.9,1-1.7,2-2.6,2.9
		c-0.2,0.2-0.5,0.2-0.7,0.1c-0.2-0.1-0.5-0.4-0.5-0.5C404.7,196.3,405,195.4,405.5,194.5L405.5,194.5z M367.8,201.2
		c-0.7,0.9-1.3,1.7-2.1,2.6l0,0c-1.1,1.4-2.3,2.6-3.7,3.6c-0.7,0.6-1.7,0.9-2.6,0.6c0-0.4,0.2-0.7,0.5-1
		C362.1,204.5,364.8,202.5,367.8,201.2L367.8,201.2z M443.3,185.5L443.3,185.5c-0.3,0.6-0.7,1.2-1,1.7c-0.9,1.7-2.1,3.2-3.6,4.5
		l-0.2,0.1c1-3.9,3.6-7.3,5.5-10.9C444.1,182.5,443.9,184.1,443.3,185.5z"/>
</g>
</svg>
