<?xml version="1.0" encoding="utf-8"?>
<!-- Generator: Adobe Illustrator 20.1.0, SVG Export Plug-In . SVG Version: 6.00 Build 0)  -->
<svg version="1.1" id="scroll-group_1_" xmlns="http://www.w3.org/2000/svg" xmlns:xlink="http://www.w3.org/1999/xlink" x="0px"
	 y="0px" viewBox="0 0 225.3 72" style="enable-background:new 0 0 225.3 72;" xml:space="preserve">
<style type="text/css">
	.st0{fill:#4E4E56;}
</style>
<title>keep-subtext</title>
<g id="scroll-group">
	<path class="st0" d="M16.5,2.4h2V8l5.3-5.6h2.4l-4.7,4.8l4.9,6.4h-2.4l-3.8-5l-1.7,1.8v3.2h-2V2.4z"/>
	<path class="st0" d="M29.4,2.4h8.3v1.8h-6.3v2.9H37v1.8h-5.6v3h6.4v1.8h-8.4V2.4z"/>
	<path class="st0" d="M41.4,2.4h8.3v1.8h-6.3v2.9H49v1.8h-5.6v3h6.4v1.8h-8.4V2.4z"/>
	<path class="st0" d="M53.4,2.4h4.4c2.6,0,4.3,1.5,4.3,3.7v0c0,2.5-2,3.8-4.5,3.8h-2.2v3.6h-2V2.4z M57.7,8.2c1.5,0,2.4-0.8,2.4-2v0
		c0-1.3-0.9-2-2.4-2h-2.3v4H57.7z"/>
	<path class="st0" d="M70.7,12l1.2-1.4c1.1,0.9,2.2,1.5,3.5,1.5c1.2,0,2-0.6,2-1.4v0c0-0.8-0.4-1.2-2.5-1.7
		c-2.4-0.6-3.7-1.3-3.7-3.3v0c0-1.9,1.6-3.2,3.8-3.2c1.6,0,2.9,0.5,4.1,1.4L78,5.1C77,4.4,76,4,75,4c-1.2,0-1.8,0.6-1.8,1.3v0
		c0,0.9,0.5,1.2,2.7,1.8c2.4,0.6,3.6,1.4,3.6,3.3v0c0,2.1-1.6,3.3-4,3.3C73.7,13.8,72.1,13.2,70.7,12z"/>
	<path class="st0" d="M82.5,8L82.5,8c0-3.2,2.4-5.8,5.8-5.8c2.1,0,3.3,0.7,4.4,1.7l-1.3,1.5C90.5,4.6,89.5,4,88.2,4
		c-2.1,0-3.7,1.8-3.7,4v0c0,2.2,1.6,4,3.7,4c1.4,0,2.3-0.5,3.2-1.4l1.3,1.3c-1.2,1.2-2.4,2-4.5,2C84.9,13.8,82.5,11.2,82.5,8z"/>
	<path class="st0" d="M96.1,2.4h5c1.4,0,2.5,0.4,3.2,1.1c0.6,0.6,0.9,1.4,0.9,2.4v0c0,1.8-1.1,2.9-2.7,3.4l3,4.2h-2.3l-2.8-3.9H98
		v3.9h-2V2.4z M100.9,7.9c1.4,0,2.3-0.7,2.3-1.9v0c0-1.2-0.9-1.9-2.3-1.9H98v3.8H100.9z"/>
	<path class="st0" d="M108.4,8L108.4,8c0-3.2,2.4-5.8,5.9-5.8c3.4,0,5.8,2.6,5.8,5.8v0c0,3.2-2.4,5.8-5.9,5.8
		C110.8,13.8,108.4,11.2,108.4,8z M118.1,8L118.1,8c0-2.2-1.6-4-3.8-4c-2.2,0-3.8,1.8-3.8,4v0c0,2.2,1.6,4,3.8,4S118.1,10.2,118.1,8
		z"/>
	<path class="st0" d="M123.8,2.4h2v9.4h5.9v1.8h-7.9V2.4z"/>
	<path class="st0" d="M135,2.4h2v9.4h5.9v1.8H135V2.4z"/>
	<path class="st0" d="M146.3,2.4h2v11.2h-2V2.4z"/>
	<path class="st0" d="M152.5,2.4h1.8l6,7.7V2.4h1.9v11.2h-1.6l-6.2-8v8h-1.9V2.4z"/>
	<path class="st0" d="M165.9,8L165.9,8c0-3.2,2.4-5.8,5.8-5.8c2,0,3.2,0.5,4.3,1.5l-1.2,1.5c-0.9-0.7-1.7-1.2-3.1-1.2
		c-2.1,0-3.6,1.8-3.6,4v0c0,2.3,1.5,4,3.8,4c1.1,0,2-0.3,2.7-0.8V9.1h-2.9V7.3h4.8V12c-1.1,0.9-2.7,1.7-4.7,1.7
		C168.2,13.8,165.9,11.3,165.9,8z"/>
	<path class="st0" d="M187.9,4.2h-3.6V2.4h9.1v1.8h-3.6v9.4h-2V4.2z"/>
	<path class="st0" d="M195.6,8L195.6,8c0-3.2,2.4-5.8,5.9-5.8s5.8,2.6,5.8,5.8v0c0,3.2-2.4,5.8-5.9,5.8S195.6,11.2,195.6,8z
		 M205.3,8L205.3,8c0-2.2-1.6-4-3.8-4c-2.2,0-3.8,1.8-3.8,4v0c0,2.2,1.6,4,3.8,4S205.3,10.2,205.3,8z"/>
	<path class="st0" d="M2.4,30.4h8.3v1.8H4.4v2.9H10v1.8H4.4v3h6.4v1.8H2.4V30.4z"/>
	<path class="st0" d="M23.9,30.4L20,35.9l4.1,5.7h-2.3l-3-4.3l-2.9,4.3h-2.3l4-5.7l-3.9-5.5h2.3l2.8,4.1l2.8-4.1H23.9z"/>
	<path class="st0" d="M27.4,30.4h4.4c2.6,0,4.3,1.5,4.3,3.7v0c0,2.5-2,3.8-4.5,3.8h-2.2v3.6h-2V30.4z M31.6,36.2
		c1.5,0,2.4-0.8,2.4-2v0c0-1.3-0.9-2-2.4-2h-2.3v4H31.6z"/>
	<path class="st0" d="M39.1,30.4h2v9.4H47v1.8h-7.9V30.4z"/>
	<path class="st0" d="M49.1,36L49.1,36c0-3.2,2.4-5.8,5.9-5.8s5.8,2.6,5.8,5.8v0c0,3.2-2.4,5.8-5.9,5.8S49.1,39.2,49.1,36z M58.7,36
		L58.7,36c0-2.2-1.6-4-3.8-4c-2.2,0-3.8,1.8-3.8,4v0c0,2.2,1.6,4,3.8,4C57.2,40,58.7,38.2,58.7,36z"/>
	<path class="st0" d="M64.5,30.4h5c1.4,0,2.5,0.4,3.2,1.1c0.6,0.6,0.9,1.4,0.9,2.4v0c0,1.8-1.1,2.9-2.7,3.4l3,4.2h-2.3l-2.8-3.9
		h-2.5v3.9h-2V30.4z M69.3,35.9c1.4,0,2.3-0.7,2.3-1.9v0c0-1.2-0.9-1.9-2.3-1.9h-2.9v3.8H69.3z"/>
	<path class="st0" d="M77.3,30.4h8.3v1.8h-6.3v2.9h5.6v1.8h-5.6v3h6.4v1.8h-8.4V30.4z"/>
	<path class="st0" d="M95.4,30.4h2.1l3.4,5.3l3.4-5.3h2.1v11.2h-2v-8l-3.5,5.3h-0.1l-3.5-5.2v8h-1.9V30.4z"/>
	<path class="st0" d="M110.1,36L110.1,36c0-3.2,2.4-5.8,5.9-5.8s5.8,2.6,5.8,5.8v0c0,3.2-2.4,5.8-5.9,5.8S110.1,39.2,110.1,36z
		 M119.7,36L119.7,36c0-2.2-1.6-4-3.8-4s-3.8,1.8-3.8,4v0c0,2.2,1.6,4,3.8,4C118.2,40,119.7,38.2,119.7,36z"/>
	<path class="st0" d="M125.4,30.4h5c1.4,0,2.5,0.4,3.2,1.1c0.6,0.6,0.9,1.4,0.9,2.4v0c0,1.8-1.1,2.9-2.7,3.4l3,4.2h-2.3l-2.8-3.9
		h-2.5v3.9h-2V30.4z M130.3,35.9c1.4,0,2.3-0.7,2.3-1.9v0c0-1.2-0.9-1.9-2.3-1.9h-2.9v3.8H130.3z"/>
	<path class="st0" d="M138.3,30.4h8.3v1.8h-6.3v2.9h5.6v1.8h-5.6v3h6.4v1.8h-8.4V30.4z"/>
	<path class="st0" d="M155.9,36L155.9,36c0-3.2,2.4-5.8,5.9-5.8s5.8,2.6,5.8,5.8v0c0,3.2-2.4,5.8-5.9,5.8S155.9,39.2,155.9,36z
		 M165.5,36L165.5,36c0-2.2-1.6-4-3.8-4c-2.2,0-3.8,1.8-3.8,4v0c0,2.2,1.6,4,3.8,4S165.5,38.2,165.5,36z"/>
	<path class="st0" d="M171.2,30.4h8.3v1.8h-6.4v3.1h5.7V37h-5.7v4.6h-2V30.4z"/>
	<path class="st0" d="M191.8,32.2h-3.6v-1.8h9.1v1.8h-3.6v9.4h-2V32.2z"/>
	<path class="st0" d="M200.7,30.4h2v4.7h5.3v-4.7h2v11.2h-2v-4.7h-5.3v4.7h-2V30.4z"/>
	<path class="st0" d="M214.2,30.4h8.3v1.8h-6.3v2.9h5.6v1.8h-5.6v3h6.4v1.8h-8.4V30.4z"/>
	<path class="st0" d="M12.1,58.3h1.8l4.9,11.3h-2.1l-1.1-2.7h-5.3l-1.2,2.7h-2L12.1,58.3z M14.9,65.1l-1.9-4.5L11,65.1H14.9z"/>
	<path class="st0" d="M21,68l1.2-1.4c1.1,0.9,2.2,1.5,3.5,1.5c1.2,0,2-0.6,2-1.4v0c0-0.8-0.4-1.2-2.5-1.7c-2.4-0.6-3.7-1.3-3.7-3.3
		v0c0-1.9,1.6-3.2,3.8-3.2c1.6,0,2.9,0.5,4.1,1.4l-1.1,1.5c-1-0.8-2-1.2-3-1.2c-1.2,0-1.8,0.6-1.8,1.3v0c0,0.9,0.5,1.2,2.7,1.8
		c2.4,0.6,3.6,1.4,3.6,3.3v0c0,2.1-1.6,3.3-4,3.3C24,69.8,22.3,69.2,21,68z"/>
	<path class="st0" d="M33.3,58.4h2v4.7h5.3v-4.7h2v11.2h-2v-4.7h-5.3v4.7h-2V58.4z"/>
	<path class="st0" d="M46.7,58.4h2v9.4h5.9v1.8h-7.9V58.4z"/>
	<path class="st0" d="M57.9,58.4h8.3v1.8h-6.3v2.9h5.6v1.8h-5.6v3h6.4v1.8h-8.4V58.4z"/>
	<path class="st0" d="M73.2,65.2l-4.4-6.8h2.3l3.1,4.9l3.2-4.9h2.3l-4.4,6.7v4.5h-2V65.2z"/>
	<path class="st0" d="M88.7,58.4h2v4.7H96v-4.7h2v11.2h-2v-4.7h-5.3v4.7h-2V58.4z"/>
	<path class="st0" d="M106.1,58.3h1.8l4.9,11.3h-2.1l-1.1-2.7h-5.3l-1.2,2.7h-2L106.1,58.3z M108.9,65.1l-1.9-4.5l-1.9,4.5H108.9z"
		/>
	<path class="st0" d="M116.1,58.4h2v9.4h5.9v1.8h-7.9V58.4z"/>
	<path class="st0" d="M127.2,58.4h2v9.4h5.9v1.8h-7.9V58.4z"/>
	<path class="st0" d="M142.8,58.4h2.1l2.7,8.3l2.8-8.3h1.7l2.8,8.3l2.7-8.3h2.1l-3.9,11.3h-1.7l-2.8-8.1l-2.8,8.1h-1.7L142.8,58.4z"
		/>
	<path class="st0" d="M161.6,64L161.6,64c0-3.2,2.4-5.8,5.9-5.8s5.8,2.6,5.8,5.8v0c0,3.2-2.4,5.8-5.9,5.8S161.6,67.2,161.6,64z
		 M171.2,64L171.2,64c0-2.2-1.6-4-3.8-4s-3.8,1.8-3.8,4v0c0,2.2,1.6,4,3.8,4C169.7,68,171.2,66.2,171.2,64z"/>
	<path class="st0" d="M176.9,58.4h5c1.4,0,2.5,0.4,3.2,1.1c0.6,0.6,0.9,1.4,0.9,2.4v0c0,1.8-1.1,2.9-2.7,3.4l3,4.2h-2.3l-2.8-3.9
		h-2.5v3.9h-2V58.4z M181.8,63.9c1.4,0,2.3-0.7,2.3-1.9v0c0-1.2-0.9-1.9-2.3-1.9h-2.9v3.8H181.8z"/>
	<path class="st0" d="M189.8,58.4h2v9.4h5.9v1.8h-7.9V58.4z"/>
	<path class="st0" d="M200.7,58.4h4.2c3.5,0,6,2.4,6,5.6v0c0,3.2-2.4,5.6-6,5.6h-4.2V58.4z M202.7,60.2v7.6h2.2
		c2.4,0,3.9-1.6,3.9-3.8v0c0-2.2-1.5-3.8-3.9-3.8H202.7z"/>
	<path class="st0" d="M213.5,67.4h2.1v2.2h-2.1V67.4z"/>
</g>
</svg>
