<svg xmlns="http://www.w3.org/2000/svg" viewBox="0 0 497.35 244.02"><defs><style>.cls-1{isolation:isolate;}.cls-2{mix-blend-mode:multiply;}.cls-3{fill:#6e5c7f;}</style></defs><title>text-1</title><g class="cls-1"><g id="Layer_2" data-name="Layer 2"><g id="Layer_1-2" data-name="Layer 1"><g class="cls-2"><path class="cls-3" d="M496.74,102.49a5.47,5.47,0,0,0-1.47-.47c-3.11-.29-6.23-.54-9.35-.8a1.73,1.73,0,0,1-1.07-2.4,17.61,17.61,0,0,1,2.61-3.88,6.34,6.34,0,0,0,1.39-1.87,32.67,32.67,0,0,0,2.64-8.16c.07-.51.07-1,.09-1.56a3.43,3.43,0,0,0-2.07-3,9.46,9.46,0,0,0-1.49-.44,6.09,6.09,0,0,0-4.5.8,21.08,21.08,0,0,0-3.25,2.17,36.58,36.58,0,0,0-5.72,6.4,49.75,49.75,0,0,0-4.37,7.4c-.51,1.2-1.15,2.34-1.67,3.53a3,3,0,0,1-2.3,1.91,31,31,0,0,1-5.41.79,5.41,5.41,0,0,0-2.28.36,1.26,1.26,0,0,0-.84,1.17,2.08,2.08,0,0,0,.46,1.44,4.75,4.75,0,0,0,2.52,1.73,13.07,13.07,0,0,1,1.5.43,1.09,1.09,0,0,1,.58.5,1.31,1.31,0,0,1-.4,1.31c-1.06,1.26-2.73,1.47-4,2.34s-2.57,1.8-3.91,2.6a45.43,45.43,0,0,1-10,4.42,3,3,0,0,1-3.64-2.12,6.18,6.18,0,0,1-.09-3.08,18.18,18.18,0,0,1,1.5-3.6,6.89,6.89,0,0,0,.57-3,2.45,2.45,0,0,0-1.07-2,3.49,3.49,0,0,0-3.68.07,1.86,1.86,0,0,0-.58.52c-.7,1.39-1.35,2.81-2,4.21a16.18,16.18,0,0,1-1.1,2.06,3.81,3.81,0,0,1-1.88,1.33,9.92,9.92,0,0,1-1.18-1c-.35-.38-.56-.88-.9-1.27a6.27,6.27,0,0,0-4.29-2.19,9,9,0,0,0-2.07.09,12.74,12.74,0,0,0-5.53,2.78,68.81,68.81,0,0,0-6.49,6.77,2.76,2.76,0,0,0-.37.68,2.16,2.16,0,0,0,.09,2.22c.14.22.26.45.42.65a8.7,8.7,0,0,0,4.66,2.66,1.74,1.74,0,0,0,.77.05,24,24,0,0,0,8.13-2.62c2.47-1.44,5-2.83,7.48-4.24a1.86,1.86,0,0,1,2.12.54,16.34,16.34,0,0,0,4.58,4.18,7.68,7.68,0,0,0,6,.81,32,32,0,0,0,8.57-3.75q3.32-2.05,6.74-4a3.81,3.81,0,0,1,1.51-.18c.62,0,.92.3,1.18.85.68,1.46.36,3.09.88,4.57a3.86,3.86,0,0,0,2.49,2.76,2.54,2.54,0,0,0,2.65-1.11,6.08,6.08,0,0,0,.54-3c-.13-1.29-.36-2.58-.55-3.87a4.65,4.65,0,0,1,.2-2.31c.35-1,.67-2,1.09-2.93a3.37,3.37,0,0,1,.93-1.23c1.22-1,2.48-1.9,3.76-2.8a5.64,5.64,0,0,1,2.93-1c4.68-.3,9.33-1,14-.76a9.47,9.47,0,0,0,2.33-.22,5.1,5.1,0,0,0,1.42-.6,1.51,1.51,0,0,0,.79-1.24C497.36,102.79,497,102.58,496.74,102.49ZM418,120.05c.05-.14.07-.34.16-.39a1.28,1.28,0,0,1,.41-.13C418.5,119.92,418.32,120.1,418,120.05Zm6.38-3.6c-.74.73-1.47,1.46-2.23,2.16a3.09,3.09,0,0,1-3.39.75,1.79,1.79,0,0,1,.39-1.32,14.89,14.89,0,0,1,4.09-3.54,1.21,1.21,0,0,1,1.35-.08C425.15,114.84,425.06,115.78,424.37,116.46Zm52.47-15.94a1.2,1.2,0,0,1-1.37-.16A1.25,1.25,0,0,1,475,99c.06-.25.08-.5.14-.75a3.05,3.05,0,0,1,.24-.73c2.49-4.52,5.19-8.88,9.43-12a3.35,3.35,0,0,1,2.09-.84,1.36,1.36,0,0,1,1.13.84,7.18,7.18,0,0,1-.29,1.48,45.45,45.45,0,0,1-4.19,7.35A19.56,19.56,0,0,1,476.84,100.51Z"/><path class="cls-3" d="M381.32,118.22a9.43,9.43,0,0,0-3.82.59,13.28,13.28,0,0,1-6.18.45,5.32,5.32,0,0,1-4.15-3.17,3.57,3.57,0,0,1,.44-3c.36-.38.72-.75,1.09-1.12,1.3-1.28,2.63-2.52,3.9-3.84a19.2,19.2,0,0,0,4.07-6.6,3,3,0,0,0-1.39-3.3,5,5,0,0,0-4.51-.24,14.57,14.57,0,0,0-7.27,6.81c-.95,1.85-1.76,3.77-2.7,5.63a5,5,0,0,1-2.17,2.18,18,18,0,0,1-4.31,1.81,28.62,28.62,0,0,0-3,.83c-4.91,1.73-10,2.89-14.93,4.58a9,9,0,0,1-1.52.33,12.28,12.28,0,0,1-3.11.1,2.08,2.08,0,0,1-1.86-2.75,12.22,12.22,0,0,1,1.92-3.37,3.84,3.84,0,0,1,2.67-1.42c.78,0,1.56-.07,2.33-.13a2.47,2.47,0,0,0,1.88-1.25,16.79,16.79,0,0,0,1.36-2.8,5.49,5.49,0,0,0,.23-1.53,2.59,2.59,0,0,0-1.86-2.22,11.51,11.51,0,0,0-3.1-.1,5,5,0,0,0-2.81,1.23,58.92,58.92,0,0,0-6.14,7.06,11.43,11.43,0,0,0-.92,1.33,42,42,0,0,1-4.45,2.31c-2.73,1.18-5.52,1.14-8.39,1.84a3.42,3.42,0,0,1-3.46-1.33,5.5,5.5,0,0,1-1.24-2.82,4.9,4.9,0,0,1-.05-.78,26.28,26.28,0,0,1,.7-7,14.08,14.08,0,0,0,.57-3.06,2.51,2.51,0,0,0-1.88-2.18,7.29,7.29,0,0,0-5.26,1c-3.57,2.17-7.12,4.36-10.06,7.4-.54.56-1.29.91-1.81,1.48-2.05,2.23-4.82,3-7.56,3.82-2.88.26-5.53,1.5-8.38,1.91-1.81.26-3.48,1.09-5.32,1.29a10,10,0,0,1-4.63-.38,3.3,3.3,0,0,1-1.75-1.45,2.16,2.16,0,0,1,.24-2.15,4.68,4.68,0,0,1,1.19-1,42,42,0,0,0,11.55-10.44,14.2,14.2,0,0,0,3.1-6.25c.24-1.27.73-2.5,1-3.76a11.91,11.91,0,0,0,.36-2.31,6.26,6.26,0,0,0-1.76-5,3.69,3.69,0,0,0-4.28-.85,13.05,13.05,0,0,0-5,3.61c-1.71,2-3.43,3.94-5,6a81.09,81.09,0,0,0-4.71,7.2,24.4,24.4,0,0,0-3.15,8,8.63,8.63,0,0,1-.78,2.19,3.33,3.33,0,0,1-1,1.21,9.84,9.84,0,0,1-2.64,1.64c-2.25.72-4.23,2-6.43,2.85l-2.92,1.11a1.3,1.3,0,0,1-1.67-1c-.11-2.08-.18-4.17-.35-6.25a7.65,7.65,0,0,0-1.81-4.25,4.89,4.89,0,0,0-3.3-1.89,20.53,20.53,0,0,0-3.12-.07,6.79,6.79,0,0,0-4.31,1.62,7.5,7.5,0,0,1-4.22,1.86,3,3,0,0,0-2.26,1.92c-1.11,2.09-1.28,4.52-2.45,6.59-1.28,3.69-2.56,7.39-3.58,11.17a27.93,27.93,0,0,1-2.09,5.88,40.52,40.52,0,0,0-2.21,5.85,16.41,16.41,0,0,0-.87,5.39,4,4,0,0,0,.62,2.21,2.42,2.42,0,0,0,2,1,2.39,2.39,0,0,0,1.88-1.18,53.51,53.51,0,0,0,1.68-5.2c1.35-6.14,3.94-11.85,6.05-17.73a1.7,1.7,0,0,1,2.53-.72,11.32,11.32,0,0,0,7.35,2.18,19.67,19.67,0,0,0,7.64-1.45c3.59-1.52,7.36-2.63,10.76-4.61a21.9,21.9,0,0,1,3.56-1.6,3.15,3.15,0,0,1,3,.43l3.23,2.24,3.68,1.27a7.36,7.36,0,0,0,3.86.23,36.51,36.51,0,0,0,5.34-1.19c2.22-.81,4.55-1.13,6.75-2a18.56,18.56,0,0,1,3.81-.83,4.17,4.17,0,0,1,3.66.83,15.59,15.59,0,0,0,1.81,1.48,5.75,5.75,0,0,0,5.95.41,18.61,18.61,0,0,0,4.45-3.16,6.33,6.33,0,0,1,2.75-1.62c.72,1,1.44,2.11,2.23,3.13a8.32,8.32,0,0,0,3.71,2.78c.73.27,1.45.61,2.2.81,1.94.52,3.62-.77,5.35-1.36,2.22-.75,4.49-1.28,6.7-2.12l1.47-.57c0,.15,0,.3.07.44a6.56,6.56,0,0,0,3,4.35,7.66,7.66,0,0,0,3.64,1.27,16.13,16.13,0,0,0,4.67-.21c2-.47,4-1,6-1.56s4-1.16,6-1.82,3.87-1.6,5.88-2.09,4-1.14,6-1.7a2.44,2.44,0,0,1,2.21.41,14,14,0,0,1,1.7,1.6,13.79,13.79,0,0,0,5.91,3.68,7.9,7.9,0,0,0,5.36,0,39.82,39.82,0,0,0,6.4-2.88,3.4,3.4,0,0,0,.94-1.19.73.73,0,0,0,.05-.65A1,1,0,0,0,381.32,118.22ZM262.78,105.05a42.78,42.78,0,0,1,5.1-8.65c1.27-1.62,2.49-3.28,3.73-4.93A6.91,6.91,0,0,1,273.35,90a2,2,0,0,1,1.4-.4c.49.12.72.72.77,1.24s.06,1,.08,1.54a7.12,7.12,0,0,1-.2,1.53,22.1,22.1,0,0,1-3.42,6.88c-1,1.19-1.89,2.46-2.93,3.6a11.29,11.29,0,0,1-5.07,3.42,1.11,1.11,0,0,1-1.4-1.22A4.6,4.6,0,0,1,262.78,105.05Zm-27.11,11.71a5.45,5.45,0,0,1-1.19,2.83,3.38,3.38,0,0,1-3.48,1.12,12.27,12.27,0,0,1-4.11-2.14,2.21,2.21,0,0,1-.63-2.09,14.07,14.07,0,0,1,3.24-5.26,8,8,0,0,1,4-2.29,4.19,4.19,0,0,1,2,3.15A18.32,18.32,0,0,1,235.67,116.77Z"/><path class="cls-3" d="M163.8,110.57a2,2,0,0,1,2.19.21,5.94,5.94,0,0,1,1.54,1.75,3.33,3.33,0,0,1,.41,3c-.54,1.46-1.22,2.87-1.77,4.33a3.09,3.09,0,0,0,.17,2.28,4.16,4.16,0,0,0,2,2.27c1.18.56,2.42,1,3.35,1.35a6.79,6.79,0,0,0,1.07.09c.78-.09,1.55-.29,2.32-.32a18.21,18.21,0,0,0,6.09-1.34c1.21-.49,2.46-.89,3.65-1.43a3,3,0,0,0,1.08-1.07,1.92,1.92,0,0,0-.09-2.17,1.18,1.18,0,0,0-1.32-.66c-2.31.42-4.59.92-6.85,1.56a11.84,11.84,0,0,1-2.31.36,5,5,0,0,1-1.53-.13,1.71,1.71,0,0,1-1.23-2.38,10.26,10.26,0,0,1,.76-1.37,4.15,4.15,0,0,0-.39-5.08c-.48-.62-1-1.22-1.47-1.83a7.41,7.41,0,0,1-1.6-3.52,9.43,9.43,0,0,0-.36-1.52,3.45,3.45,0,0,0-2.12-2.14,2.86,2.86,0,0,0-3,.27c-1.43,1.13-2.74,2.42-4.11,3.63a49.13,49.13,0,0,1-12.53,7.93c-3.1,1.38-6.14,2.88-9.22,4.31a11.75,11.75,0,0,1-2.18.87c-2,.48-4.07.91-6.12,1.27a3.29,3.29,0,0,1-1.49-.34,2.82,2.82,0,0,1-1.38-2.57c.55-1.46,1.08-2.94,1.7-4.38a20.38,20.38,0,0,0,1.1-2.92,2.41,2.41,0,0,0-1.49-2.43,5.63,5.63,0,0,0-5.2.83,38,38,0,0,0-3.11,2.37c-1.58,1.37-3.1,2.8-4.63,4.22a24.88,24.88,0,0,1-4.44,3.2,18.75,18.75,0,0,1-2.15.92.86.86,0,0,1-1.28-.45,2.09,2.09,0,0,1-.25-1.48,7,7,0,0,1,1.44-2.75c1.68-2,3.4-4,5.07-6a8.12,8.12,0,0,0,.77-1.35,2.16,2.16,0,0,0-.52-2.12,2.63,2.63,0,0,0-2.91-.43c-2.09,1-4.1,2.28-6.14,3.44a35.44,35.44,0,0,1-11,3.92,2,2,0,0,1-1.87-1.12,21.19,21.19,0,0,0-2.13-4.18,6.49,6.49,0,0,0-2.36-2,2,2,0,0,0-1.51-.29,10.3,10.3,0,0,1-6.15.26,3.62,3.62,0,0,0-.78,0,4.12,4.12,0,0,0-2.23.63,7,7,0,0,0-1.25.94,8.93,8.93,0,0,1-5.55,2.61c-7.35,1.78-14.78,3.29-21.85,6.08a3,3,0,0,1-.77.14.88.88,0,0,1-1-.85,3.12,3.12,0,0,1,.14-1.54,45.42,45.42,0,0,1,3-6.37c.68-1.11,1.21-2.31,1.8-3.47a2.08,2.08,0,0,0-.84-2c-1.53-.66-3.15-.85-4.45.25-5.41,4.61-11.55,8.07-17.74,11.44a31.07,31.07,0,0,1-2.8,1.39,52.79,52.79,0,0,0-6.3,3.15,18.75,18.75,0,0,1-4.33,1.78,2.24,2.24,0,0,1-.77,0,1.43,1.43,0,0,1-1-1.76c1.55-2.72,3.1-5.43,4.61-8.17a4.88,4.88,0,0,0,.53-3,2.78,2.78,0,0,0-1.34-1.79,11.87,11.87,0,0,0-6.94-.31c-2.77.73-5.5,1.62-8.24,2.48a3.58,3.58,0,0,0-1.36.75A3.85,3.85,0,0,0,.07,109a.89.89,0,0,0,0,.76,3.67,3.67,0,0,0,1.13,1,3.83,3.83,0,0,0,1.51.31,10.9,10.9,0,0,0,5.33-1,21.94,21.94,0,0,1,2.17-.9,1.3,1.3,0,0,1,1.63,1.75,21.76,21.76,0,0,1-2.55,3.94,30.67,30.67,0,0,0-1.77,2.58,4.68,4.68,0,0,0,.37,5.15A4.58,4.58,0,0,0,9.78,124a10.09,10.09,0,0,0,7.64,0A28.92,28.92,0,0,0,21,122.31c5.71-3.16,11.66-5.88,17.28-9.2a7.7,7.7,0,0,1,3-1,1.91,1.91,0,0,1,.45,1.42c-.08,1.33-.79,2.48-1.11,3.74a4.48,4.48,0,0,1-2.2,3.07c-2.54,1.36-4.9,3-7.29,4.59a27.29,27.29,0,0,0-9.12,9.51c-.63,1.15-1.3,2.27-1.91,3.42a8.26,8.26,0,0,0-.76,4.58,4.29,4.29,0,0,0,.41,1.5,6,6,0,0,0,8.61,2.68,19.31,19.31,0,0,0,5.82-5.17c1.84-2.53,3.68-5.07,5.35-7.72a37.92,37.92,0,0,0,2.37-4.92c.85-1.91,1.62-3.85,2.44-5.77a5.73,5.73,0,0,1,3.2-3.26c2.92-1.15,5.85-2.24,8.78-3.35a8.07,8.07,0,0,1,1.48-.49c2.85-.47,5.51-1.62,8.31-2.24a10.18,10.18,0,0,1,2.33-.05,1.28,1.28,0,0,1,.73.22,1.4,1.4,0,0,1,.67,1.29c-.32,1.26-.8,2.47-1.13,3.73a4.25,4.25,0,0,0,.85,3.68,6,6,0,0,0,3.84,2.5,11.34,11.34,0,0,0,6.16-.44,31.6,31.6,0,0,0,9-4.74,21.86,21.86,0,0,1,1.91-1.37,4.21,4.21,0,0,1,2.21-.68,12.44,12.44,0,0,0,3.85-.62A21.92,21.92,0,0,1,100.9,116a2,2,0,0,1,.74,1.32c0,.78,0,1.56,0,2.34a6.84,6.84,0,0,0,2.43,4.74,2.12,2.12,0,0,0,.68.38,7.59,7.59,0,0,0,6.79-.13,30.69,30.69,0,0,0,6.93-5.08,16.46,16.46,0,0,1,1.87-1.39c.57-.43,1-.34,1.28.32.51,1.2,1,2.41,1.52,3.59a4.53,4.53,0,0,0,.91,1.26,7.29,7.29,0,0,0,7.16,2.18,48.54,48.54,0,0,0,8.93-2.87c3.08-1.42,6.22-2.7,9.33-4.06.72-.31,1.43-.64,2.11-1C155.71,115.33,159.92,113.24,163.8,110.57ZM36.62,128.37A64,64,0,0,1,29,140.12,6.52,6.52,0,0,1,26,142.37c-.58.19-1.74-.45-1.78-1.06a11.27,11.27,0,0,1,0-1.52,2.07,2.07,0,0,1,.21-.73,31.34,31.34,0,0,1,9.24-11.17,9.6,9.6,0,0,1,1.33-.76,1.22,1.22,0,0,1,1.39,0A.81.81,0,0,1,36.62,128.37ZM81.9,118.19a7.41,7.41,0,0,1-1.3.82c-1.44.54-2.9,1-4.37,1.51-.92.3-2-.85-1.76-1.88a6.28,6.28,0,0,1,.15-.75,15,15,0,0,1,3.24-5.2,5.67,5.67,0,0,1,1.3-.81,4.52,4.52,0,0,1,.63.45,18.27,18.27,0,0,1,2.61,3.8A1.85,1.85,0,0,1,81.9,118.19Z"/><path class="cls-3" d="M316.6,39.11a23.64,23.64,0,0,1,4.69-6.22,4.82,4.82,0,0,1,4.3-1.37,11.6,11.6,0,0,1,2.28.52c2.93,1.09,5.86,2.2,8.84,3.14a3.47,3.47,0,0,1,1.75,1.5,12.74,12.74,0,0,1,.8,1.35c1.4,2.85,4,4,6.85,4.71a12.33,12.33,0,0,0,6.21-.1c2-.56,4.1-.8,6.1-1.38,1.49-.44,2.86-1.28,4.32-1.84,3.9-1.5,7.68-3.27,11.47-5a34.78,34.78,0,0,0,9.9-6.21,6.39,6.39,0,0,1,.65-.44,1.78,1.78,0,0,1,2.13,0c1.54,1.3,2,3.05.68,4.8a31,31,0,0,0-1.81,2.55,3.83,3.83,0,0,0-.17,3.74,10,10,0,0,0,2.92,3.62,6.76,6.76,0,0,0,4.25,1.75c1.56,0,3.13,0,4.7,0a18.59,18.59,0,0,0,5.36-1,47.66,47.66,0,0,0,5.06-2.1,5.88,5.88,0,0,0,1.31-.84,7.11,7.11,0,0,0,1-1.16,1.39,1.39,0,0,0,.33-1.4,1.28,1.28,0,0,0-1.4-.51c-2.29.48-4.55,1.12-6.78,1.81a22.17,22.17,0,0,1-7.73.91,5.63,5.63,0,0,1-2.23-.65,2.49,2.49,0,0,1-1-2.7c.46-1.25,1.43-2.17,2-3.34a3.3,3.3,0,0,0,0-3,8.51,8.51,0,0,0-.8-1.34,15.53,15.53,0,0,1-1.86-3.43,7,7,0,0,1-.45-3.83c.09-.51.3-1,.37-1.52A2.86,2.86,0,0,0,389,17.6a2.48,2.48,0,0,0-2.84.62c-.87,1.29-1.7,2.62-2.59,3.9a16.16,16.16,0,0,1-5,4.85c-1.12.66-2.12,1.52-3.2,2.25a27.33,27.33,0,0,1-2.65,1.66,101.25,101.25,0,0,1-18.93,7.33,15.81,15.81,0,0,1-7,.32,4,4,0,0,1-2-1.07,1.71,1.71,0,0,1,0-2.11,9.13,9.13,0,0,1,1.85-1.4A28.37,28.37,0,0,0,352,30.8a17,17,0,0,0,1.82-1.46,5.52,5.52,0,0,0,1.78-4.2,35.61,35.61,0,0,0-.65-4.64,3,3,0,0,0-2.89-2.16,4.54,4.54,0,0,0-2.25.54q-2.32,1.45-4.61,3a16,16,0,0,0-4.4,4.4c-.74,1.07-1.37,2.21-2.11,3.28a2.37,2.37,0,0,1-2.06.92,7.49,7.49,0,0,1-2.31-.34c-2-.68-3.89-1.52-5.86-2.19a21.25,21.25,0,0,0-3.8-.91,8.17,8.17,0,0,0-6,1.11,6.26,6.26,0,0,1-.68.39c-1.34.69-1.9.4-2.06-1a12.09,12.09,0,0,0-.43-3.07c-.61-1.62-3.15-2.79-4.55-2-2.24,1.34-4.48,2.67-6.65,4.11a93.34,93.34,0,0,1-8.8,5.1,15,15,0,0,1-1.45.53A1.75,1.75,0,0,1,292.33,31c-.08-.78-.11-1.56-.16-2.34A9.8,9.8,0,0,0,291,24.93a4.09,4.09,0,0,0-3-2.23,8.15,8.15,0,0,0-6,1c-.45.27-.87.57-1.3.87a5.6,5.6,0,0,1-3.69,1,6,6,0,0,0-3,.66,17.68,17.68,0,0,0-5.14,3.52A31.33,31.33,0,0,1,260,36.1a26.61,26.61,0,0,0-2.7,1.58c-2.88,1.8-6,3.17-9,4.69a23.53,23.53,0,0,1-2.94,1A2.52,2.52,0,0,1,242.78,42a4,4,0,0,1-.39-2.28,35.78,35.78,0,0,1,1-4.57c.72-2.26,1.73-4.37,4-5.52a3.67,3.67,0,0,0,1.24-.94c1.45-1.84,3-3.58,4.28-5.56a2,2,0,0,0-.81-2.67,4.28,4.28,0,0,0-.75-.24A4.91,4.91,0,0,0,247,21.36a32.73,32.73,0,0,0-8,9.55,2.37,2.37,0,0,1-.43.65,7.54,7.54,0,0,1-1.2,1,8,8,0,0,1-2.08,1.07c-2.29.58-4.34,1.77-6.6,2.43s-4.48,1.4-6.73,2.07a10,10,0,0,1-1.53.31l-6.87.92c-1.34-.44-2.64-.63-3.67-1.52a1,1,0,0,1-.31-1.39c1.44-2.48,3.15-4.78,4.82-7.1a45.11,45.11,0,0,0,4.15-7.53,8.12,8.12,0,0,0,.51-2.28A4.06,4.06,0,0,0,215.78,15a6.59,6.59,0,0,0-3.1.11,29.57,29.57,0,0,0-7.77,3.64A75.34,75.34,0,0,0,198,23.82a42.09,42.09,0,0,1-4.9,3.89,105.27,105.27,0,0,1-9.5,5.44,169.08,169.08,0,0,1-15.85,6.69,33.16,33.16,0,0,1-4.52,1.26,2.38,2.38,0,0,1-2.13-.72,7.38,7.38,0,0,1-1.41-1.85,3.88,3.88,0,0,1-.3-3c1.11-3.31,2.87-6.13,6.05-7.85a4.75,4.75,0,0,0,.66-.41c.21-.16.37-.37.57-.54a1.81,1.81,0,0,0-.08-2.13,3.1,3.1,0,0,0-3.53-.89,9.17,9.17,0,0,0-2.09,1c-2.47,2.11-5.49,2.92-8.5,3.8-1.75.51-3.51,1-5.27,1.46a12.17,12.17,0,0,1-2.3.41c-2.08.13-4.17.19-6.26.26a6,6,0,0,1-.76-.13,3.46,3.46,0,0,1-1.8-1.37,28.73,28.73,0,0,0-6-12.59,13,13,0,0,1-.74-1.37,16.11,16.11,0,0,0-1.36-1.91,68.55,68.55,0,0,0-7.19-7.2,16.66,16.66,0,0,0-1.93-1.32c-.88-.56-1.79-1.08-2.68-1.62-2.72-1.66-5.82-2.24-8.83-3.06a2.54,2.54,0,0,0-.78-.06c-2.59.12-5.19.18-7.77.42a31.94,31.94,0,0,0-4.6.91c-1,.25-2,.65-3,1-.24.09-.45.25-.69.35-.74.31-.66,1.14.14,1.85a4,4,0,0,0,3.67.82c1.53-.31,3-.91,4.53-1.16a48.08,48.08,0,0,0,5.42-.73,3.5,3.5,0,0,1,1.54.06c1.53.3,3.06.67,4.59,1a11.21,11.21,0,0,1,2.93,1.06c1.38.73,2.77,1.46,4.14,2.21a6.55,6.55,0,0,1,1.29.88,37.84,37.84,0,0,1,5.38,5.67c1.36,1.91,2.64,3.88,3.85,5.9a27.39,27.39,0,0,1,2.61,5.68,11.71,11.71,0,0,1,.47,3.08,2.7,2.7,0,0,1-1.94,3c-2.75.83-5.51,1.61-8.24,2.47a32,32,0,0,0-6.46,2.77,13,13,0,0,0-4.68,4.05c-.57.87-1.4,1.58-1.89,2.49a7.35,7.35,0,0,0-.63,6,2.75,2.75,0,0,0,.88,1.26,8.71,8.71,0,0,0,5.8,2,11.35,11.35,0,0,0,3.84-.62c2.17-.9,4.39-1.71,6.45-2.81a20.46,20.46,0,0,0,9.65-9.9c.31-.72.62-1.44,1-2.14,1-2.08,1.71-2.58,4.06-3.28a18.68,18.68,0,0,1,4.64-.65,26.32,26.32,0,0,0,7.68-1.33,6.56,6.56,0,0,1,.77-.12,2,2,0,0,1,2.13,1.74,24.89,24.89,0,0,0,.25,5.46,6.13,6.13,0,0,0,.53,1.46,8.25,8.25,0,0,0,4.69,3.92,5.37,5.37,0,0,0,1.52.35c2.88.14,5.74.11,8.44-1.15,1.18-.55,2.44-.93,3.63-1.45,3.59-1.56,7.14-3.21,10.74-4.73a52.65,52.65,0,0,0,9.7-5.05,7,7,0,0,1,.71-.33,1.8,1.8,0,0,1,2.1.46l.42.65c2.86,4.43,3.38,4.89,8,7.16.93.46,1.89.89,2.83,1.33a10.05,10.05,0,0,0,3.78.91c1.3.07,2.61.13,3.91.15a15.86,15.86,0,0,0,4.64-.62,97.63,97.63,0,0,0,12.58-4.27,21.45,21.45,0,0,1,2.23-.71,2.12,2.12,0,0,1,1.92,1,17.47,17.47,0,0,1,.55,3.05,8.07,8.07,0,0,0,5.21,6.34,6.09,6.09,0,0,0,5.3-.2c5-2.8,10-5.62,15-8.51,1.34-.78,2.5-1.88,3.77-2.78a5,5,0,0,1,1.39-.63c.08,0,.39.38.42.61a5.23,5.23,0,0,1-.4,2.28,4.34,4.34,0,0,0,.32,3,7.19,7.19,0,0,0,4.64,3.89,2.81,2.81,0,0,0,1.53-.06,29.33,29.33,0,0,0,6.38-2.94c2.75-1.49,5.48-3,8.37-4.25,6.25-2.63,12.39-5.5,18.45-8.55.55-.28,1.69.44,1.78,1,.37,2.59-.14,5.2.16,7.8a4.43,4.43,0,0,0,1.81,3.29,2.91,2.91,0,0,0,4.11-.72Q316.07,40.16,316.6,39.11Zm32.83-14.4c.19,0,.41.28.61.43a2.08,2.08,0,0,1-.13.63,6.16,6.16,0,0,1-2.79,2.5.65.65,0,0,1-.57-.1c-.17-.14-.36-.43-.32-.61A4,4,0,0,1,349.43,24.71ZM129.11,37.86a3.17,3.17,0,0,1-.12.75,19.85,19.85,0,0,1-6.42,7.58,15.14,15.14,0,0,1-4.87,2.28c-.74.22-1.5.37-2.45.6l-1.3.23c-.75.14-2.09-1.29-1.9-2.05a9.11,9.11,0,0,1,3.15-5.15,36.09,36.09,0,0,1,9.45-5.16,7.06,7.06,0,0,1,3-.44,2.54,2.54,0,0,1,.71.19A1,1,0,0,1,129.11,37.86Zm76.34-5.35a1.32,1.32,0,0,1-2-.32c-.09-.24-.26-.44-.33-.68-.31-1-.58-2-.89-3a2,2,0,0,1,.57-2.11c2.54-2.58,5.22-5,8.73-6.17.46-.16.85.15,1.11.72a8.46,8.46,0,0,1-.12,1.52,4.17,4.17,0,0,1-.63,1.39C209.8,26.81,208,30,205.44,32.51Zm69.09,6.93c-.18-.07-.45-.42-.41-.51a.78.78,0,0,1,1.16-.37,2.45,2.45,0,0,1,.49.46A1.06,1.06,0,0,1,274.53,39.44ZM287,28.24a11.09,11.09,0,0,1-5.92,7.64,2.08,2.08,0,0,1-.7.09,3,3,0,0,1-.67-.37,2.67,2.67,0,0,1-.44-3.47,21.62,21.62,0,0,1,5.65-5.19,1.24,1.24,0,0,1,1.43,0A1.27,1.27,0,0,1,287,28.24Z"/><path class="cls-3" d="M111.12,9.82a2.46,2.46,0,0,0-1-2,2.72,2.72,0,0,0-3.41.82,13.45,13.45,0,0,0-1.46,3.6,18.56,18.56,0,0,1-1.53,5.22c-1.44,4.73-3.48,9.23-5.21,13.85-.91,2.43-1.77,4.87-2.56,7.34a37.34,37.34,0,0,0-1.54,7c0,.33-.06.85-.1,1.37a3.94,3.94,0,0,0,2.58,3.54,1.71,1.71,0,0,0,.75.08,1.48,1.48,0,0,0,1.26-.75,18,18,0,0,0,1.51-5.21c.37-1.78.56-3.61,1.07-5.34,1.11-3.73,2.17-7.47,3.65-11.08,2.06-5,3.7-10.25,5.51-15.39A9.12,9.12,0,0,0,111.12,9.82Z"/><path class="cls-3" d="M172.31,14.66a5,5,0,0,0,1.29.78,7.72,7.72,0,0,0,4.54,0,1.31,1.31,0,0,0,.78-1.79,2.93,2.93,0,0,0-2.48-1.53l-2,0a17,17,0,0,0-1.76.27,1.17,1.17,0,0,0-1,1A1.44,1.44,0,0,0,172.31,14.66Z"/><path class="cls-3" d="M274.81,209.9c-.26,0-.52,0-.78.05l-3.82.53c-.3-.52-.73-1-.76-1.41-.13-2.08-.12-4.17-.21-6.25a7.7,7.7,0,0,0-.35-1.51,3.08,3.08,0,0,0-3.74-1.9,16.38,16.38,0,0,0-4.12,2.21l-2.45,2a46.66,46.66,0,0,1-12.18,7,9,9,0,0,1-3.83.61,3,3,0,0,1-2.93-3,6.62,6.62,0,0,1,.68-3c.65-1.13,1.37-2.22,2-3.36a6.67,6.67,0,0,0,.42-1.48,2.1,2.1,0,0,0-1-1.92,3.14,3.14,0,0,0-3,.42,8.29,8.29,0,0,0-2,2.38,7.53,7.53,0,0,1-2,2.38,45.79,45.79,0,0,1-13.38,7.08L220,211a24.57,24.57,0,0,1-8.5.71,3.72,3.72,0,0,1-2.55-1,4.2,4.2,0,0,1-.86-1.94c-.07-.68.66-.82,1.19-1.11a18.49,18.49,0,0,0,3.8-2.69,11.49,11.49,0,0,0,2.92-4.48c.29-.77.81-1.43,1.1-2.23a8.55,8.55,0,0,0,.53-2.83c0-.71-.05-1.4-.07-2.09a4,4,0,0,0-.31-2.24,2.65,2.65,0,0,0-1.78-1.13,6.49,6.49,0,0,0-2.16,0,9.36,9.36,0,0,0-2.19.53,10.15,10.15,0,0,0-3.55,2.79q-1.12,1.23-2.13,2.56a7.59,7.59,0,0,0-.94,1.47,8,8,0,0,0-.45,1.49q-.48,2.07-.86,4.16-.19,1-.36,2.09c-.09.56,0,1.27-.55,1.63-1.25.87-2.52,1.7-3.83,2.47-.59.34-1.2.61-1.8.91a3.18,3.18,0,0,0-.41.25c-1.25.44-2.53.82-3.82,1.18a11.51,11.51,0,0,1-5.44.09,5.54,5.54,0,0,1-2.67-1.53,1.72,1.72,0,0,1-.09-2.1c1.15-1.44,2.69-2.46,4-3.76,3.64-3.71,4.25-8,6.37-12.45a32.08,32.08,0,0,0,2.52-6.53,16.1,16.1,0,0,0-.2-7.87c-.3-1.07-1-2.3-2.08-2.29a2.75,2.75,0,0,0-1.78,1c-4.4,4.38-8,9.48-11.55,14.56a14.19,14.19,0,0,0-2.83,6.84c-.24,2.62-1.25,5.06-1.66,7.64a3.27,3.27,0,0,1-2,2.28,24.22,24.22,0,0,1-6.63,2.28,14.23,14.23,0,0,1-7.71-.6,4.49,4.49,0,0,1-1.35-.76,7.82,7.82,0,0,1-3.11-5.24c-.16-1.56-.28-3.12-.52-4.66a15,15,0,0,0-.83-3,2.38,2.38,0,0,0-1.73-1.42,3.77,3.77,0,0,0-4.2,1.28,32,32,0,0,0-3.71,5,23.24,23.24,0,0,1-4.88,6.06.62.62,0,0,1-.58.1,1.08,1.08,0,0,1-.35-.68,11.74,11.74,0,0,1,2.58-8c1.11-1.45,2.29-2.85,3.36-4.32a53.07,53.07,0,0,0,6.32-11.66,4.39,4.39,0,0,0,0-3.07,2.79,2.79,0,0,0-2.26-1.89,2.64,2.64,0,0,0-2.16.7,9.21,9.21,0,0,0-1.07,1.13c-2.52,2.72-3.72,6.27-5.83,9.26a21.29,21.29,0,0,0-1.63,3.54c-.76,1.66-1.53,3.32-2.29,5a4.82,4.82,0,0,1-1.45,1.82c-2.7,2.08-6,3.2-8.69,5.28a6.39,6.39,0,0,1-1.4.66c-.24.1-.51.13-.75.24a24.85,24.85,0,0,0-2.81,1.34,16.26,16.26,0,0,1-4.27,1.89c-2.51.69-5,1.51-7.49,2.26a3.74,3.74,0,0,1-.77.14,2,2,0,0,1-1.45-.42,1.11,1.11,0,0,1-.27-1.36,15,15,0,0,1,2.29-4.95,16.71,16.71,0,0,0,2.88-5.51,5.32,5.32,0,0,0,.08-2.31,3.08,3.08,0,0,0-3-2.06,50,50,0,0,1-6.06,1.46,8.89,8.89,0,0,0-1.49.46c-5,1.57-9.87,3.37-15,4.21-2.94,1.15-6.08,1.44-9.11,2.21a8.77,8.77,0,0,1-2.33,0c-.75,0-1.58-.9-1.48-1.5a113.35,113.35,0,0,1,3.48-13.6,100.1,100.1,0,0,0,3.09-11.3c.25-1.53,1-3,1.17-4.54s-.5-3.19-2.44-3.17a1.75,1.75,0,0,0-1.43.5c-1.51,1.78-2.79,3.75-4.43,5.44a20.06,20.06,0,0,0-1.3,1.94c-.95,1.25-1.91,2.49-2.93,3.67S67,181.6,66,182.8s-1.81,2.56-2.82,3.74c-1.53,1.78-3.21,3.43-4.74,5.21a85.45,85.45,0,0,1-11.73,11.47c-.82.65-1.58,1.36-2.35,2.07-1.92,1.77-3.77,3.62-5.77,5.29-2.22,1.85-3.93,4.18-6.07,6.1-1.17,1-2.25,2.18-3.39,3.25a12,12,0,0,1-3.25,2.14,3.23,3.23,0,0,0-1.05,1.07.87.87,0,0,0-.1.72,3.11,3.11,0,0,0,4.52,1.56,7.32,7.32,0,0,0,1.23-1c1.65-1.67,3.32-3.32,4.9-5.06,4.22-4.66,9.07-8.62,13.82-12.7a2.75,2.75,0,0,1,2.2-.59,8,8,0,0,1,2.28.5A16.75,16.75,0,0,0,60.54,208a12.63,12.63,0,0,1,3.87.37,2,2,0,0,1,1,1.06,3.56,3.56,0,0,1,0,2.31c-.56,2-1.18,4-1.74,5.85-.7,1-1.35,1.8-1.91,2.68a2.36,2.36,0,0,0-.25,2.22,16.79,16.79,0,0,0,.94,2.14,3.35,3.35,0,0,0,1.07,1.11c1.66,1.06,2.63.7,3.18-.7a91.2,91.2,0,0,0,3.37-10.41c.52-2,1.15-4,1.72-6a2.37,2.37,0,0,1,1.54-1.64,26.57,26.57,0,0,1,6.81-1.72,20.09,20.09,0,0,0,4.57-1,32.08,32.08,0,0,1,6.05-1.48,1.34,1.34,0,0,1,1.25.77,21,21,0,0,1,1.81,5.16,24.64,24.64,0,0,0,1.53,5.25,7,7,0,0,0,3,3.48,2.53,2.53,0,0,0,2.24.12,1.79,1.79,0,0,0,.68-.38,7.31,7.31,0,0,1,5.63-2.23c3.17,0,6.13-1.16,9-2.4,5.51-2.38,10.78-5.27,16.22-7.81a1.23,1.23,0,0,1,1.58,1.14,9.37,9.37,0,0,0-.19,2.33,27.91,27.91,0,0,0,1.22,4.52,5,5,0,0,0,1.44,1.81,3.64,3.64,0,0,0,4.93-.42c2.73-3.8,5.63-7.5,8-11.56a1,1,0,0,1,1.36-.47,1.76,1.76,0,0,1,1,1.07c.17.49.24,1,.38,1.52a13.44,13.44,0,0,0,12,9.68,17.88,17.88,0,0,0,7-.8c2-.7,4-1.31,5.94-2a3,3,0,0,1,2.93.59,19.86,19.86,0,0,0,4.49,3.1,11.45,11.45,0,0,0,2.19.79,13.35,13.35,0,0,0,7-.23c2.05-.7,4.15-1.29,6.17-2.09l0-.06a22,22,0,0,0,4-1.93,5.92,5.92,0,0,0,2.8,2.67,17.61,17.61,0,0,0,3.74,1.22,21.47,21.47,0,0,0,4,.71h.66a16,16,0,0,0,4.28-.82,19.72,19.72,0,0,0,3.1-.95l.09,0c.59-.18,1.19-.2,1.77-.36a4.66,4.66,0,0,0,1.43-.83c2.45-.9,4.79-2.09,7.2-3.08a1.67,1.67,0,0,1,2.11.3c.81,1,1.58,2.07,2.46,3a6.07,6.07,0,0,0,4.15,2c1,.08,2.08.09,3.12.08a4.55,4.55,0,0,0,1.54-.23,42.2,42.2,0,0,0,5.78-2.37c3.17-1.79,6.54-3.26,9.4-5.6a4.92,4.92,0,0,1,1.39-.7,1.33,1.33,0,0,1,.77,0,1.25,1.25,0,0,1,1,1,8.47,8.47,0,0,1-2.61,7.08c-1.93,1.76-3.95,3.42-5.81,5.24a36,36,0,0,0-8.08,11.44,9.2,9.2,0,0,0-.71,3,10.25,10.25,0,0,0,.23,3.88,9.65,9.65,0,0,0,3,4.47,4,4,0,0,0,1.38.7,9.93,9.93,0,0,0,3.87.31,5,5,0,0,0,3.4-1.71,10.56,10.56,0,0,0,1.43-1.85,33.3,33.3,0,0,0,3.78-9.39c.5-2.55,1.51-5,2-7.55a35.59,35.59,0,0,1,1.65-5.21,3.74,3.74,0,0,1,.87-1.28,9.88,9.88,0,0,1,3.84-2.62,10,10,0,0,0,3.38-1.9,1.44,1.44,0,0,0,.58-1.38A1.77,1.77,0,0,0,274.81,209.9ZM70.67,193.05c-.3,1.92-1.6,4.51-2,7.34a4.09,4.09,0,0,1-.61,1.41,3.24,3.24,0,0,1-2.45,1.69,31.49,31.49,0,0,1-9.26-.38,1.91,1.91,0,0,1-1.14-.89,1.39,1.39,0,0,1,.28-1.45,11.61,11.61,0,0,1,.92-1.24c1.07-1.12,2.18-2.21,3.27-3.31a99.32,99.32,0,0,0,7.82-8.6,27.28,27.28,0,0,1,4.87-5c.15-.11.48-.2.58-.12a.86.86,0,0,1,.32.66C72.49,186.2,71.69,189.19,70.67,193.05ZM106.22,200a60.44,60.44,0,0,1-3.66,6.85,5.39,5.39,0,0,1-1,1.16,1.76,1.76,0,0,1-2.67-.43,12.19,12.19,0,0,1-1.73-4.3,2.94,2.94,0,0,1,1.77-3.11,15.24,15.24,0,0,1,1.46-.54,15.54,15.54,0,0,1,1.53-.27l1.54-.24,1.5-.44a1,1,0,0,1,1.25.55A1,1,0,0,1,106.22,200Zm76.57,3a.91.91,0,0,1-.76-.73v.09c0-.06,0-.11,0-.17a.8.8,0,0,1,0-.17c-.07-2.54,1.06-5,2.25-7.27a95.49,95.49,0,0,1,5.69-9.71c.72-1.07,1.66-2.22,3-2.33a6.45,6.45,0,0,1-.56,3.55,94.06,94.06,0,0,1-5.5,12.2,13.63,13.63,0,0,1-2.89,4A1.66,1.66,0,0,1,182.79,203Zm24.61-1.83a7.05,7.05,0,0,1,1.87-3.32,14.27,14.27,0,0,1,1.35-1.15,4.47,4.47,0,0,1,1.21-.74,1.59,1.59,0,0,1,1.37.08c1,.62.11,1.67-.25,2.38A9.79,9.79,0,0,1,211,201a18.1,18.1,0,0,1-1.7,1.32c-.65.5-1.21,1.09-1.89,1.56A5.4,5.4,0,0,1,207.4,201.17Zm53.4,24.56c-.22.75-.47,1.49-.76,2.38a32.79,32.79,0,0,1-3.78,10.06c-.25.47-1.53,1.29-1.94,1.16a2.54,2.54,0,0,1-1.72-1.42,4,4,0,0,1-.21-3c.09-.24.15-.5.25-.74a32.74,32.74,0,0,1,6.41-9.74,1,1,0,0,1,1.35-.07,1.26,1.26,0,0,1,.43.63A1.5,1.5,0,0,1,260.8,225.73Z"/><path class="cls-3" d="M352.18,168.08a1.81,1.81,0,0,0-2.07.59A25.51,25.51,0,0,0,348,174.5c-.92,4.33-2.26,8.55-3.58,12.77a6.76,6.76,0,0,1-.64,1.42,3.55,3.55,0,0,1-1.62,1.63c-3.64,1.48-7.5,2.14-11.29,3.06a31.28,31.28,0,0,1-7,.58,2.24,2.24,0,0,1-2-1.17c.44-1.4.87-2.9,1.38-4.37s1.1-2.92,1.7-4.37a12.92,12.92,0,0,0,.85-3.8c.1-1,.14-2.08.21-3.12a3.13,3.13,0,0,0-1.32-2.67,1.41,1.41,0,0,0-2,.32,9.57,9.57,0,0,0-.59,1.44,55,55,0,0,1-3.43,10.36c-.31.71-.43,1.51-.74,2.22-.61,1.44-1.24,2.87-1.94,4.26a3.59,3.59,0,0,1-3.13,2c-3.9.23-7.81.46-11.64-.72a1.31,1.31,0,0,0-.77,0,1.72,1.72,0,0,0-.61.47,1.24,1.24,0,0,0-.26,1.38,2.91,2.91,0,0,0,1.62,1.61,22.06,22.06,0,0,0,8.33,1.86,8.06,8.06,0,0,1,2.26.44,1,1,0,0,1,.68,1.2,8.29,8.29,0,0,1-1.14,2.88,22.37,22.37,0,0,0-2.44,4.89c-.71,2.2-.67,4.63,2.22,5.85a1.24,1.24,0,0,0,1.43-.28,7.83,7.83,0,0,0,.94-1.21c1-1.57,1.06-3.49,1.91-5.11a60.44,60.44,0,0,0,3.1-7.16,3.06,3.06,0,0,1,1.66-1.58,9.24,9.24,0,0,1,2.21-.77c1.79-.33,3.63-.46,5.4-.85a41.53,41.53,0,0,1,6.15-1.06c1.79-.12,3.56-.49,5.35-.75a1.59,1.59,0,0,1,.83,1.23,10.65,10.65,0,0,1-1,5.31c-1.94,4.31-2.8,8.93-3.91,13.48a3.34,3.34,0,0,0,2.33,3.61,2,2,0,0,0,2-.87,32.26,32.26,0,0,0,1.91-5.94c.17-1,.53-2,.8-3,1.29-4.78,3.14-9.37,4.52-14.12a13.81,13.81,0,0,1,3.49-6,2.25,2.25,0,0,0,.38-2.84,3.4,3.4,0,0,1-.35-3c.52-1.47.92-3,1.36-4.48.81-2.74,1.44-5.53,2.17-8.29A3,3,0,0,0,352.18,168.08Z"/><path class="cls-3" d="M447,175.3a3.14,3.14,0,0,0-3.59.59,15.62,15.62,0,0,0-1.36,1.89c-2.84,5-5.75,9.94-8.81,14.8a17,17,0,0,1-4.08,4.7c-.83.62-1.51,1.42-2.29,2.11a15.81,15.81,0,0,1-1.82,1.46c-2.19,1.42-4.38,2.85-6.61,4.19a49.93,49.93,0,0,1-9.84,4.77l-.74.25a3.22,3.22,0,0,1-4.07-1.34,2.19,2.19,0,0,1-.17-2.2,7.33,7.33,0,0,1,1.52-1.77,40,40,0,0,0,6.7-7.61,27.29,27.29,0,0,0,2.29-4.09,46.18,46.18,0,0,0,1.72-4.37,13.79,13.79,0,0,0,.78-5.39,3.58,3.58,0,0,0-1.38-2.69,4.29,4.29,0,0,0-4.45-.12A14.45,14.45,0,0,0,409,182a65,65,0,0,0-5.87,7.33,27.2,27.2,0,0,0-3.5,6.1c-1.05,2.65-2.28,5.27-2.59,8.17a2.69,2.69,0,0,1-1.21,1.93,43.16,43.16,0,0,1-4.69,2.83,50.66,50.66,0,0,1-6.46,2.79,25.6,25.6,0,0,1-6,1.7,3.93,3.93,0,0,1-3-.72,5.4,5.4,0,0,1-1.73-4.92c.54-1.74,1.12-3.48,1.68-5.21l.14,0c.77-1.93,1.57-3.86,2.28-5.81a1.45,1.45,0,0,0-.5-1.4,2.57,2.57,0,0,0-2.85-.7c-1.23.39-2.36,1.18-3.72,1.06a8.68,8.68,0,0,0-6.49,2.22c-1,.84-2.05,1.62-3,2.46a43.74,43.74,0,0,1-4.24,3.46,11.8,11.8,0,0,0-3.87,4.83,3.51,3.51,0,0,0,.26,3.72,41.47,41.47,0,0,0,3.07,3.54,1.67,1.67,0,0,0,2.09.49,55.89,55.89,0,0,0,7.84-5.14c.84-.72,1.46-.64,1.91.09a31.51,31.51,0,0,0,2.07,3.32,8.21,8.21,0,0,0,6.75,3.36,16.32,16.32,0,0,0,6.12-1.06c1.93-.8,3.89-1.5,5.78-2.41,1.65-.79,3.31-1.55,5-2.33.71-.33,1.4-.71,2.13-1a2.22,2.22,0,0,1,2.2.38,24.38,24.38,0,0,0,5.27,3.36,6.45,6.45,0,0,0,4.55.55c1-.29,2-.56,3-.89a12.48,12.48,0,0,0,2.17-.86,89.4,89.4,0,0,0,12.59-7.88c.61-.48,1.31-.85,2-1.27s1.65.27,1.8.91a17,17,0,0,1,0,4.66,9,9,0,0,0,1.41,5.2c.13.22.3.42.45.63a2.71,2.71,0,0,0,1.25.9,1.8,1.8,0,0,0,2.12-.4,1.19,1.19,0,0,0,.2-1.4,11,11,0,0,1-.92-6.1,23.45,23.45,0,0,1,1.85-7.92c1.15-2.26,3.35-3.54,5.18-5.18,4.11-3.66,6.07-9.25,6.51-14.74C448.08,179.33,448.63,176.11,447,175.3Zm-41.55,19.17a20.09,20.09,0,0,1,3.54-5.12,15.54,15.54,0,0,1,1.85-1.37,1.18,1.18,0,0,1,.46,1.41c-.3.72-.72,1.39-1,2.12a9.12,9.12,0,0,1-2,3.3c-.89.95-1.7,2-2.59,2.9a.86.86,0,0,1-.74.15c-.21-.06-.53-.4-.49-.53A13.91,13.91,0,0,1,405.49,194.46Zm-39.74,9.36a20.12,20.12,0,0,1-3.68,3.6,2.73,2.73,0,0,1-2.59.6,1.66,1.66,0,0,1,.51-1,22.17,22.17,0,0,1,7.88-5.92l0,.1Q366.85,202.51,365.75,203.82Zm77.54-18.29a16.58,16.58,0,0,1-1,1.69,16.94,16.94,0,0,1-3.59,4.53l-.23.13c1.05-3.94,3.64-7.27,5.49-10.9A8.36,8.36,0,0,1,443.29,185.53Z"/></g></g></g></g></svg>