<?xml version="1.0" encoding="utf-8"?>
<!-- Generator: Adobe Illustrator 20.1.0, SVG Export Plug-In . SVG Version: 6.00 Build 0)  -->
<svg version="1.1" id="touch-1" xmlns="http://www.w3.org/2000/svg" xmlns:xlink="http://www.w3.org/1999/xlink" x="0px" y="0px"
	 viewBox="0 0 278 75.3" style="enable-background:new 0 0 278 75.3;" xml:space="preserve">
<style type="text/css">
	.st0{fill:#4E4E56;}
</style>
<title>touch-subtext</title>
<g id="touch-group">
	<path class="st0" d="M50.2,4.2h-3.6V2.4h9.1v1.8h-3.6v9.4h-2V4.2z"/>
	<path class="st0" d="M57.9,8L57.9,8c0-3.2,2.4-5.8,5.9-5.8s5.8,2.6,5.8,5.8v0c0,3.2-2.4,5.8-5.9,5.8S57.9,11.2,57.9,8z M67.6,8
		L67.6,8c0-2.2-1.6-4-3.8-4C61.5,4,60,5.8,60,8v0c0,2.2,1.6,4,3.8,4C66,12,67.6,10.2,67.6,8z"/>
	<path class="st0" d="M73.1,8.8V2.4h2v6.4c0,2.1,1.1,3.2,2.8,3.2c1.7,0,2.8-1,2.8-3.1V2.4h2v6.4c0,3.3-1.9,5-4.8,5
		C75,13.8,73.1,12.1,73.1,8.8z"/>
	<path class="st0" d="M86.2,8L86.2,8c0-3.2,2.4-5.8,5.8-5.8c2.1,0,3.3,0.7,4.4,1.7l-1.3,1.5C94.2,4.6,93.2,4,92,4
		c-2.1,0-3.7,1.8-3.7,4v0c0,2.2,1.6,4,3.7,4c1.4,0,2.3-0.5,3.2-1.4l1.3,1.3c-1.2,1.2-2.4,2-4.5,2C88.6,13.8,86.2,11.2,86.2,8z"/>
	<path class="st0" d="M99.8,2.4h2v4.7h5.3V2.4h2v11.2h-2V8.9h-5.3v4.7h-2V2.4z"/>
	<path class="st0" d="M122.1,4.2h-3.6V2.4h9.1v1.8H124v9.4h-2V4.2z"/>
	<path class="st0" d="M130.9,2.4h2v4.7h5.3V2.4h2v11.2h-2V8.9h-5.3v4.7h-2V2.4z"/>
	<path class="st0" d="M144.4,2.4h8.3v1.8h-6.3v2.9h5.6v1.8h-5.6v3h6.4v1.8h-8.4V2.4z"/>
	<path class="st0" d="M162.5,2.4h4.4c2.6,0,4.3,1.5,4.3,3.7v0c0,2.5-2,3.8-4.5,3.8h-2.2v3.6h-2V2.4z M166.7,8.2c1.5,0,2.4-0.8,2.4-2
		v0c0-1.3-0.9-2-2.4-2h-2.3v4H166.7z"/>
	<path class="st0" d="M174.3,8.8V2.4h2v6.4c0,2.1,1.1,3.2,2.8,3.2c1.7,0,2.8-1,2.8-3.1V2.4h2v6.4c0,3.3-1.9,5-4.8,5
		C176.1,13.8,174.3,12.1,174.3,8.8z"/>
	<path class="st0" d="M187.8,2.4h5c1.4,0,2.5,0.4,3.2,1.1c0.6,0.6,0.9,1.4,0.9,2.4v0c0,1.8-1.1,2.9-2.7,3.4l3,4.2H195l-2.8-3.9h-2.5
		v3.9h-2V2.4z M192.7,7.9c1.4,0,2.3-0.7,2.3-1.9v0c0-1.2-0.9-1.9-2.3-1.9h-2.9v3.8H192.7z"/>
	<path class="st0" d="M200.7,2.4h4.4c2.6,0,4.3,1.5,4.3,3.7v0c0,2.5-2,3.8-4.5,3.8h-2.2v3.6h-2V2.4z M204.9,8.2c1.5,0,2.4-0.8,2.4-2
		v0c0-1.3-0.9-2-2.4-2h-2.3v4H204.9z"/>
	<path class="st0" d="M212.6,2.4h2v9.4h5.9v1.8h-7.9V2.4z"/>
	<path class="st0" d="M223.8,2.4h8.3v1.8h-6.3v2.9h5.6v1.8h-5.6v3h6.4v1.8h-8.4V2.4z"/>
	<path class="st0" d="M16.4,30.4h5c1.3,0,2.3,0.4,2.9,1c0.5,0.5,0.8,1.1,0.8,1.9v0c0,1.3-0.8,2.1-1.6,2.5c1.3,0.4,2.2,1.2,2.2,2.7v0
		c0,2-1.6,3.1-4.1,3.1h-5.2V30.4z M23.1,33.6c0-0.9-0.7-1.4-2-1.4h-2.8v3H21C22.3,35.1,23.1,34.6,23.1,33.6L23.1,33.6z M21.4,36.8
		h-3.1v3.1h3.3c1.3,0,2.2-0.5,2.2-1.5v0C23.7,37.3,23,36.8,21.4,36.8z"/>
	<path class="st0" d="M29,36.8v-6.5h2v6.4c0,2.1,1.1,3.2,2.8,3.2c1.7,0,2.8-1,2.8-3.1v-6.5h2v6.4c0,3.3-1.9,5-4.8,5
		C30.9,41.8,29,40.1,29,36.8z"/>
	<path class="st0" d="M45.3,32.2h-3.6v-1.8h9.1v1.8h-3.6v9.4h-2V32.2z"/>
	<path class="st0" d="M56.8,32.2h-3.6v-1.8h9.1v1.8h-3.6v9.4h-2V32.2z"/>
	<path class="st0" d="M64.5,36L64.5,36c0-3.2,2.4-5.8,5.9-5.8s5.8,2.6,5.8,5.8v0c0,3.2-2.4,5.8-5.9,5.8S64.5,39.2,64.5,36z M74.1,36
		L74.1,36c0-2.2-1.6-4-3.8-4c-2.2,0-3.8,1.8-3.8,4v0c0,2.2,1.6,4,3.8,4C72.6,40,74.1,38.2,74.1,36z"/>
	<path class="st0" d="M79.8,30.4h1.8l6,7.7v-7.7h1.9v11.2H88l-6.2-8v8h-1.9V30.4z"/>
	<path class="st0" d="M93,40l1.2-1.4c1.1,0.9,2.2,1.5,3.5,1.5c1.2,0,2-0.6,2-1.4v0c0-0.8-0.4-1.2-2.5-1.7c-2.4-0.6-3.7-1.3-3.7-3.3
		v0c0-1.9,1.6-3.2,3.8-3.2c1.6,0,2.9,0.5,4.1,1.4l-1.1,1.5c-1-0.8-2-1.2-3-1.2c-1.2,0-1.8,0.6-1.8,1.3v0c0,0.9,0.5,1.2,2.7,1.8
		c2.4,0.6,3.6,1.4,3.6,3.3v0c0,2.1-1.6,3.3-4,3.3C96,41.8,94.4,41.2,93,40z"/>
	<path class="st0" d="M111.4,30.4h5c1.3,0,2.3,0.4,2.9,1c0.5,0.5,0.8,1.1,0.8,1.9v0c0,1.3-0.8,2.1-1.6,2.5c1.3,0.4,2.2,1.2,2.2,2.7
		v0c0,2-1.6,3.1-4.1,3.1h-5.2V30.4z M118.1,33.6c0-0.9-0.7-1.4-2-1.4h-2.8v3h2.7C117.3,35.1,118.1,34.6,118.1,33.6L118.1,33.6z
		 M116.4,36.8h-3.1v3.1h3.3c1.3,0,2.2-0.5,2.2-1.5v0C118.7,37.3,118,36.8,116.4,36.8z"/>
	<path class="st0" d="M124.2,30.4h8.3v1.8h-6.3v2.9h5.6v1.8h-5.6v3h6.4v1.8h-8.4V30.4z"/>
	<path class="st0" d="M135.7,30.4h2v9.4h5.9v1.8h-7.9V30.4z"/>
	<path class="st0" d="M145.7,36L145.7,36c0-3.2,2.4-5.8,5.9-5.8s5.8,2.6,5.8,5.8v0c0,3.2-2.4,5.8-5.9,5.8S145.7,39.2,145.7,36z
		 M155.3,36L155.3,36c0-2.2-1.6-4-3.8-4c-2.2,0-3.8,1.8-3.8,4v0c0,2.2,1.6,4,3.8,4S155.3,38.2,155.3,36z"/>
	<path class="st0" d="M159.5,30.4h2.1l2.7,8.3l2.8-8.3h1.7l2.8,8.3l2.7-8.3h2.1l-3.9,11.3h-1.7l-2.8-8.1l-2.8,8.1h-1.7L159.5,30.4z"
		/>
	<path class="st0" d="M188.2,32.2h-3.6v-1.8h9.1v1.8h-3.6v9.4h-2V32.2z"/>
	<path class="st0" d="M195.9,36L195.9,36c0-3.2,2.4-5.8,5.9-5.8s5.8,2.6,5.8,5.8v0c0,3.2-2.4,5.8-5.9,5.8S195.9,39.2,195.9,36z
		 M205.5,36L205.5,36c0-2.2-1.6-4-3.8-4s-3.8,1.8-3.8,4v0c0,2.2,1.6,4,3.8,4C204,40,205.5,38.2,205.5,36z"/>
	<path class="st0" d="M217.3,30.4h4.4c2.6,0,4.3,1.5,4.3,3.7v0c0,2.5-2,3.8-4.5,3.8h-2.2v3.6h-2V30.4z M221.6,36.2
		c1.5,0,2.4-0.8,2.4-2v0c0-1.3-0.9-2-2.4-2h-2.3v4H221.6z"/>
	<path class="st0" d="M229.3,30.4h8.3v1.8h-6.3v2.9h5.6v1.8h-5.6v3h6.4v1.8h-8.4V30.4z"/>
	<path class="st0" d="M241.3,30.4h8.3v1.8h-6.3v2.9h5.6v1.8h-5.6v3h6.4v1.8h-8.4V30.4z"/>
	<path class="st0" d="M253.3,30.4h2V36l5.3-5.6h2.4l-4.7,4.8l4.9,6.4h-2.4l-3.8-5l-1.7,1.8v3.2h-2V30.4z"/>
	<path class="st0" d="M43.7,58.4h2v11.2h-2V58.4z"/>
	<path class="st0" d="M50,58.4h1.8l6,7.7v-7.7h1.9v11.2h-1.6l-6.2-8v8H50V58.4z"/>
	<path class="st0" d="M63.1,68l1.2-1.4c1.1,0.9,2.2,1.5,3.5,1.5c1.2,0,2-0.6,2-1.4v0c0-0.8-0.4-1.2-2.5-1.7
		c-2.4-0.6-3.7-1.3-3.7-3.3v0c0-1.9,1.6-3.2,3.8-3.2c1.6,0,2.9,0.5,4.1,1.4l-1.1,1.5c-1-0.8-2-1.2-3-1.2c-1.2,0-1.8,0.6-1.8,1.3v0
		c0,0.9,0.5,1.2,2.7,1.8c2.4,0.6,3.6,1.4,3.6,3.3v0c0,2.1-1.6,3.3-4,3.3C66.1,69.8,64.5,69.2,63.1,68z"/>
	<path class="st0" d="M75.5,58.4h2v11.2h-2V58.4z"/>
	<path class="st0" d="M81.8,58.4h4.2c3.5,0,6,2.4,6,5.6v0c0,3.2-2.4,5.6-6,5.6h-4.2V58.4z M83.7,60.2v7.6h2.2c2.4,0,3.9-1.6,3.9-3.8
		v0c0-2.2-1.5-3.8-3.9-3.8H83.7z"/>
	<path class="st0" d="M95.6,58.4h8.3v1.8h-6.3v2.9h5.6v1.8h-5.6v3h6.4v1.8h-8.4V58.4z"/>
	<path class="st0" d="M113.1,64L113.1,64c0-3.2,2.4-5.8,5.9-5.8s5.8,2.6,5.8,5.8v0c0,3.2-2.4,5.8-5.9,5.8S113.1,67.2,113.1,64z
		 M122.8,64L122.8,64c0-2.2-1.6-4-3.8-4c-2.2,0-3.8,1.8-3.8,4v0c0,2.2,1.6,4,3.8,4C121.2,68,122.8,66.2,122.8,64z"/>
	<path class="st0" d="M128.3,64.8v-6.5h2v6.4c0,2.1,1.1,3.2,2.8,3.2c1.7,0,2.8-1,2.8-3.1v-6.5h2v6.4c0,3.3-1.9,5-4.8,5
		C130.2,69.8,128.3,68.1,128.3,64.8z"/>
	<path class="st0" d="M141.9,58.4h5c1.4,0,2.5,0.4,3.2,1.1c0.6,0.6,0.9,1.4,0.9,2.4v0c0,1.8-1.1,2.9-2.7,3.4l3,4.2h-2.3l-2.8-3.9
		h-2.5v3.9h-2V58.4z M146.8,63.9c1.4,0,2.3-0.7,2.3-1.9v0c0-1.2-0.9-1.9-2.3-1.9h-2.9v3.8H146.8z"/>
	<path class="st0" d="M160.1,68l1.2-1.4c1.1,0.9,2.2,1.5,3.5,1.5c1.2,0,2-0.6,2-1.4v0c0-0.8-0.4-1.2-2.5-1.7
		c-2.4-0.6-3.7-1.3-3.7-3.3v0c0-1.9,1.6-3.2,3.8-3.2c1.6,0,2.9,0.5,4.1,1.4l-1.1,1.5c-1-0.8-2-1.2-3-1.2c-1.2,0-1.8,0.6-1.8,1.3v0
		c0,0.9,0.5,1.2,2.7,1.8c2.4,0.6,3.6,1.4,3.6,3.3v0c0,2.1-1.6,3.3-4,3.3C163,69.8,161.4,69.2,160.1,68z"/>
	<path class="st0" d="M171.9,64L171.9,64c0-3.2,2.4-5.8,5.8-5.8c2.1,0,3.3,0.7,4.4,1.7l-1.3,1.5c-0.9-0.8-1.9-1.4-3.1-1.4
		c-2.1,0-3.7,1.8-3.7,4v0c0,2.2,1.6,4,3.7,4c1.4,0,2.3-0.5,3.2-1.4l1.3,1.3c-1.2,1.2-2.4,2-4.5,2C174.3,69.8,171.9,67.2,171.9,64z"
		/>
	<path class="st0" d="M185.4,58.4h2v4.7h5.3v-4.7h2v11.2h-2v-4.7h-5.3v4.7h-2V58.4z"/>
	<path class="st0" d="M198.4,64L198.4,64c0-3.2,2.4-5.8,5.9-5.8s5.8,2.6,5.8,5.8v0c0,3.2-2.4,5.8-5.9,5.8S198.4,67.2,198.4,64z
		 M208,64L208,64c0-2.2-1.6-4-3.8-4c-2.2,0-3.8,1.8-3.8,4v0c0,2.2,1.6,4,3.8,4S208,66.2,208,64z"/>
	<path class="st0" d="M213.3,64L213.3,64c0-3.2,2.4-5.8,5.9-5.8s5.8,2.6,5.8,5.8v0c0,3.2-2.4,5.8-5.9,5.8S213.3,67.2,213.3,64z
		 M222.9,64L222.9,64c0-2.2-1.6-4-3.8-4c-2.2,0-3.8,1.8-3.8,4v0c0,2.2,1.6,4,3.8,4S222.9,66.2,222.9,64z"/>
	<path class="st0" d="M228.6,58.4h2v9.4h5.9v1.8h-7.9V58.4z"/>
</g>
</svg>
