<svg xmlns="http://www.w3.org/2000/svg" viewBox="0 0 21.65 17.85"><defs><style>.cls-1{fill:#4e4e56;fill-rule:evenodd;}</style></defs><title>twit</title><g id="Layer_2" data-name="Layer 2"><g id="Layer_1-2" data-name="Layer 1"><path class="cls-1" d="M5.92,17.85c0-.09-.11-.07-.17-.09a11.79,11.79,0,0,1-3.36-.62A6.54,6.54,0,0,1,0,15.82,8.61,8.61,0,0,0,6.45,14,4.34,4.34,0,0,1,2.3,10.87a2.55,2.55,0,0,0,1.85-.18A4.43,4.43,0,0,1,.61,6.36a10.23,10.23,0,0,0,1.85.53c.1-.4-.48-.54-.71-.79C.85,5.07.1,2.47,1.32.88A12.6,12.6,0,0,0,10.6,5.56C10.13,2.29,11.9.51,14.49,0h1c.28.12,1.07.23,1.5.44s1,.92,1.5,1c.93.09,1.59-.78,2.56-.88a5.17,5.17,0,0,1-1.24,1.85c-.14.13-.75.25-.44.44a16.09,16.09,0,0,0,2.3-.62c-.33.35-.52.76-.88,1.15s-1.18.75-1.33,1.24a7.17,7.17,0,0,0,0,1.5,12.88,12.88,0,0,1-3.71,8,12.77,12.77,0,0,1-8.22,3.71Z"/></g></g></svg>